<svg xmlns="http://www.w3.org/2000/svg" xmlns:xlink="http://www.w3.org/1999/xlink" preserveAspectRatio="xMidYMid" width="18" height="33" viewBox="0 0 18 33">
  <defs>
    <style>

      .cls-2 {
        fill: #ffffff;
      }
    </style>
  </defs>
  <path d="M10.208,28.076 C10.208,28.076 10.208,31.902 10.208,31.902 C10.208,31.902 13.230,31.902 13.230,31.902 C13.230,31.902 13.230,32.872 13.230,32.872 C13.230,32.872 10.208,32.872 10.208,32.872 C10.208,32.872 7.129,32.872 7.129,32.872 C7.129,32.872 4.090,32.872 4.090,32.872 C4.090,32.872 4.090,31.902 4.090,31.902 C4.090,31.902 7.129,31.902 7.129,31.902 C7.129,31.902 7.129,28.078 7.129,28.078 C3.077,27.354 -0.002,23.820 -0.002,19.559 C-0.002,19.559 -0.002,11.655 -0.002,11.655 C0.629,11.180 1.296,10.751 2.001,10.383 C2.001,10.383 2.001,19.554 2.001,19.554 C2.001,19.554 2.002,19.554 2.002,19.554 C2.002,19.555 2.001,19.556 2.001,19.557 C2.001,23.235 4.983,26.216 8.661,26.216 C12.339,26.216 15.321,23.235 15.321,19.557 C15.321,19.556 15.320,19.555 15.320,19.554 C15.320,19.554 15.321,19.554 15.321,19.554 C15.321,19.554 15.321,10.383 15.321,10.383 C16.026,10.751 16.692,11.180 17.324,11.655 C17.324,11.655 17.324,19.559 17.324,19.559 C17.324,23.814 14.253,27.346 10.208,28.076 ZM8.661,24.315 C5.953,24.315 3.758,22.120 3.758,19.412 C3.758,19.412 3.758,4.905 3.758,4.905 C3.758,2.197 5.953,0.002 8.661,0.002 C11.369,0.002 13.564,2.197 13.564,4.905 C13.564,4.905 13.564,19.412 13.564,19.412 C13.564,22.120 11.369,24.315 8.661,24.315 Z" id="path-1" class="cls-2" fill-rule="evenodd"/>
</svg>
