<?xml version="1.0" encoding="UTF-8" standalone="no"?>
<!-- Generator: Adobe Illustrator 18.1.1, SVG Export Plug-In . SVG Version: 6.00 Build 0)  -->

<svg
   xmlns:dc="http://purl.org/dc/elements/1.1/"
   xmlns:cc="http://creativecommons.org/ns#"
   xmlns:rdf="http://www.w3.org/1999/02/22-rdf-syntax-ns#"
   xmlns:svg="http://www.w3.org/2000/svg"
   xmlns="http://www.w3.org/2000/svg"
   xmlns:sodipodi="http://sodipodi.sourceforge.net/DTD/sodipodi-0.dtd"
   xmlns:inkscape="http://www.inkscape.org/namespaces/inkscape"
   version="1.1"
   id="Layer_1"
   inkscape:version="0.91 r13725"
   sodipodi:docname="Alert_Icon.svg"
   x="0px"
   y="0px"
   width="30px"
   height="30px"
   viewBox="-9 11 30 30"
   enable-background="new -9 11 30 30"
   xml:space="preserve"><metadata
     id="metadata3392"><rdf:RDF><cc:Work
         rdf:about=""><dc:format>image/svg+xml</dc:format><dc:type
           rdf:resource="http://purl.org/dc/dcmitype/StillImage" /><dc:title></dc:title></cc:Work></rdf:RDF></metadata><defs
     id="defs3390" /><sodipodi:namedview
     id="namedview3969"
     inkscape:cy="15"
     guidetolerance="10"
     borderopacity="1"
     inkscape:cx="15"
     inkscape:zoom="7.8666667"
     objecttolerance="10"
     pagecolor="#ffffff"
     bordercolor="#666666"
     showgrid="false"
     gridtolerance="10"
     inkscape:pageopacity="0"
     inkscape:pageshadow="2"
     inkscape:window-width="967"
     inkscape:window-height="764"
     inkscape:window-x="114"
     inkscape:window-y="0"
     inkscape:window-maximized="0"
     inkscape:current-layer="Layer_1" /><g
     id="g3412"
     transform="matrix(1.25,0,0,1.25,-1.5,-6.5)"><g
       id="g3414"><circle
         id="ellipse3416"
         cx="6"
         cy="26"
         r="12"
         style="fill:#b90000" /></g></g><path
     id="path3426"
     d="M 4.625,34.5 C 5,34.875 5.5,35.125 6,35.125 c 0.625,0 1.125,-0.25 1.5,-0.625 0.375,-0.375 0.625,-0.875 0.625,-1.375 0,-0.625 -0.25,-1 -0.625,-1.375 C 7.125,31.25 6.5,31 5.875,31 5.25,31 4.875,31.25 4.5,31.625 4.125,32 3.875,32.5 3.875,33 4,33.625 4,34.125 4.625,34.5 Z M 7.375,28.625 8,16.875 l -3.5,0 0.25,11.75 2.625,0 z"
     inkscape:connector-curvature="0"
     style="fill:#ffffff" /></svg>