<?xml version="1.0" encoding="UTF-8" standalone="no"?>
<!-- Created with Inkscape (http://www.inkscape.org/) -->
<svg xmlns:dc="http://purl.org/dc/elements/1.1/" xmlns:cc="http://creativecommons.org/ns#" xmlns:rdf="http://www.w3.org/1999/02/22-rdf-syntax-ns#" xmlns:svg="http://www.w3.org/2000/svg" xmlns="http://www.w3.org/2000/svg" xmlns:sodipodi="http://sodipodi.sourceforge.net/DTD/sodipodi-0.dtd" xmlns:inkscape="http://www.inkscape.org/namespaces/inkscape" width="600" height="600" id="svg4110" version="1.1" inkscape:version="0.48.1 " sodipodi:docname="新規ドキュメント 12">
  <defs id="defs4112"/>
  <sodipodi:namedview id="base" pagecolor="#ffffff" bordercolor="#666666" borderopacity="1.0" inkscape:pageopacity="0.0" inkscape:pageshadow="2" inkscape:zoom="0.24748737" inkscape:cx="-205.04231" inkscape:cy="579.64317" inkscape:document-units="px" inkscape:current-layer="layer1" showgrid="false" inkscape:window-width="1024" inkscape:window-height="715" inkscape:window-x="-8" inkscape:window-y="-8" inkscape:window-maximized="1"/>
  <metadata id="metadata4115">
    <rdf:RDF>
      <cc:Work rdf:about="">
        <dc:format>image/svg+xml</dc:format>
        <dc:type rdf:resource="http://purl.org/dc/dcmitype/StillImage"/>
        <dc:title/>
      </cc:Work>
    </rdf:RDF>
  </metadata>
  <g inkscape:label="レイヤー 1" inkscape:groupmode="layer" id="layer1" transform="translate(0,-452.36218)">
    <g transform="matrix(1.0871732,0,0,1.0871732,-155.7732,195.33037)" style="display:inline" id="g4087">
      <path sodipodi:nodetypes="ccccc" inkscape:connector-curvature="0" id="rect4002" d="m 301.42856,312.42213 372.68414,-76 0,103.92858 -372.68414,76 z" style="fill:#000000;fill-opacity:1;fill-rule:nonzero;stroke:none"/>
      <rect y="312.34177" x="301.42856" height="388.5" width="60" id="rect3964" style="fill:#000000;fill-opacity:1;fill-rule:nonzero;stroke:none"/>
      <path transform="matrix(0.77274066,-0.20705524,0.24886447,0.92877483,273.33148,240.33751)" d="m -40,470.36218 c 0,43.07821 -55.964406,78 -125,78 -69.03559,0 -125,-34.92179 -125,-78 0,-43.07821 55.96441,-78 125,-78 69.035594,0 125,34.92179 125,78 z" sodipodi:ry="78" sodipodi:rx="125" sodipodi:cy="470.36218" sodipodi:cx="-165" id="path4005" style="fill:#000000;fill-opacity:1;fill-rule:nonzero;stroke:none" sodipodi:type="arc"/>
      <rect y="248.87701" x="614.11267" height="388.5" width="60" id="rect3964-3" style="fill:#000000;fill-opacity:1;fill-rule:nonzero;stroke:none;display:inline"/>
      <path transform="matrix(0.77274066,-0.20705524,0.24886447,0.92877483,586.01559,176.87275)" d="m -40,470.36218 c 0,43.07821 -55.964406,78 -125,78 -69.03559,0 -125,-34.92179 -125,-78 0,-43.07821 55.96441,-78 125,-78 69.035594,0 125,34.92179 125,78 z" sodipodi:ry="78" sodipodi:rx="125" sodipodi:cy="470.36218" sodipodi:cx="-165" id="path4005-7" style="fill:#000000;fill-opacity:1;fill-rule:nonzero;stroke:none;display:inline" sodipodi:type="arc"/>
    </g>
  </g>
</svg>