<svg xmlns="http://www.w3.org/2000/svg" viewBox="0 0 84 84" width="84" height="84"><linearGradient id="a" gradientUnits="userSpaceOnUse" x1="42" x2="42" y2="84"><stop offset="0" stop-color="#E5EBEF"/><stop offset="1" stop-color="#EDF1F4"/></linearGradient><path fill="url(#a)" d="M42 0c23.3 0 42 18.8 42 42 0 23.3-18.8 42-42 42-23.1.1-42-18.7-42-42C0 18.8 18.9 0 42 0z"/><path fill="#9AB0C0" d="M41.5 25.9c-.9 0-2.5 2.6-3.5 5.7 1.1-.2 2.3-.3 3.6-.3 1.2 0 2.4.1 3.4.3-1-3.1-2.6-5.7-3.5-5.7M43 53.3h2.2c.3.9.4 2 .4 3.1 0 4-3.1 7.2-4.1 7.2s-4.1-3.2-4.1-7.2c0-1.1.1-2.2.4-3.1H40c-.2.5-.3 1.2-.3 1.9 0 1.8 1.4 3.3 1.9 3.3s1.9-1.5 1.9-3.3c-.2-.7-.3-1.4-.5-1.9M26.1 40l5.9-5.9c1.7-8.6 6.9-17.2 9.5-17.2s7.8 8.7 9.5 17.2l5.9 5.9v15.4h-4.1l-5.7-5.7c-.6.6-1.2 1.1-1.9 1.5h-7.3c-.7-.4-1.3-.9-1.9-1.5l-5.7 5.7h-4.1L26.1 40"/></svg>
