<?xml version="1.0" encoding="utf-8"?>
<!-- Generator: Adobe Illustrator 18.0.0, SVG Export Plug-In . SVG Version: 6.00 Build 0)  -->
<!DOCTYPE svg PUBLIC "-//W3C//DTD SVG 1.1//EN" "http://www.w3.org/Graphics/SVG/1.1/DTD/svg11.dtd">
<svg version="1.1" xmlns="http://www.w3.org/2000/svg" xmlns:xlink="http://www.w3.org/1999/xlink" x="0px" y="0px" width="54px"
	 height="54px" viewBox="0 0 54 54" enable-background="new 0 0 54 54" xml:space="preserve">
<g id="Layer_40" display="none">
	<rect x="-274.333" y="-526" display="inline" fill="#464445" width="691.333" height="784"/>
</g>
<g id="Layer_6">
</g>
<g id="Dark">
	<g>
		<g>
			<path fill-rule="evenodd" clip-rule="evenodd" fill="#1D1D1B" d="M33.59,16.501c-0.176-1.671-1.595-2.786-3.341-2.786H16.746
				c-1.864,0-3.061,1.264-3.061,3.128v13.504c0,1.738,1.162,3.154,2.83,3.339V20.219c0-1.864,1.534-3.718,3.398-3.718H33.59z
				 M36.814,18.595H22.328c-1.968,0-3.716,2.094-3.716,4.062v14.297c0,1.968,1.748,3.332,3.716,3.332h14.485
				c1.968,0,3.502-1.364,3.502-3.332V22.656C40.315,20.688,38.782,18.595,36.814,18.595z M35.394,30.061
				c0,0.499-0.405,1.127-0.904,1.127h-3.981v4.006c0,0.499-0.602,0.904-1.102,0.904h-0.524c-0.5,0-1.189-0.405-1.189-0.904v-4.006
				h-4c-0.5,0-0.904-0.628-0.904-1.127v-0.452c0-0.5,0.405-1.232,0.904-1.232h4v-3.982c0-0.5,0.689-0.904,1.189-0.904h0.524
				c0.5,0,1.102,0.404,1.102,0.904v3.982h3.981c0.5,0,0.904,0.732,0.904,1.232V30.061z"/>
		</g>
	</g>
</g>
<g id="Layer_5" display="none">
	<path display="inline" opacity="0.3" fill-rule="evenodd" clip-rule="evenodd" fill="#E30613" d="M0,0v54h54V0H0z M47,47H7V7h40V47
		z"/>
</g>
<g id="name" display="none">
	<text transform="matrix(1 0 0 1 4.1891 51.1551)" display="inline" fill="#646363" font-family="'UniversLTStd-Cn'" font-size="8">add-tab</text>
</g>
<g id="Title" display="none">
</g>
</svg>
