<?xml version="1.0" encoding="utf-8"?>
<!-- Generator: Adobe Illustrator 18.0.0, SVG Export Plug-In . SVG Version: 6.00 Build 0)  -->
<!DOCTYPE svg PUBLIC "-//W3C//DTD SVG 1.1//EN" "http://www.w3.org/Graphics/SVG/1.1/DTD/svg11.dtd">
<svg version="1.1" xmlns="http://www.w3.org/2000/svg" xmlns:xlink="http://www.w3.org/1999/xlink" x="0px" y="0px" width="54px"
	 height="54px" viewBox="0 0 54 54" enable-background="new 0 0 54 54" xml:space="preserve">
<g id="Layer_40" display="none">
	<rect x="-52.333" y="-526" display="inline" fill="#464445" width="691.333" height="784"/>
</g>
<g id="Layer_6">
</g>
<g id="Dark">
	<path fill="#1D1D1B" d="M37.209,30.338c0.622-1.237,1.562-4.018,0.758-6.292c0.006,0.022,0.011,0.044,0.017,0.066
		c-0.009-0.027-0.014-0.041-0.014-0.041s-0.151,0.455-0.363,1.158c-0.014-0.094-0.029-0.187-0.046-0.28
		c0.059-0.854,0.035-1.773-0.138-2.646c-0.273-1.381-1.34-2.58-1.904-2.967c0.028,0.021,0.057,0.046,0.087,0.073
		c-0.064-0.05-0.103-0.076-0.103-0.076s0.023,0.126,0.064,0.349c-0.612-0.962-1.544-1.415-1.544-1.415s0.029,0.161,0.075,0.498
		c-1.91-1.7-4.426-2.733-7.184-2.733c-2.806,0-5.363,1.069-7.285,2.823c0.106,0.127,0.216,0.274,0.33,0.445
		c0,0,0.731-0.131,1.622-0.046c1.55-1.095,3.397-1.684,5.333-1.684c2.477,0,4.806,0.965,6.558,2.718
		c0.092,0.092,0.18,0.185,0.268,0.28c-0.526-0.396-1.162-0.725-1.634-0.761c0.965,0.717,2.399,2.509,2.251,5.661
		c-0.247-0.519-0.544-0.927-0.866-1.211c0.346,3.164,0.043,3.844-0.167,4.685c-0.046-0.386-0.186-0.677-0.266-0.853
		c0,0-0.037,0.989-0.68,2.398c-0.487,1.067-0.989,1.397-1.212,1.36c-0.197-0.033-0.062-0.222-0.099-0.408
		c0,0-0.334,0.161-0.668,0.507c-0.316,0.327-0.6,0.69-0.748,0.587c0.111-0.093,0.192-0.247,0.278-0.389
		c-0.124,0.087-0.439,0.321-1.144,0.426c-0.288,0.043-1.515,0.266-3.147-0.55c0.238-0.027,0.593-0.111,0.865,0.049
		c-0.272-0.297-0.927-0.235-1.397-0.383c-0.409-0.129-0.944-0.704-1.251-0.994c1.255,0.307,2.589,0.086,3.361-0.442
		c0.779-0.533,1.24-0.922,1.654-0.829c0.414,0.092,0.689-0.323,0.368-0.691c-0.322-0.369-1.103-0.876-2.16-0.599
		c-0.745,0.195-1.669,1.019-3.078,0.185c-1.203-0.712-1.195-1.291-1.195-1.66c0-0.253,0.154-0.595,0.443-0.756
		c0.156,0.056,0.253,0.107,0.253,0.107s-0.072-0.111-0.118-0.165c0.011-0.003,0.022-0.006,0.033-0.009
		c0.127,0.043,0.414,0.149,0.559,0.222c0.196,0.099,0.263,0.199,0.263,0.199s0.046-0.029-0.002-0.13
		c-0.02-0.042-0.09-0.164-0.285-0.282c0.004,0,0.007,0,0.01-0.001c0.102,0.04,0.21,0.092,0.33,0.159
		c0.037-0.173,0.112-0.353,0.062-0.667c-0.035-0.221-0.031-0.278-0.087-0.359c-0.047-0.069,0.012-0.099,0.087-0.037
		c-0.018-0.055-0.043-0.109-0.072-0.164c0-0.001,0.001-0.002,0.001-0.003c0.004-0.017,0.014-0.036,0.029-0.058
		c0.23-0.319,1.665-1.072,1.779-1.157c0.141-0.104,0.284-0.257,0.391-0.435c0.146-0.091,0.25-0.466,0.277-0.749
		c0.011-0.113-0.235-0.247-0.365-0.272c-0.074-0.019-0.335-0.063-0.525-0.031c0.008,0.004,0.018,0.009,0.029,0.014
		c-0.266-0.017-0.625-0.024-1.11-0.02c-0.475,0.004-0.783-0.273-0.969-0.536c-0.037-0.056-0.07-0.11-0.1-0.158
		c-0.041-0.074-0.072-0.14-0.094-0.193c0.207-0.752,0.626-1.403,1.273-1.931c0.04-0.032-0.154,0.023-0.117-0.012
		c0.044-0.041,0.318-0.172,0.369-0.201c0.067-0.037-0.298-0.136-0.611-0.071c-0.312,0.065-0.374,0.102-0.535,0.185
		c0.065-0.068,0.277-0.175,0.226-0.164c-0.341,0.076-0.741,0.3-1.082,0.541c-0.003-0.031,0-0.055,0.006-0.105
		c-0.161,0.084-0.55,0.383-0.649,0.612c0-0.049,0-0.074-0.006-0.13c-0.111,0.102-0.217,0.221-0.313,0.354
		c-0.001,0.002-0.003,0.003-0.004,0.005c-1.013-0.252-1.874-0.191-2.593,0.04c-0.24-0.194-0.605-0.54-0.882-0.988
		c-0.026-0.041-0.029,0.092-0.052,0.049c-0.156-0.279-0.289-0.737-0.323-1.1c-0.003-0.036-0.006-0.072-0.007-0.106
		c0,0-0.133,0.078-0.276,0.316c-0.064,0.106-0.129,0.244-0.186,0.422c-0.032,0.102-0.056,0.162-0.079,0.218
		c-0.007,0.018,0.014-0.185,0.006-0.168c-0.035,0.072-0.135,0.185-0.167,0.315c-0.025,0.098-0.064,0.157-0.079,0.28
		c-0.001,0.002-0.002,0.004-0.003,0.006c-0.003-0.03-0.005-0.143-0.013-0.121c-0.083,0.218-0.16,0.468-0.221,0.751
		c-0.053,0.208-0.094,0.444-0.118,0.713c-0.027,0.308-0.031,0.658-0.003,1.057c-0.001,0.062-0.003,0.119-0.005,0.175
		c-0.273,0.376-0.439,0.7-0.508,0.859c-0.333,0.648-0.674,1.646-0.948,3.195c0,0,0.181-0.574,0.545-1.229
		c-0.001,0.008-0.003,0.017-0.004,0.025c-0.266,0.834-0.47,2.119-0.347,4.03c0.005-0.064,0.062-0.554,0.207-1.216
		c0.07,1.292,0.44,2.865,1.446,4.587c0.739,1.265,1.608,2.214,2.58,2.92c0.179,0.144,0.363,0.282,0.551,0.415
		c1.203,0.877,3.073,1.957,4.667,2.187c-0.557-0.161-0.903-0.482-0.903-0.482s1.895,0.608,3.277,0.556
		c-0.433-0.074-0.52-0.284-0.52-0.284s3.938,0.222,5.983-1.393c0.458-0.345,0.759-0.744,0.849-1.109
		c0.603-0.321,1.254-0.759,1.923-1.417c1.113-1.095,1.234-1.928,1.354-2.707c-0.004,0.024-0.01,0.049-0.015,0.073
		C37.366,30.815,37.332,30.54,37.209,30.338z"/>
</g>
<g id="Layer_5" display="none">
	<path display="inline" opacity="0.3" fill-rule="evenodd" clip-rule="evenodd" fill="#E30613" d="M0,0v54h54V0H0z M47,47H7V7h40V47
		z"/>
</g>
<g id="name" display="none">
	<text transform="matrix(1 0 0 1 4.3136 51.1551)" display="inline" fill="#646363" font-family="'UniversLTStd-Cn'" font-size="8">default-fav </text>
</g>
<g id="Title" display="none">
</g>
</svg>
