<?xml version="1.0" encoding="utf-8"?>
<!-- Generator: Adobe Illustrator 18.0.0, SVG Export Plug-In . SVG Version: 6.00 Build 0)  -->
<!DOCTYPE svg PUBLIC "-//W3C//DTD SVG 1.1//EN" "http://www.w3.org/Graphics/SVG/1.1/DTD/svg11.dtd">
<svg version="1.1" xmlns="http://www.w3.org/2000/svg" xmlns:xlink="http://www.w3.org/1999/xlink" x="0px" y="0px" width="54px"
	 height="54px" viewBox="0 0 54 54" enable-background="new 0 0 54 54" xml:space="preserve">
<g id="Layer_40" display="none">
	<rect x="-52.333" y="-452" display="inline" fill="#464445" width="691.333" height="784"/>
</g>
<g id="Layer_6">
</g>
<g id="Dark">
	<g>
		<g>
			<path fill-rule="evenodd" clip-rule="evenodd" fill="#5F6368" d="M39.701,24.33c-0.953-7.119-7.035-12.616-14.416-12.616
				c-8.041,0-14.56,6.52-14.56,14.561c0,8.042,6.519,14.56,14.56,14.56c4.022,0,7.663-1.63,10.298-4.266l-2.231-2.231
				c-2.064,2.065-4.916,3.343-8.067,3.343c-6.299,0-11.405-5.107-11.405-11.405c0-6.299,5.106-11.405,11.405-11.405
				c5.622,0,10.282,4.071,11.222,9.423c-1.445,0.126-2.765,0.437-3.866,0.883l4.343,4.343c0.539,0.539,1.413,0.539,1.951,0
				l4.339-4.338C42.251,24.763,41.03,24.472,39.701,24.33z"/>
		</g>
	</g>
</g>
<g id="Layer_5" display="none">
	<path display="inline" opacity="0.3" fill-rule="evenodd" clip-rule="evenodd" fill="#E30613" d="M0,0v54h54V0H0z M47,47H7V7h40V47
		z"/>
</g>
<g id="name" display="none">
	<text transform="matrix(1 0 0 1 4.1891 50.4886)" display="inline" fill="#646363" font-family="'UniversLTStd-Cn'" font-size="8">reload</text>
</g>
<g id="Title" display="none">
</g>
</svg>
