<svg xmlns="http://www.w3.org/2000/svg" width="40" height="40" viewBox="-5 -5 40 40" enable-background="new -5 -5 40 40"><path fill="#575757" d="M28.369 12.188h-3.555v3.614c-.711.18-.969.18-1.681-.001v-3.613h-3.551c-.174-.726-.172-.986.002-1.71h3.549v-3.608c.712-.178.97-.179 1.681-.002v3.61h3.555c.174.723.174.984 0 1.71zm-16.954.818c-3.124 0-5.656-2.576-5.656-5.752 0-3.179 2.532-5.753 5.656-5.753 3.123 0 5.653 2.574 5.653 5.752 0 3.177-2.53 5.753-5.653 5.753zm0 5.961l4.324-4.396c3.303 1.142 5.584 3.54 5.584 6.323h.006c0 2.793-.547 5.394-1.478 7.605h-16.875c-.93-2.213-1.475-4.811-1.475-7.604h.005v-.002c0-2.783 2.282-5.185 5.586-6.324l4.323 4.398z"/></svg>