<svg xmlns="http://www.w3.org/2000/svg" width="40" height="40" viewBox="-5 -5 40 40" enable-background="new -5 -5 40 40"><path fill="#fff" enable-background="new" d="M28.369 12.189h-3.555v3.613c-.711.178-.969.178-1.684-.001v-3.612h-3.55c-.174-.727-.172-.987.002-1.711h3.549v-3.608c.715-.178.973-.179 1.684-.002v3.61h3.555c.173.723.173.984-.001 1.711zm-16.955.817c-3.124 0-5.656-2.576-5.656-5.752 0-3.179 2.532-5.753 5.656-5.753 3.123 0 5.654 2.574 5.654 5.752 0 3.177-2.531 5.753-5.654 5.753zm0 5.961l4.324-4.396c3.303 1.141 5.584 3.54 5.584 6.323h.005c0 2.793-.546 5.395-1.476 7.605h-16.875c-.931-2.213-1.476-4.811-1.476-7.603h.005v-.002c0-2.783 2.282-5.184 5.586-6.324l4.323 4.397z"/></svg>