<svg xmlns="http://www.w3.org/2000/svg" width="30" height="20" viewBox="0 0 30 20"><path fill="#94eee9" d="M24.943 20h-15.173c-1.604 0-3.019-.753-3.945-1.905l-.014.015-.146-.205-.132-.185-5.533-7.731 5.811-8.117.023.022c.927-1.145 2.336-1.894 3.936-1.894h15.173c2.793 0 5.057 2.239 5.057 5v10.001c0 2.763-2.264 4.999-5.057 4.999zm-5.779-9.967l-.077-.055.101-.062.016-.013 3.093-3.056c-.235-.918-.571-1.752-.983-2.477l-3.941 3.896-3.963-3.912c-.412.722-.751 1.552-.987 2.467l3.138 3.1-.004.003.076.055-.099.062-.017.013-3.106 3.071c.236.927.571 1.768.987 2.496l3.954-3.909 3.959 3.914c.414-.728.75-1.565.986-2.49l-3.136-3.1.003-.003z"/></svg>