<svg xmlns="http://www.w3.org/2000/svg" width="22" height="11" viewBox="4 9.5 22 11" enable-background="new 4 9.5 22 11"><path fill="#3cc" d="M21.123 20.475l-.001.025h-12.245v-.025c-2.693 0-4.877-2.455-4.877-5.487 0-3.031 2.184-5.488 4.877-5.488s4.877 2.457 4.877 5.488c0 1.503-.539 2.866-1.409 3.855h5.311c-.871-.989-1.409-2.353-1.409-3.855 0-3.031 2.185-5.488 4.877-5.488s4.876 2.457 4.876 5.488c0 3.032-2.184 5.487-4.877 5.487zm-12.246-9.146c-1.795 0-3.251 1.638-3.251 3.659 0 2.02 1.456 3.659 3.251 3.659 1.796 0 3.251-1.64 3.251-3.659 0-2.021-1.455-3.659-3.251-3.659zm12.246 0c-1.796 0-3.252 1.638-3.252 3.659 0 2.02 1.456 3.659 3.252 3.659 1.795 0 3.251-1.64 3.251-3.659 0-2.021-1.456-3.659-3.251-3.659z"/></svg>