<svg xmlns="http://www.w3.org/2000/svg" width="30" height="30" viewBox="0 0 30 30"><path fill="#aaa" d="M26.732 13.167l.002.005-5.37 4.893 1.353 7.003-.008.005c.054.288-.055.594-.318.778-.267.186-.61.191-.88.046l-.005.004-6.506-3.394-6.506 3.394-.006-.004c-.27.145-.614.14-.88-.046-.263-.184-.373-.49-.318-.778l-.007-.005 1.353-7.003-5.37-4.892.002-.006c-.228-.202-.33-.518-.228-.821.102-.3.375-.497.681-.534l.002-.006 7.343-.927 3.184-6.415h.007c.129-.273.411-.464.743-.464s.615.191.744.464h.005l3.184 6.415 7.344.927.002.007c.306.037.579.233.681.534.102.302.001.618-.228.82z"/></svg>