<?xml version="1.0" encoding="iso-8859-1"?>
<!-- Generator: Adobe Illustrator 19.1.0, SVG Export Plug-In . SVG Version: 6.00 Build 0)  -->
<!DOCTYPE svg PUBLIC "-//W3C//DTD SVG 1.1//EN" "http://www.w3.org/Graphics/SVG/1.1/DTD/svg11.dtd">
<svg version="1.1" id="Layer_1" xmlns="http://www.w3.org/2000/svg" xmlns:xlink="http://www.w3.org/1999/xlink" x="0px" y="0px"
	 viewBox="-223 225 64 64" enable-background="new -223 225 64 64" xml:space="preserve">
<g>
	<g>
		<path fill="#02C5ED" d="M-188,256.9l6.4-6.4c1.4-1.4,1.4-3.7,0-5.1L-193,234l-0.2,17.8l-7.6-7.5c-0.1-0.1-0.1-0.1-0.2-0.2h-0.4
			c-0.4,1.2-0.8,2.4-1.1,3.7l9.2,9.2l-9.2,9.1c0.3,1.3,0.7,2.5,1.1,3.7h0.4c0.1-0.1,0.1-0.1,0.2-0.2l7.6-7.5V280l11.6-11.5
			c1.4-1.4,1.4-3.7,0-5.1L-188,256.9z M-189.4,242.9l4.2,4.2l0,0c0.5,0.5,0.5,1.2,0,1.7l0,0l-4.3,4.3v-10.2H-189.4z M-185,266.7
			l-4.3,4.3v-10.2l4.2,4.2l0,0C-184.6,265.5-184.6,266.2-185,266.7L-185,266.7z"/>
	</g>
</g>
</svg>
