<svg xmlns="http://www.w3.org/2000/svg" width="40" height="40" viewBox="0 0 40 40"><path fill-rule="evenodd" clip-rule="evenodd" fill="#fff" d="M29.977 23.115c-.139-.972-.309-1.923-.535-2.823l-.037-.161-.02-.089h-.014c-.652-1.947-4.592-3.445-9.367-3.445-4.775 0-8.716 1.498-9.371 3.445h-.011l-.023.091-.034.156c-.226.903-.395 1.852-.536 2.826l-10.029.671c.154-2.311.576-4.536 1.259-6.614 4.031-3.061 10.915-5.076 18.735-5.076 7.83 0 14.718 2.019 18.75 5.083.68 2.076 1.102 4.299 1.256 6.607l-10.023-.671zm-3.692 3.981h-12.581c-2.328 0-4.353-1.4-5.441-3.474h23.466c-1.09 2.073-3.116 3.474-5.444 3.474z"/></svg>