<svg xmlns="http://www.w3.org/2000/svg" width="40" height="40" viewBox="0 0 40 40"><path fill="#575757" d="M15.965 8.774l-.016.013c-.073.315-.352.555-.699.556h-1.781c-.348-.001-.626-.241-.7-.556l-.017-.013c-.135-.679-.227-1.449-.263-2.275h3.74c-.037.827-.13 1.597-.264 2.275zm5.642 0l-.017.014c-.072.315-.354.555-.699.556h-1.782c-.348-.001-.625-.241-.698-.556l-.017-.013c-.135-.679-.227-1.449-.263-2.275h3.74c-.037.826-.129 1.596-.264 2.274zm5.643 0l-.018.013c-.074.315-.353.555-.698.556h-1.782c-.348-.001-.625-.241-.699-.556l-.017-.013c-.134-.679-.228-1.449-.263-2.275h3.74c-.036.827-.129 1.597-.263 2.275zm-11.285 6.012l-.016.012c-.073.314-.352.555-.699.556l-.001.001h-1.78v-.001c-.348-.001-.626-.241-.7-.556l-.017-.012c-.134-.681-.226-1.449-.263-2.275h3.74c-.037.825-.13 1.593-.264 2.275zm5.642 0l-.018.012c-.072.314-.354.555-.699.556v.001h-1.78l-.001-.001c-.348-.001-.625-.241-.698-.556l-.017-.012c-.135-.681-.227-1.449-.263-2.275h3.74c-.037.825-.129 1.593-.264 2.275zm5.643 0l-.018.012c-.074.314-.353.555-.698.556l-.001.001h-1.78l-.001-.001c-.348-.001-.625-.241-.699-.556l-.017-.012c-.134-.681-.228-1.449-.263-2.275h3.74c-.036.825-.129 1.593-.263 2.275zm-11.285 6.009l-.016.013c-.073.315-.352.556-.699.558h-1.781c-.348-.002-.626-.24-.7-.558l-.017-.013c-.134-.681-.226-1.448-.263-2.275h3.74c-.037.827-.13 1.594-.264 2.275zm5.642 0l-.018.013c-.072.315-.354.556-.699.558h-1.782c-.348-.002-.625-.24-.698-.558l-.017-.013c-.135-.681-.227-1.448-.263-2.275h3.74c-.036.827-.128 1.594-.263 2.275zm5.643 0l-.018.013c-.074.315-.353.556-.698.558h-1.782c-.348-.002-.625-.24-.699-.558l-.017-.013c-.134-.681-.228-1.448-.263-2.275h3.74c-.036.827-.129 1.594-.263 2.275zm.75 5.787l-6.537 6.33c-.809.785-2.123.785-2.934 0l-6.529-6.322v-.025h16v.017z"/></svg>