<svg xmlns="http://www.w3.org/2000/svg" width="512" height="512"><path d="M503.5 256c0 136.69-110.81 247.5-247.5 247.5S8.5 392.69 8.5 256 119.31 8.5 256 8.5 503.5 119.31 503.5 256z" fill-opacity=".2"/><path d="M170.564 155.268c-13.73 0-24.863 11.132-24.863 24.833 0 13.743 11.135 24.864 24.835 24.864 13.73 0 24.863-11.106 24.863-24.836 0-13.728-11.133-24.86-24.834-24.86zm83.712 0c-13.728 0-24.863 11.132-24.863 24.833 0 13.743 11.135 24.864 24.834 24.864 13.73 0 24.863-11.106 24.863-24.836 0-13.728-11.133-24.86-24.834-24.86zm83.712 0c-13.714 0-24.863 11.132-24.863 24.833 0 13.743 11.162 24.864 24.835 24.864 13.73 0 24.862-11.106 24.862-24.836 0-13.728-11.132-24.86-24.834-24.86zm-167.424 69.76c-13.73 0-24.863 11.133-24.863 24.835 0 13.742 11.135 24.833 24.835 24.833 13.73 0 24.863-11.094 24.863-24.836 0-13.7-11.133-24.834-24.834-24.834zm83.712 0c-13.728 0-24.863 11.133-24.863 24.835 0 13.742 11.135 24.833 24.834 24.833 13.73 0 24.863-11.094 24.863-24.836 0-13.7-11.133-24.834-24.834-24.834zm83.712 0c-13.714 0-24.863 11.133-24.863 24.835 0 13.742 11.162 24.833 24.835 24.833 13.73 0 24.862-11.094 24.862-24.836 0-13.7-11.132-24.834-24.834-24.834zm-167.424 69.76c-13.73 0-24.863 11.133-24.863 24.835 0 13.7 11.135 24.834 24.835 24.834 13.73 0 24.863-11.106 24.863-24.836 0-13.727-11.133-24.833-24.834-24.833zm83.712 0c-13.728 0-24.863 11.133-24.863 24.835 0 13.7 11.135 24.834 24.834 24.834 13.73 0 24.863-11.106 24.863-24.836 0-13.727-11.133-24.833-24.834-24.833zm83.712 0c-13.714 0-24.863 11.133-24.863 24.835 0 13.7 11.162 24.834 24.835 24.834 13.73 0 24.862-11.106 24.862-24.836 0-13.727-11.132-24.833-24.834-24.833zm-167.424 69.76c-13.73 0-24.863 11.132-24.863 24.833 0 13.702 11.135 24.837 24.835 24.837 13.73 0 24.863-11.107 24.863-24.836 0-13.727-11.133-24.833-24.834-24.833zm83.712 0c-13.728 0-24.863 11.132-24.863 24.833 0 13.702 11.135 24.837 24.834 24.837 13.73 0 24.863-11.107 24.863-24.836 0-13.727-11.133-24.833-24.834-24.833zm83.712 0c-13.714 0-24.863 11.132-24.863 24.833 0 13.702 11.162 24.837 24.835 24.837 13.73 0 24.862-11.107 24.862-24.836 0-13.727-11.132-24.833-24.834-24.833zm25.49-266.765H148.52c-4.925 0-8.93 6.28-8.93 14.022 0 7.743 4.005 14.05 8.93 14.05h214.96c4.94 0 8.93-6.28 8.93-14.05 0-7.743-4.005-14.022-8.93-14.022z" fill="#fff" fill-opacity=".8"/></svg>