<svg xmlns="http://www.w3.org/2000/svg" viewBox="0 0 84 84" width="84" height="84"><path opacity=".85" fill="#E51E1E" d="M42 0c23.3 0 42 18.8 42 42 0 23.3-18.8 42-42 42-23.1.1-42-18.7-42-42C0 18.8 18.9 0 42 0z"/><path fill="#FFF" d="M42 25.4c-.9 0-2.5 2.5-3.4 5.5 1.1-.2 2.3-.3 3.5-.3s2.3.1 3.3.3c-.9-3-2.5-5.5-3.4-5.5M27.1 39.1l5.7-5.7c1.7-8.3 6.7-16.7 9.2-16.7s7.5 8.4 9.2 16.7l5.7 5.7V54h-4l-5.6-5.6c-.6.6-1.2 1.1-1.9 1.5h-7c-.7-.4-1.3-.9-1.9-1.5L31.1 54h-4V39.1M16.6 59.2c.4.9 1.3 1.5 2.4 1.5h46c1 0 1.9-.6 2.4-1.5H16.6z"/></svg>
