<?xml version="1.0" encoding="utf-8"?>
<!-- Generated by IcoMoon.io -->
<!DOCTYPE svg PUBLIC "-//W3C//DTD SVG 1.1//EN" "http://www.w3.org/Graphics/SVG/1.1/DTD/svg11.dtd">
<svg version="1.1" xmlns="http://www.w3.org/2000/svg" xmlns:xlink="http://www.w3.org/1999/xlink" width="1024" height="1024" viewBox="0 0 1024 1024"><g id="icomoon-ignore">
</g>
<path d="M505.173 286.72l-139.947-133.12c-20.48-17.067-47.787-17.067-68.267 0l-139.947 133.12c-10.24 13.653-13.653 27.307-13.653 40.96h126.293v354.987c40.96 6.827 81.92 6.827 122.88 0v-354.987h126.293c3.413-13.653 0-27.307-13.653-40.96z"></path>
<path d="M754.347 696.32v-354.987c-40.96-6.827-81.92-6.827-122.88 0v354.987h-126.293c-3.413 13.653 0 30.72 10.24 40.96l139.947 133.12c17.067 17.067 47.787 17.067 64.853 0l139.947-133.12c10.24-10.24 13.653-27.307 10.24-40.96h-116.053z"></path>
</svg>
