<?xml version="1.0" encoding="utf-8"?>
<!DOCTYPE svg PUBLIC "-//W3C//DTD SVG 1.1//EN" "http://www.w3.org/Graphics/SVG/1.1/DTD/svg11.dtd">
<svg version="1.1" xmlns="http://www.w3.org/2000/svg" xmlns:xlink="http://www.w3.org/1999/xlink" width="1024" height="1024" viewBox="0 0 1024 1024"><g id="icomoon-ignore">
</g>
<path d="M779.802 285.013h-331.093l-116.053 116.053v426.667c0 30.72 23.893 54.613 54.613 54.613h392.533c30.72 0 54.613-23.893 54.613-54.613v-484.693c3.413-30.72-23.893-58.027-54.613-58.027zM786.629 824.32c0 6.827-6.827 13.653-13.653 13.653h-378.88c-6.827 0-13.653-6.827-13.653-13.653v-395.947h92.16v-85.333h303.787c6.827 0 13.653 6.827 13.653 13.653v467.627z"></path>
<path d="M288.282 691.2h-37.547c-6.827 0-13.653-6.827-13.653-13.653v-392.533h92.16v-85.333h303.787c6.827 0 13.653 6.827 13.653 13.653v27.307h47.787v-44.373c0-30.72-23.893-54.613-54.613-54.613h-334.507l-116.053 116.053v426.667c0 30.72 23.893 54.613 54.613 54.613h40.96v-47.787z"></path>
</svg>
