<?xml version="1.0" encoding="utf-8"?>
<!DOCTYPE svg PUBLIC "-//W3C//DTD SVG 1.1//EN" "http://www.w3.org/Graphics/SVG/1.1/DTD/svg11.dtd">
<svg version="1.1" xmlns="http://www.w3.org/2000/svg" xmlns:xlink="http://www.w3.org/1999/xlink" width="1024" height="1024" viewBox="0 0 1024 1024"><g id="icomoon-ignore">
</g>
<path d="M913.482 250.141v0l-491.52 491.52-139.947-139.947 491.52-491.52c20.48-20.48 68.267-3.413 105.813 34.133 40.96 37.547 54.613 85.333 34.133 105.813z"></path>
<path d="M401.482 178.461h150.187v47.787h-150.187v-47.787z"></path>
<path d="M152.309 243.314v102.4h-47.787v-122.88c0-23.893 20.48-47.787 47.787-47.787h126.293v47.787h-105.813c-10.24 3.413-20.48 10.24-20.48 20.48z"></path>
<path d="M104.522 472.007h47.787v150.187h-47.787v-150.187z"></path>
<path d="M387.829 775.794v0 0h-139.947v-139.947z"></path>
<path d="M401.482 871.367h150.187v47.787h-150.187v-47.787z"></path>
<path d="M797.429 472.007h47.787v150.187h-47.787v-150.187z"></path>
<path d="M797.429 850.887v-105.813h47.787v129.707c0 23.893-20.48 47.787-47.787 47.787h-122.88v-47.787h102.4c13.653-3.413 20.48-13.653 20.48-23.893z"></path>
<path d="M169.375 867.954h102.4v47.787h-122.88c-23.893 0-47.787-20.48-47.787-47.787v-126.293h47.787v105.813c3.413 10.24 10.24 20.48 20.48 20.48z"></path>
</svg>
