<?xml version="1.0" encoding="utf-8"?>
<!DOCTYPE svg PUBLIC "-//W3C//DTD SVG 1.1//EN" "http://www.w3.org/Graphics/SVG/1.1/DTD/svg11.dtd">
<svg version="1.1" xmlns="http://www.w3.org/2000/svg" xmlns:xlink="http://www.w3.org/1999/xlink" width="1024" height="1024" viewBox="0 0 1024 1024"><g id="icomoon-ignore">
</g>
<path d="M512 95.573c225.28 0 409.6 187.733 409.6 416.427s-184.32 416.427-409.6 416.427c-225.28 0-409.6-187.733-409.6-416.427s184.32-416.427 409.6-416.427zM599.040 529.067c-10.24-10.24-10.24-27.307 0-37.547v0l122.914-126.293c-10.274-37.547-23.893-68.267-37.581-98.987l-170.667 177.493-174.080-177.493c-17.067 30.72-27.307 61.44-37.547 98.987l122.88 126.293c10.24 10.24 10.24 27.307 0 37.547v0l-126.293 129.707c10.24 37.581 23.893 68.267 37.547 98.987l177.493-177.493 174.114 177.493c17.067-30.72 27.307-61.44 37.547-98.987l-126.327-129.707z"></path>
</svg>
