<svg xmlns="http://www.w3.org/2000/svg" width="512" height="512"><path d="M503.5 256c0 136.69-110.81 247.5-247.5 247.5S8.5 392.69 8.5 256 119.31 8.5 256 8.5 503.5 119.31 503.5 256z" fill="#ee353d"/><path d="M256 296.254c27.372 0 48.304-20.932 48.304-48.305v-96.61c0-27.38-20.932-48.31-48.304-48.31-27.372 0-48.304 20.93-48.304 48.3v96.61c0 27.37 20.932 48.3 48.304 48.3zm85.337-48.305c0 48.3-40.253 82.11-85.337 82.11s-85.337-33.81-85.337-82.12H143.29c0 54.74 43.474 99.83 96.61 107.88v53.13h32.2v-53.13c53.136-8.06 96.61-53.14 96.61-107.88h-27.373z" fill="#fff"/></svg>