<?xml version="1.0" encoding="UTF-8" standalone="no"?>
<!-- Created with Inkscape (http://www.inkscape.org/) -->

<svg
   xmlns:dc="http://purl.org/dc/elements/1.1/"
   xmlns:cc="http://creativecommons.org/ns#"
   xmlns:rdf="http://www.w3.org/1999/02/22-rdf-syntax-ns#"
   xmlns:svg="http://www.w3.org/2000/svg"
   xmlns="http://www.w3.org/2000/svg"
   xmlns:inkscape="http://www.inkscape.org/namespaces/inkscape"
   version="1.1"
   width="30"
   height="30"
   viewBox="0 0 30 30"
   id="svg2">
  <metadata
     id="metadata10">
    <rdf:RDF>
      <cc:Work
         rdf:about="">
        <dc:format>image/svg+xml</dc:format>
        <dc:type
           rdf:resource="http://purl.org/dc/dcmitype/StillImage" />
      </cc:Work>
    </rdf:RDF>
  </metadata>
  <defs
     id="defs8" />
  <path
     fill="white"
     d="m 24.98,21.794 -3.973,-4.248 c 0.788,-1.312 1.25,-2.847 1.25,-4.495 0,-4.79 -3.836,-8.67 -8.568,-8.67 -4.732,0 -8.57,3.88 -8.57,8.67 0,4.8 3.83,8.68 8.57,8.68 1.61,0 3.12,-0.46 4.41,-1.25 l 4.212,4.014 c 0.372,0.378 1.27,0.08 2.004,-0.66 0.734,-0.74 1.03,-1.654 0.654,-2.032 z M 13.69,19.31 c -3.414,0 -6.182,-2.803 -6.182,-6.26 0,-3.457 2.768,-6.258 6.182,-6.258 3.414,0 6.18,2.802 6.18,6.26 0,3.455 -2.766,6.258 -6.18,6.258 z"
     inkscape:connector-curvature="0"
     id="path4" />
</svg>
