<?xml version="1.0" encoding="UTF-8" standalone="no"?>
<!-- Created with Inkscape (http://www.inkscape.org/) -->

<svg
   xmlns:dc="http://purl.org/dc/elements/1.1/"
   xmlns:cc="http://creativecommons.org/ns#"
   xmlns:rdf="http://www.w3.org/1999/02/22-rdf-syntax-ns#"
   xmlns:svg="http://www.w3.org/2000/svg"
   xmlns="http://www.w3.org/2000/svg"
   xmlns:inkscape="http://www.inkscape.org/namespaces/inkscape"
   version="1.1"
   width="30"
   height="30"
   viewBox="0 0 30 30"
   id="svg2">
  <metadata
     id="metadata10">
    <rdf:RDF>
      <cc:Work
         rdf:about="">
        <dc:format>image/svg+xml</dc:format>
        <dc:type
           rdf:resource="http://purl.org/dc/dcmitype/StillImage" />
      </cc:Work>
    </rdf:RDF>
  </metadata>
  <defs
     id="defs8" />
  <path
     fill="white"
     d="m 23.04,19.53 c -1.158,-0.67 -2.555,-0.544 -3.564,0.204 l -7.658,-4.42 c 0.014,-0.122 0.037,-0.24 0.037,-0.364 0,-0.124 -0.023,-0.242 -0.037,-0.363 l 7.658,-4.42 c 1.01,0.747 2.406,0.873 3.564,0.205 1.557,-0.9 2.09,-2.89 1.19,-4.447 -0.9,-1.557 -2.89,-2.09 -4.445,-1.19 -1.158,0.667 -1.748,1.94 -1.604,3.19 l -7.65,4.417 c -0.54,-0.4 -1.2,-0.647 -1.93,-0.647 -1.79,0 -3.25,1.458 -3.25,3.255 0,1.797 1.46,3.255 3.26,3.255 0.727,0 1.39,-0.245 1.93,-0.646 l 7.65,4.41 c -0.14,1.25 0.45,2.52 1.607,3.19 1.557,0.9 3.547,0.36 4.446,-1.19 0.899,-1.55 0.367,-3.55 -1.19,-4.45 z"
     inkscape:connector-curvature="0"
     id="path4" />
</svg>
