<?xml version="1.0" encoding="utf-8"?>
<!-- Generator: Adobe Illustrator 18.1.1, SVG Export Plug-In . SVG Version: 6.00 Build 0)  -->
<svg version="1.1" id="Layer_1" xmlns="http://www.w3.org/2000/svg" xmlns:xlink="http://www.w3.org/1999/xlink" x="0px" y="0px"
	 viewBox="0 0 32 24" enable-background="new 0 0 32 24" xml:space="preserve">
<g>
	<path fill="none" d="M84.7-84L84.7-84l2.1-2.2c0.1-0.1,0.2-0.1,0.2,0l2.1,2.2l0,0l0.3,0.3c0.4-0.1,0.8-0.2,1.1-0.2
		c-0.1-0.2-0.1-0.2-0.2-0.4l-2.8-2.9c-0.3-0.4-1-0.4-1.3,0l-2.8,2.9c-0.1,0.1-0.2,0.2-0.2,0.4c0.4,0.1,0.7,0.2,1.1,0.2L84.7-84z
		 M83.9-81.9h5.6c0.5,0,0.8-0.3,1-0.8h-7.6C83-82.2,83.4-81.9,83.9-81.9z"/>
</g>
<g>
	<path fill="none" d="M85.8-86.2L85.8-86.2l2.1-2.2c0.1-0.1,0.2-0.1,0.2,0l2.1,2.2l0,0l0.3,0.3c0.4-0.1,0.8-0.2,1.1-0.2
		c-0.1-0.2-0.1-0.2-0.2-0.4l-2.8-2.9c-0.3-0.4-1-0.4-1.3,0l-2.8,2.9c-0.1,0.1-0.2,0.2-0.2,0.4c0.4,0.1,0.7,0.2,1.1,0.2L85.8-86.2z
		 M84.2-84.9c0.2,0.5,0.6,0.8,1,0.8h5.6c0.5,0,0.8-0.3,1-0.8H84.2z"/>
</g>
<g>
	<path d="M14,9.4v6.3c1.4,0.3,2.8,0.3,4.1,0V9.4H22c0.1-0.5,0-1-0.4-1.3l-4.5-4.4c-0.6-0.6-1.5-0.6-2.1,0l-4.5,4.4
		C10.1,8.5,10,9,10.1,9.4H14z M24.8,13.1v5.4H7.2v-5.4l-2,1.3l0,3.1c0,0.8,0.3,1.6,0.9,2.1c0.5,0.6,1.3,1,2.1,1h15.5
		c0.8,0,1.6-0.4,2.1-1c0.6-0.6,0.9-1.3,0.9-2.2l0-3.1L24.8,13.1z"/>
</g>
</svg>
