<svg xmlns="http://www.w3.org/2000/svg" width="30" height="30" viewBox="0 0 30 30"><g fill-rule="evenodd" clip-rule="evenodd"><path opacity=".5" fill="#fff" d="M15 6.5c4.694 0 8.5 3.806 8.5 8.5s-3.806 8.5-8.5 8.5c-4.695 0-8.5-3.806-8.5-8.5s3.805-8.5 8.5-8.5z"/><path d="M13.154 14.583l-2.566-2.566c.196-.74.479-1.4.805-1.998l3.593 3.594 3.582-3.584c.324.6.606 1.261.802 2.001l-2.553 2.554-.015.011c-.209.21-.213.544-.02.761l-.001.003 2.588 2.588c-.196.739-.478 1.398-.802 1.997l-3.582-3.582-3.594 3.594c-.325-.598-.606-1.256-.803-1.996l2.601-2.601-.002-.003c.194-.217.188-.551-.021-.761l-.012-.012z"/></g></svg>