<svg xmlns="http://www.w3.org/2000/svg" width="30" height="30" viewBox="0 0 30 30"><path fill-rule="evenodd" clip-rule="evenodd" fill="#424242" d="M23.385 21.494c.266.266.057.903-.465 1.426s-1.16.729-1.426.465l-4.041-4.039c-1.01.656-2.21 1.047-3.505 1.047-3.561 0-6.448-2.885-6.448-6.446 0-3.56 2.887-6.446 6.448-6.446 3.562 0 6.449 2.887 6.449 6.446 0 1.297-.393 2.499-1.051 3.509l4.041 4.039h-.002zm-9.437-12.459c-2.712 0-4.914 2.198-4.914 4.912s2.202 4.913 4.914 4.913c2.714 0 4.914-2.199 4.914-4.913-.001-2.714-2.2-4.912-4.914-4.912z"/></svg>