<?xml version="1.0" encoding="utf-8"?>
<!-- Generator: Adobe Illustrator 16.0.0, SVG Export Plug-In . SVG Version: 6.00 Build 0)  -->
<!DOCTYPE svg PUBLIC "-//W3C//DTD SVG 1.1//EN" "http://www.w3.org/Graphics/SVG/1.1/DTD/svg11.dtd">
<svg version="1.1" id="Layer_1" xmlns="http://www.w3.org/2000/svg" xmlns:xlink="http://www.w3.org/1999/xlink" x="0px" y="0px"
	 width="314px" height="96px" viewBox="0 0 314 96" enable-background="new 0 0 314 96" xml:space="preserve">
<rect x="-57.5" y="-59.5" stroke="#000000" stroke-miterlimit="10" width="448" height="217"/>
<g id="Grey_Background_xA0_Image_1_">
</g>
<g id="Boxes_1_">
	<g id="Row_5_1_">
		<g>
			<g>
				<path fill="#FFFFFF" d="M245.361,89.42l0.164-0.916h-0.01c0.057-0.349,0.092-0.71,0.092-1.076c0-3.544-2.727-6.412-6.088-6.412
					c-3.362,0-6.088,2.868-6.088,6.412c0,0.366,0.034,0.729,0.09,1.076h-0.008l0.155,0.891c-0.812,0.146-1.312,1.381-1.119,2.783
					c0.194,1.422,1.025,2.477,1.854,2.354c0.828-0.116,1.345-1.367,1.15-2.793c-0.082-0.591-0.277-1.108-0.531-1.515l-0.322-1.828
					h0.019c-0.059-0.316-0.094-0.64-0.094-0.97c0-2.847,2.19-5.151,4.894-5.151c2.701,0,4.893,2.306,4.893,5.151
					c0,0.33-0.037,0.652-0.094,0.97h0.019l-0.313,1.756c-0.275,0.416-0.488,0.962-0.573,1.582c-0.194,1.412,0.317,2.649,1.14,2.771
					c0.822,0.116,1.645-0.93,1.837-2.337C246.613,90.801,246.137,89.607,245.361,89.42z"/>
			</g>
		</g>
		<g>
			<g>
				<path fill="#FFFFFF" d="M239.822,90.143l1.457-1.675c0.324-0.368,0.324-0.97,0-1.338l-2.482-2.851v4.688l-1.872-2.146
					c-0.015-0.018-0.03-0.027-0.046-0.045h-0.016v-0.014c-0.02-0.018-0.033-0.035-0.055-0.05c-0.102,0.328-0.191,0.675-0.272,1.037
					l2.09,2.394l-2.088,2.393c0.081,0.357,0.173,0.706,0.274,1.031c0.02-0.012,0.035-0.03,0.051-0.049v-0.013h0.019
					c0.013-0.019,0.03-0.028,0.043-0.046l1.872-2.141V96l2.482-2.848c0.324-0.371,0.324-0.969,0-1.342L239.822,90.143z
					 M239.656,86.636l0.811,0.931c0.001,0.004,0.004,0.004,0.006,0.009c0.105,0.12,0.108,0.311,0.012,0.436l-0.827,0.952
					L239.656,86.636L239.656,86.636z M240.484,92.695l-0.828,0.951v-2.324l0.811,0.93c0.001,0.005,0.004,0.005,0.006,0.01
					C240.578,92.378,240.581,92.568,240.484,92.695z"/>
			</g>
		</g>
	</g>
	<g id="Row_4_1_">
	</g>
	<g id="Row_3_1_">
	</g>
	<g id="Row_2_1_">
	</g>
	<g id="Row_1_1_">
	</g>
</g>
<g id="Icons_1_">
	<g id="Bluetooth_Transfer_1_">
		<g id="Bluetooth">
			<g>
				<path fill="#FFFFFF" d="M300.246,88.018l1.867-2.093c0.457-0.465,0.457-1.214,0-1.677l-3.233-3.561v5.858l-2.657-2.683
					c-0.022-0.021-0.047-0.037-0.07-0.059h-0.021v-0.016c-0.026-0.021-0.048-0.046-0.075-0.062
					c-0.145,0.409-0.272,0.842-0.389,1.295l2.967,2.996l-2.963,2.989c0.115,0.45,0.244,0.882,0.391,1.293
					c0.022-0.017,0.047-0.038,0.069-0.061v-0.021h0.026c0.019-0.018,0.041-0.032,0.064-0.051l2.656-2.683v5.859l3.233-3.562
					c0.457-0.465,0.457-1.215,0-1.676L300.246,88.018z M300.07,83.635l1.096,1.164c0.001,0.002,0.008,0.004,0.01,0.006
					c0.146,0.15,0.152,0.389,0.015,0.547l0.002,0.002l-1.121,1.188L300.07,83.635L300.07,83.635z M301.191,91.211l-1.121,1.188
					v-2.905l1.096,1.165c0.001,0.002,0.008,0.004,0.01,0.008c0.146,0.148,0.152,0.389,0.015,0.543L301.191,91.211z"/>
			</g>
		</g>
		<g id="Left_Arrow">
			<g>
				<path fill="#FFFFFF" d="M304.554,85.771l-1.763,1.802c-0.229,0.231-0.229,0.61,0,0.843l1.763,1.803
					c0.146,0.146,0.343,0.189,0.527,0.15v-4.748C304.897,85.581,304.699,85.627,304.554,85.771z"/>
			</g>
		</g>
		<g id="Right_Arrow">
			<g>
				<path fill="#FFFFFF" d="M308.314,87.573l-1.764-1.802c-0.144-0.146-0.346-0.19-0.528-0.15v4.748
					c0.184,0.039,0.386-0.004,0.528-0.15l1.764-1.803C308.54,88.186,308.54,87.805,308.314,87.573z"/>
			</g>
		</g>
	</g>
	<g id="NFC_1_">
		<g id="Shape_1_1_">
			<g>
				<path fill="#FFFFFF" d="M282.913,87.523l-4.543-4.658l-0.007-0.002c-0.178-0.161-0.414-0.264-0.672-0.264h-0.039
					c0,0,0,0,0,0.002c-0.537,0.008-0.98,0.448-0.98,0.993c0,0,0,7.446,0,8.396c0,1.718,1.441,2.658,1.441,2.658v-9.985l4.8,4.922
					V87.523z M283.979,82.602v9.986l-4.801-4.925v2.065l4.543,4.657l0.008,0.005c0.174,0.161,0.412,0.258,0.668,0.258h0.037
					c0.543-0.006,0.983-0.45,0.983-0.99c0,0,0-7.447,0-8.398C285.417,83.548,283.979,82.602,283.979,82.602z"/>
			</g>
		</g>
	</g>
	<g id="Emergency_Callback_1_">
		<g id="Shape_2">
			<g>
				<path fill="#FFFFFF" d="M265.66,91.167l-4.025-7.485c-0.904-1.601-2.388-1.601-3.291,0l-4.023,7.485
					c-0.904,1.604-0.143,2.915,1.699,2.915h7.938C265.799,94.082,266.561,92.771,265.66,91.167z M263.501,92.76
					c-1.062-0.197-2.415-0.99-3.636-2.21c-1.217-1.214-2.004-2.573-2.203-3.636c0.184-0.398,0.441-0.773,0.743-1.127l1.464,1.65
					c-0.128,0.174-0.247,0.347-0.346,0.524l0.009,0.006c-0.173,0.382,0.223,1.205,0.969,1.949c0.745,0.744,1.571,1.146,1.947,0.974
					l0.01,0.004c0.177-0.102,0.351-0.221,0.524-0.346l1.648,1.465C264.279,92.316,263.906,92.57,263.501,92.76z"/>
			</g>
		</g>
	</g>
	<g id="A2dp_1_">
		<g id="Bluetooth_On_xA0_Image_1_">
		</g>
	</g>
	<g id="Call_Forwarding_1_">
		<g id="Phone_copy_1_">
			<g>
				<path fill="#FFFFFF" d="M220.773,90.994c-0.315,0.23-0.637,0.449-0.963,0.63l-0.012-0.013c-0.691,0.318-2.206-0.414-3.576-1.782
					c-1.371-1.372-2.104-2.886-1.785-3.578l-0.011-0.011c0.181-0.327,0.397-0.647,0.632-0.965l-2.705-3.056
					c-0.556,0.646-1.018,1.341-1.36,2.077c0.362,1.952,1.813,4.452,4.06,6.696c2.247,2.248,4.749,3.698,6.701,4.062
					c0.734-0.344,1.428-0.806,2.071-1.361L220.773,90.994z"/>
			</g>
		</g>
		<g id="Forward_copy_1_">
			<g>
				<path fill="#FFFFFF" d="M217.539,88.781c-0.184-0.389-0.294-0.818-0.294-1.277c0-1.658,1.347-3.005,3.007-3.005
					c0.199,0,0.395,0.021,0.582,0.06v-0.062h1.368v1.618c0.198,0.044,0.413-0.003,0.563-0.157l1.887-1.889
					c0.246-0.243,0.246-0.637,0-0.881l-1.887-1.887c-0.15-0.154-0.365-0.199-0.563-0.16v1.646h-1.368v-0.002
					c-2.215,0-4.009,1.791-4.009,4.003c0,0.729,0.21,1.405,0.55,1.994L217.539,88.781L217.539,88.781z"/>
			</g>
		</g>
	</g>
	<g id="Music_Play_1_">
		<g id="Play_xA0_Image_1_">
		</g>
	</g>
	<g id="No_SIM_2_">
		<g id="No_SIM_xA0_Image_1_">
		</g>
	</g>
	<g id="G">
		<text transform="matrix(1 0 0 1 168.2275 93.0127)" fill="#FFFFFF" font-family="'FiraSansMedium'" font-size="13.7522">G</text>
	</g>
	<g id="O_1_">
		<g>
			<path fill="#FFFFFF" d="M132.977,81.547c-3.572,0-6.465,2.895-6.465,6.464c0,3.573,2.893,6.472,6.465,6.472
				c3.572,0,6.468-2.897,6.468-6.472C139.445,84.441,136.549,81.547,132.977,81.547z M132.977,92.602
				c-2.534,0-4.586-2.055-4.586-4.591c0-2.53,2.052-4.584,4.586-4.584c2.533,0,4.587,2.054,4.587,4.584
				C137.564,90.547,135.51,92.602,132.977,92.602z"/>
		</g>
	</g>
	<g id="_x32_G">
		<text transform="matrix(1 0 0 1 105.3828 93.0127)" fill="#FFFFFF" font-family="'FiraSansMedium'" font-size="13.7522">2</text>
		<text transform="matrix(1 0 0 1 112.0537 93.0127)" fill="#FFFFFF" font-family="'FiraSansMedium'" font-size="13.7522">G</text>
	</g>
	<g id="E">
		<text transform="matrix(1 0 0 1 83.2227 93.0127)" fill="#FFFFFF" font-family="'FiraSansMedium'" font-size="13.7522">E</text>
	</g>
	<g id="_x33_G">
		<text transform="matrix(1 0 0 1 63.3975 93.0127)" fill="#FFFFFF" font-family="'FiraSansMedium'" font-size="13.7522">3</text>
		<text transform="matrix(1 0 0 1 70.0273 93.0127)" fill="#FFFFFF" font-family="'FiraSansMedium'" font-size="13.7522">G</text>
	</g>
	<g id="_x34_G">
		<text transform="matrix(1 0 0 1 42.5547 93.0127)" fill="#FFFFFF" font-family="'FiraSansMedium'" font-size="13.7522">4G</text>
	</g>
	<g id="H_1_">
		<text transform="matrix(1 0 0 1 20.2559 93.0127)" fill="#FFFFFF" font-family="'FiraSansMedium'" font-size="13.7522">H</text>
	</g>
	<g id="H_x2B__1_">
		<g id="H">
			<text transform="matrix(1 0 0 1 -0.748 93.0127)" fill="#FFFFFF" font-family="'FiraSansMedium'" font-size="13.7522">H</text>
		</g>
		<g id="_x2B_">
			<text transform="matrix(1 0 0 1 8.9512 92.0127)" fill="#FFFFFF" font-family="'FiraSansMedium'" font-size="11.4602">+</text>
		</g>
	</g>
	<g id="Mute_2_">
		<g id="Mute">
			<g>
				<path fill="#FFFFFF" d="M282.725,62.291l-2.844,2.842H278.1c-0.463,0-0.832,0.375-0.832,0.831v4.062
					c0,0.463,0.369,0.836,0.832,0.836h1.356l4.403-4.403v-4.635C283.449,61.82,283.038,61.979,282.725,62.291z M282.725,73.699
					c0.312,0.314,0.725,0.473,1.137,0.472V68.35l-3.246,3.243L282.725,73.699z"/>
			</g>
		</g>
		<g id="Slash">
			<g>
				<path fill="#FF0000" d="M286.807,62.011l-11.056,11.056c0.245,0.375,0.567,0.695,0.944,0.945l11.058-11.056
					C287.504,62.579,287.182,62.256,286.807,62.011z"/>
			</g>
		</g>
	</g>
	<g id="Bluetooth_Not_Connected_xA0_Image_1_">
	</g>
	<g id="Bluetooth_On_1_">
		<g>
			<path fill="#FFFFFF" d="M240.501,68.014l2.021-2.021c0.444-0.446,0.444-1.175,0-1.618l-3.438-3.438v5.657l-2.59-2.59
				c-0.021-0.021-0.044-0.037-0.065-0.056h-0.021v-0.018c-0.025-0.021-0.048-0.043-0.074-0.062c-0.14,0.397-0.267,0.817-0.38,1.254
				l2.893,2.892l-2.887,2.885c0.111,0.437,0.236,0.854,0.378,1.248c0.024-0.017,0.047-0.039,0.07-0.058V72.07h0.024
				c0.021-0.019,0.043-0.031,0.062-0.051l2.59-2.588v5.656l3.438-3.438c0.444-0.446,0.444-1.174,0-1.618L240.501,68.014z
				 M240.27,63.781l1.125,1.125c0.002,0.002,0.006,0.006,0.008,0.007c0.145,0.146,0.149,0.376,0.014,0.526l0.002,0.002l-1.148,1.147
				V63.781L240.27,63.781z M241.417,71.098l-1.147,1.148v-2.809l1.125,1.125c0.002,0.002,0.006,0.004,0.008,0.008
				c0.145,0.144,0.149,0.375,0.014,0.525L241.417,71.098z"/>
		</g>
	</g>
	<g id="Bluetooth_On_3_">
		<g>
			<path fill="#666666" d="M261.596,68.191l2.021-2.02c0.443-0.445,0.443-1.174,0-1.617l-3.439-3.438v5.657l-2.59-2.59
				c-0.02-0.021-0.044-0.037-0.066-0.056h-0.02v-0.017c-0.025-0.021-0.048-0.045-0.074-0.062c-0.139,0.398-0.267,0.817-0.38,1.254
				l2.892,2.891l-2.885,2.887c0.11,0.436,0.236,0.854,0.377,1.248c0.024-0.018,0.047-0.039,0.07-0.059v-0.021h0.025
				c0.021-0.019,0.041-0.031,0.061-0.05l2.59-2.588v5.656l3.439-3.438c0.443-0.446,0.443-1.174,0-1.618L261.596,68.191z
				 M261.364,63.961l1.125,1.125c0.002,0.002,0.006,0.006,0.008,0.007c0.146,0.146,0.149,0.376,0.015,0.526l0.002,0.002
				l-1.148,1.148L261.364,63.961L261.364,63.961z M262.512,71.277l-1.148,1.147v-2.808l1.125,1.124
				c0.003,0.002,0.007,0.004,0.009,0.008c0.146,0.144,0.149,0.375,0.014,0.524L262.512,71.277z"/>
		</g>
	</g>
	<g id="Vibrate_1_">
		<g id="Shape_3_1_">
			<g>
				<path fill="#FFFFFF" d="M215.372,71.145c-0.134-0.145-0.129-0.375,0.015-0.521c0.004,0,0.004-0.004,0.012-0.008l1.44-1.447
					c0.004-0.003,0.011-0.007,0.017-0.014l0.517-0.521c0.308-0.303,0.308-0.799,0-1.104l-0.519-0.519v0.009l-1.482-1.483
					l0.002-0.004c-0.133-0.15-0.129-0.378,0.014-0.521c0.004-0.004,0.004-0.004,0.014-0.007l2.285-2.297v-1.646l-3.404,3.412
					c-0.441,0.442-0.441,1.162,0,1.606l1.998,2.006l-1.998,2.002c-0.441,0.446-0.441,1.166,0,1.608l3.404,3.41v-1.639l-2.313-2.32
					V71.145z M218.241,65.189l2.147-2.156V61.49l-3.199,3.203c-0.416,0.414-0.416,1.093,0,1.509l1.879,1.883l-1.879,1.881
					c-0.416,0.419-0.416,1.097,0,1.511l3.199,3.205v-1.541l-2.176-2.18l0.004-0.001c-0.125-0.14-0.121-0.354,0.012-0.489
					c0.004,0,0.006-0.007,0.013-0.011l1.353-1.356c0.006-0.004,0.012-0.006,0.016-0.014l0.486-0.486
					c0.287-0.289,0.287-0.752,0-1.037l-0.486-0.487v0.006l-1.394-1.394l0.002-0.006c-0.125-0.143-0.12-0.354,0.013-0.487
					C218.232,65.191,218.234,65.191,218.241,65.189z"/>
			</g>
		</g>
	</g>
	<g id="Notification_1_">
		<g id="Generic_Notification">
			<g>
				<path fill="#53B6CC" d="M175.984,61.408c-3.371,0-6.104,2.734-6.104,6.1c0,3.373,2.732,6.105,6.104,6.105
					s6.104-2.732,6.104-6.105C182.087,64.143,179.355,61.408,175.984,61.408z M178.904,70.01h-5.846v-0.999h5.846V70.01z
					 M178.904,68.01h-5.846v-1.001h5.846V68.01z M178.904,66.01h-5.846v-1h5.846V66.01z"/>
			</g>
		</g>
		<g id="Generic_Notification_copy_2">
			<g>
				<path fill="#666666" d="M196.986,61.408c-3.368,0-6.102,2.734-6.102,6.1c0,3.373,2.732,6.105,6.102,6.105
					c3.371,0,6.104-2.732,6.104-6.105C203.09,64.143,200.357,61.408,196.986,61.408z M199.908,70.01h-5.846v-0.999h5.846V70.01z
					 M199.908,68.01h-5.846v-1.001h5.846V68.01z M199.908,66.01h-5.846v-1h5.846V66.01z"/>
			</g>
		</g>
	</g>
	<g id="New_SMS_1_">
		<g>
			<path fill="#FFFFFF" d="M155.989,61.285c-3.313,0-6.003,2.688-6.003,6.001c0,1.278,0.402,2.46,1.082,3.434l-1.1,2.86l2.955-1.139
				c0.898,0.535,1.944,0.849,3.065,0.849c3.317,0,6.005-2.687,6.005-6.004C161.994,63.973,159.305,61.285,155.989,61.285z"/>
		</g>
	</g>
	<g>
		<g>
			<path fill="#FFFFFF" d="M201.902,86.971v-0.039l-9.204-5.371v12.904l9.204-5.376v-0.034c0.356-0.221,0.606-0.593,0.606-1.045
				C202.509,87.562,202.259,87.191,201.902,86.971z"/>
		</g>
	</g>
	<g>
		<g>
			<path fill="#FFFFFF" d="M149.67,80.521c-0.561,0-1.012,0.484-1.012,1.078v12.69c0,0.599,0.451,1.078,1.012,1.078h7.446
				c0.597,0,1.079-0.479,1.079-1.078V83.078l-2.556-2.557H149.67z M150.773,94.312h-0.238c-0.463,0-0.838-0.375-0.838-0.84v-5.748
				c0-0.467,0.375-0.842,0.838-0.842h0.238V94.312z M152.896,94.312h-1.062v-3.178h1.062V94.312z M152.896,90.043h-1.062v-3.159
				h1.062V90.043z M155.02,94.312h-1.062v-3.178h1.062V94.312z M155.02,90.043h-1.062v-3.159h1.062V90.043z M156.08,86.884h0.206
				c0.464,0,0.839,0.375,0.839,0.841v5.748c0,0.467-0.375,0.842-0.839,0.842h-0.206V86.884z M161.83,89.682l0.205-5.652h-1.817
				l0.204,5.652H161.83z M161.126,90.912c-0.589,0-1.076,0.484-1.076,1.072c0,0.591,0.487,1.064,1.076,1.064
				c0.587,0,1.06-0.475,1.06-1.064C162.186,91.396,161.713,90.912,161.126,90.912z"/>
		</g>
	</g>
	<g id="Tethering_On">
		<g>
			<path fill="#FFFFFF" d="M117.492,65.626c-0.551-0.313-1.139-0.501-1.732-0.593c-0.326-1.252-1.136-2.379-2.354-3.074
				c-2.411-1.377-5.499-0.557-6.892,1.823c-1.391,2.38-0.562,5.435,1.846,6.809c2.408,1.374,5.502,0.556,6.891-1.823
				c0.425-0.728,0.619-1.517,0.648-2.303c0.308,0.08,0.611,0.186,0.899,0.352c1.744,0.996,2.343,3.205,1.337,4.928
				c-1.007,1.725-3.245,2.318-4.988,1.322c-0.43-0.246-0.789-0.566-1.073-0.936c-0.527,0.094-1.066,0.118-1.604,0.042
				c0.426,0.845,1.094,1.579,1.98,2.085c2.408,1.373,5.5,0.557,6.893-1.826C120.731,70.053,119.903,66.999,117.492,65.626z
				 M114.044,68.077c-0.44,0.754-1.118,1.282-1.886,1.562l0.015,0.055c-0.159,0.031-0.323,0.043-0.485,0.062
				c-0.114,0.025-0.225,0.067-0.341,0.082c0-0.013,0.003-0.025,0.003-0.038c-0.462,0.034-0.926-0.002-1.383-0.091
				c-0.001,0.016-0.004,0.027-0.004,0.042c-0.123-0.032-0.245-0.071-0.366-0.114c-0.316-0.09-0.628-0.209-0.928-0.38l0.026-0.114
				c-1.452-1.08-1.91-3.078-0.977-4.672c1.006-1.726,3.243-2.312,4.988-1.322c0.767,0.438,1.296,1.115,1.581,1.877
				c-1.49,0.203-2.877,1.039-3.687,2.423c-0.224,0.384-0.38,0.784-0.483,1.194c0.476,0.105,0.957,0.131,1.431,0.078
				c0.069-0.199,0.15-0.396,0.262-0.586c0.592-1.013,1.611-1.621,2.703-1.76C114.499,66.955,114.358,67.54,114.044,68.077z"/>
		</g>
	</g>
	<g id="Tethering_Off">
		<g>
			<path fill="#666666" d="M138.496,65.626c-0.551-0.313-1.139-0.501-1.732-0.594c-0.326-1.251-1.136-2.378-2.355-3.073
				c-2.409-1.377-5.502-0.557-6.892,1.823s-0.562,5.435,1.846,6.809c2.409,1.374,5.502,0.556,6.892-1.823
				c0.425-0.728,0.619-1.517,0.648-2.303c0.308,0.08,0.611,0.186,0.899,0.352c1.745,0.996,2.343,3.205,1.337,4.928
				c-1.007,1.725-3.244,2.318-4.987,1.322c-0.431-0.246-0.79-0.566-1.074-0.936c-0.527,0.094-1.065,0.119-1.604,0.042
				c0.427,0.845,1.095,1.579,1.98,2.085c2.41,1.373,5.5,0.557,6.889-1.826C141.733,70.053,140.906,66.999,138.496,65.626z
				 M135.046,68.077c-0.44,0.754-1.117,1.282-1.884,1.562l0.015,0.055c-0.162,0.031-0.328,0.043-0.492,0.063
				c-0.112,0.024-0.22,0.065-0.334,0.08c0-0.013,0.002-0.024,0.003-0.037c-0.462,0.034-0.925-0.002-1.382-0.09
				c-0.001,0.015-0.004,0.026-0.004,0.041c-0.122-0.03-0.244-0.071-0.364-0.112c-0.318-0.091-0.631-0.209-0.933-0.382l0.026-0.114
				c-1.452-1.082-1.907-3.078-0.976-4.672c1.006-1.726,3.245-2.312,4.986-1.322c0.767,0.438,1.296,1.115,1.581,1.879
				c-1.489,0.203-2.875,1.037-3.683,2.421c-0.224,0.385-0.38,0.786-0.483,1.194c0.476,0.105,0.955,0.131,1.429,0.078
				c0.068-0.199,0.15-0.396,0.261-0.586c0.592-1.013,1.611-1.619,2.703-1.759C135.5,66.956,135.36,67.54,135.046,68.077z"/>
		</g>
	</g>
	<g id="_x35__2_">
		<g>
			<path fill="#FFFFFF" d="M91.965,68.01c-1.467,0-2.735,0.799-3.432,1.977l1.116,1.117c0.362-0.928,1.26-1.586,2.315-1.586
				c1.06,0,1.959,0.662,2.319,1.594l1.117-1.118C94.707,68.812,93.435,68.01,91.965,68.01z M91.965,65.01
				c-2.291,0-4.32,1.107-5.598,2.811l1.076,1.076c0.991-1.436,2.646-2.377,4.521-2.377c1.88,0,3.536,0.944,4.527,2.383l1.075-1.075
				C96.292,66.12,94.261,65.01,91.965,65.01z M91.965,62.011c-3.12,0-5.905,1.431-7.738,3.669l1.076,1.075
				c1.556-1.968,3.959-3.235,6.662-3.235c2.706,0,5.112,1.271,6.667,3.242l1.077-1.076C97.875,63.441,95.088,62.011,91.965,62.011z
				 M91.965,71.009c-0.551,0-1,0.452-1,1c0,0.556,0.449,1.002,1,1.002c0.554,0,1-0.446,1-1.002
				C92.965,71.461,92.519,71.009,91.965,71.009z"/>
		</g>
	</g>
	<g id="_x34__4_">
		<g>
			<path fill="#666666" d="M70.968,62.011c-3.121,0-5.906,1.431-7.741,3.669l1.078,1.076c1.555-1.969,3.959-3.236,6.664-3.236
				c2.706,0,5.11,1.271,6.665,3.242l1.078-1.078C76.877,63.441,74.09,62.011,70.968,62.011z"/>
		</g>
	</g>
	<g id="_x34__2_">
		<g>
			<path fill="#FFFFFF" d="M70.968,68.01c-1.468,0-2.737,0.799-3.434,1.977l1.118,1.117c0.361-0.927,1.258-1.586,2.315-1.586
				c1.057,0,1.957,0.662,2.317,1.594l1.118-1.118C73.708,68.812,72.437,68.01,70.968,68.01z M70.968,65.01
				c-2.293,0-4.323,1.107-5.6,2.811l1.077,1.076c0.991-1.435,2.646-2.377,4.523-2.377c1.879,0,3.535,0.944,4.525,2.383l1.077-1.076
				C75.293,66.119,73.263,65.01,70.968,65.01z M70.968,71.009c-0.553,0-1.003,0.452-1.003,1c0,0.556,0.45,1.002,1.003,1.002
				c0.551,0,1-0.446,1-1.002C71.968,71.461,71.519,71.009,70.968,71.009z"/>
		</g>
	</g>
	<g id="_x33__4_">
		<g>
			<path fill="#666666" d="M49.964,65.01c-2.292,0-4.322,1.107-5.6,2.811l1.077,1.076c0.991-1.436,2.646-2.377,4.523-2.377
				c1.878,0,3.535,0.943,4.526,2.383l1.076-1.076C54.29,66.119,52.259,65.01,49.964,65.01z M49.964,62.011
				c-3.121,0-5.906,1.431-7.74,3.669l1.077,1.076c1.555-1.969,3.959-3.236,6.663-3.236c2.706,0,5.111,1.271,6.666,3.241l1.078-1.077
				C55.874,63.441,53.087,62.011,49.964,62.011z"/>
		</g>
	</g>
	<g id="_x33__2_">
		<g>
			<path fill="#FFFFFF" d="M49.964,68.01c-1.468,0-2.737,0.799-3.434,1.977l1.117,1.117c0.362-0.927,1.259-1.586,2.316-1.586
				c1.059,0,1.957,0.662,2.317,1.594l1.119-1.119C52.704,68.812,51.433,68.01,49.964,68.01z M49.964,71.009
				c-0.554,0-1.001,0.452-1.001,1c0,0.556,0.447,1.002,1.001,1.002c0.552,0,1-0.446,1-1.002
				C50.964,71.461,50.517,71.009,49.964,71.009z"/>
		</g>
	</g>
	<g id="_x32__4_">
		<g>
			<g>
				<g>
					<path fill="#666666" d="M28.96,68.01c-1.467,0-2.736,0.799-3.433,1.977l1.117,1.117c0.361-0.927,1.259-1.586,2.315-1.586
						c1.059,0,1.958,0.662,2.318,1.594l1.118-1.118C31.701,68.812,30.43,68.01,28.96,68.01z M28.96,62.011
						c-3.121,0-5.906,1.431-7.74,3.669l1.078,1.076c1.555-1.969,3.958-3.236,6.663-3.236c2.706,0,5.111,1.271,6.667,3.241
						l1.077-1.077C34.871,63.441,32.083,62.011,28.96,62.011z M28.96,65.01c-2.292,0-4.321,1.107-5.599,2.811l1.076,1.076
						c0.992-1.436,2.646-2.377,4.523-2.377c1.879,0,3.535,0.944,4.526,2.383l1.077-1.076C33.286,66.119,31.255,65.01,28.96,65.01z"
						/>
				</g>
			</g>
		</g>
	</g>
	<g id="_x32__2_">
		<g>
			<path fill="#FFFFFF" d="M28.96,71.009c-0.553,0-1,0.452-1,1c0,0.556,0.447,1.002,1,1.002c0.551,0,1.001-0.446,1.001-1.002
				C29.961,71.461,29.512,71.009,28.96,71.009z"/>
		</g>
	</g>
	<g id="_x31__2_">
		<g>
			<path fill="#666666" d="M7.957,71.009c-0.553,0-1,0.452-1,1c0,0.556,0.447,1.002,1,1.002c0.552,0,1-0.446,1-1.002
				C8.957,71.461,8.509,71.009,7.957,71.009z M7.957,68.01c-1.466,0-2.736,0.797-3.432,1.979l1.117,1.114
				c0.361-0.928,1.259-1.586,2.315-1.586c1.06,0,1.958,0.66,2.318,1.594l1.118-1.118C10.697,68.812,9.427,68.01,7.957,68.01z
				 M7.957,65.01c-2.293,0-4.322,1.106-5.599,2.811l1.079,1.078c0.991-1.437,2.643-2.379,4.52-2.379
				c1.878,0,3.533,0.944,4.525,2.385l1.077-1.079C12.283,66.118,10.252,65.01,7.957,65.01z M7.957,62.011
				c-3.12,0-5.906,1.431-7.74,3.667l1.078,1.077c1.555-1.968,3.958-3.235,6.662-3.235c2.706,0,5.112,1.271,6.666,3.241l1.078-1.077
				C13.866,63.439,11.08,62.011,7.957,62.011z"/>
		</g>
	</g>
	<g id="Alarm_1_">
		<g id="Alarm_On">
			<g>
				<path fill="#FFFFFF" d="M302,54.426c0.805,0,1.476-0.562,1.653-1.312h-3.308C300.524,53.864,301.195,54.426,302,54.426z
					 M307.62,51.458c0-0.293-0.155-0.54-0.378-0.697v-0.038c-0.798-0.574-1.311-1.397-1.311-2.323v-2.615
					c0-1.257-0.93-2.333-2.265-2.833c-0.159-0.776-0.846-1.36-1.668-1.36c-0.824,0-1.512,0.587-1.669,1.365
					c-1.329,0.503-2.253,1.574-2.253,2.828V48.4c0,0.926-0.512,1.749-1.312,2.323v0.041c-0.221,0.156-0.375,0.402-0.375,0.694
					c0,0.478,0.381,0.86,0.852,0.869c-0.001,0.001,0,0.002-0.001,0.003h9.527c-0.001-0.001-0.001-0.002-0.001-0.003
					C307.239,52.316,307.62,51.936,307.62,51.458z"/>
			</g>
		</g>
	</g>
	<g id="Recording_-_Recently_Active_1_" opacity="0.502">
		<g>
			<path fill="#FF0000" d="M281.003,42.922c-2.803,0-5.073,2.277-5.073,5.085c0,2.812,2.271,5.081,5.073,5.081
				c2.799,0,5.067-2.271,5.067-5.081C286.072,45.199,283.802,42.922,281.003,42.922z"/>
		</g>
	</g>
	<g id="Recording_-_Active_1_">
		<g>
			<path fill="#FF0000" d="M259.997,42.922c-2.798,0-5.067,2.277-5.067,5.085c0,2.812,2.271,5.081,5.067,5.081
				c2.803,0,5.073-2.271,5.073-5.081C265.07,45.199,262.799,42.922,259.997,42.922z"/>
		</g>
	</g>
	<g id="NEW:_GPS">
		<g>
			<path fill="#FFFFFF" d="M223.061,46.689c0-2.868-2.271-5.194-5.076-5.194s-5.08,2.326-5.08,5.194
				c0,1.142,0.373,2.189,0.984,3.047l-0.022,0.029l4.118,5.406l4.119-5.406l-0.024-0.031
				C222.689,48.878,223.061,47.831,223.061,46.689z M217.814,49.383c-1.551,0-2.801-1.282-2.801-2.862
				c0-1.582,1.25-2.866,2.801-2.866c1.545,0,2.797,1.284,2.797,2.866C220.611,48.101,219.359,49.383,217.814,49.383z"/>
		</g>
	</g>
	<g id="NEW:_GPS_Off">
		<g>
			<path fill="#666666" d="M243.906,46.689c0-2.868-2.238-5.194-4.996-5.194c-2.762,0-4.998,2.326-4.998,5.194
				c0,1.141,0.365,2.187,0.966,3.043l-0.024,0.033l4.058,5.406l4.055-5.406l-0.024-0.033
				C243.541,48.877,243.906,47.83,243.906,46.689z M238.742,49.383c-1.523,0-2.76-1.282-2.76-2.862c0-1.582,1.235-2.866,2.76-2.866
				c1.52,0,2.756,1.284,2.756,2.866C241.498,48.101,240.262,49.383,238.742,49.383z"/>
		</g>
	</g>
	<g id="Headphones_1_">
		<g id="Ellipse_1_copy_1_">
			<g>
				<path fill="#FFFFFF" d="M202.445,51.916l0.525-2.893h-0.008c0.057-0.34,0.092-0.686,0.092-1.04c0-3.423-2.714-6.197-6.062-6.197
					c-3.351,0-6.062,2.774-6.062,6.197c0,0.354,0.035,0.7,0.092,1.04h-0.012l0.524,2.889c0.421,0.51,0.907,0.961,1.448,1.337
					l-0.789-4.33h0.02c-0.058-0.304-0.094-0.614-0.094-0.935c0-2.753,2.184-4.979,4.871-4.979c2.689,0,4.871,2.227,4.871,4.979
					c0,0.32-0.036,0.631-0.094,0.935h0.018l-0.791,4.331C201.539,52.875,202.023,52.424,202.445,51.916z"/>
			</g>
		</g>
		<g id="Ellipse_5_1_">
			<g>
				<path fill="#FFFFFF" d="M200.076,49.018c-0.801-0.117-1.605,0.899-1.793,2.269c-0.19,1.366,0.31,2.567,1.113,2.685
					c0.801,0.114,1.604-0.9,1.791-2.268C201.375,50.334,200.876,49.132,200.076,49.018z"/>
			</g>
		</g>
		<g id="Ellipse_5_copy_1_">
			<g>
				<path fill="#FFFFFF" d="M195.641,51.291c-0.188-1.381-1-2.405-1.811-2.287c-0.812,0.113-1.312,1.328-1.12,2.707
					c0.188,1.377,0.996,2.404,1.808,2.286C195.329,53.882,195.83,52.668,195.641,51.291z"/>
			</g>
		</g>
	</g>
	<g id="Roaming_copy_9">
		<g>
			<path fill="#FFFFFF" d="M172.482,42.209c-0.274-0.275-0.724-0.275-1,0l-2.142,2.14c-0.174,0.177-0.228,0.419-0.18,0.645h5.646
				c0.047-0.226-0.007-0.468-0.181-0.645L172.482,42.209z M180.999,44.099V51l-0.015,0.008v2h2.002V41.987
				C181.887,41.987,180.999,42.933,180.999,44.099z M177.997,46.102v4.9l-0.013,0.006v2h2v-9.021
				C178.889,43.987,177.997,44.933,177.997,46.102z M174.998,48.099v2.902l-0.014,0.007v2h2v-7.021
				C175.887,45.987,174.998,46.935,174.998,48.099z M171.997,50.102v0.9l-0.013,0.006v2h2v-5.021
				C172.887,47.986,171.997,48.932,171.997,50.102z M169.006,51.995l-0.023,0.012v1.001h2.002v-2l-0.014,0.006
				c0.004-0.043,0.014-0.084,0.014-0.129v-0.896C169.919,49.989,169.059,50.879,169.006,51.995z"/>
		</g>
	</g>
	<g id="_x37__4_">
		<g id="Roaming_copy_8">
			<g>
				<path fill="#FFFFFF" d="M159.995,44.099v6.902l-0.015,0.007v2h2V41.987C160.885,41.987,159.995,42.933,159.995,44.099z
					 M156.996,46.102v4.899l-0.014,0.007v2h2v-9.021C157.884,43.987,156.996,44.933,156.996,46.102z M153.994,48.099v2.902
					l-0.014,0.007v2h2.001v-7.021C154.883,45.987,153.994,46.935,153.994,48.099z M150.994,50.102v0.9l-0.012,0.006v2h1.998v-5.021
					C151.882,47.986,150.994,48.932,150.994,50.102z M148.001,51.995l-0.022,0.012v1.001h2.001v-2l-0.013,0.006
					c0.003-0.043,0.013-0.084,0.013-0.129v-0.896C148.917,49.989,148.054,50.879,148.001,51.995z"/>
			</g>
		</g>
	</g>
	<g id="_x36__4_">
		<g id="Roaming_copy_7_1_">
			<g>
				<path fill="#666666" d="M138.992,44.099v6.872l-0.012,0.006v2h1.998v-10.99C139.879,41.987,138.992,42.933,138.992,44.099z"/>
			</g>
		</g>
		<g id="Rectangle_6_1_">
			<g>
				<path fill="#FFFFFF" d="M135.99,46.102v4.9l-0.012,0.006v2h2.001v-9.021C136.88,43.987,135.99,44.933,135.99,46.102z
					 M132.991,48.099v2.902l-0.014,0.007v2h1.999v-7.021C133.878,45.987,132.991,46.935,132.991,48.099z M129.989,50.102v0.9
					l-0.012,0.006v2h2v-5.021C130.879,47.986,129.989,48.932,129.989,50.102z M127,51.995l-0.023,0.012v1.001h2v-2l-0.013,0.006
					c0.003-0.043,0.013-0.084,0.013-0.129v-0.896C127.913,49.989,127.052,50.879,127,51.995z"/>
			</g>
		</g>
	</g>
	<g id="_x35__5_">
		<g id="Roaming_copy_6">
			<g>
				<path fill="#666666" d="M117.987,44.099v6.872l-0.012,0.006v2h2v-10.99C118.875,41.987,117.987,42.933,117.987,44.099z
					 M114.986,46.102v4.869l-0.013,0.006v2h2.002v-8.989C115.877,43.987,114.986,44.933,114.986,46.102z"/>
			</g>
		</g>
		<g id="Rectangle_5">
			<g>
				<path fill="#FFFFFF" d="M111.987,48.099v2.903l-0.012,0.006v2h1.999v-7.021C112.875,45.987,111.987,46.935,111.987,48.099z
					 M108.985,50.102v0.9l-0.012,0.006v2h2.001v-5.021C109.876,47.986,108.985,48.932,108.985,50.102z M105.996,51.996l-0.021,0.011
					v1.001h2v-2l-0.013,0.006c0.003-0.043,0.013-0.084,0.013-0.129v-0.896C106.909,49.989,106.048,50.88,105.996,51.996z"/>
			</g>
		</g>
	</g>
	<g id="_x34__6_">
		<g id="Roaming_copy_5_1_">
			<g>
				<path fill="#666666" d="M96.983,44.099v6.872l-0.012,0.006v2h1.999v-10.99C97.874,41.987,96.983,42.933,96.983,44.099z
					 M93.985,46.102v4.868l-0.014,0.007v2h2.001v-8.989C94.874,43.987,93.985,44.933,93.985,46.102z M90.982,48.099v2.872
					l-0.012,0.006v2h2v-6.989C91.874,45.987,90.982,46.935,90.982,48.099z"/>
			</g>
		</g>
		<g id="Rectangle_4_1_">
			<g>
				<path fill="#FFFFFF" d="M84.992,51.996l-0.021,0.011v1.001h1.999v-2l-0.013,0.006c0.003-0.043,0.013-0.084,0.013-0.129v-0.896
					C85.906,49.989,85.044,50.88,84.992,51.996z M89.968,50.008v-2.021c-1.095,0-1.983,0.945-1.983,2.115v0.899l-0.014,0.007v2
					h1.999v-3.001L89.968,50.008z"/>
			</g>
		</g>
	</g>
	<g id="_x33__6_">
		<g id="Roaming_copy_4">
			<g>
				<path fill="#666666" d="M72.981,46.102v4.868l-0.014,0.007v2h2.001v-8.989C73.87,43.987,72.981,44.933,72.981,46.102z
					 M71.966,45.987c-1.096,0-1.986,0.947-1.986,2.111v2.87l-0.015,0.009v2h2.003v-3.002l-0.002,0.002V45.987z M68.965,47.986
					c-1.097,0-1.986,0.946-1.986,2.114v0.87l-0.013,0.007v2h2.001v-3.002l-0.002,0.002V47.986z M77.966,49.977v-7.989
					c-1.095,0-1.986,0.945-1.986,2.111v6.872l-0.012,0.006v2h2.001v-3H77.966z"/>
			</g>
		</g>
		<g id="Rectangle_3">
			<g>
				<path fill="#FFFFFF" d="M65.967,49.989c-1.064,0-1.926,0.89-1.979,2.006l-0.022,0.012v1.001h2.001v-2l-0.012,0.006
					c0.002-0.043,0.012-0.084,0.012-0.129V49.989z"/>
			</g>
		</g>
	</g>
	<g id="Roaming_copy_3_1_">
		<g>
			<path fill="#666666" d="M53.964,43.987c-1.097,0-1.987,0.945-1.987,2.114v4.868l-0.013,0.008v2h2.001v-3.002l-0.001,0.002V43.987
				z M50.963,45.987c-1.097,0-1.987,0.947-1.987,2.111v2.872l-0.013,0.007v2h2v-3.002l0,0V45.987z M47.963,47.986
				c-1.097,0-1.987,0.946-1.987,2.114v0.869l-0.013,0.008v2h2.001v-3.002l-0.001,0.002V47.986z M44.961,50.854V49.99
				c-1.062,0-1.923,0.89-1.976,2.006l-0.024,0.012v0.971h2.001v-1.97l-0.017,0.009C44.95,50.962,44.961,50.909,44.961,50.854z
				 M56.963,49.977v-7.989c-1.096,0-1.985,0.945-1.985,2.111v6.871l-0.014,0.007v2h2.001v-3H56.963z"/>
		</g>
	</g>
	<g id="Roaming_copy_3_3_">
		<g>
			<path fill="#666666" d="M32.96,43.997c-1.097,0-1.987,0.945-1.987,2.114v4.868l-0.013,0.008v2h2.001v-3.002l-0.001,0.002V43.997z
				 M29.959,45.997c-1.097,0-1.987,0.947-1.987,2.111v2.873l-0.013,0.006v2h2v-3.002l0,0V45.997z M26.959,47.996
				c-1.097,0-1.987,0.945-1.987,2.113v0.869l-0.013,0.008v2h2.001v-3.002l-0.001,0.002V47.996z M23.958,50.863v-0.864
				c-1.062,0-1.923,0.89-1.976,2.006l-0.024,0.013v0.969h2.001v-1.969l-0.017,0.01C23.946,50.973,23.958,50.919,23.958,50.863z
				 M35.959,49.986v-7.989c-1.096,0-1.985,0.945-1.985,2.111v6.871l-0.014,0.008v2h2.001v-3.002L35.959,49.986z"/>
		</g>
	</g>
	<g id="New_Airplane_Mode">
		<g>
			<path fill="#FFFFFF" d="M13.914,48.453c0-0.562-1.71-1.035-4.037-1.178l-3.5-4.105c-0.198-0.257-1.196-0.283-1.196-0.283H4.389
				l2.23,4.472c-1.178,0.139-2.491,0.379-3.201,0.672l-1.241-1.716c-0.158-0.277-0.449-0.277-0.449-0.277H0.903l1.075,2.524
				l-1.073,2.522H1.73c0,0,0.291,0,0.448-0.278l1.357-1.877c0.722,0.268,1.936,0.484,3.038,0.615L4.39,53.926h1.527
				c0,0,0.265-0.025,0.462-0.281l3.411-4.006C12.161,49.501,13.914,49.021,13.914,48.453z"/>
		</g>
	</g>
	<g id="USB_Mass_Storage_2_">
		<g id="USB_Mass_Storage_1_">
			<g>
				<path fill="#F9F9F9" d="M304.005,64.008v2.002h1.286c-0.085,1.751-1.497,3.15-3.257,3.198c-0.011,0.091-0.024,0.181-0.036,0.271
					v-5.471h1.63l-2.104-2.998h-0.038l-2.108,2.998h1.619v7.03c-1.095-0.347-1.94-1.224-2.233-2.338
					c0.568-0.116,1.006-0.597,1.006-1.199c0-0.692-0.56-1.251-1.247-1.251c-0.691,0-1.253,0.559-1.253,1.251
					c0,0.508,0.309,0.94,0.744,1.136c0.231,1.27,1.062,2.316,2.187,2.863c-0.428,0.367-0.704,0.904-0.704,1.511
					c0,1.104,0.897,2,2.005,2c1.101,0,1.998-0.896,1.998-2c0-0.931-0.641-1.708-1.5-1.932v-1.166h0.013
					c2.178,0,3.937-1.74,3.986-3.903h0.009v-0.092v-1.093v-0.817H304.005z"/>
			</g>
		</g>
	</g>
	<g id="BATTERY_NEW_3_">
		<path fill="#FF0000" d="M24.897,27.973c0-0.904-0.078-1.739-0.203-2.47h-1.438c-0.258-1.505-0.739-2.53-1.297-2.53
			c-0.031,0-0.06,0.024-0.09,0.03H2.046c-0.031-0.006-0.06-0.03-0.09-0.03c-0.829,0-1.5,2.236-1.5,5.001
			c0,2.762,0.671,4.998,1.5,4.998v0.031h20.003v-0.031c0.551,0,1.026-0.998,1.287-2.469h1.438
			C24.816,29.759,24.897,28.9,24.897,27.973z M21.959,32.004H1.956v-8h20.003v2.609v2.732V32.004z"/>
		<g id="x_copy">
			<g>
				<path fill="#FFFFFF" d="M14.487,23.802l-4.234,4.19h2.276L14.487,23.802z M12.387,28.014l-1.959,4.192l4.234-4.192H12.387z"/>
			</g>
		</g>
	</g>
	<g id="BATTERY_NEW_copy_3_">
		<g id="x_copy_2_1_">
			<g>
				<path fill="#FFFFFF" d="M40.492,23.802l-4.234,4.19h2.274L40.492,23.802z M38.391,28.014l-1.958,4.192l4.234-4.192H38.391z"/>
			</g>
		</g>
		<path fill="#FF0000" d="M50.901,27.973c0-0.904-0.077-1.739-0.202-2.47h-1.438c-0.259-1.505-0.74-2.53-1.297-2.53
			c-0.031,0-0.06,0.024-0.09,0.03H28.051c-0.031-0.006-0.06-0.03-0.09-0.03c-0.829,0-1.5,2.236-1.5,5.001
			c0,2.762,0.671,4.998,1.5,4.998v0.031h20.003v-0.031c0.55,0,1.026-0.998,1.287-2.469h1.437
			C50.82,29.759,50.901,28.9,50.901,27.973z M47.964,32.004H30.926v-8h17.038v2.606v2.739V32.004z"/>
	</g>
	<g id="BATTERY_NEW_copy_2_3_">
		<path fill="#FFCB00" d="M76.906,27.973c0.001-0.904-0.076-1.739-0.202-2.47h-1.438c-0.259-1.505-0.74-2.53-1.299-2.53
			c-0.031,0-0.06,0.024-0.09,0.03H54.055c-0.03-0.006-0.059-0.03-0.09-0.03c-0.83,0-1.501,2.236-1.501,5.001
			c0,2.762,0.672,4.998,1.501,4.998v0.031h20.002v-0.031c0.551,0,1.028-0.998,1.289-2.469h1.437
			C76.825,29.759,76.906,28.9,76.906,27.973z M73.967,32.004H58.042v-8h15.925v2.605v2.74V32.004z"/>
		<g id="x_copy_3">
			<g>
				<path fill="#FFFFFF" d="M66.496,23.802l-4.234,4.19h2.275L66.496,23.802z M64.396,28.014l-1.958,4.192l4.233-4.192H64.396z"/>
			</g>
		</g>
	</g>
	<g id="BATTERY_NEW_copy_3_3_">
		<path fill="#FFCB00" d="M102.908,27.973c0.001-0.904-0.076-1.739-0.202-2.47h-1.438c-0.258-1.505-0.738-2.53-1.296-2.53
			c-0.031,0-0.06,0.024-0.09,0.03H80.059c-0.031-0.006-0.06-0.03-0.091-0.03c-0.828,0-1.5,2.236-1.5,5.001
			c0,2.762,0.672,4.998,1.5,4.998v0.031h20.004v-0.031c0.551,0,1.026-0.998,1.287-2.469h1.436
			C102.827,29.759,102.908,28.9,102.908,27.973z M99.972,32.004h-13.96v-8h13.96v2.605v2.74V32.004z"/>
		<g id="x_copy_4_1_">
			<g>
				<path fill="#FFFFFF" d="M92.5,23.802l-4.234,4.19h2.273L92.5,23.802z M90.399,28.014l-1.959,4.192l4.234-4.192H90.399z"/>
			</g>
		</g>
	</g>
	<g id="BATTERY_NEW_copy_4_3_">
		<path fill="#24B324" d="M128.912,27.974c0.002-0.905-0.076-1.74-0.202-2.471h-1.436c-0.258-1.505-0.739-2.53-1.298-2.53
			c-0.031,0-0.06,0.024-0.09,0.03h-19.822c-0.03-0.006-0.059-0.03-0.09-0.03c-0.83,0-1.501,2.236-1.501,5.001
			c0,2.762,0.671,4.998,1.501,4.998v0.031h20.002v-0.031c0.551,0,1.027-0.997,1.288-2.468h1.435
			C128.831,29.76,128.912,28.901,128.912,27.974z M113.992,32.004v-8h11.984v2.59c0,0.003,0,0.005-0.001,0.008v2.756
			c0,0.002,0,0.005,0.001,0.007v2.639H113.992z"/>
		<g id="x_copy_5">
			<g>
				<path fill="#FFFFFF" d="M118.504,23.802l-4.235,4.19h2.277L118.504,23.802z M116.403,28.014l-1.957,4.192l4.232-4.192H116.403z"
					/>
			</g>
		</g>
	</g>
	<g id="BATTERY_NEW_copy_5_3_">
		<path fill="#24B324" d="M154.917,27.973c0.001-0.904-0.076-1.739-0.202-2.47h-1.437c-0.258-1.505-0.739-2.53-1.296-2.53
			c-0.031,0-0.06,0.024-0.09,0.03h-19.824c-0.031-0.006-0.06-0.03-0.091-0.03c-0.828,0-1.501,2.236-1.501,5.001
			c0,2.762,0.673,4.998,1.501,4.998v0.031h20.005v-0.031c0.549,0,1.025-0.998,1.286-2.469h1.435
			C154.836,29.759,154.917,28.9,154.917,27.973z M142.033,32.004v-8h9.949v2.595c0,0.003,0,0.005-0.001,0.008v2.742
			c0,0.002,0,0.005,0.001,0.007v2.647H142.033z"/>
		<g id="x_copy_6_1_">
			<g>
				<path fill="#FFFFFF" d="M144.509,23.802l-4.234,4.19h2.275L144.509,23.802z M142.407,28.014l-1.957,4.192l4.235-4.192H142.407z"
					/>
			</g>
		</g>
	</g>
	<g id="BATTERY_NEW_copy_6_3_">
		<path fill="#24B324" d="M180.719,25.503h-1.438c-0.258-1.505-0.738-2.53-1.297-2.53c-0.03,0-0.06,0.024-0.09,0.03h-19.822
			c-0.03-0.006-0.059-0.03-0.09-0.03c-0.829,0-1.501,2.236-1.501,5.001c0,2.762,0.673,4.998,1.501,4.998v0.031h20.002v-0.031
			c0.552,0,1.027-0.998,1.287-2.469h1.437c0.132-0.744,0.213-1.603,0.213-2.53C180.922,27.069,180.846,26.234,180.719,25.503z
			 M177.984,26.609v2.74v2.655h-8v-8h8V26.609z"/>
		<g id="x_copy_7">
			<g>
				<path fill="#FFFFFF" d="M170.512,23.802l-4.232,4.19h2.272L170.512,23.802z M168.412,28.014l-1.958,4.192l4.233-4.192H168.412z"
					/>
			</g>
		</g>
	</g>
	<g id="BATTERY_NEW_copy_7_3_">
		<path fill="#24B324" d="M206.927,27.973c0.001-0.904-0.075-1.739-0.202-2.47h-1.438c-0.261-1.505-0.743-2.53-1.301-2.53
			c-0.03,0-0.06,0.024-0.09,0.03h-19.82c-0.03-0.006-0.059-0.03-0.09-0.03c-0.827,0-1.5,2.236-1.5,5.001
			c0,2.762,0.673,4.998,1.5,4.998v0.031h20v-0.031c0.55,0,1.028-0.998,1.291-2.469h1.437
			C206.846,29.759,206.927,28.9,206.927,27.973z M203.986,32.004h-6.008v-8h6.008v2.609v2.735V32.004z"/>
		<g id="x_copy_8_1_">
			<g>
				<path fill="#FFFFFF" d="M196.516,23.802l-4.234,4.19h2.277L196.516,23.802z M194.417,28.014l-1.957,4.192l4.229-4.192H194.417z"
					/>
			</g>
		</g>
	</g>
	<g id="BATTERY_NEW_copy_8_3_">
		<path fill="#24B324" d="M232.93,27.973c0.002-0.904-0.076-1.739-0.201-2.47h-1.438c-0.258-1.505-0.738-2.53-1.296-2.53
			c-0.031,0-0.061,0.024-0.09,0.03h-19.823c-0.03-0.006-0.06-0.03-0.09-0.03c-0.829,0-1.501,2.236-1.501,5.001
			c0,2.762,0.672,4.998,1.501,4.998v0.031h20.003v-0.031c0.55,0,1.025-0.998,1.286-2.469h1.437
			C232.85,29.759,232.93,28.9,232.93,27.973z M226.096,32.004v-8h3.898v2.597c0,0.003-0.001,0.005-0.001,0.008v2.74
			c0,0.002,0.001,0.005,0.001,0.007v2.647H226.096z"/>
		<g id="x_copy_9">
			<g>
				<path fill="#FFFFFF" d="M222.523,23.802l-4.235,4.19h2.274L222.523,23.802z M220.42,28.014l-1.958,4.192l4.233-4.192H220.42z"/>
			</g>
		</g>
	</g>
	<g id="BATTERY_NEW_copy_9_3_">
		<path fill="#24B324" d="M258.934,27.974c0-0.905-0.076-1.74-0.203-2.471h-1.436c-0.259-1.505-0.739-2.53-1.297-2.53
			c-0.031,0-0.061,0.024-0.09,0.03h-19.824c-0.029-0.006-0.059-0.03-0.09-0.03c-0.828,0-1.499,2.236-1.499,5.001
			c0,2.762,0.671,4.998,1.499,4.998v0.031h20.004v-0.031c0.55,0,1.025-0.997,1.287-2.468h1.436
			C258.852,29.76,258.934,28.901,258.934,27.974z M253.997,32.004v-8h2.001v2.59c0,0.003-0.001,0.005-0.001,0.008v2.756
			c0,0.002,0.001,0.005,0.001,0.007v2.639H253.997z"/>
		<g id="x_copy_10_1_">
			<g>
				<path fill="#FFFFFF" d="M248.525,23.802l-4.233,4.19h2.276L248.525,23.802z M246.424,28.014l-1.959,4.192l4.234-4.192H246.424z"
					/>
			</g>
		</g>
	</g>
	<path fill="#24B324" d="M284.939,27.973c0-0.904-0.076-1.739-0.203-2.47h-1.438c-0.258-1.505-0.738-2.53-1.296-2.53
		c-0.03,0-0.06,0.024-0.09,0.03h-19.825c-0.029-0.006-0.059-0.03-0.09-0.03c-0.828,0-1.5,2.236-1.5,5.001
		c0,2.762,0.672,4.998,1.5,4.998v0.031h20.005v-0.031c0.55,0,1.025-0.998,1.286-2.469h1.436
		C284.857,29.759,284.939,28.9,284.939,27.973z"/>
	<path fill="#FF0000" d="M24.897,7.97c0-0.904-0.078-1.739-0.203-2.47h-1.438c-0.258-1.505-0.739-2.532-1.297-2.532
		c-0.033,0-0.063,0.025-0.096,0.032H2.051C2.019,2.994,1.988,2.968,1.956,2.968c-0.829,0-1.5,2.239-1.5,5.001
		c0,2.763,0.671,5.002,1.5,5.002V13h20.003v-0.029c0.55,0,1.026-0.998,1.287-2.47h1.438C24.816,9.756,24.897,8.898,24.897,7.97z
		 M21.959,12.002H1.956V4h20.003v2.61v2.732V12.002z"/>
	<path fill="#FF0000" d="M50.901,7.969c0-0.903-0.077-1.738-0.202-2.469h-1.438c-0.258-1.505-0.739-2.532-1.297-2.532
		c-0.033,0-0.063,0.025-0.096,0.032H28.057c-0.033-0.007-0.063-0.032-0.096-0.032c-0.829,0-1.5,2.239-1.5,5.001
		c0,2.763,0.671,5.002,1.5,5.002V13h20.003v-0.029c0.55,0,1.026-0.999,1.287-2.471h1.437C50.82,9.755,50.901,8.897,50.901,7.969z
		 M47.964,12.002H30.926V4h17.038v2.607v2.738V12.002z"/>
	<path fill="#FFCB00" d="M76.906,7.97c0.001-0.904-0.076-1.739-0.202-2.47h-1.438c-0.259-1.505-0.74-2.532-1.299-2.532
		c-0.033,0-0.063,0.025-0.096,0.032h-19.81c-0.032-0.007-0.063-0.032-0.096-0.032c-0.83,0-1.501,2.239-1.501,5.001
		c0,2.763,0.672,5.002,1.501,5.002V13h20.002v-0.029c0.551,0,1.027-0.998,1.289-2.47h1.438C76.825,9.756,76.906,8.898,76.906,7.97z
		 M73.967,12.002H58.042V4h15.925v2.606v2.74V12.002z"/>
	<path fill="#FFCB00" d="M102.908,7.97c0.001-0.904-0.076-1.739-0.202-2.47h-1.438c-0.258-1.505-0.738-2.532-1.296-2.532
		c-0.033,0-0.063,0.025-0.096,0.032H80.064c-0.032-0.007-0.062-0.032-0.096-0.032c-0.828,0-1.5,2.239-1.5,5.001
		c0,2.763,0.672,5.002,1.5,5.002V13h20.004v-0.029c0.551,0,1.026-0.998,1.287-2.47h1.436C102.827,9.756,102.908,8.898,102.908,7.97z
		 M99.972,12.002H86.013V4h13.959v2.606v2.74V12.002z"/>
	<path fill="#FFFFFF" d="M128.912,7.969c0.002-0.903-0.076-1.738-0.202-2.469h-1.436c-0.259-1.505-0.74-2.532-1.298-2.532
		c-0.033,0-0.063,0.025-0.096,0.032h-19.81c-0.032-0.007-0.062-0.032-0.096-0.032c-0.83,0-1.501,2.239-1.501,5.001
		c0,2.763,0.671,5.002,1.501,5.002V13h20.002v-0.029c0.551,0,1.027-0.999,1.288-2.471h1.435
		C128.831,9.755,128.912,8.897,128.912,7.969z M113.992,12.002V4h11.984v2.59c0,0.003,0,0.005-0.001,0.008v2.755
		c0,0.002,0,0.005,0.001,0.007v2.642H113.992z"/>
	<path fill="#FFFFFF" d="M154.917,7.969c0.001-0.903-0.076-1.738-0.202-2.469h-1.437c-0.258-1.505-0.739-2.532-1.296-2.532
		c-0.033,0-0.063,0.025-0.096,0.032h-19.813c-0.032-0.007-0.062-0.032-0.096-0.032c-0.828,0-1.501,2.239-1.501,5.001
		c0,2.763,0.673,5.002,1.501,5.002V13h20.005v-0.029c0.549,0,1.025-0.999,1.286-2.471h1.436
		C154.836,9.755,154.917,8.897,154.917,7.969z M141.963,12.002V4h10.019v2.596c0,0.003,0,0.005-0.001,0.008v2.741
		c0,0.002,0,0.005,0.001,0.007v2.65H141.963z"/>
	<path fill="#FFFFFF" d="M180.921,7.97c0.001-0.904-0.075-1.739-0.202-2.47h-1.437c-0.259-1.505-0.739-2.532-1.298-2.532
		c-0.032,0-0.062,0.025-0.096,0.032h-19.812c-0.032-0.007-0.062-0.032-0.097-0.032c-0.828,0-1.5,2.239-1.5,5.001
		c0,2.763,0.673,5.002,1.5,5.002V13h20.004v-0.029c0.55,0,1.025-0.998,1.287-2.47h1.437C180.84,9.756,180.921,8.898,180.921,7.97z
		 M177.984,12.002h-8V4h8v2.606v2.74V12.002z"/>
	<path fill="#FFFFFF" d="M206.927,7.97c0.001-0.904-0.075-1.739-0.202-2.47h-1.438c-0.26-1.505-0.743-2.532-1.301-2.532
		c-0.032,0-0.062,0.025-0.096,0.032h-19.81c-0.032-0.007-0.062-0.032-0.097-0.032c-0.826,0-1.5,2.239-1.5,5.001
		c0,2.763,0.674,5.002,1.5,5.002V13h20.002v-0.029c0.55,0,1.027-0.998,1.29-2.47h1.438C206.846,9.756,206.927,8.898,206.927,7.97z
		 M203.986,12.002h-6.008V4h6.008v2.61v2.735V12.002z"/>
	<path fill="#FFFFFF" d="M232.93,7.97c0.002-0.904-0.076-1.739-0.201-2.47h-1.438c-0.258-1.505-0.738-2.532-1.296-2.532
		c-0.033,0-0.062,0.025-0.096,0.032h-19.812c-0.031-0.007-0.062-0.032-0.096-0.032c-0.829,0-1.501,2.239-1.501,5.001
		c0,2.763,0.672,5.002,1.501,5.002V13h20.003v-0.029c0.549,0,1.024-0.998,1.286-2.47h1.438C232.85,9.756,232.93,8.898,232.93,7.97z
		 M226.096,12.002V4h3.898v2.598c0,0.003-0.001,0.005-0.001,0.008v2.74c0,0.002,0.001,0.005,0.001,0.007v2.648H226.096z"/>
	<path fill="#FFFFFF" d="M258.934,7.969c0-0.903-0.076-1.738-0.203-2.469h-1.436c-0.259-1.505-0.739-2.532-1.297-2.532
		c-0.033,0-0.062,0.025-0.096,0.032H236.09c-0.031-0.007-0.062-0.032-0.096-0.032c-0.828,0-1.499,2.239-1.499,5.001
		c0,2.763,0.671,5.002,1.499,5.002V13h20.004v-0.029c0.55,0,1.025-0.999,1.287-2.471h1.436
		C258.852,9.755,258.934,8.897,258.934,7.969z M253.997,12.002V4h2.001v2.59c0,0.003-0.001,0.005-0.001,0.008v2.755
		c0,0.002,0.001,0.005,0.001,0.007v2.642H253.997z"/>
	<path fill="#FFFFFF" d="M284.939,7.97c0-0.904-0.076-1.739-0.203-2.47H283.3c-0.259-1.505-0.739-2.532-1.297-2.532
		c-0.032,0-0.063,0.025-0.096,0.032h-19.813c-0.031-0.007-0.062-0.032-0.096-0.032c-0.828,0-1.5,2.239-1.5,5.001
		c0,2.763,0.672,5.002,1.5,5.002V13h20.005v-0.029c0.55,0,1.025-0.998,1.286-2.47h1.438C284.857,9.756,284.939,8.898,284.939,7.97z"
		/>
	<g id="_x3F_">
		<text transform="matrix(1 0 0 1 295.9883 10.502)" fill="#FFFFFF" font-family="'FiraSansMedium'" font-size="8.0221">?</text>
	</g>
	<path fill="#FFFFFF" d="M310.943,7.97c0.001-0.904-0.076-1.739-0.202-2.47h-1.438c-0.259-1.505-0.74-2.532-1.298-2.532
		c-0.033,0-0.062,0.025-0.096,0.032h-19.812c-0.031-0.007-0.062-0.032-0.096-0.032c-0.827,0-1.501,2.239-1.501,5.001
		c0,2.763,0.674,5.002,1.501,5.002V13h20.002v-0.029c0.55,0,1.026-0.998,1.287-2.47h1.439C310.862,9.756,310.943,8.898,310.943,7.97
		z M308.005,12.002h-20.002V4h20.002v2.606v2.74V12.002z"/>
</g>
</svg>
