<svg xmlns="http://www.w3.org/2000/svg" viewBox="0 0 34 34"><path fill-rule="evenodd" clip-rule="evenodd" fill="#858585" d="M5.7 25.4l-1.7 1c1.2 1.7 2.8 3.2 4.7 4.3l.9-1.6c-1.5-1-2.8-2.2-3.9-3.7zM4.1 11.2l-1.6-.9c-.9 2-1.4 4.1-1.5 6.4h1.9c0-2 .5-3.8 1.2-5.5zm5.1-6l-1-1.6c-2 1.3-3.7 3-4.9 5.1l1.7.9c1.1-1.8 2.5-3.3 4.2-4.4zm21.9 11.5H33c0-2.2-.5-4.3-1.4-6.2l-1.6.9c.7 1.6 1.1 3.4 1.1 5.3zm-2-7l1.6-1c-1.1-1.9-2.7-3.5-4.4-4.8l-1 1.7c1.5 1.1 2.8 2.5 3.8 4.1zM3 18.6H1.1c.2 2.2.9 4.3 2 6.2l1.6-.9c-.9-1.6-1.5-3.4-1.7-5.3zm21.9 10.1l.9 1.6c1.6-1.1 3.1-2.5 4.2-4.1l-1.6-.9c-.9 1.3-2.1 2.5-3.5 3.4zm-7-25.8c2.1.1 4.1.7 5.8 1.7l.9-1.6c-2-1.1-4.3-1.8-6.7-1.9v1.8zm-7.5 28.7c1.8.8 3.7 1.3 5.7 1.4v-1.9c-1.7-.1-3.3-.5-4.8-1.2l-.9 1.7zm19-7.9l1.6.9c1-1.8 1.6-3.9 1.9-6.1H31c-.2 1.9-.7 3.6-1.6 5.2zm-11.5 7.4V33c2.3-.1 4.4-.7 6.3-1.7l-.9-1.6c-1.6.8-3.4 1.3-5.4 1.4zm-7-26.8c1.6-.8 3.3-1.3 5.2-1.4V1c-2.2.1-4.3.7-6.2 1.6l1 1.7z" opacity=".5"/></svg>