<svg xmlns:dc="http://purl.org/dc/elements/1.1/" xmlns:cc="http://creativecommons.org/ns#" xmlns:rdf="http://www.w3.org/1999/02/22-rdf-syntax-ns#" xmlns:svg="http://www.w3.org/2000/svg" xmlns="http://www.w3.org/2000/svg" xmlns:sodipodi="http://sodipodi.sourceforge.net/DTD/sodipodi-0.dtd" xmlns:inkscape="http://www.inkscape.org/namespaces/inkscape" width="100" height="100" viewBox="0 0 80 80" version="1.1" id="svg2" inkscape:version="0.48.2 r9819" sodipodi:docname="fly.svg">
  <metadata id="metadata10">
    <rdf:RDF>
      <cc:Work rdf:about="">
        <dc:format>image/svg+xml</dc:format>
        <dc:type rdf:resource="http://purl.org/dc/dcmitype/StillImage"/>
      </cc:Work>
    </rdf:RDF>
  </metadata>
  <defs id="defs8"/>
  <sodipodi:namedview pagecolor="#ffffff" bordercolor="#666666" borderopacity="1" objecttolerance="10" gridtolerance="10" guidetolerance="10" inkscape:pageopacity="0" inkscape:pageshadow="2" inkscape:window-width="924" inkscape:window-height="584" id="namedview6" showgrid="false" inkscape:zoom="2.9667058" inkscape:cx="53.812261" inkscape:cy="46.698372" inkscape:window-x="131" inkscape:window-y="197" inkscape:window-maximized="0" inkscape:current-layer="svg2"/>
  <path style="fill:#000000;stroke:#000000;stroke-width:0.02602124" d="M 49.9375 2.5 C 49.413039 6.6703289 48.702875 10.831967 48.59375 15.03125 C 47.596046 20.003285 51.114252 24.280421 51.8125 29.03125 C 51.751754 29.822762 51.470184 30.580047 51.25 31.34375 C 49.609124 30.695145 47.848221 31.02675 46.15625 31.03125 C 47.74386 30.129165 49.900704 30.075352 50.875 28.3125 C 51.296606 27.612921 50.704672 26.963401 50.40625 26.375 C 49.339057 24.681279 49.580993 22.062566 47.375 21.21875 C 44.961915 20.23251 42.363009 21.327981 39.875 20.9375 C 39.620316 19.322682 39.320846 17.711944 39.65625 16.09375 C 38.915166 17.544544 38.156667 18.991037 37.1875 20.28125 C 35.561946 19.5725 33.903363 19.049312 32.25 18.5 C 33.814264 19.449322 35.04086 20.849095 36.1875 22.28125 C 34.4977 24.489476 31.571803 25.732936 30.8125 28.5625 C 30.398795 30.186365 31.272288 31.812081 32.5625 32.78125 C 33.858925 34.379659 35.938699 33.645263 37.625 33.5625 C 36.273436 34.19168 35.135802 35.163694 34.28125 36.40625 C 32.937169 34.693224 31.086942 33.266991 30.34375 31.15625 C 29.506936 29.111321 28.908781 26.798108 27.09375 25.375 C 23.643574 22.02381 19.938455 18.965896 16.21875 15.96875 C 15.824954 16.508891 15.438137 17.04335 15.0625 17.5625 C 18.789082 19.024278 21.547185 22.188346 24.34375 24.9375 C 27.771182 29.333262 30.110957 34.487771 32.9375 39.28125 C 33.197857 40.974367 33.655925 42.615879 34.1875 44.25 C 33.812341 46.677865 34.26691 49.096506 34.5 51.5 C 34.708716 53.295247 35.700029 55.350559 34.4375 56.9375 C 32.690034 54.545286 32.638169 51.435761 31.15625 48.90625 C 30.77778 49.386254 30.409729 49.863755 30.03125 50.34375 C 25.362163 50.268625 20.648699 49.500115 16 50.25 C 14.562778 50.511504 13.134917 50.838491 11.6875 50.6875 C 11.843497 51.482994 11.9848 52.292584 12.0625 53.09375 C 14.294131 51.574367 17.056399 51.533231 19.625 51.40625 C 22.906814 51.345687 26.253959 51.405136 29.5 51.9375 C 31.301941 54.266736 32.160402 57.34833 34.6875 59.09375 C 34.2744 59.910781 33.730314 60.621076 33.4375 61.46875 C 33.06964 65.627736 37.573644 68.260834 37.28125 72.375 C 36.673484 74.308085 35.02606 75.700832 34.09375 77.5 C 32.376681 80.4186 29.717181 83.34635 26.125 83.46875 C 26.816615 84.323846 27.323933 85.288858 27.75 86.28125 C 28.462731 84.438952 30.594986 83.922573 31.9375 82.625 C 34.322356 80.504186 35.720586 77.547324 37.9375 75.28125 C 38.901234 81.252554 39.66431 87.524847 42.84375 92.84375 C 44.485107 95.401073 47.24555 97.175967 50.15625 97.96875 C 52.050185 98.579352 53.907871 97.073916 54.71875 95.5 C 57.41295 90.857698 57.527557 85.286511 58.3125 80.09375 C 58.603082 78.40009 60.328036 77.850764 61.71875 77.21875 C 63.02543 77.87188 64.298699 78.589411 65.375 79.59375 C 68.791154 82.475135 72.371432 85.505636 76.71875 86.84375 C 78.759635 87.581455 81.251685 86.726633 82.125 84.65625 C 83.308144 81.973093 84.143996 78.851159 83.1875 75.96875 C 81.668842 70.214731 78.168991 65.243527 74.8125 60.46875 C 77.830455 60.840529 80.803051 61.558171 83.8125 61.8125 C 85.810315 61.412004 87.848227 61.2637 89.84375 61.375 C 89.477825 60.397929 89.237862 59.421326 89.125 58.40625 C 85.50205 61.364482 80.68807 59.851714 76.625 58.90625 C 75.395474 58.503344 73.769249 58.691042 72.9375 57.53125 C 71.751709 56.101929 71.341621 54.198662 71.09375 52.40625 C 70.819216 50.51738 69.974814 48.70442 68.65625 47.34375 C 67.953836 46.882993 67.06534 46.86805 66.25 46.75 C 66.769875 43.603253 65.014788 40.628652 65.125 37.53125 C 68.060859 34.052119 71.283491 30.718393 75.03125 28.125 C 76.121248 27.416372 77.368207 26.994971 78.625 26.6875 C 78.028698 26.061636 77.539123 25.403005 77.09375 24.6875 C 74.6096 26.795826 71.674319 28.358571 69.46875 30.78125 C 67.440229 32.659803 65.78279 34.917766 63.5625 36.59375 C 62.986585 36.792851 62.368504 36.738725 61.78125 36.78125 C 62.631094 39.277826 63.94179 41.582331 64.90625 44.03125 L 64.40625 44.5625 C 64.132199 44.58235 63.899054 44.60515 63.625 44.625 C 61.800377 41.982561 59.985684 39.281328 57.9375 36.8125 C 55.921046 35.325268 54.833056 32.965767 53.75 30.78125 C 52.782765 26.935404 51.602266 23.154841 50.90625 19.25 C 49.801112 15.945443 50.17473 12.450968 50.5 9.0625 C 50.723081 6.980172 50.808037 4.8438605 51.75 2.90625 C 51.130411 2.7740191 50.536095 2.6140737 49.9375 2.5 z " transform="scale(0.8,0.8)" id="path4"/>
</svg>