<?xml version="1.0" encoding="utf-8"?>
<!-- Generator: Adobe Illustrator 18.1.1, SVG Export Plug-In . SVG Version: 6.00 Build 0)  -->
<svg version="1.1" id="Layer_1" xmlns="http://www.w3.org/2000/svg" xmlns:xlink="http://www.w3.org/1999/xlink" x="0px" y="0px"
	 viewBox="0 0 84 84" enable-background="new 0 0 84 84" xml:space="preserve">
<g>
	<g>
		<path fill-rule="evenodd" clip-rule="evenodd" fill="#FFFFFF" d="M14.1,38.3c-2.8,0-5.1,2.3-5.1,5.1c0,2.8,2.3,5.1,5.1,5.1
			c2.8,0,5.1-2.3,5.1-5.1C19.2,40.6,16.9,38.3,14.1,38.3z M14.1,60.7C11.3,60.7,9,63,9,65.8c0,2.8,2.3,5.1,5.1,5.1
			c2.8,0,5.1-2.3,5.1-5.1C19.2,63,16.9,60.7,14.1,60.7z M14.1,15.9C11.3,15.9,9,18.2,9,21c0,2.8,2.3,5.1,5.1,5.1
			c2.8,0,5.1-2.3,5.1-5.1C19.2,18.2,16.9,15.9,14.1,15.9z M48.4,53.2L48.4,53.2c-0.8,0.7-1.9,0.6-2.6-0.1c0,0,0,0,0,0l-8.5-11.6
			l-4,4.7l11,14.8c2.2,1.3,5.1,1,7-0.9l24.4-29v-9.7L48.4,53.2z"/>
	</g>
</g>
</svg>
