<?xml version="1.0" encoding="utf-8"?>
<!-- Generated by IcoMoon.io -->
<!DOCTYPE svg PUBLIC "-//W3C//DTD SVG 1.1//EN" "http://www.w3.org/Graphics/SVG/1.1/DTD/svg11.dtd">
<svg version="1.1" xmlns="http://www.w3.org/2000/svg" xmlns:xlink="http://www.w3.org/1999/xlink" width="32" height="32" viewBox="0 0 32 32">
<g>
</g>
	<path d="M15.983 9.561c-3.55 0-6.429 2.878-6.429 6.429 0 3.551 2.878 6.429 6.429 6.429 3.551 0 6.429-2.878 6.429-6.429 0-3.551-2.878-6.429-6.429-6.429zM26.172 4.981h-20.345c-1.844 0-3.339 1.495-3.339 3.339v15.36c0 1.844 1.495 3.339 3.339 3.339h20.345c1.844 0 3.339-1.495 3.339-3.339v-15.36c0-1.844-1.495-3.339-3.339-3.339zM16.009 24.012c-4.425 0-8.012-3.587-8.012-8.012 0-4.426 3.587-8.012 8.012-8.012 4.425 0 8.012 3.587 8.012 8.012 0 4.425-3.587 8.012-8.012 8.012z" fill="#000000"></path>
</svg>
