<?xml version="1.0" encoding="utf-8"?>
<!-- Generated by IcoMoon.io -->
<!DOCTYPE svg PUBLIC "-//W3C//DTD SVG 1.1//EN" "http://www.w3.org/Graphics/SVG/1.1/DTD/svg11.dtd">
<svg version="1.1" xmlns="http://www.w3.org/2000/svg" xmlns:xlink="http://www.w3.org/1999/xlink" width="32" height="32" viewBox="0 0 32 32">
<g>
</g>
	<path d="M20.66 25.007l1.915-7.148c0.496-1.852-0.607-3.763-2.459-4.259l-2.399-0.643c-0.794-0.212-1.266-1.031-1.054-1.825l2.571-9.597-1.92-0.515-2.571 9.597c-0.496 1.852 0.607 3.763 2.459 4.259l2.399 0.643c0.794 0.212 1.266 1.031 1.054 1.825l-1.915 7.148-3.001-0.804 2.138 7.474 5.588-5.403-2.805-0.752zM7.788 10.069l-2.902 9.157h1.829l0.583-2.12h3.061l0.583 2.12h1.882l-2.876-9.157h-2.16zM7.629 15.781l1.179-4.254h0.053l1.166 4.254h-2.399z" fill="#000000"></path>
</svg>
