<?xml version="1.0" encoding="utf-8"?>
<!-- Generated by IcoMoon.io -->
<!DOCTYPE svg PUBLIC "-//W3C//DTD SVG 1.1//EN" "http://www.w3.org/Graphics/SVG/1.1/DTD/svg11.dtd">
<svg version="1.1" xmlns="http://www.w3.org/2000/svg" xmlns:xlink="http://www.w3.org/1999/xlink" width="32" height="32" viewBox="0 0 32 32">
<g>
</g>
	<path d="M28.575 1.737l-11.747 11.747-1.966-0.527c-0.794-0.212-1.267-1.031-1.054-1.825l2.572-9.597-1.92-0.515-2.571 9.597c-0.496 1.852 0.607 3.763 2.459 4.259l0.858 0.23-12.481 12.481c0.263 0.399 0.604 0.74 1.002 1.003l25.851-25.851c-0.263-0.399-0.604-0.741-1.003-1.003zM19.719 17.859c0.164-0.614 0.139-1.23-0.017-1.803l-2.127 2.127-1.691 6.31-3.001-0.804 2.138 7.474 5.588-5.403-2.805-0.752 1.916-7.148z" fill="#000000"></path>
</svg>
