<?xml version="1.0" encoding="utf-8"?>
<!-- Generated by IcoMoon.io -->
<!DOCTYPE svg PUBLIC "-//W3C//DTD SVG 1.1//EN" "http://www.w3.org/Graphics/SVG/1.1/DTD/svg11.dtd">
<svg version="1.1" xmlns="http://www.w3.org/2000/svg" xmlns:xlink="http://www.w3.org/1999/xlink" width="32" height="32" viewBox="0 0 32 32">
<g>
</g>
	<path d="M-0.033 9.389h0.483c0.824-1.938 2.021-3.756 3.602-5.337s3.398-2.779 5.336-3.602v-0.483c-4.258 1.759-7.663 5.163-9.421 9.422zM31.55 9.389h0.483c-1.758-4.259-5.163-7.663-9.421-9.422v0.483c1.938 0.824 3.755 2.021 5.336 3.602 1.581 1.581 2.779 3.398 3.602 5.337zM0.45 22.611h-0.484c1.758 4.258 5.164 7.662 9.422 9.421v-0.483c-1.938-0.824-3.755-2.021-5.336-3.602-1.581-1.581-2.778-3.398-3.602-5.336zM31.549 22.611c-0.823 1.938-2.021 3.756-3.602 5.336s-3.398 2.778-5.336 3.602v0.484c4.258-1.759 7.664-5.163 9.421-9.421h-0.484z" fill="#000000"></path>
</svg>
