<?xml version="1.0" encoding="utf-8"?>
<!-- Generated by IcoMoon.io -->
<!DOCTYPE svg PUBLIC "-//W3C//DTD SVG 1.1//EN" "http://www.w3.org/Graphics/SVG/1.1/DTD/svg11.dtd">
<svg version="1.1" xmlns="http://www.w3.org/2000/svg" xmlns:xlink="http://www.w3.org/1999/xlink" width="32" height="32" viewBox="0 0 32 32">
<g>
</g>
	<path d="M31.38 9.569h0.199c-1.709-4.134-5.015-7.438-9.147-9.148v0.199c1.947 0.813 3.771 2.009 5.355 3.593s2.78 3.409 3.593 5.356zM0.421 9.569h0.199c0.813-1.947 2.009-3.772 3.593-5.356s3.409-2.78 5.356-3.593v-0.199c-4.133 1.709-7.439 5.014-9.147 9.147zM0.619 22.431h-0.199c1.708 4.133 5.014 7.438 9.147 9.147v-0.198c-1.947-0.813-3.772-2.009-5.356-3.593s-2.78-3.409-3.593-5.356zM31.38 22.431c-0.813 1.947-2.008 3.772-3.593 5.356s-3.409 2.78-5.355 3.593v0.199c4.133-1.709 7.439-5.014 9.148-9.147h-0.2z" fill="#000000"></path>
</svg>
