<?xml version="1.0" encoding="utf-8"?>
<!-- Generated by IcoMoon.io -->
<!DOCTYPE svg PUBLIC "-//W3C//DTD SVG 1.1//EN" "http://www.w3.org/Graphics/SVG/1.1/DTD/svg11.dtd">
<svg version="1.1" xmlns="http://www.w3.org/2000/svg" xmlns:xlink="http://www.w3.org/1999/xlink" width="32" height="32" viewBox="0 0 32 32">
<g>
</g>
	<path d="M5.961 25.035c0 0.554 0.449 1.004 1.004 1.004h5.020v-6.024h-6.024v5.020zM25.035 5.961h-5.020v6.024h6.024v-5.020c0-0.554-0.449-1.003-1.004-1.003zM20.016 26.039h5.020c0.555 0 1.004-0.449 1.004-1.004v-5.020h-6.024v6.024zM5.961 6.964v5.020h6.024v-6.024h-5.020c-0.554 0-1.003 0.449-1.003 1.003zM20.016 19.012h6.024v-6.024h-6.024v6.024zM12.988 11.984h6.024v-6.024h-6.024v6.024zM12.988 19.012h6.024v-6.024h-6.024v6.024zM12.988 26.039h6.024v-6.024h-6.024v6.024zM5.961 19.012h6.024v-6.024h-6.024v6.024z" fill="#000000"></path>
</svg>
