<?xml version="1.0" encoding="utf-8"?>
<!-- Generated by IcoMoon.io -->
<!DOCTYPE svg PUBLIC "-//W3C//DTD SVG 1.1//EN" "http://www.w3.org/Graphics/SVG/1.1/DTD/svg11.dtd">
<svg version="1.1" xmlns="http://www.w3.org/2000/svg" xmlns:xlink="http://www.w3.org/1999/xlink" width="32" height="32" viewBox="0 0 32 32">
<g>
</g>
	<path d="M22.174 14.149c0-3.408-2.762-6.172-6.171-6.172-3.408 0-6.171 2.764-6.171 6.172 0 1.357 0.444 2.609 1.187 3.628l-0.023 0.030 5.009 6.425 5.009-6.425-0.023-0.030c0.741-1.019 1.185-2.27 1.185-3.628zM16.010 17.235c-1.704 0-3.086-1.381-3.086-3.086s1.381-3.086 3.086-3.086c1.704 0 3.086 1.381 3.086 3.086 0 1.704-1.381 3.086-3.086 3.086z" fill="#000000"></path>
</svg>
