<?xml version="1.0" encoding="utf-8"?>
<!-- Generated by IcoMoon.io -->
<!DOCTYPE svg PUBLIC "-//W3C//DTD SVG 1.1//EN" "http://www.w3.org/Graphics/SVG/1.1/DTD/svg11.dtd">
<svg version="1.1" xmlns="http://www.w3.org/2000/svg" xmlns:xlink="http://www.w3.org/1999/xlink" width="32" height="32" viewBox="0 0 32 32">
<g>
</g>
	<path d="M15.861 13.794h-0.514l-0.55 4.446h0.623c0.289 0 0.557-0.058 0.804-0.171 0.246-0.114 0.46-0.289 0.64-0.523s0.322-0.529 0.424-0.884 0.154-0.775 0.154-1.263c0-0.571-0.139-0.981-0.412-1.23-0.274-0.25-0.664-0.375-1.169-0.375zM21.562 4.875h-11.124c-3.072 0-5.562 2.49-5.562 5.562v11.125c0 3.071 2.491 5.562 5.562 5.562h11.125c3.072 0 5.562-2.49 5.562-5.562v-11.124c0-3.073-2.49-5.563-5.563-5.563zM12.721 19.133h-1.2l0.342-2.786h-2.156l-0.343 2.786h-1.191l0.758-6.231h1.2l-0.307 2.498h2.156l0.307-2.498h1.191l-0.757 6.231zM18.461 16.959c-0.15 0.463-0.371 0.855-0.66 1.177-0.289 0.323-0.643 0.568-1.061 0.74s-0.891 0.257-1.42 0.257h-1.823l0.757-6.231h1.624c0.434 0 0.823 0.053 1.168 0.157 0.348 0.105 0.641 0.262 0.885 0.469s0.43 0.466 0.559 0.775c0.129 0.31 0.195 0.669 0.195 1.078 0.001 0.59-0.074 1.116-0.224 1.578zM23.635 19.133h-1.289l-1.174-2.498h-0.74l-0.307 2.498h-1.189l0.758-6.231h1.76c0.805 0 1.402 0.144 1.791 0.433s0.582 0.692 0.582 1.209c0 0.469-0.139 0.874-0.42 1.213-0.279 0.339-0.656 0.576-1.133 0.708l1.361 2.668zM22.285 13.975c-0.189-0.138-0.49-0.208-0.906-0.208h-0.594l-0.254 2.012h0.768c0.408 0 0.723-0.101 0.943-0.302 0.219-0.202 0.328-0.498 0.328-0.889 0-0.271-0.093-0.476-0.285-0.613z" fill="#000000"></path>
</svg>
