<?xml version="1.0" encoding="utf-8"?>
<!-- Generated by IcoMoon.io -->
<!DOCTYPE svg PUBLIC "-//W3C//DTD SVG 1.1//EN" "http://www.w3.org/Graphics/SVG/1.1/DTD/svg11.dtd">
<svg version="1.1" xmlns="http://www.w3.org/2000/svg" xmlns:xlink="http://www.w3.org/1999/xlink" width="32" height="32" viewBox="0 0 32 32">
<g>
</g>
	<path d="M10.479 15.126h-3.060l0.436-3.546h-1.703l-1.075 8.847h1.689l0.487-3.957h3.060l-0.486 3.957h1.702l1.076-8.847h-1.69l-0.436 3.546zM18.923 12.47c-0.346-0.294-0.764-0.516-1.255-0.666-0.49-0.149-1.043-0.224-1.658-0.224h-2.304l-1.075 8.847h2.587c0.75 0 1.423-0.122 2.016-0.366 0.593-0.243 1.095-0.593 1.505-1.050s0.722-1.014 0.935-1.671c0.213-0.657 0.321-1.405 0.321-2.24 0-0.58-0.092-1.090-0.276-1.53-0.186-0.439-0.45-0.806-0.795-1.1zM18.007 16.919c-0.145 0.504-0.345 0.921-0.602 1.254-0.256 0.333-0.56 0.581-0.909 0.743-0.35 0.162-0.73 0.243-1.139 0.243h-0.884l0.782-6.312h0.729c0.717 0 1.27 0.178 1.659 0.531 0.388 0.354 0.583 0.937 0.583 1.748 0 0.691-0.073 1.288-0.219 1.792zM26.689 15.632c0.397-0.482 0.595-1.056 0.595-1.722 0-0.734-0.276-1.306-0.826-1.715-0.55-0.41-1.398-0.615-2.541-0.615h-2.497l-1.075 8.847h1.69l0.435-3.547h1.050l1.664 3.547h1.831l-1.933-3.79c0.673-0.188 1.209-0.523 1.607-1.005zM23.699 15.664h-1.089l0.358-2.855h0.845c0.589 0 1.018 0.099 1.286 0.294 0.269 0.197 0.403 0.486 0.403 0.871 0 0.555-0.156 0.976-0.467 1.261-0.311 0.286-0.758 0.429-1.337 0.429z" fill="#000000"></path>
</svg>
