<?xml version="1.0" encoding="utf-8"?>
<!-- Generated by IcoMoon.io -->
<!DOCTYPE svg PUBLIC "-//W3C//DTD SVG 1.1//EN" "http://www.w3.org/Graphics/SVG/1.1/DTD/svg11.dtd">
<svg version="1.1" xmlns="http://www.w3.org/2000/svg" xmlns:xlink="http://www.w3.org/1999/xlink" width="32" height="32" viewBox="0 0 32 32">
<g>
</g>
	<path d="M19.021 16.62c-0.327-0.367-0.32-0.928 0.031-1.279 0.010-0.006 0.017-0.012 0.023-0.019l4.288-4.287c-0.327-1.243-0.778-2.378-1.323-3.383l-6.039 6.039-6.059-6.058c-0.544 1.004-0.997 2.138-1.327 3.379l4.308 4.31c0.007 0.007 0.017 0.013 0.023 0.019 0.351 0.351 0.361 0.912 0.033 1.279l0.005 0.002-4.371 4.369c0.33 1.241 0.782 2.373 1.327 3.375l6.059-6.059 6.039 6.039c0.542-1.003 0.993-2.137 1.323-3.376l-4.347-4.349 0.005-0.003z" fill="#000000"></path>
</svg>
