<?xml version="1.0" encoding="utf-8"?>
<!-- Generated by IcoMoon.io -->
<!DOCTYPE svg PUBLIC "-//W3C//DTD SVG 1.1//EN" "http://www.w3.org/Graphics/SVG/1.1/DTD/svg11.dtd">
<svg version="1.1" xmlns="http://www.w3.org/2000/svg" xmlns:xlink="http://www.w3.org/1999/xlink" width="32" height="32" viewBox="0 0 32 32">
<g>
</g>
	<path d="M23.53 3.765h-14.588c-1.040 0-1.882 0.843-1.882 1.882v12.003h0.032c-0.019 0.075-0.032 0.152-0.032 0.233v9.411c0 0.52 0.422 0.941 0.941 0.941h6.588c0.52 0 0.941-0.422 0.941-0.941v-9.411c0-0.52-0.422-0.941-0.941-0.941h-5.176v-10.353c0-0.26 0.21-0.471 0.471-0.471h12.706c0.26 0 0.471 0.21 0.471 0.471v18.823c0 0.26-0.211 0.471-0.471 0.471h-3.44v2.353h4.382c1.040 0 1.882-0.843 1.882-1.882v-20.706c-0-1.040-0.843-1.882-1.883-1.882z" fill="#000000"></path>
</svg>
