<?xml version="1.0" encoding="utf-8"?>
<!-- Generated by IcoMoon.io -->
<!DOCTYPE svg PUBLIC "-//W3C//DTD SVG 1.1//EN" "http://www.w3.org/Graphics/SVG/1.1/DTD/svg11.dtd">
<svg version="1.1" xmlns="http://www.w3.org/2000/svg" xmlns:xlink="http://www.w3.org/1999/xlink" width="32" height="32" viewBox="0 0 32 32">
<g>
</g>
	<path d="M9.323 26.773c0.101 1.041 1.013 1.859 2.042 1.859h9.302c1.027 0 1.939-0.82 2.042-1.859l1.402-14.378h-16.183l1.396 14.378zM22.674 6.753h-1.388v-0.69c0-1.516-1.228-2.745-2.746-2.745h-5.074c-1.516 0-2.746 1.229-2.746 2.745v0.69h-1.388c-1.579 0-2.859 1.28-2.859 2.86v1.909h19.059v-1.909c0-1.58-1.282-2.86-2.86-2.86zM19.798 6.753h-7.589v-0.597c0-0.797 0.646-1.443 1.443-1.443h4.703c0.797 0 1.443 0.646 1.443 1.443v0.597z" fill="#000000"></path>
</svg>
