<?xml version="1.0" encoding="utf-8"?>
<!-- Generated by IcoMoon.io -->
<!DOCTYPE svg PUBLIC "-//W3C//DTD SVG 1.1//EN" "http://www.w3.org/Graphics/SVG/1.1/DTD/svg11.dtd">
<svg version="1.1" xmlns="http://www.w3.org/2000/svg" xmlns:xlink="http://www.w3.org/1999/xlink" width="32" height="32" viewBox="0 0 32 32">
<g>
</g>
	<path d="M24.561 20.879c-1.234-0.711-2.721-0.577-3.798 0.219l-8.16-4.71c0.015-0.129 0.039-0.254 0.039-0.387s-0.025-0.259-0.039-0.388l8.16-4.71c1.077 0.797 2.563 0.93 3.798 0.219 1.659-0.957 2.229-3.079 1.27-4.738-0.956-1.659-3.082-2.226-4.739-1.269-1.235 0.713-1.862 2.069-1.711 3.401l-8.154 4.707c-0.577-0.427-1.284-0.689-2.057-0.689-1.917 0-3.469 1.551-3.469 3.468 0 1.915 1.553 3.468 3.469 3.468 0.773 0 1.479-0.261 2.057-0.689l8.154 4.706c-0.153 1.331 0.475 2.689 1.711 3.401 1.659 0.959 3.783 0.39 4.739-1.267 0.959-1.657 0.388-3.78-1.27-4.738z" fill="#000000"></path>
</svg>
