<?xml version="1.0" encoding="utf-8"?>
<!-- Generated by IcoMoon.io -->
<!DOCTYPE svg PUBLIC "-//W3C//DTD SVG 1.1//EN" "http://www.w3.org/Graphics/SVG/1.1/DTD/svg11.dtd">
<svg version="1.1" xmlns="http://www.w3.org/2000/svg" xmlns:xlink="http://www.w3.org/1999/xlink" width="32" height="32" viewBox="0 0 32 32">
<g>
</g>
	<path d="M15.997 3.45c-7.016 0-12.704 5.688-12.704 12.704 0 3.824 1.692 7.25 4.365 9.58l11.67-11.671c0.368-0.368 0.964-0.368 1.331 0l7.042 7.042c0.645-1.522 1.001-3.195 1.001-4.952 0-7.016-5.688-12.704-12.705-12.704zM12.703 15.685c-1.56 0-2.824-1.264-2.824-2.824 0-1.559 1.264-2.824 2.824-2.824 1.56 0 2.824 1.264 2.824 2.824 0 1.56-1.264 2.824-2.824 2.824z" fill="#000000"></path>
</svg>
