<?xml version="1.0" encoding="utf-8"?>
<!-- Generated by IcoMoon.io -->
<!DOCTYPE svg PUBLIC "-//W3C//DTD SVG 1.1//EN" "http://www.w3.org/Graphics/SVG/1.1/DTD/svg11.dtd">
<svg version="1.1" xmlns="http://www.w3.org/2000/svg" xmlns:xlink="http://www.w3.org/1999/xlink" width="32" height="32" viewBox="0 0 32 32">
<g>
</g>
	<path d="M16 5.441c-2.619 0-5.004 0.968-6.848 2.548l-3.158-2.544-0.553 0.553 9.177 11.383c0 0 0 0.002 0.001 0.002 0.764 0.764 2.001 0.764 2.765 0s0.764-2.002 0-2.766c-0.103-0.104-0.216-0.19-0.335-0.265l-6.034-4.861c1.383-1.063 3.106-1.703 4.985-1.703 4.536 0 8.213 3.677 8.213 8.213 0 4.535-3.678 8.214-8.213 8.214-4.536 0-8.213-3.679-8.213-8.214 0-0.579 0.061-1.143 0.175-1.688l-1.781-2.177c-0.472 1.198-0.741 2.5-0.741 3.865 0 5.832 4.728 10.559 10.559 10.559s10.559-4.727 10.559-10.558c0.002-5.832-4.727-10.559-10.559-10.559z" fill="#000000"></path>
</svg>
