<?xml version="1.0" encoding="utf-8"?>
<!-- Generated by IcoMoon.io -->
<!DOCTYPE svg PUBLIC "-//W3C//DTD SVG 1.1//EN" "http://www.w3.org/Graphics/SVG/1.1/DTD/svg11.dtd">
<svg version="1.1" xmlns="http://www.w3.org/2000/svg" xmlns:xlink="http://www.w3.org/1999/xlink" width="32" height="32" viewBox="0 0 32 32">
<g>
</g>
	<path d="M12.776 27.996v-0.2c-6.327 0-11.456-3.012-11.456-6.726 0-1.642 1.004-3.145 2.669-4.313v-0.359c-2.156 1.358-3.488 3.211-3.488 5.257 0 4.057 5.223 7.356 11.764 7.52l-0.852 1.967 5.143-2.66-2.839-2.66-0.941 2.175zM16.003 11.814c-2.12 0-3.841 1.719-3.841 3.841 0 2.121 1.72 3.84 3.841 3.84 2.121 0 3.84-1.719 3.84-3.84 0-2.122-1.72-3.841-3.84-3.841zM19.735 2.497l0.851-1.639-5.142 2.217 2.838 2.217 0.942-1.813v0.167c6.327 0 11.455 2.51 11.455 5.605 0 1.368-1.004 2.62-2.668 3.594v0.3c2.155-1.132 3.488-2.675 3.488-4.38-0-3.38-5.224-6.129-11.764-6.267zM23.091 8.642h-14.182c-1.397 0-2.53 1.132-2.53 2.53v8.934c0 1.397 1.133 2.53 2.53 2.53h14.182c1.397 0 2.529-1.132 2.529-2.53v-8.934c0-1.397-1.132-2.53-2.529-2.53zM16.005 20.44c-2.643 0-4.786-2.143-4.786-4.786 0-2.644 2.143-4.787 4.786-4.787 2.643 0 4.787 2.143 4.787 4.787 0 2.643-2.143 4.786-4.787 4.786z" fill="#000000"></path>
</svg>
