<?xml version="1.0" encoding="utf-8"?>
<!-- Generated by IcoMoon.io -->
<!DOCTYPE svg PUBLIC "-//W3C//DTD SVG 1.1//EN" "http://www.w3.org/Graphics/SVG/1.1/DTD/svg11.dtd">
<svg version="1.1" xmlns="http://www.w3.org/2000/svg" xmlns:xlink="http://www.w3.org/1999/xlink" width="32" height="32" viewBox="0 0 32 32">
<g>
</g>
	<path d="M23.53 3.765h-14.589c-1.040 0-1.882 0.843-1.882 1.882v7.15c-3.264 0.964-5.647 3.98-5.647 7.556 0 4.115 3.154 7.489 7.176 7.847 0.115 0.022 0.232 0.036 0.353 0.036h14.588c1.040 0 1.882-0.843 1.882-1.882v-20.706c0-1.040-0.842-1.882-1.882-1.882zM12.824 21.025v0l-5.675 3.399v-8.144l5.675 3.4c0.22 0.137 0.368 0.386 0.368 0.672 0 0.286-0.148 0.536-0.368 0.672zM23.059 25.411c0 0.26-0.21 0.471-0.471 0.471h-7.68c1.401-1.423 2.268-3.374 2.268-5.529 0-4.313-3.466-7.812-7.764-7.876v-5.888c0-0.26 0.211-0.471 0.471-0.471h12.706c0.26 0 0.471 0.21 0.471 0.471v18.823z" fill="#000000"></path>
</svg>
