<svg xmlns="http://www.w3.org/2000/svg" width="40" height="80" viewBox="0 0 40 80"><path fill-rule="evenodd" clip-rule="evenodd" fill="#fff" d="M19.99 30.972c-2.263 0-4.365-.686-6.112-1.86l-4.907 1.888 1.888-4.912c-1.168-1.746-1.851-3.844-1.851-6.102.001-6.068 4.917-10.986 10.982-10.986s10.981 4.918 10.981 10.986c0 6.067-4.916 10.986-10.981 10.986zm-5.116-15.056l-1.286 2.794c-.244.533-.31.776-.31 1.042 0 .554.377.976.997.976.621 0 1.042-.421 1.042-.976 0-.332-.155-.621-.399-.776l.798-3.06h-.842zm3.436 0l-1.286 2.794c-.244.533-.31.776-.31 1.042 0 .554.377.976.998.976s1.042-.421 1.042-.976c0-.332-.155-.621-.399-.776l.798-3.06h-.843zm3.857 3.267c-.621 0-1.042.421-1.042.976 0 .333.155.621.399.776l-.798 3.061h.843l1.286-2.794c.244-.532.31-.776.31-1.042-.001-.556-.377-.977-.998-.977zm3.436 0c-.621 0-1.042.421-1.042.976 0 .333.155.621.399.776l-.798 3.061h.842l1.286-2.794c.244-.532.31-.776.31-1.042 0-.556-.377-.977-.997-.977z"/><path fill-rule="evenodd" clip-rule="evenodd" fill="#575858" d="M19.99 70.972c-2.263 0-4.365-.686-6.112-1.86l-4.907 1.888 1.888-4.912c-1.168-1.746-1.851-3.844-1.851-6.102.001-6.068 4.917-10.986 10.982-10.986s10.981 4.918 10.981 10.986c0 6.067-4.916 10.986-10.981 10.986zm-5.116-15.056l-1.286 2.794c-.244.533-.31.776-.31 1.042 0 .554.377.976.997.976.621 0 1.042-.421 1.042-.976 0-.332-.155-.621-.399-.776l.798-3.06h-.842zm3.436 0l-1.286 2.794c-.244.533-.31.776-.31 1.042 0 .554.377.976.998.976s1.042-.421 1.042-.976c0-.332-.155-.621-.399-.776l.798-3.06h-.843zm3.857 3.267c-.621 0-1.042.421-1.042.976 0 .333.155.621.399.776l-.798 3.061h.843l1.286-2.794c.244-.532.31-.776.31-1.042-.001-.556-.377-.977-.998-.977zm3.436 0c-.621 0-1.042.421-1.042.976 0 .333.155.621.399.776l-.798 3.061h.842l1.286-2.794c.244-.532.31-.776.31-1.042 0-.556-.377-.977-.997-.977z"/></svg>