<?xml version="1.0" encoding="utf-8"?>
<!-- Generator: Adobe Illustrator 16.0.0, SVG Export Plug-In . SVG Version: 6.00 Build 0)  -->
<!DOCTYPE svg PUBLIC "-//W3C//DTD SVG 1.1//EN" "http://www.w3.org/Graphics/SVG/1.1/DTD/svg11.dtd">
<svg version="1.1" id="Layer_1" xmlns="http://www.w3.org/2000/svg" xmlns:xlink="http://www.w3.org/1999/xlink" x="0px" y="0px"
	 width="40px" height="80px" viewBox="0 0 40 80" enable-background="new 0 0 40 80" xml:space="preserve">
<path fill="#FFFFFF" d="M19.99,30.972c-2.263,0-4.365-0.686-6.112-1.86L8.971,31l1.888-4.912c-1.168-1.746-1.851-3.844-1.851-6.102
	C9.009,13.918,13.925,9,19.99,9c6.064,0,10.98,4.918,10.98,10.986C30.971,26.053,26.055,30.972,19.99,30.972z"/>
<path fill="#575858" d="M19.99,70.973c-2.263,0-4.365-0.687-6.112-1.861L8.971,71l1.888-4.912c-1.168-1.746-1.851-3.844-1.851-6.102
	C9.009,53.918,13.925,49,19.99,49c6.064,0,10.98,4.918,10.98,10.986C30.971,66.053,26.055,70.973,19.99,70.973z"/>
</svg>
