<?xml version="1.0" encoding="UTF-8" standalone="no"?>
<!-- Created with Inkscape (http://www.inkscape.org/) -->

<svg
   xmlns:dc="http://purl.org/dc/elements/1.1/"
   xmlns:cc="http://creativecommons.org/ns#"
   xmlns:rdf="http://www.w3.org/1999/02/22-rdf-syntax-ns#"
   xmlns:svg="http://www.w3.org/2000/svg"
   xmlns="http://www.w3.org/2000/svg"
   xmlns:sodipodi="http://sodipodi.sourceforge.net/DTD/sodipodi-0.dtd"
   xmlns:inkscape="http://www.inkscape.org/namespaces/inkscape"
   width="100"
   height="100"
   id="svg2"
   version="1.1"
   inkscape:version="0.48.3.1 r9886"
   sodipodi:docname="wifi-on.svg">
  <defs
     id="defs4">
    <linearGradient
       id="linearGradient3811">
      <stop
         style="stop-color:#00ff00;stop-opacity:1;"
         offset="0"
         id="stop3813" />
      <stop
         style="stop-color:#00cc00;stop-opacity:1;"
         offset="1"
         id="stop3815" />
    </linearGradient>
  </defs>
  <sodipodi:namedview
     id="base"
     pagecolor="#ffffff"
     bordercolor="#666666"
     borderopacity="1.0"
     inkscape:pageopacity="0.0"
     inkscape:pageshadow="2"
     inkscape:zoom="1"
     inkscape:cx="-157.21672"
     inkscape:cy="25.547479"
     inkscape:document-units="px"
     inkscape:current-layer="layer1"
     showgrid="false"
     inkscape:window-width="1717"
     inkscape:window-height="996"
     inkscape:window-x="65"
     inkscape:window-y="24"
     inkscape:window-maximized="0" />
  <metadata
     id="metadata7">
    <rdf:RDF>
      <cc:Work
         rdf:about="">
        <dc:format>image/svg+xml</dc:format>
        <dc:type
           rdf:resource="http://purl.org/dc/dcmitype/StillImage" />
        <dc:title />
      </cc:Work>
    </rdf:RDF>
  </metadata>
  <g
     inkscape:label="Ebene 1"
     inkscape:groupmode="layer"
     id="layer1"
     transform="translate(0,-952.36218)">
    <path
       style="fill:#05bce1;fill-opacity:1;stroke:none"
       d="M 50 10 C 30.670034 10 13.167508 17.8325 0.5 30.5 L 7.5625 37.59375 L 7.59375 37.59375 C 18.450356 26.74523 33.439539 20 50 20 C 66.560461 20 81.549644 26.74523 92.40625 37.59375 C 92.41155 37.59875 92.4322 37.58875 92.4375 37.59375 L 99.5 30.5 C 86.832492 17.8325 69.329966 10 50 10 z M 50 30 C 36.192881 30 23.70447 35.60805 14.65625 44.65625 L 21.71875 51.71875 C 28.957326 44.48017 38.954305 40 50 40 C 61.045695 40 71.042674 44.48017 78.28125 51.71875 L 85.34375 44.65625 C 76.29553 35.60805 63.807119 30 50 30 z M 50 50 C 41.715728 50 34.210182 53.35235 28.78125 58.78125 L 35.84375 65.875 L 35.875 65.875 C 39.493009 62.2652 44.485337 60 50 60 C 55.514663 60 60.506991 62.2652 64.125 65.875 C 64.1304 65.885 64.15089 65.865 64.15625 65.875 L 71.21875 58.78125 C 65.789818 53.35235 58.284272 50 50 50 z M 50 70 C 44.477153 70 40 74.477153 40 80 C 40 85.522847 44.477153 90 50 90 C 55.522847 90 60 85.522847 60 80 C 60 74.477153 55.522847 70 50 70 z "
       transform="translate(0,952.36218)"
       id="path3772" />
  </g>
</svg>
