<svg xmlns="http://www.w3.org/2000/svg" width="30" height="30" viewBox="0 0 30 30"><circle cx="15" cy="15" r="11.25" fill="#fff"/><path d="M15 0C6.716 0 0 6.715 0 15s6.716 15 15 15c8.285 0 15-6.715 15-15S23.285 0 15 0zM9.05 8.633l.7.7c.01.01.01.024.022.04l5.166 5.162c.162.162.424.162.587 0l5.162-5.162c.013-.013.013-.032.025-.047l.7-.7c.955.138 1.87.3 2.755.475-.1.327-.262.64-.516.89l-6.8 6.825c-.885.887-2.31.887-3.185 0L6.84 9.99c-.25-.25-.414-.55-.514-.876.888-.188 1.8-.35 2.75-.475zM21.97 21.89H8.45c-1.083 0-2.004-.785-2.375-1.893h18.27c-.37 1.108-1.295 1.893-2.375 1.893z" fill="#b90000"/></svg>