<?xml version="1.0" encoding="utf-8"?>
<!-- Generator: Adobe Illustrator 16.0.0, SVG Export Plug-In . SVG Version: 6.00 Build 0)  -->
<!DOCTYPE svg PUBLIC "-//W3C//DTD SVG 1.1//EN" "http://www.w3.org/Graphics/SVG/1.1/DTD/svg11.dtd">
<svg version="1.1" xmlns="http://www.w3.org/2000/svg" xmlns:xlink="http://www.w3.org/1999/xlink" x="0px" y="0px" width="54px"
	 height="54px" viewBox="0 0 54 54" enable-background="new 0 0 54 54" xml:space="preserve">
<g id="addnewfolder" display="none">
	<g display="inline">
		<g>
			<polygon fill-rule="evenodd" clip-rule="evenodd" points="43.5,24.156 29.5,24.156 29.5,10.125 24.5,10.125 24.5,24.156 
				10.5,24.156 10.5,29.156 24.5,29.156 24.5,43.125 29.5,43.125 29.5,29.156 43.5,29.156 			"/>
		</g>
	</g>
</g>
<g id="delete">
	<g>
		<g>
			<path d="M25.062,12.983L28.9,13h0.005c0.613,0,1.108-0.403,1.111-1.014c0.003-0.615-0.495-0.99-1.108-0.992l-3.839-0.016
				c-0.68,0.007-1.113,0.369-1.116,0.983S24.447,12.98,25.062,12.983z M16.636,19.979l0.133,2.324c0,0.064-0.015,0.127-0.009,0.193
				l0.903,18.008c0.069,1.384,1.258,2.518,2.647,2.518h13.332c1.388,0,2.578-1.134,2.647-2.518l0.903-18.008
				c0.003-0.066-0.009-0.127-0.012-0.192l0.136-2.326H16.636z M21.46,40.528c-0.012,0-0.026,0.001-0.04,0.001
				c-0.607,0-1.108-0.479-1.131-1.089L19.7,23.875c-0.021-0.622,0.463-1.147,1.089-1.171c0.601-0.011,1.149,0.463,1.174,1.089
				l0.588,15.563C22.574,39.978,22.087,40.505,21.46,40.528z M27.991,39.399c0,0.614-0.499,1.11-1.114,1.11
				c-0.615-0.001-1.111-0.499-1.111-1.113l0.021-15.564c0-0.613,0.496-1.111,1.11-1.111H26.9c0.613,0.001,1.11,0.5,1.11,1.114
				L27.991,39.399z M33.471,39.443c-0.021,0.607-0.521,1.086-1.127,1.086c-0.018,0-0.028-0.001-0.047-0.001
				c-0.624-0.026-1.11-0.553-1.087-1.174l0.628-15.564c0.021-0.623,0.54-1.113,1.177-1.086c0.621,0.026,1.107,0.551,1.082,1.174
				L33.471,39.443z M37.348,15.002l-20.697-0.018c-0.921,0-1.667,0.59-1.667,1.51c-0.003,0.921,0.743,1.479,1.664,1.479
				l20.697,0.018h0.003c0.917,0,1.666-0.558,1.669-1.479C39.017,15.592,38.268,15.002,37.348,15.002z"/>
		</g>
	</g>
</g>
<g id="rename" display="none">
	<g display="inline">
		<g>
			<path d="M43.315,23.067c-1.373-1.374-3.052-1.922-3.752-1.222c-0.001,0.001-0.001,0.002-0.002,0.003L22.758,38.678l4.956,4.96
				l-1.865,1.867l-4.69-5.223l0.097-0.099l-0.103,0.103h-0.001v5.224h4.693l18.691-18.692C45.232,26.12,44.686,24.439,43.315,23.067
				z M33.164,23.929V9.993c0-0.829-0.674-1.503-1.503-1.503H10.668c-0.829,0-1.506,0.674-1.506,1.186v22.028
				c0,1.147,0.677,1.821,1.506,1.821h12.913L33.164,23.929z M18.737,15.499c-1.025,0-1.062,0.191-1.504,0.573
				c-0.627,0.537-0.817,1.423-0.977,2.41h-2.1v-4.98h13.982v5.012h-1.914c-0.22-0.839-0.148-1.594-0.428-1.961
				c-0.276-0.368-0.459-0.661-0.966-0.876c-0.291-0.118-0.912-0.178-1.621-0.178h-0.634v9.479c0,0.686,0.042,1.114,0.127,1.286
				c0.089,0.17,0.255,0.319,0.507,0.449c0.248,0.129,0.655,0.193,1.087,0.193h0.851v1.608h-7.996v-1.608h0.507
				c0.44,0,1.114-0.07,1.384-0.208c0.191-0.093,0.438-0.251,0.551-0.475c0.085-0.157,0.124-0.575,0.124-1.246v-9.479H18.737z"/>
		</g>
	</g>
</g>
<g id="search" display="none">
	<g display="inline">
		<g>
			<path fill-rule="evenodd" clip-rule="evenodd" d="M43.346,39.204l-6.988-6.988c1.442-2.215,2.289-4.854,2.289-7.693
				c0-7.801-6.324-14.122-14.122-14.122c-7.801,0-14.122,6.321-14.122,14.122c0,7.797,6.321,14.122,14.122,14.122
				c2.837,0,5.475-0.846,7.688-2.286l6.988,6.988c0.582,0.581,1.98,0.125,3.125-1.019C43.469,41.185,43.926,39.785,43.346,39.204z
				 M24.524,33.745c-5.093,0-9.222-4.129-9.222-9.222s4.129-9.223,9.222-9.223c5.094,0,9.222,4.129,9.222,9.223
				S29.618,33.745,24.524,33.745z"/>
		</g>
	</g>
</g>
<g id="setting" display="none">
	<g display="inline">
		<g>
			<path fill-rule="evenodd" clip-rule="evenodd" d="M41.666,27.001c0-1.742,0.566-3.354,1.373-3.637l1.294-0.454
				c-0.45-1.891-1.194-3.667-2.191-5.272l-1.229,0.591c-0.771,0.37-2.311-0.368-3.542-1.6c-1.231-1.232-1.97-2.772-1.6-3.542
				l0.59-1.228c-1.607-0.993-3.38-1.746-5.272-2.191l-0.453,1.292c-0.282,0.806-1.894,1.373-3.635,1.373
				c-1.742,0-3.353-0.567-3.636-1.373l-0.453-1.292c-1.894,0.445-3.665,1.2-5.27,2.195l0.588,1.224c0.37,0.77-0.368,2.31-1.6,3.542
				c-1.232,1.231-2.771,1.97-3.542,1.6l-1.224-0.588c-0.996,1.606-1.751,3.376-2.197,5.269l1.294,0.454
				c0.807,0.283,1.373,1.895,1.373,3.637c0,1.741-0.566,3.352-1.373,3.635L9.666,31.09c0.45,1.891,1.195,3.666,2.192,5.271
				l1.229-0.591c0.771-0.369,2.31,0.368,3.542,1.6c1.231,1.232,1.97,2.772,1.6,3.542l-0.59,1.227
				c1.607,0.993,3.379,1.745,5.272,2.19l0.453-1.291c0.283-0.805,1.894-1.371,3.636-1.371c1.741,0,3.353,0.566,3.635,1.371
				l0.454,1.295c1.891-0.449,3.667-1.194,5.272-2.191l-0.591-1.229c-0.37-0.77,0.368-2.31,1.6-3.542
				c1.231-1.231,2.771-1.969,3.542-1.6l1.227,0.59c0.994-1.607,1.746-3.38,2.191-5.272l-1.291-0.452
				C42.232,30.353,41.666,28.742,41.666,27.001z M27,36.4c-5.192,0-9.401-4.208-9.401-9.399c0-5.193,4.209-9.402,9.401-9.402
				s9.401,4.209,9.401,9.402C36.401,32.192,32.192,36.4,27,36.4z"/>
		</g>
	</g>
</g>
<g id="filter-application" display="none">
	<g display="inline">
		<g>
			<path fill-rule="evenodd" clip-rule="evenodd" d="M14.091,15.085c-2.734-0.07-5.008,2.094-5.078,4.834
				c-0.07,2.74,2.09,5.018,4.825,5.088c2.735,0.07,5.008-2.094,5.079-4.834C18.986,17.433,16.826,15.155,14.091,15.085z
				 M27.295,15.424c-2.734-0.07-5.008,2.094-5.078,4.834c-0.07,2.74,2.09,5.018,4.825,5.088c2.734,0.07,5.008-2.094,5.078-4.834
				C32.19,17.772,30.03,15.494,27.295,15.424z M40.246,25.685c2.734,0.07,5.008-2.094,5.078-4.834c0.07-2.74-2.09-5.018-4.825-5.088
				c-2.734-0.07-5.008,2.094-5.078,4.834C35.351,23.336,37.511,25.614,40.246,25.685z M13.753,28.315
				c-2.734-0.07-5.008,2.095-5.078,4.834c-0.07,2.74,2.09,5.019,4.825,5.089c2.735,0.07,5.008-2.095,5.079-4.835
				C18.648,30.664,16.488,28.386,13.753,28.315z M26.958,28.654c-2.735-0.07-5.009,2.094-5.079,4.834s2.09,5.019,4.825,5.088
				c2.734,0.07,5.007-2.094,5.078-4.834S29.691,28.725,26.958,28.654z M40.161,28.992c-2.734-0.069-5.008,2.095-5.078,4.835
				c-0.07,2.739,2.091,5.018,4.825,5.088s5.008-2.095,5.078-4.834C45.057,31.341,42.896,29.062,40.161,28.992z"/>
		</g>
	</g>
</g>
<g id="filter-dashboard" display="none">
	<g display="inline">
		<g>
			<path fill-rule="evenodd" clip-rule="evenodd" d="M43.467,14.521h-8.945c-0.572,0-1.037,0.465-1.037,1.04v18.943
				c0,0.574,0.465,1.039,1.037,1.039h8.945c0.572,0,1.037-0.465,1.037-1.039V15.561C44.504,14.986,44.039,14.521,43.467,14.521z
				 M29.471,14.5H10.534c-0.573,0-1.038,0.465-1.038,1.04v7.964c0,0.574,0.464,1.04,1.038,1.04h18.937
				c0.572,0,1.037-0.465,1.037-1.04v-7.964C30.508,14.965,30.043,14.5,29.471,14.5z M29.471,27.524H14.519
				c-0.573,0-1.038,0.466-1.038,1.041v9.896c0,0.574,0.464,1.039,1.038,1.039h14.952c0.572,0,1.037-0.465,1.037-1.039v-9.896
				C30.508,27.99,30.043,27.524,29.471,27.524z"/>
		</g>
	</g>
</g>
<g id="filter-device" display="none">
	<g display="inline">
		<g>
			<path d="M13.533,12.013H32.5v6.028h3.006V10.02c0-0.554-0.449-1.003-1.002-1.003H11.498c-0.554,0-1.001,0.449-1.001,1.003v28.009
				c0,0.554,0.447,1.003,1.001,1.003h12.022v-3.018h-9.996L13.533,12.013z M42.229,20.994H27.771c-0.704,0-1.273,0.571-1.273,1.275
				v21.438c0,0.704,0.569,1.275,1.273,1.275h14.457c0.704,0,1.274-0.571,1.274-1.275V22.27
				C43.503,21.565,42.933,20.994,42.229,20.994z M40.501,42.015H29.499V24.021h11.002V42.015z"/>
		</g>
	</g>
</g>
<g id="filter-filter" display="none">
	<path display="inline" d="M12.541,10.974L24.69,30.766v12.261l4-2.565V31l12.769-20.026H12.541z M27,26.422l-5.025-7.448h10.05
		L27,26.422z"/>
</g>
<g id="filter-tv" display="none">
	<g display="inline">
		<g>
			<path fill-rule="evenodd" clip-rule="evenodd" d="M43.689,18.125H32.938l3.847-5.296c0.348-0.502,0.225-1.193-0.277-1.542
				l-0.338-0.236c-0.502-0.349-1.189-0.225-1.539,0.277l-4.937,6.797h-5.719l-4.937-6.797c-0.349-0.502-1.038-0.626-1.539-0.277
				l-0.338,0.236c-0.501,0.349-0.625,1.04-0.276,1.542l3.846,5.296H10.312c-1.002,0-1.815,0.813-1.815,1.819v21.384
				c0,1.004,0.812,1.819,1.815,1.819h33.378c1.002,0,1.814-0.815,1.814-1.819V19.944C45.504,18.938,44.691,18.125,43.689,18.125z
				 M42.512,40.123H11.52V21.148h30.992V40.123z"/>
		</g>
	</g>
</g>
</svg>
