<?xml version="1.0" encoding="UTF-8" standalone="no"?>
<!-- Generator: Adobe Illustrator 17.0.0, SVG Export Plug-In . SVG Version: 6.00 Build 0)  -->

<svg
   xmlns:dc="http://purl.org/dc/elements/1.1/"
   xmlns:cc="http://creativecommons.org/ns#"
   xmlns:rdf="http://www.w3.org/1999/02/22-rdf-syntax-ns#"
   xmlns:svg="http://www.w3.org/2000/svg"
   xmlns="http://www.w3.org/2000/svg"
   xmlns:sodipodi="http://sodipodi.sourceforge.net/DTD/sodipodi-0.dtd"
   xmlns:inkscape="http://www.inkscape.org/namespaces/inkscape"
   version="1.1"
   id="Layer_1"
   x="0px"
   y="0px"
   width="245.97"
   height="245.97"
   viewBox="0 0 245.97 245.97"
   enable-background="new 0 0 320 480"
   xml:space="preserve"
   inkscape:version="0.48.3.1 r9886"
   sodipodi:docname="ClockSVGConversion_20130910_Final_clipped3.svg"><metadata
   id="metadata3155"><rdf:RDF><cc:Work
       rdf:about=""><dc:format>image/svg+xml</dc:format><dc:type
         rdf:resource="http://purl.org/dc/dcmitype/StillImage" /><dc:title></dc:title></cc:Work></rdf:RDF></metadata><defs
   id="defs3153" /><sodipodi:namedview
   pagecolor="#ffffff"
   bordercolor="#666666"
   borderopacity="1"
   objecttolerance="10"
   gridtolerance="10"
   guidetolerance="10"
   inkscape:pageopacity="0"
   inkscape:pageshadow="2"
   inkscape:window-width="1440"
   inkscape:window-height="850"
   id="namedview3151"
   showgrid="false"
   fit-margin-top="0"
   fit-margin-left="0"
   fit-margin-right="0"
   fit-margin-bottom="0"
   inkscape:zoom="1.3125"
   inkscape:cx="158.791"
   inkscape:cy="5.97"
   inkscape:window-x="0"
   inkscape:window-y="0"
   inkscape:window-maximized="1"
   inkscape:current-layer="Layer_1" />

<circle
   clip-rule="evenodd"
   cx="159.5"
   cy="211.5"
   r="69.900002"
   id="circle3093"
   sodipodi:cx="159.5"
   sodipodi:cy="211.5"
   sodipodi:rx="69.900002"
   sodipodi:ry="69.900002"
   transform="translate(-37.209,-84.000004)"
   style="fill:#181a1a;fill-rule:evenodd" />
<path
   clip-rule="evenodd"
   d="m 122.291,219.64 c -50.887,0 -92.14,-41.252 -92.14,-92.14 0,-50.888004 41.253,-92.140004 92.14,-92.140004 50.888,0 92.14,41.252 92.14,92.140004 0,50.888 -41.253,92.14 -92.14,92.14 z m 0,-161.981004 c -38.572,0 -69.841,31.269 -69.841,69.841004 0,38.572 31.269,69.841 69.841,69.841 38.572,0 69.841,-31.269 69.841,-69.841 0,-38.572004 -31.269,-69.841004 -69.841,-69.841004 z"
   id="path3095"
   inkscape:connector-curvature="0"
   style="opacity:0.05;fill:#292b2b;fill-rule:evenodd" />
<g
   id="g3097"
   transform="translate(-37.209,-84.000004)"
   style="opacity:0.05">
	<g
   id="g3099">
		<path
   clip-rule="evenodd"
   d="m 116.918,260.713 c 0,-5.545 0.492,-10.975 1.434,-16.249 -7.243,-9.03 -11.586,-20.487 -11.586,-32.964 0,-29.125 23.61,-52.735 52.735,-52.735 12.477,0 23.934,4.343 32.964,11.586 5.274,-0.942 10.704,-1.434 16.249,-1.434 2.145,0 4.271,0.08 6.379,0.224 C 202.321,152.406 182.177,141.6 159.5,141.6 c -38.605,0 -69.9,31.295 -69.9,69.9 0,22.677 10.807,42.821 27.542,55.592 -0.145,-2.108 -0.224,-4.234 -0.224,-6.379 z"
   id="path3101"
   inkscape:connector-curvature="0"
   style="fill:#6facb5;fill-rule:evenodd" />
	</g>
</g>
<g
   id="g3103"
   transform="translate(-37.209,-84.000004)">
	<g
   id="g3105">
		<path
   clip-rule="evenodd"
   d="m 117.123,266.794 c -16.461,-12.7 -27.074,-32.609 -27.074,-55.007 0,-38.357 31.095,-69.452 69.452,-69.452 22.252,0 42.045,10.477 54.755,26.754 0.279,0.017 0.559,0.034 0.837,0.053 -12.771,-16.735 -32.916,-27.542 -55.592,-27.542 -38.605,0 -69.901,31.296 -69.901,69.901 0,22.677 10.807,42.822 27.542,55.593 -0.007,-0.1 -0.012,-0.2 -0.019,-0.3 z"
   id="path3107"
   inkscape:connector-curvature="0"
   style="fill:#2f3535;fill-rule:evenodd" />
	</g>
</g>
<g
   id="g3109"
   transform="translate(-37.209,-84.000004)"
   style="opacity:0.07999998">
	<g
   id="g3111">
		<path
   clip-rule="evenodd"
   d="m 116.916,260.714 c 0,-50.698 41.099,-91.797 91.797,-91.797 12.787,0 24.961,2.617 36.022,7.341 -0.117,-0.283 -0.23,-0.569 -0.35,-0.851 -11.086,-4.72 -23.284,-7.333 -36.093,-7.333 -50.931,0 -92.219,41.288 -92.219,92.219 0,12.809 2.614,25.008 7.334,36.094 0.282,0.12 0.568,0.233 0.851,0.35 -4.725,-11.062 -7.342,-23.236 -7.342,-36.023 z"
   id="path3113"
   inkscape:connector-curvature="0"
   style="fill:#95a3a4;fill-rule:evenodd" />
	</g>
</g>
<g
   id="g3115"
   transform="translate(-37.209,-84.000004)">
	<g
   id="g3117">
		<path
   clip-rule="evenodd"
   d="m 159.548,84.004 c -0.701,0 -1.47,0.04 -2.177,0.102 -0.222,8.12 -0.353,17.612 -0.362,27.769 0.791,0.082 1.72,0.129 2.539,0.129 0.82,0 1.625,-0.047 2.417,-0.13 v -7.235 c -0.05,-7.428 -0.166,-14.374 -0.335,-20.533 -0.684,-0.061 -1.376,-0.102 -2.082,-0.102 z"
   id="path3119"
   inkscape:connector-curvature="0"
   style="fill:#b6c4c6;fill-rule:evenodd" />
	</g>
</g>
<g
   id="g3121"
   transform="translate(-37.209,-84.000004)">
	<g
   id="g3123">
		<path
   clip-rule="evenodd"
   d="m 157.925,313.526 v 16.424 c 0.525,0.007 1.048,0.02 1.575,0.02 0.472,0 0.941,-0.012 1.412,-0.018 v -16.426 c -0.371,-0.048 -1.093,-0.076 -1.478,-0.076 -0.384,0 -1.138,0.028 -1.509,0.076 z"
   id="path3125"
   inkscape:connector-curvature="0"
   style="fill:#b6c4c6;fill-rule:evenodd" />
	</g>
</g>
<g
   id="g3127"
   transform="translate(-37.209,-84.000004)">
	<g
   id="g3129">
		<path
   clip-rule="evenodd"
   d="m 213.167,304.454 c -0.227,0.131 -0.441,0.277 -0.644,0.432 l 5.609,9.715 c 0.448,-0.256 0.893,-0.517 1.338,-0.778 l -5.607,-9.71 c -0.236,0.097 -0.469,0.21 -0.696,0.341 z m 0.696,-185.566 5.606,-9.71 c -0.445,-0.261 -0.889,-0.522 -1.338,-0.778 l -5.609,9.715 c 0.203,0.155 0.417,0.301 0.644,0.432 0.228,0.13 0.461,0.243 0.697,0.341 z m 38.591,146.279 c -0.131,0.227 -0.244,0.46 -0.342,0.696 l 9.711,5.606 c 0.261,-0.445 0.522,-0.889 0.778,-1.337 l -9.715,-5.609 c -0.156,0.203 -0.301,0.417 -0.432,0.644 z m 0.432,-106.69 9.715,-5.609 c -0.256,-0.448 -0.517,-0.893 -0.778,-1.338 l -9.71,5.606 c 0.098,0.236 0.211,0.469 0.342,0.696 0.13,0.228 0.275,0.442 0.431,0.645 z m -147.749,145.635 -5.607,9.711 c 0.445,0.261 0.889,0.522 1.338,0.778 l 5.609,-9.715 c -0.203,-0.155 -0.417,-0.3 -0.644,-0.432 -0.227,-0.131 -0.46,-0.244 -0.696,-0.342 z M 66.115,264.523 56.4,270.132 c 0.256,0.448 0.517,0.893 0.778,1.338 l 9.711,-5.606 c -0.098,-0.236 -0.211,-0.469 -0.342,-0.696 -0.132,-0.228 -0.277,-0.442 -0.432,-0.645 z m 33.416,-155.345 5.606,9.711 c 0.236,-0.098 0.469,-0.211 0.696,-0.342 0.227,-0.131 0.441,-0.276 0.644,-0.432 l -5.609,-9.715 c -0.448,0.255 -0.892,0.516 -1.337,0.778 z m -43.131,43.69 9.715,5.609 c 0.155,-0.203 0.301,-0.417 0.432,-0.644 0.131,-0.227 0.244,-0.46 0.342,-0.696 l -9.711,-5.606 c -0.261,0.444 -0.523,0.889 -0.778,1.337 z"
   id="path3131"
   inkscape:connector-curvature="0"
   style="fill:#747d7e;fill-rule:evenodd" />
	</g>
</g>
<g
   id="g3133"
   transform="translate(-37.209,-84.000004)">
	<g
   id="g3135">
		<path
   clip-rule="evenodd"
   d="m 261.341,211.5 c 0,0.384 0.028,1.137 0.076,1.508 h 16.486 c 0.006,-0.503 0.019,-1.004 0.019,-1.508 0,-0.504 -0.013,-1.005 -0.019,-1.508 h -16.486 c -0.048,0.371 -0.076,1.123 -0.076,1.508 z"
   id="path3137"
   inkscape:connector-curvature="0"
   style="fill:#b6c4c6;fill-rule:evenodd" />
	</g>
</g>
<g
   id="g3139"
   transform="translate(-37.209,-84.000004)">
	<g
   id="g3141">
		<path
   clip-rule="evenodd"
   d="m 41.228,213.007 h 16.315 c 0.048,-0.371 0.076,-1.123 0.076,-1.507 0,-0.384 -0.027,-1.136 -0.076,-1.507 H 41.228 c -0.006,0.503 -0.019,1.003 -0.019,1.507 0,0.504 0.013,1.005 0.019,1.507 z"
   id="path3143"
   inkscape:connector-curvature="0"
   style="fill:#b6c4c6;fill-rule:evenodd" />
	</g>
</g>
<!--<g>
	<g>
		<path fill-rule="evenodd" clip-rule="evenodd" fill="#53929E" d="M165.874,187.763c-0.334-0.09-0.669-0.158-1.003-0.242
			L134.319,303.08c0.204,0.057,0.402,0.124,0.607,0.179s0.41,0.096,0.615,0.148l31.321-115.352
			C166.531,187.961,166.208,187.853,165.874,187.763z"/>
	</g>
</g>
<g>
	<g>
		<path fill-rule="evenodd" clip-rule="evenodd" fill="#B6C4C6" d="M222.326,151.439c-0.442-0.477-0.884-0.954-1.348-1.418
			s-0.941-0.906-1.418-1.348c-18.393,17.643-43.858,42.581-72.59,71.138c-0.092,0.046-0.179,0.101-0.252,0.174
			c-0.651,0.651-0.217,2.139,0.968,3.324c1.185,1.185,2.674,1.619,3.324,0.968c0.066-0.066,0.114-0.146,0.158-0.229
			C179.734,195.309,204.679,169.836,222.326,151.439z"/>
	</g>
</g>
<g>
	<g>
		<path fill-rule="evenodd" clip-rule="evenodd" fill="#B7C4C6" d="M164.108,210.533c-18.678-18.638-36.08-35.642-50.452-49.366
			c-0.811,0.669-1.607,1.364-2.365,2.123c-0.758,0.758-1.454,1.554-2.123,2.365c13.724,14.373,30.728,31.775,49.366,50.452
			c1.497,0.283,3.104-0.153,4.263-1.312C163.955,213.637,164.391,212.031,164.108,210.533z"/>
	</g>
</g>-->
<g
   id="g3145"
   transform="translate(-37.209,-84.000004)"
   style="opacity:0.2">
	<g
   id="g3147">
		<path
   clip-rule="evenodd"
   d="m 214.365,168.313 c -2.023,-0.133 -4.062,-0.207 -6.119,-0.207 -50.887,0 -92.14,41.252 -92.14,92.14 0,2.057 0.075,4.096 0.207,6.119 0.286,0.226 0.57,0.455 0.86,0.676 -0.145,-2.106 -0.224,-4.231 -0.224,-6.374 0,-50.654 41.064,-91.718 91.718,-91.718 2.143,0 4.267,0.08 6.373,0.224 -0.221,-0.29 -0.45,-0.574 -0.675,-0.86 z"
   id="path3149"
   inkscape:connector-curvature="0"
   style="fill:#95a3a4;fill-rule:evenodd" />
	</g>
</g>
</svg>