<?xml version="1.0" encoding="UTF-8" standalone="no"?>
<!-- Created with Inkscape (http://www.inkscape.org/) -->

<svg
  xmlns:svg="http://www.w3.org/2000/svg"
  xmlns="http://www.w3.org/2000/svg"
  version="1.1"
  width="236.713"
  height="245.966"
  viewBox="0 0 236.713 245.966"
  xml:space="preserve">
  <circle
    cx="159.5"
    cy="211.5"
    r="69.900002"
    transform="translate(-41.209,-84.004)"
    style="fill:#181a1a;fill-rule:evenodd" />
  <path
    d="m 118.291,219.636 c -50.887,0 -92.14,-41.252 -92.14,-92.14 0,-50.888 41.253,-92.14 92.14,-92.14 50.888,0 92.14,41.252 92.14,92.14 0,50.888 -41.253,92.14 -92.14,92.14 z m 0,-161.981 c -38.572,0 -69.841,31.269 -69.841,69.841 0,38.572 31.269,69.841 69.841,69.841 38.572,0 69.841,-31.269 69.841,-69.841 0,-38.572 -31.269,-69.841 -69.841,-69.841 z"
    style="opacity:0.05;fill:#292b2b;fill-rule:evenodd" />
  <g transform="translate(-41.209,-84.004)" style="opacity:0.05">
  	<path
      d="m 116.918,260.713 c 0,-5.545 0.492,-10.975 1.434,-16.249 -7.243,-9.03 -11.586,-20.487 -11.586,-32.964 0,-29.125 23.61,-52.735 52.735,-52.735 12.477,0 23.934,4.343 32.964,11.586 5.274,-0.942 10.704,-1.434 16.249,-1.434 2.145,0 4.271,0.08 6.379,0.224 C 202.321,152.406 182.177,141.6 159.5,141.6 c -38.605,0 -69.9,31.295 -69.9,69.9 0,22.677 10.807,42.821 27.542,55.592 -0.145,-2.108 -0.224,-4.234 -0.224,-6.379 z"
      style="fill:#6facb5;fill-rule:evenodd" />
  </g>
  <g transform="translate(-41.209,-84.004)">
  	<path
      d="m 117.123,266.794 c -16.461,-12.7 -27.074,-32.609 -27.074,-55.007 0,-38.357 31.095,-69.452 69.452,-69.452 22.252,0 42.045,10.477 54.755,26.754 0.279,0.017 0.559,0.034 0.837,0.053 -12.771,-16.735 -32.916,-27.542 -55.592,-27.542 -38.605,0 -69.901,31.296 -69.901,69.901 0,22.677 10.807,42.822 27.542,55.593 -0.007,-0.1 -0.012,-0.2 -0.019,-0.3 z"
      style="fill:#2f3535;fill-rule:evenodd" />
  </g>
  <g transform="translate(-41.209,-84.004)" style="opacity:0.07999998">
  	<path
      d="m 116.916,260.714 c 0,-50.698 41.099,-91.797 91.797,-91.797 12.787,0 24.961,2.617 36.022,7.341 -0.117,-0.283 -0.23,-0.569 -0.35,-0.851 -11.086,-4.72 -23.284,-7.333 -36.093,-7.333 -50.931,0 -92.219,41.288 -92.219,92.219 0,12.809 2.614,25.008 7.334,36.094 0.282,0.12 0.568,0.233 0.851,0.35 -4.725,-11.062 -7.342,-23.236 -7.342,-36.023 z"
      style="fill:#95a3a4;fill-rule:evenodd" />
  </g>
  <g transform="translate(-41.209,-84.004)">
  	<path
      d="m 159.548,84.004 c -0.701,0 -1.47,0.04 -2.177,0.102 -0.222,8.12 -0.353,17.612 -0.362,27.769 0.791,0.082 1.72,0.129 2.539,0.129 0.82,0 1.625,-0.047 2.417,-0.13 v -7.235 c -0.05,-7.428 -0.166,-14.374 -0.335,-20.533 -0.684,-0.061 -1.376,-0.102 -2.082,-0.102 z"
      style="fill:#b6c4c6;fill-rule:evenodd" />
  </g>
  <g transform="translate(-41.209,-84.004)">
  	<path
      d="m 157.925,313.526 v 16.424 c 0.525,0.007 1.048,0.02 1.575,0.02 0.472,0 0.941,-0.012 1.412,-0.018 v -16.426 c -0.371,-0.048 -1.093,-0.076 -1.478,-0.076 -0.384,0 -1.138,0.028 -1.509,0.076 z"
      style="fill:#b6c4c6;fill-rule:evenodd" />
  </g>
  <g transform="translate(-41.209,-84.004)">
  	<path
      d="m 213.167,304.454 c -0.227,0.131 -0.441,0.277 -0.644,0.432 l 5.609,9.715 c 0.448,-0.256 0.893,-0.517 1.338,-0.778 l -5.607,-9.71 c -0.236,0.097 -0.469,0.21 -0.696,0.341 z m 0.696,-185.566 5.606,-9.71 c -0.445,-0.261 -0.889,-0.522 -1.338,-0.778 l -5.609,9.715 c 0.203,0.155 0.417,0.301 0.644,0.432 0.228,0.13 0.461,0.243 0.697,0.341 z m 38.591,146.279 c -0.131,0.227 -0.244,0.46 -0.342,0.696 l 9.711,5.606 c 0.261,-0.445 0.522,-0.889 0.778,-1.337 l -9.715,-5.609 c -0.156,0.203 -0.301,0.417 -0.432,0.644 z m 0.432,-106.69 9.715,-5.609 c -0.256,-0.448 -0.517,-0.893 -0.778,-1.338 l -9.71,5.606 c 0.098,0.236 0.211,0.469 0.342,0.696 0.13,0.228 0.275,0.442 0.431,0.645 z m -147.749,145.635 -5.607,9.711 c 0.445,0.261 0.889,0.522 1.338,0.778 l 5.609,-9.715 c -0.203,-0.155 -0.417,-0.3 -0.644,-0.432 -0.227,-0.131 -0.46,-0.244 -0.696,-0.342 z M 66.115,264.523 56.4,270.132 c 0.256,0.448 0.517,0.893 0.778,1.338 l 9.711,-5.606 c -0.098,-0.236 -0.211,-0.469 -0.342,-0.696 -0.132,-0.228 -0.277,-0.442 -0.432,-0.645 z m 33.416,-155.345 5.606,9.711 c 0.236,-0.098 0.469,-0.211 0.696,-0.342 0.227,-0.131 0.441,-0.276 0.644,-0.432 l -5.609,-9.715 c -0.448,0.255 -0.892,0.516 -1.337,0.778 z m -43.131,43.69 9.715,5.609 c 0.155,-0.203 0.301,-0.417 0.432,-0.644 0.131,-0.227 0.244,-0.46 0.342,-0.696 l -9.711,-5.606 c -0.261,0.444 -0.523,0.889 -0.778,1.337 z"
      style="fill:#747d7e;fill-rule:evenodd" />
  </g>
  <g transform="translate(-41.209,-84.004)">
  	<path
      d="m 261.341,211.5 c 0,0.384 0.028,1.137 0.076,1.508 h 16.486 c 0.006,-0.503 0.019,-1.004 0.019,-1.508 0,-0.504 -0.013,-1.005 -0.019,-1.508 h -16.486 c -0.048,0.371 -0.076,1.123 -0.076,1.508 z"
      style="fill:#b6c4c6;fill-rule:evenodd" />
  </g>
  <g transform="translate(-41.209,-84.004)">
  	<path
      d="m 41.228,213.007 h 16.315 c 0.048,-0.371 0.076,-1.123 0.076,-1.507 0,-0.384 -0.027,-1.136 -0.076,-1.507 H 41.228 c -0.006,0.503 -0.019,1.003 -0.019,1.507 0,0.504 0.013,1.005 0.019,1.507 z"
      style="fill:#b6c4c6;fill-rule:evenodd" />
  </g>
  <g transform="translate(-41.209,-84.004)" style="opacity:0.2">
    <path
      d="m 214.365,168.313 c -2.023,-0.133 -4.062,-0.207 -6.119,-0.207 -50.887,0 -92.14,41.252 -92.14,92.14 0,2.057 0.075,4.096 0.207,6.119 0.286,0.226 0.57,0.455 0.86,0.676 -0.145,-2.106 -0.224,-4.231 -0.224,-6.374 0,-50.654 41.064,-91.718 91.718,-91.718 2.143,0 4.267,0.08 6.373,0.224 -0.221,-0.29 -0.45,-0.574 -0.675,-0.86 z"
      style="fill:#95a3a4;fill-rule:evenodd" />
  </g>
</svg>