<svg xmlns="http://www.w3.org/2000/svg" xmlns:xlink="http://www.w3.org/1999/xlink" width="480" height="390" viewBox="0 0 480 390"><path fill="#CEE2E3" d="M0 0H480V390H0z"/><defs><path id="a" d="M0 -4.874H480V390H0z"/></defs><clipPath id="b"><use xlink:href="#a" overflow="visible"/></clipPath><circle clip-path="url(#b)" fill="#fff" cx="330.569" cy="118.387" r="78.994"/><circle clip-path="url(#b)" fill="#547784" cx="330.569" cy="118.387" r="68.966"/><path clip-path="url(#b)" fill="#B6CACD" d="M298.5,364.478c-35.952-0.445-109.044-1.783-132.22,0 c-23.174,1.782-37.14,10.696,14.263,10.696c51.401,0,75.32,0.149,90.177,0.298c14.854,0.148,69.971,0.742,94.188,1.633 c24.215,0.893,54.223-0.745,52.44-6.388c-1.781-5.645-21.837-5.793-41.893-5.942C355.399,364.626,298.5,364.478,298.5,364.478z"/><path clip-path="url(#b)" fill="#486B79" d="M390.682,227.505c-3.778-1.043-21.919-3.158-42.711-4.012 c-32.801-1.346-72.201-1.188-72.201-1.188h-2.744h-0.672h-2.744c0,0-60.316,0.446-76.063,0.892 c-15.748,0.445-29.109,1.617-38.848,4.308c-12.108,3.343-21.022,6.908-20.799,28.821l4.234,49.619l134.557-0.594l134.556,0.594 l4.234-49.619C411.702,234.413,402.789,230.848,390.682,227.505z"/><path clip-path="url(#b)" fill="#10485F" d="M348.342,257.736c0,0,1.412-5.423,1.338-8.691 c-0.075-3.267,1.337-4.826,4.233-5.049c2.738-0.211,8.345-0.479,19.462,0.964c9.729,1.263,18.568,0.892,24.363,0 c5.794-0.891,12.926-3.415,15.153-1.708c2.229,1.708,2.972,5.053,2.897,11.663c-0.075,6.61-0.372,15.523-2.006,25.848 l-2.525,23.696h-65.22L348.342,257.736z"/><path fill="#fff" d="M340.246,259.51c-0.032,0-0.065,0-0.097-0.001c-1.108-0.047-1.966-0.982-1.919-2.089 c0.136-3.108,0.222-6.249,0.261-9.34c0.014-1.104,0.92-1.995,2.028-1.98s1.995,0.923,1.981,2.031 c-0.039,3.131-0.127,6.313-0.262,9.462C342.191,258.666,341.309,259.506,340.246,259.51L340.246,259.51z M340.497,242.313 c-1.098,0.005-1.999-0.877-2.015-1.978c-0.046-3.256-0.149-6.53-0.305-9.732c-0.054-1.106,0.798-2.047,1.904-2.102 c1.108-0.052,2.048,0.801,2.101,1.907c0.158,3.247,0.264,6.568,0.31,9.87c0.016,1.107-0.868,2.02-1.977,2.034 C340.509,242.313,340.504,242.313,340.497,242.313L340.497,242.313z M339.782,225.838c-1.046,0.005-1.931-0.8-2.008-1.858 c-0.248-3.358-0.557-6.692-0.923-9.907c-0.124-1.1,0.666-2.094,1.768-2.22c1.1-0.125,2.094,0.667,2.219,1.768 c0.37,3.268,0.687,6.653,0.936,10.066c0.081,1.104-0.748,2.064-1.853,2.146C339.873,225.837,339.827,225.838,339.782,225.838 L339.782,225.838z M337.999,209.221c-0.985,0.004-1.848-0.718-1.992-1.72c-0.996-6.885-1.925-10.746-1.934-10.786 c-0.262-1.075,0.398-2.159,1.476-2.42c1.075-0.263,2.16,0.398,2.422,1.475c0.039,0.161,0.98,4.063,2.004,11.157 c0.16,1.098-0.601,2.113-1.696,2.273C338.184,209.213,338.091,209.221,337.999,209.221L337.999,209.221z" clip-path="url(#b)"/><path clip-path="url(#b)" fill="#F7503C" d="M339.242,256.027c0,0-1.059-0.055-3.231-0.778 c-2.173-0.726-9.972-2.563-11.421-1.227c-1.563,1.444-1.08,2.395-1.003,4.624c0.112,3.119-0.055,4.012-5.124,13.983 c-5.464,10.748-6.407,19.499-6.297,23.454l2.898,2.898h61.727c0,0,1.068-2.637,1.783-10.531 c0.778-8.634,0.222-17.046,0.947-21.504c0.772-4.761,1.226-6.128,1.949-8.021c0.726-1.896,1.06-3.9-0.392-4.625 c-1.447-0.724-5.806-0.15-8.577,0.725c-3.176,1.002-5.795,1.28-16.156,1.115C345.982,255.973,343.198,256.084,339.242,256.027z"/><circle fill="#fff" cx="271.595" cy="240.414" r="37.23" clip-path="url(#b)"/><g clip-path="url(#b)"><circle fill="#87A4A2" cx="265.317" cy="246.692" r="6.251"/><path fill="#AFC5C3" d="M291.048,235.894c0.359-1.136,0.557-2.346,0.557-3.603c0-0.976-0.121-1.924-0.343-2.831 c-0.002-0.009-0.003-0.018-0.005-0.026c-0.002-0.012-0.006-0.021-0.007-0.032c-1.062-4.241-4.398-7.581-8.639-8.642 c-0.015-0.004-0.023-0.007-0.037-0.009c-0.009-0.003-0.02-0.004-0.03-0.005c-0.906-0.223-1.853-0.342-2.827-0.342 c-1.255,0-2.461,0.194-3.596,0.556c-4.818,1.44-7.469,5.596-11.209,7.17c-5.134,2.161-8.699,0-8.699,0l-4.648,4.647 l27.667,27.664l4.646-4.646c0,0-2.161-3.566,0-8.7C285.451,243.357,289.604,240.707,291.048,235.894z"/><circle fill="#AFC5C3" cx="289.226" cy="222.781" r="3.982"/><path transform="matrix(.707 .707 -.707 .707 243.278 -136.525)" fill="#AFC5C3" d="M282.517 221.652H290.48199999999997V229.36499999999998H282.517z"/><path fill="#B8CECD" d="M258.793,252.942c-0.645-0.497-1.663-0.283-3.422,1.477c-1.76,1.759-3.325,3.037-3.964,3.836 c-0.64,0.801-0.417,2.4,1.245,2.4c1.19,0,1.951-0.832,3.743-2.526C258.186,256.434,260.776,254.474,258.793,252.942z"/><path fill="#B8CECD" d="M265.028,264.461c0.024-0.099,0.98-3.973,1.15-5.021c0.191-1.185-0.179-2.341-1.438-2.238 c-1.566,0.128-1.823,2.622-2.559,5.692c-0.596,2.48,0.154,3.601,1.344,3.423C264.164,266.22,264.676,265.805,265.028,264.461z"/><path fill="#B8CECD" d="M247.168,247.776c-0.83,0.017-1.725-0.274-1.775-1.498c-0.051-1.227,1.087-1.757,2.464-1.819 c0.872-0.039,3.516-0.169,5.295-0.076c1.665,0.086,2.235,2.852,0.229,3.056C251.05,247.677,249.292,247.729,247.168,247.776z"/></g><path clip-path="url(#b)" fill="#fff" d="M298.284,264.662c0,0,0.085,7.959,1.44,17.953c0,0-9.232-3.642-18.21-9.231 C272.539,267.796,298.284,264.662,298.284,264.662z"/><path clip-path="url(#b)" fill="#10485F" d="M174.154,252.909c0,0,27.336-1.784,33.427-3.641 c6.09-1.856,8.095-3.417,9.136-3.564c1.04-0.148,1.336,0.296,1.857,1.188c0.52,0.89,2.522,3.655,4.085,6.722 c4.011,7.874,5.013,14.448,7.836,23.656c2.823,9.212,5.859,12.914,7.428,14.709c1.3,1.485,2.043,2.415,0.521,4.346 c-1.524,1.933-1.598,2.563-1.598,2.563c-0.112,0.408-59.276,0-59.276,0S174.452,252.612,174.154,252.909z"/><g clip-path="url(#b)"><defs><path id="c" d="M339.242,256.027c0,0-1.059-0.055-3.231-0.778c-2.173-0.726-9.972-2.563-11.421-1.227 c-1.563,1.444-1.08,2.395-1.003,4.624c0.112,3.119-0.055,4.012-5.124,13.983c-5.464,10.748-6.407,19.499-6.297,23.454 l2.898,2.898h61.727c0,0,1.068-2.637,1.783-10.531c0.778-8.634,0.222-17.046,0.947-21.504c0.772-4.761,1.226-6.128,1.949-8.021 c0.726-1.896,1.06-3.9-0.392-4.625c-1.447-0.724-5.806-0.15-8.577,0.725c-3.176,1.002-5.795,1.28-16.156,1.115 C345.982,255.973,343.198,256.084,339.242,256.027z"/></defs><clipPath id="d"><use xlink:href="#c" overflow="visible"/></clipPath><g clip-path="url(#d)" fill="#DF412E"><path d="M330.273,265.388c-3.064,9.192-5.69,13.469-7.131,21.895c-1.616,9.451-1.319,14.651-1.319,14.651 l15.153-0.891c0,0,0.732-14.287,4.328-26.463c2.729-9.247,4.567-14.708,5.124-21.058l-13.871-0.334 C332.558,253.188,333.337,256.196,330.273,265.388z"/><path d="M372.277,249.678l-14.762,4.623c0,0.167-1.003,9.137-2.896,15.432 c-1.896,6.296-4.68,18.998-5.516,42.675c0,0,18.886,0.445,17.715,0.057c-0.158-0.054-1.838-20.057,0.892-34.43 C370.832,261.6,371.776,260.819,372.277,249.678z"/></g></g><path clip-path="url(#b)" fill="#505C62" d="M332.863,299.203c3.288-0.669,2.785-4.178,2.785-4.178 c0-0.861-0.697-1.561-1.558-1.561h-9.111h-10.777h-9.111c-0.858,0-1.558,0.699-1.558,1.561c0,0-0.501,3.509,2.784,4.178"/><path clip-path="url(#b)" fill="#0A2D3C" d="M81.082,363.661l89.133,2.746c0,0,0.561,10.847-0.034,26.186 c-0.439,11.365-90.369,3.379-90.369,3.379S79.447,368.936,81.082,363.661z"/><path clip-path="url(#b)" fill="#1C2124" d="M153.654,194.821l-23.398,13.074l0.075,19.238l30.751,10.623 c0,0,6.537-2.007,6.834-12.555c0.296-10.547-4.16-26.444-4.16-26.444L153.654,194.821z"/><path clip-path="url(#b)" fill="#547784" d="M374.958,363.661"/><path clip-path="url(#b)" fill="#393536" d="M184.479,349.993v18.31c0,0-0.073,1.077,0.706,1.077 c1.151,0,7.354,0.036,7.354,0.036s0.965,0.225,1.114-1.076c0.196-1.712,3.565-17.976,3.752-18.347 C197.59,349.621,184.479,349.993,184.479,349.993z"/><path clip-path="url(#b)" fill="#393536" d="M381.42,349.993v18.31c0,0,0.073,1.077-0.704,1.077 c-1.152,0-7.354,0.036-7.354,0.036s-0.967,0.225-1.114-1.076c-0.196-1.712-3.565-17.976-3.752-18.347 C368.31,349.621,381.42,349.993,381.42,349.993z"/><path clip-path="url(#b)" fill="#3C606F" d="M404.572,317.161l1.783-34.912c0,0-0.149-8.839,5.644-9.435 c5.795-0.594,13.52-0.444,15.896,0.743c2.378,1.188,3.567,0.743,3.121,8.691s-4.458,55.488-4.458,55.488 s0.37,12.702-11.811,12.924c-12.182,0.223-43.898,0-43.898,0H160.622v-28.077H297.98h105.923L404.572,317.161z"/><path clip-path="url(#b)" fill="#547784" d="M151.667,297.18c0,0,241.459,0,244.507,0c2.041,0,12.218-0.631,15.523,6.463 c2.022,4.337,1.332,8.901,1.045,13.444c-0.184,2.959-0.56,6.021-0.971,9.358c-1.04,8.468-0.743,8.988-5.496,8.988 c-4.755,0-244.878,0-244.878,0"/><path clip-path="url(#b)" fill="#FEC2A8" d="M106.56,207.671c0,0,19.833,2.749,22.953,3.046 c3.12,0.297,19.083,2.771,29.787-13.369c9.359-14.115,8.301-29.458,6.907-39.443c-1.782-12.777-4.456-19.759-6.759-24.81 c-2.943-6.456-48.133-2.154-48.133-2.154l-6.983,33.203L106.56,207.671z"/><path clip-path="url(#b)" fill="#1C2124" d="M159.187,120.039c-6.393-8.642-19.306-17.824-43.565-15.246 c-13.496,1.435-27.479,12.115-34.318,27.632c-6.908,15.675-2.563,36.587-2.451,43.752c0.247,15.904-7.354,22.581-11.291,37.734 c-2.103,8.094-2.749,15.822-2.896,17.68c-0.149,1.857-0.191,3.235,1.485,4.827c4.458,4.233,12.851,7.651,12.851,7.651 l16.787-2.581c0,0,2.792-2.871,0.78-30.475c-1.838-25.236,3.956-56.044,3.956-56.044s3.564-20.914,9.693-18.551l2.006,2.506 c0,0,19.332,5.182,35.655,1.114c16.324-4.066,17.226-5.95,17.159-7.019C165.037,133.021,164.07,126.639,159.187,120.039z"/><path clip-path="url(#b)" fill="#1C2124" d="M130.858,159.761c-2.757-0.613-3.52,2.086-3.481,3.705 c0.055,2.396,0.835,3.983,2.869,4.094c2.034,0.112,2.842-2.395,2.757-3.481C132.97,163.636,133.294,160.303,130.858,159.761z"/><path clip-path="url(#b)" fill="#1C2124" d="M157.46,157.924c-1.517-0.783-3.761,0.444-3.9,3.368 c-0.141,2.956,1.42,4.431,3.065,4.264c1.642-0.167,2.367-1.267,2.367-3.176C158.993,161.656,159.187,158.813,157.46,157.924z"/><path clip-path="url(#b)" fill="#D49074" d="M144.926,163.659c-0.289,0.334-0.278,0.895,0.056,2.397 c0.333,1.503,2.59,6.741,3.286,8.05c0.697,1.31,0.976,1.7,0.585,1.921c-0.39,0.225-2.423,1.061-4.15,1.282 c-1.616,0.209-2.201,0.836-2.563,1.644c-0.491,1.095-0.157,1.632,0.696,1.811c1.059,0.223,3.843,0.194,7.297-1.394 c2.424-1.112,3.121-1.754,2.925-3.257c-0.16-1.242-1.225-2.62-2.396-5.155c-1.156-2.507-2.021-6.199-2.841-7.02 C147.126,163.243,145.845,162.602,144.926,163.659z"/><path clip-path="url(#b)" fill="#fff" d="M142.697,189.732c0,0-11.474-0.565-17.492-2.006 c-1.709-0.408-1.949,0.111-2.043,1.152c-0.074,0.817-0.03,8.692,6.872,9.954c4.115,0.752,7.469-0.942,9.805-3.009 c1.817-1.608,3.044-3.528,3.417-4.271C143.625,190.811,144.146,189.696,142.697,189.732z"/><path clip-path="url(#b)" fill="#1C2124" d="M123.027,153.004c0,0,2.635-2.41,6.527-2.683 c3.845-0.268,4.401-0.727,4.158-2.279c-0.223-1.432-3.442-2.237-6.795-1.387c-2.596,0.659-4.784,1.566-6.349,3.666 C119.205,152.151,120.166,155.239,123.027,153.004z"/><path clip-path="url(#b)" fill="#1C2124" d="M160.493,146.879c0,0-4.694-1.342-6.707-1.52 c-1.25-0.111-2.592-0.181-2.861,1.341c-0.267,1.521,1.163,2.103,2.638,2.368c1.476,0.271,5.142,1.298,6.305,1.478 c1.163,0.179,2.592-0.358,2.547-1.387C162.371,148.132,162.147,147.371,160.493,146.879z"/><path clip-path="url(#b)" fill="#FEC2A8" d="M135.529,209.9c0,0-0.668,7.65-0.148,10.846 c0.52,3.193-24.736,1.707-24.736,1.707s1.858-17.456,1.634-17.157C112.057,205.592,135.529,209.9,135.529,209.9z"/><path clip-path="url(#b)" fill="#1C2124" d="M112.781,220.931c0.501-3.454,1.95-8.524-2.117-21.504 c-4.165-13.293-3.823-21.348-1.392-34.873c1.281-7.132,3.899-17.885,3.564-25.351l-0.223-9.973l-11.921,1.227l-6.741,64.792 c0,0-0.39,27.912-0.39,28.411c0,0.501,8.747,7.688,8.914,7.688C102.641,231.349,112.781,220.931,112.781,220.931z"/><g clip-path="url(#b)"><defs><circle id="e" cx="330.569" cy="118.387" r="68.966"/></defs><clipPath id="f"><use xlink:href="#e" overflow="visible"/></clipPath><path clip-path="url(#f)" fill="#486B79" d="M389.909,161.212l-8.305,6.715c0,0-12.947-4.602-24.312-7.273 c-11.365-2.676-13.815-3.009-19.054-4.012c-3.702-0.71,4.123-13.594,4.123-13.594L389.909,161.212z"/><path clip-path="url(#f)" fill="#505C62" d="M299.249,127.005c-0.277-0.347-1.641-3.977-1.641-3.977 s-6.829-3.547-8.723,3.53c-1.343,5.012,0.641,11.011,4.424,14.794c5.277,5.276,20.939,21.96,21.902,22.924 c8.171,8.168,15.684,3.739,17.036,2.96c6.362-3.658,12.804-8.307,15.203-10.669c3.546-3.491,3.212-8.394,3.212-8.394 L299.249,127.005z"/><path clip-path="url(#f)" fill="#85929A" d="M299.249,120.767c-0.277-0.347-1.641-3.978-1.641-3.978 s-9.357,4.176-8.766,11.478c0.111,1.373,0.559,2.785,1.574,3.921c4.978,5.562,28.547,29.84,29.625,30.676 c1.56,1.213,5.834,2.006,8.616,0.723c7.658-3.53,16.031-10.247,18.793-13.259c1.226-1.337,1.039-2.376,1.039-2.376 L299.249,120.767z"/><path clip-path="url(#f)" fill="#fff" d="M301.286,124.626c-0.187-0.222-5.646,3.306-5.646,3.306 s-1.635,0.595-0.484,1.856c1.152,1.264,21.171,21.329,21.951,21.915c1.04,0.778,1.522,1.187,3.231,0.109 c2.391-1.507,12.665-7.799,12.665-7.799L301.286,124.626z"/><ellipse transform="matrix(.992 .127 -.127 .992 21.867 -41.109)" clip-path="url(#f)" fill="#707E84" cx="334.659" cy="151.643" rx="4.401" ry="3.608"/><path clip-path="url(#f)" fill="#3C606F" d="M356.55,43.067c-0.111,0.779,0,47.13,0,47.13h-92.591V44.032L356.55,43.067z"/><path clip-path="url(#f)" fill="#10485F" d="M351.604,48.218c0,0-0.894,5.21-3.13,10.144 c-2.239,4.935,30.975,11.353,30.814,11.359c-0.158,0.005,4.119-11.031,4.119-11.031L351.604,48.218z"/><path clip-path="url(#f)" fill="#F7503C" d="M308.825,48.563c0,0-1.226,13.815-2.34,17.604 c-1.115,3.788-6.141,12.994-10.14,28.021c-1.838,6.909-2.284,9.415-4.903,15.543c-1.477,3.462-1.967,6.063-0.667,7.633 c0,0,2.071,3.813,11.338,9.828c8.981,5.829,23.271,14.443,44.628,22.598c10.848,4.142,18.401,6.875,24.222,8.871 c8.563,2.935,13.38,4.273,19.422,6.149l9.136-14.558l21.986-66.11l-37.584-21.244c0,0-12.688-0.771-23.994-2.971 c-8.352-1.626-17.161-3.632-17.604-3.789c-1.04-0.371-17.085-9.729-20.502-10.324c-3.416-0.594-12.701,2.748-12.701,2.748"/><path clip-path="url(#f)" fill="#486B79" d="M281.12,118.651c0.144-0.73-0.241-1.399-1.979-2.247 c0,0-4.608-1.792-5.347-2.095c-1.091-0.449-2.898-0.559-3.012,0.565c-0.153,1.52,0.885,1.819,2.217,2.432 c1.329,0.613,4.984,2.114,5.776,2.284C280.012,119.854,280.976,119.391,281.12,118.651z"/><path clip-path="url(#f)" fill="#486B79" d="M279.86,132.6c0,0-5.624,1.515-6.081,1.675 c-0.458,0.162-2.03,0.608-1.723,2.051c0.277,1.309,2.886,1.176,4.188,0.688c1.302-0.487,5.096-1.446,5.76-1.78 c0.664-0.332,1.579-1.016,1.1-2.118C282.79,132.389,280.974,132.285,279.86,132.6z"/><path clip-path="url(#f)" fill="#486B79" d="M284.637,155.289c0,0,3.975-2.796,4.702-3.413 c0.727-0.618,1.564-1.399,1.124-2.441c-0.441-1.042-2.399-1.039-3.95,0.28c-2.087,1.774-3.259,2.625-3.761,3.026 c-0.503,0.4-1.651,1.825-0.906,2.535C282.59,155.986,283.623,156.048,284.637,155.289z"/><g clip-path="url(#f)"><defs><path id="g" d="M308.825,48.563c0,0-1.226,13.815-2.34,17.604c-1.115,3.788-6.141,12.994-10.14,28.021 c-1.838,6.909-2.284,9.415-4.903,15.543c-1.477,3.462-1.967,6.063-0.667,7.633c0,0,2.071,3.813,11.338,9.828 c8.981,5.829,23.271,14.443,44.628,22.598c10.848,4.142,18.401,6.875,24.222,8.871c8.563,2.935,13.38,4.273,19.422,6.149 l9.136-14.558l21.986-66.11l-37.584-21.244c0,0-12.688-0.771-23.994-2.971c-8.352-1.626-17.161-3.632-17.604-3.789 c-1.04-0.371-17.085-9.729-20.502-10.324c-3.416-0.594-12.701,2.748-12.701,2.748"/></defs><clipPath id="h"><use xlink:href="#g" overflow="visible"/></clipPath><path clip-path="url(#h)" fill="#DF412E" d="M327.246,47.301c0,0-2.154,5.422-3.417,13.594 c-1.263,8.17-3.193,14.335-5.349,20.204c-2.153,5.866-6.314,14.484-8.765,27.037c-2.443,12.515-3.565,15.674-4.307,21.617 c-0.745,5.94-1.189,9.805-1.189,9.805l29.638,12.255c0,0,2.525-11.215,3.713-20.055c1.189-8.84,6.092-25.626,7.504-30.529 c1.41-4.903,8.094-32.313,8.615-45.089c0.521-12.775-26.071-8.394-26.443-8.394"/><path clip-path="url(#h)" fill="#DF412E" d="M377.905,64.162c0,0-0.227,0.13-0.237,0.37 c-0.102,2.592-0.513,18.13-1.396,26.148c-0.966,8.765-3.119,24.586-4.235,32.98c-1.113,8.394-4.976,25.478-6.314,34.54 c-1.337,9.063-1.56,10.696-1.56,10.696l22.88,0.595c0,0,13.741-21.318,13.594-21.097c-0.149,0.225,6.017-28.301,6.017-28.301 l-7.281-34.984l-19.237-20.279"/></g></g><path clip-path="url(#b)" fill="#FEC2A8" d="M68.334,307.205l6.136,6.838c0,0,11.956,12.77,12.53,13.2 c0.574,0.433-4.739,26.21-4.739,26.21s-13.952-11.513-24.127-19.746"/><path clip-path="url(#b)" fill="#248EC9" d="M166.542,237.811c0,0,6.573,8.208,16.662,29.816l-6.539,18.947l-17.949,6.023 l-11.717-54.307L166.542,237.811z"/><path clip-path="url(#b)" fill="#248EC9" d="M165.019,311.976c5.524-6.504,5.806-12.991,4.97-22.463 c-0.288-3.266-1.738-3.775-1.738-3.775l-1.709-47.927l-80.483-3.114l-3.305,39.66c0,0,1.002,15.434,1.671,26.91 c0.625,10.724,1.708,22.84,1.56,24.511c-0.149,1.672-4.179,17.938-5.338,31.254c-1.071,12.281-1.003,14.651-1.003,14.651 s0.351,0.829,0.998,0.882c33.4,2.771,67.576,2.29,89.242,0.4c0,0,0.658-0.015,0.672-0.745c0.014-0.729-0.374-13.457-1.554-24.214 C167.433,333.688,165.019,311.976,165.019,311.976z"/><path fill="#2287BE" d="M94.378,300.968c-2.377-17.754-3.268-35.654-3.268-35.654l-7.887,3.402l-0.47,5.641 c0,0,1.002,15.434,1.671,26.91c0.625,10.724,1.708,22.84,1.56,24.511c-0.149,1.672-4.179,17.938-5.338,31.254 c-1.071,12.281-1.003,14.651-1.003,14.651s0.351,0.829,0.998,0.882c4.747,0.395,9.509,0.722,14.249,0.989 c0.482-25.549,3.062-49.239,3.062-50.357C97.951,321.92,96.502,316.834,94.378,300.968z" clip-path="url(#b)"/><path clip-path="url(#b)" fill="#248EC9" d="M81.138,236.641c-9.11,7.224-27.689,27.481-37.494,42.86 c-6.998,10.978-13.917,20.56-6.239,32.238c8.305,12.632,20.729,21.968,20.729,21.968s11.583-14.837,16.336-19.664 c0,0-8.567-9.48-9.482-10.684c1.081-1.813,3.65-5.648,9.705-13.311c9.805-12.404,20.205-20.204,20.428-20.204 C95.121,269.845,95.888,224.944,81.138,236.641z"/><path clip-path="url(#b)" fill="#FEC2A8" d="M139.8,243.939c-16.493,1.303-41.504-1.226-58.662-7.299 c0,0,13.146-12.311,29.804-16.378c13.505-3.298,29.665,0.269,35.599,2.785c13.928,5.906,20.001,14.763,20.001,14.763 S158.128,242.491,139.8,243.939z"/><path clip-path="url(#b)" fill="#FEC2A8" d="M162.854,203.738c-0.172,0.042-5.439,2.27-5.439,6.509 c0.001,4.369,2.313,4.455,3.169,5.183c0.856,0.728,12.934-0.258,12.934-0.258l-1.414-12.161L162.854,203.738z"/><path clip-path="url(#b)" fill="#FEC2A8" d="M173.519,213.673l0.728,13.962l-2.526,2.784c0,0-3.94-1.713-6.253-2.828 c-2.313-1.112-5.182-2.482-6.381-6.636c-1.037-3.594,0.393-6.142,0.798-6.763c0.064-0.099,0.102-0.146,0.102-0.146 L173.519,213.673z"/><path clip-path="url(#b)" fill="#FEC2A8" d="M164.782,204.038c0,0-8.812-0.824-12.633-1.027 c-3.593-0.192-7.366-3.255-6.553-6.553s7.751-3.897,10.535-3.598c4.951,0.533,15.683,1.53,19.957,2.142 c2.398,0.342,8.577,4.588,11.135,9.378c2.355,4.411,4.54,13.105,2.954,24.41c-1.398,9.98-1.97,9.037-1.97,9.037l-13.274,1.413 l-3.212-8.821"/><path clip-path="url(#b)" fill="#FEC2A8" d="M204.477,266.688l-0.811-2.354c0,0-11.376-34.2-11.876-35.702 c-0.501-1.503-1.067-4.003-1.074-7.657c-0.005-3.652-20.161,8.933-20.161,8.933s9.214,38.148,10.573,42.655 C182.488,277.07,204.477,266.688,204.477,266.688z"/><path clip-path="url(#b)" fill="#248EC9" d="M180.629,271.776c0,0,21.606-6.726,23.037-7.442 c0,0,8.587,23.541,5.939,35.202c-2.889,12.727-15.919,15.609-23.898,10.877c-4.221-2.506-14.001-9.158-20.87-20.748"/><defs><path id="i" d="M-580 -489.813H-100V-99.81299999999999H-580z"/></defs><clipPath id="j"><use xlink:href="#i" overflow="visible"/></clipPath><g clip-path="url(#j)"><defs><path id="k" d="M-580 -494.873H-100V-100H-580z"/></defs><clipPath id="l"><use xlink:href="#k" overflow="visible"/></clipPath><g clip-path="url(#l)"><defs><path id="m" d="M-580 -494.873H-100V-100H-580z"/></defs><clipPath id="n"><use xlink:href="#m" overflow="visible"/></clipPath><path fill="#fff" d="M-22.787-168.778c0.11-0.115,0.214-0.236,0.316-0.359l25.443-30.768l124.872-16.517l-2.425-18.336 L0.972-218.297l-86.335-24.902l-73.516-37.566l12.239-41.289c0.005-0.017,0.01-0.036,0.015-0.054l11.614-40.104L-32.83-446.71 c1.227-1.023,1.636-1.647,2.183-2.672L32.87-568.391l-15.728-8.394l-62.688,117.457l-102.945,85.126 c-2.568,2.11-1.998,1.92-2.88,4.392l-12.368,42.71l-12.431,41.94l-107.073,1.687l0.292,18.494l101.271-1.595l-28.713,96.873 l-27.086,7.543l-49.773-100.38l-13.974,6.929l48.449,97.71l-62.712,17.462l-61.414-34.915l-59.696-56.936l13.205,1.146 c0.266,0.022,0.534,0.034,0.8,0.034c0.874,0,1.744-0.123,2.587-0.368l102.504-29.86l-5.172-17.759l-100.845,29.377 l-104.762-9.091l-147.032-58.964l-7.637-52.36l122.954-55.403l118.006,25.71c0.55,0.119,1.811,0.268,2.365,0.268 c1.51,0,2.297-0.527,3.579-1.37l45.34-29.796l57.229-8.093l3.698,67.898c0.024,0.429,0.085,0.855,0.177,1.274l16.715,74.882 l15.224-3.398l-16.574-74.251l-1.904-34.953l152.959-33.92c5.463-1.158,4.836-1.716,5.954-6.056l20.726-101.627l-15.284-3.115 l-19.715,96.665l-145.5,32.266l-5.995-109.994l-15.575,0.85l4.242,77.846l-60.292,8.525c-1.14,0.162-2.229,0.573-3.19,1.205 l-44.06,28.954l-179.115-39.021l-23.667-108.104l-15.238,3.338l22.535,102.933c-37.054-2.178-100.482-5.893-114.466-6.634 l-97.732-72.15l-9.265,12.55l99.619,73.545c2.028,1.567,2.247,1.486,3.869,1.513c3.792,0.134,92.273,5.29,126.73,7.315 l39.353,8.575l-105.612,47.589l-151.07-3.959l-0.465,17.822l145.263,3.806l8.286,56.813c0.236,1.631,0.577,4.121,1.316,4.896 c0.597,0.879,1.723,1.125,4.392,2.352l37.73,15.133l-13.871,42.676l-162.795-0.646l-0.061,15.599l102.813,0.407l0.402,113.504 c0.006,1.549,0.026,3.502,0.725,4.6c0.796,1.444,3.175,2.233,4.683,2.841l66.875,26.854l-26.526,61.079l16.353,7.102 l26.719-61.53l55.799,22.427c1.286,0.517,2.687,0.682,4.057,0.478l188.341-28.07l-13.601,36.344l14.608,5.466l15.57-41.602 l101.68,35.445l-9.22,53.582l15.374,2.646l9.089-52.82l152.715,6.472c0.111,0.005,0.221,0.007,0.332,0.007 c3.298,0,6.257-2.083,7.358-5.219l29.69-84.646L49.389-99.637l3.386-15.228l-104.335-23.19L-22.787-168.778z M-754.676-447.785 c0.036,0,0.073,0,0.107,0C-754.594-447.785-754.629-447.784-754.676-447.785z M-92.987-226.324 c0.525,0.269,1.077,0.486,1.645,0.649l77.014,22.213l-20.01,24.197l-34.911,37.278l-122.682-27.268l27.707-93.473 L-92.987-226.324z M-707.341-121.221l-0.384-108.136l50.072,0.199c0.011,0,0.02,0,0.032,0c1.819,0,3.848-0.076,5.201-1.162 c1.157-0.928,1.352-1.747,2.215-4.227l15.307-47.09l89.188,35.767l-0.409,39.969l-52.062,12.424 c-1.403,0.335-3.285,0.864-3.872,1.411c-1.006,0.865-1.692,2.459-2.235,3.709l-40.136,92.422L-707.341-121.221z M-574.442-67.807l-53.436-21.476l38.167-87.889l54.503-13.005c2.122-0.507,4.703-0.959,5.591-2.333 c1.068-1.463,0.971-2.788,1.254-6.247l0.421-41.456l66.479,5.767l74.488,71.044c0.461,0.44,0.973,0.822,1.528,1.137 l24.617,13.996l-18.852,51.435L-574.442-67.807z M-363.903-94.559l16.824-45.895l28.282,15.934 c1.184,0.674,2.095,0.563,4.368-0.021l63.617-17.713l-14.145,82.185L-363.903-94.559z M-104.798-50.434l-144.933-6.143 l15.542-90.306l31.526-8.778l125.025,27.789L-104.798-50.434z" clip-path="url(#n)"/></g></g><defs><path id="o" d="M0 -490H480V-100H0z"/></defs><clipPath id="p"><use xlink:href="#o" overflow="visible"/></clipPath><g clip-path="url(#p)"><defs><path id="q" d="M0 -494.875H480V-100H0z"/></defs><clipPath id="r"><use xlink:href="#q" overflow="visible"/></clipPath><g clip-path="url(#r)"><defs><path id="s" d="M0 -494.875H480V-100H0z"/></defs><clipPath id="t"><use xlink:href="#s" overflow="visible"/></clipPath><path fill="#fff" d="M558.216-168.777c0.108-0.117,0.216-0.238,0.316-0.361l25.442-30.767l124.872-16.517l-2.424-18.337 l-124.448,16.462L495.639-243.2l-73.515-37.565l12.237-41.29c0.006-0.018,0.012-0.036,0.017-0.054l11.613-40.104 l102.183-84.498c1.228-1.024,1.637-1.647,2.184-2.672l63.516-119.009l-15.727-8.395l-62.689,117.458l-102.943,85.126 c-2.57,2.11-1.999,1.919-2.883,4.391L417.263-327.1l-12.431,41.94l-107.073,1.687l0.292,18.493l101.273-1.595L370.609-169.7 l-27.087,7.543L293.75-262.538l-13.975,6.93l48.448,97.71l-62.711,17.461l-61.415-34.914l-59.697-56.936l13.207,1.146 c0.264,0.023,0.532,0.035,0.798,0.035c0.875,0,1.746-0.123,2.587-0.369l102.507-29.86l-5.174-17.759l-100.845,29.378 l-104.763-9.092l-147.032-58.964l-7.636-52.36l122.953-55.403l118.006,25.709c0.551,0.12,1.811,0.268,2.364,0.268 c1.51,0,2.297-0.527,3.58-1.37l45.342-29.795l57.228-8.093l3.7,67.897c0.023,0.429,0.081,0.856,0.176,1.275l16.715,74.883 l15.225-3.399l-16.574-74.252l-1.905-34.952l152.959-33.92c5.463-1.158,4.837-1.717,5.953-6.056l20.728-101.627l-15.284-3.117 L409.5-455.419l-145.502,32.266l-5.994-109.993l-15.575,0.849l4.243,77.847l-60.292,8.525 c-1.14,0.161-2.229,0.573-3.191,1.205l-44.063,28.954l-179.113-39.021l-23.666-108.104l-15.239,3.337l22.534,102.933 c-37.054-2.178-100.481-5.892-114.466-6.633l-97.733-72.15l-9.263,12.549l99.618,73.545c2.028,1.568,2.247,1.486,3.869,1.514 c3.793,0.133,92.275,5.29,126.731,7.315l39.352,8.575l-105.612,47.589l-151.069-3.959l-0.468,17.821l145.264,3.807 l8.286,56.814c0.238,1.63,0.577,4.12,1.315,4.895c0.599,0.881,1.725,1.126,4.394,2.354l37.73,15.131l-13.872,42.678 l-162.794-0.646l-0.063,15.599l102.814,0.406l0.402,113.505c0.005,1.549,0.025,3.503,0.724,4.6 c0.796,1.444,3.176,2.233,4.685,2.84l66.874,26.854l-26.527,61.08l16.353,7.102l26.72-61.53L2.705-52.543 c1.288,0.516,2.688,0.682,4.06,0.478l188.34-28.071l-13.601,36.344l14.61,5.468l15.567-41.603l101.682,35.445L304.144,9.1 l15.373,2.646l9.089-52.82l152.716,6.471c0.112,0.006,0.222,0.007,0.333,0.007c3.297,0,6.257-2.082,7.358-5.218l29.688-84.646 l111.692,24.825l3.384-15.227l-104.335-23.191L558.216-168.777z M-173.675-447.786c0.037,0,0.071,0,0.107,0 C-173.594-447.786-173.629-447.785-173.675-447.786z M488.014-226.325c0.526,0.269,1.078,0.487,1.646,0.649l77.015,22.214 l-20.009,24.196l-34.913,37.279l-122.681-27.269l27.705-93.472L488.014-226.325z M-126.341-121.221l-0.382-108.136 l50.071,0.199c0.01,0,0.021,0,0.03,0c1.82,0,3.849-0.077,5.202-1.162c1.157-0.928,1.352-1.748,2.216-4.227l15.306-47.091 l89.187,35.767l-0.407,39.97l-52.062,12.424c-1.403,0.335-3.284,0.863-3.873,1.41c-1.003,0.866-1.693,2.46-2.234,3.71 l-40.136,92.422L-126.341-121.221z M6.56-67.806l-53.436-21.477l38.166-87.889l54.504-13.006 c2.121-0.506,4.704-0.959,5.593-2.332c1.066-1.463,0.969-2.788,1.251-6.247l0.423-41.457l66.478,5.768l74.487,71.044 c0.462,0.44,0.975,0.821,1.528,1.136l24.618,13.996l-18.851,51.436L6.56-67.806z M217.1-94.559l16.823-45.895l28.281,15.934 c1.186,0.674,2.098,0.564,4.368-0.02l63.618-17.715l-14.145,82.187L217.1-94.559z M476.204-50.434l-144.932-6.142 l15.54-90.307l31.527-8.778l125.025,27.789L476.204-50.434z" clip-path="url(#t)"/></g></g></svg>