<svg xmlns="http://www.w3.org/2000/svg" xmlns:xlink="http://www.w3.org/1999/xlink" width="480" height="390" viewBox="0 0 480 390"><defs><path id="a" d="M0 0H480V390H0z"/></defs><clipPath id="b"><use xlink:href="#a" overflow="visible"/></clipPath><path clip-path="url(#b)" fill="#CEE2E3" d="M0 -2.623H480V392.25H0z"/><g clip-path="url(#b)"><defs><path id="c" d="M0 -5.06H480V389.813H0z"/></defs><clipPath id="d"><use xlink:href="#c" overflow="visible"/></clipPath><g clip-path="url(#d)"><defs><path id="e" d="M0 -5.06H480V389.813H0z"/></defs><clipPath id="f"><use xlink:href="#e" overflow="visible"/></clipPath><g clip-path="url(#f)" fill="#fff"><path d="M557.213,321.035c0.11-0.115,0.214-0.236,0.316-0.359l25.443-30.768l124.872-16.517l-2.425-18.336 l-124.448,16.461l-86.335-24.902l-73.516-37.566l12.239-41.289c0.005-0.017,0.01-0.036,0.015-0.054l11.614-40.104 L547.17,43.104c1.227-1.023,1.636-1.647,2.183-2.672L612.87-78.577l-15.728-8.394L534.454,30.486l-102.945,85.126 c-2.568,2.11-1.998,1.92-2.88,4.392l-12.368,42.71l-12.431,41.94l-107.073,1.687l0.292,18.494l101.271-1.595l-28.713,96.873 l-27.086,7.543l-49.773-100.38l-13.974,6.929l48.449,97.71l-62.712,17.462l-61.414-34.915l-59.696-56.936l13.205,1.146 c0.266,0.022,0.534,0.034,0.8,0.034c0.874,0,1.744-0.123,2.587-0.368l102.504-29.86l-5.172-17.759l-100.845,29.377 l-104.762-9.091l-147.032-58.964l-7.637-52.36L20.001,64.278l118.006,25.71c0.55,0.119,1.811,0.268,2.365,0.268 c1.51,0,2.297-0.527,3.579-1.37l45.34-29.796l57.229-8.093l3.698,67.898c0.024,0.429,0.085,0.855,0.177,1.274l16.715,74.882 l15.224-3.398l-16.574-74.251l-1.904-34.953l152.959-33.92c5.463-1.158,4.836-1.716,5.954-6.056l20.726-101.627l-15.284-3.115 l-19.715,96.665l-145.5,32.266l-5.995-109.994l-15.575,0.85l4.242,77.846l-60.292,8.525c-1.14,0.162-2.229,0.573-3.19,1.205 l-44.06,28.954L-40.988,35.027L-64.655-73.077l-15.238,3.338l22.535,102.933c-37.054-2.178-100.482-5.893-114.466-6.634 l-97.732-72.15l-9.265,12.55l99.619,73.545c2.028,1.567,2.247,1.486,3.869,1.513c3.792,0.134,92.273,5.29,126.73,7.315 l39.353,8.575l-105.612,47.589l-151.07-3.959l-0.465,17.822l145.263,3.806l8.286,56.813c0.236,1.631,0.577,4.121,1.316,4.896 c0.597,0.879,1.723,1.125,4.392,2.352l37.73,15.133l-13.871,42.676l-162.795-0.646l-0.061,15.599l102.813,0.407l0.402,113.504 c0.006,1.549,0.026,3.502,0.725,4.6c0.796,1.444,3.175,2.233,4.683,2.841l66.875,26.854l-26.526,61.079l16.353,7.102 l26.719-61.53l55.799,22.427c1.286,0.517,2.687,0.682,4.057,0.478l188.341-28.07l-13.601,36.344l14.608,5.466l15.57-41.602 l101.68,35.445l-9.22,53.582l15.374,2.646l9.089-52.82l152.715,6.472c0.111,0.005,0.221,0.007,0.332,0.007 c3.298,0,6.257-2.083,7.358-5.219l29.69-84.646l111.689,24.825l3.386-15.228l-104.335-23.19L557.213,321.035z M-174.676,42.028 c0.036,0,0.073,0,0.107,0C-174.594,42.028-174.629,42.029-174.676,42.028z M487.013,263.489 c0.525,0.269,1.077,0.486,1.645,0.649l77.014,22.213l-20.01,24.197l-34.911,37.278L388.068,320.56l27.707-93.473 L487.013,263.489z M-127.341,368.593l-0.384-108.136l50.072,0.199c0.011,0,0.02,0,0.032,0c1.819,0,3.848-0.076,5.201-1.162 c1.157-0.928,1.352-1.747,2.215-4.227l15.307-47.09l89.188,35.767l-0.409,39.969l-52.062,12.424 c-1.403,0.335-3.285,0.864-3.872,1.411c-1.006,0.865-1.692,2.459-2.235,3.709l-40.136,92.422L-127.341,368.593z M5.558,422.007 l-53.436-21.476l38.167-87.889l54.503-13.005c2.122-0.507,4.703-0.959,5.591-2.333c1.068-1.463,0.971-2.788,1.254-6.247 l0.421-41.456l66.479,5.767l74.488,71.044c0.461,0.44,0.973,0.822,1.528,1.137l24.617,13.996l-18.852,51.435L5.558,422.007z M216.097,395.255l16.824-45.895l28.282,15.934c1.184,0.674,2.095,0.563,4.368-0.021l63.617-17.713l-14.145,82.185 L216.097,395.255z M475.202,439.38l-144.933-6.143l15.542-90.306l31.526-8.778l125.025,27.789L475.202,439.38z"/><path d="M277.432,185.811c-14.646,0-26.518,11.873-26.518,26.519c0,14.645,11.872,26.518,26.518,26.518 c14.646,0,26.52-11.873,26.52-26.518C303.952,197.684,292.079,185.811,277.432,185.811z M277.432,222.801 c-5.784,0-10.474-4.688-10.474-10.472c0-5.785,4.69-10.475,10.474-10.475c5.786,0,10.474,4.689,10.474,10.475 C287.906,218.112,283.218,222.801,277.432,222.801z"/></g></g><g clip-path="url(#d)" fill="#FC6124"><path d="M376.39,321c-0.03,0-0.06,0-0.09,0c-0.318,0.07-0.637,0.143-0.956,0.213 c-0.642,0.235-1.18,0.618-1.612,1.148c-0.633,0.783-0.914,1.801-0.792,2.798c0.124,1.016,0.653,1.952,1.448,2.595 c0.296,0.182,0.593,0.363,0.892,0.547c0.622,0.273,1.271,0.383,1.949,0.324c0.03,0,0.06,0,0.089,0 c0.319-0.07,0.637-0.141,0.956-0.211c0.643-0.235,1.181-0.619,1.613-1.15c0.634-0.783,0.913-1.8,0.792-2.797 c-0.124-1.016-0.653-1.95-1.449-2.594c-0.297-0.183-0.594-0.365-0.891-0.547C377.716,321.051,377.067,320.943,376.39,321 L376.39,321z"/><path d="M90.356,240.036c-0.059,0-0.119,0-0.178,0c-1.023,0-2.044,0.484-2.732,1.233 c-0.678,0.738-1.042,1.735-1.012,2.737c0.032,1.041,0.493,2.047,1.256,2.757c0.75,0.699,1.719,1.047,2.735,1.047 c0.06,0,0.119,0,0.178,0c1.023,0,2.043-0.486,2.731-1.233c0.68-0.739,1.042-1.737,1.01-2.738 c-0.031-1.042-0.49-2.048-1.253-2.758C92.342,240.384,91.374,240.036,90.356,240.036L90.356,240.036z"/><path d="M347.7,217.721c2.119,0,4.002-1.398,4.158-3.623c0.139-2.006-1.479-4.15-3.606-4.15 c-2.12,0-4.001,1.396-4.156,3.622C343.954,215.576,345.574,217.721,347.7,217.721L347.7,217.721z"/><path d="M369.311,217.286c2.104,0,3.921-1.706,3.944-3.833c0.025-2.107-1.745-3.875-3.849-3.875 c-2.104,0-3.919,1.704-3.944,3.831C365.437,215.517,367.208,217.286,369.311,217.286L369.311,217.286z"/><path d="M390.227,217.24c2.114,0,3.744-1.971,3.686-4.007c-0.061-2.126-1.794-3.789-3.907-3.789 c-2.115,0-3.743,1.971-3.686,4.006C386.379,215.577,388.114,217.24,390.227,217.24L390.227,217.24z"/><path d="M409.9,217.018c2.108,0,3.589-2.463,3.387-4.344c-0.246-2.273-2.11-3.364-4.21-3.364 c-2.109,0-3.588,2.463-3.386,4.344C405.936,215.926,407.801,217.018,409.9,217.018L409.9,217.018z"/><path d="M405.019,234.512c2.057,0,3.872-1.606,3.849-3.721c-0.023-2.092-1.865-3.797-3.932-3.797 c-2.055,0-3.87,1.607-3.848,3.724C401.111,232.807,402.955,234.512,405.019,234.512L405.019,234.512z"/><path d="M399.741,253.454c2.11,0,3.779-2.083,3.694-4.096c-0.093-2.194-1.923-3.628-4.024-3.628 c-2.109,0-3.779,2.082-3.692,4.095C395.811,252.021,397.64,253.454,399.741,253.454L399.741,253.454z"/><path d="M394.392,271.493c2.077,0,3.739-2.034,3.578-4.031c-0.178-2.201-2.114-3.521-4.192-3.521 c-2.076,0-3.738,2.033-3.576,4.029C390.377,270.172,392.314,271.493,394.392,271.493L394.392,271.493z"/><path d="M389.325,290.436c2.082,0,3.75-2.019,3.6-4.025c-0.163-2.198-2.086-3.555-4.169-3.555 c-2.081,0-3.752,2.019-3.601,4.024C385.317,289.078,387.242,290.436,389.325,290.436L389.325,290.436z"/><path d="M383.375,309.104c2.107,0,3.821-1.75,3.89-3.839c0.07-2.036-1.53-3.938-3.631-3.938 c-2.106,0-3.821,1.753-3.89,3.84C379.675,307.203,381.275,309.104,383.375,309.104L383.375,309.104z"/><path d="M357.241,335.238c2.114,0,4.025-1.305,4.213-3.546c0.167-1.983-1.44-4.181-3.557-4.181 c-2.115,0-4.026,1.305-4.215,3.547C353.517,333.041,355.125,335.238,357.241,335.238L357.241,335.238z"/><path d="M337.081,340.522c2.109,0,3.914-1.275,4.142-3.496c0.196-1.89-1.231-4.263-3.345-4.263 c-2.107,0-3.914,1.275-4.14,3.494C333.542,338.149,334.97,340.522,337.081,340.522L337.081,340.522z"/><path d="M318.302,346.055c2.111,0,3.742-2.146,3.639-4.137c-0.114-2.197-1.924-3.616-4.031-3.616 c-2.111,0-3.741,2.146-3.639,4.137C314.385,344.636,316.194,346.055,318.302,346.055L318.302,346.055z"/><path d="M244.437,350.574c2.086,0,3.77-2.055,3.633-4.059c-0.149-2.215-2.065-3.531-4.149-3.531 c-2.085,0-3.768,2.058-3.631,4.06C240.44,349.26,242.355,350.574,244.437,350.574L244.437,350.574z"/><path d="M68.947,246.016c2.116,0,3.806-1.948,3.719-4.009c-0.091-2.168-1.928-3.75-4.043-3.75 c-2.117,0-3.805,1.949-3.719,4.008C64.995,244.435,66.831,246.016,68.947,246.016L68.947,246.016z"/><path d="M46.458,244.712c2.107,0,3.533-2.458,3.344-4.323c-0.226-2.239-2.034-3.418-4.13-3.418 c-2.108,0-3.535,2.459-3.346,4.324C42.553,243.533,44.36,244.712,46.458,244.712L46.458,244.712z"/><path d="M47.869,265.701c0-0.009,0.002-0.019,0.002-0.027c-0.048,0.327-0.097,0.653-0.146,0.979 c0.003-0.007,0.006-0.014,0.008-0.021c-0.131,0.31-0.263,0.619-0.395,0.928c0.004-0.007,0.008-0.012,0.013-0.02 c-0.216,0.276-0.432,0.55-0.646,0.824c0.256-0.285,0.337-0.341,0.688-0.869c0.424-0.64,0.48-1.235,0.564-1.972 c-0.034-0.326-0.07-0.651-0.105-0.978c-0.163-0.672-0.487-1.254-0.968-1.748c-0.709-0.724-1.693-1.129-2.704-1.128 c-1.026,0.002-2.02,0.417-2.752,1.133c-0.215,0.275-0.43,0.549-0.644,0.824c-0.343,0.588-0.524,1.224-0.542,1.905 c-0.001,0.009-0.002,0.018-0.003,0.026c0.048-0.326,0.099-0.653,0.146-0.978c-0.003,0.006-0.006,0.014-0.008,0.021 c0.131-0.309,0.263-0.618,0.395-0.928c-0.004,0.007-0.009,0.013-0.012,0.018c0.215-0.273,0.429-0.548,0.645-0.821 c-0.255,0.284-0.334,0.339-0.688,0.869c-0.424,0.64-0.479,1.234-0.566,1.971c0.037,0.327,0.071,0.652,0.105,0.979 c0.165,0.671,0.488,1.253,0.971,1.748c0.708,0.724,1.692,1.127,2.705,1.127c1.025-0.001,2.019-0.416,2.75-1.133 c0.214-0.273,0.43-0.548,0.645-0.823C47.671,267.018,47.851,266.382,47.869,265.701L47.869,265.701z"/><path d="M42.137,292.48c2.087,0,3.978-1.251,4.131-3.49c0.133-1.971-1.499-4.171-3.601-4.171 c-2.085,0-3.978,1.251-4.13,3.491C38.403,290.279,40.035,292.48,42.137,292.48L42.137,292.48z"/><path d="M18.862,294.627c0,0.021,0,0.042,0.002,0.064c-0.018,0.354,0.037,0.69,0.165,1.005 c0.202,0.636,0.548,1.181,1.039,1.633c0.748,0.749,1.834,1.049,2.862,1.054c1.007,0.005,2.027-0.449,2.733-1.158 c0.705-0.708,1.106-1.676,1.083-2.678c-0.021-1.001-0.464-1.951-1.197-2.627c-0.771-0.706-1.749-1.033-2.783-1.038 c-0.016,0-0.03,0-0.047-0.002c0.346,0.038,0.693,0.075,1.04,0.112c-0.005-0.002-0.011-0.002-0.017-0.004 c0.316,0.12,0.628,0.24,0.941,0.358c-0.003-0.001-0.008-0.001-0.012-0.003c0.268,0.189,0.536,0.379,0.803,0.568 c-0.003-0.003-0.006-0.005-0.008-0.007c0.346,0.544,0.692,1.089,1.039,1.632c0-0.002-0.003-0.007-0.004-0.01 c0.053,0.331,0.106,0.662,0.161,0.994c-0.004-0.021-0.004-0.042-0.004-0.063c-0.003-0.992-0.476-1.96-1.199-2.628 c-0.751-0.692-1.761-1.06-2.781-1.038s-2.012,0.434-2.733,1.159C19.232,292.668,18.857,293.618,18.862,294.627L18.862,294.627z"/><path d="M3.674,303.236c2.071,0,3.841-1.745,3.782-3.83c-0.059-2.127-1.923-3.736-4-3.736 c-2.072,0-3.842,1.746-3.784,3.831C-0.267,301.627,1.598,303.236,3.674,303.236L3.674,303.236z"/></g><path clip-path="url(#d)" fill="#92A7B0" d="M329.354 98.827H392.493V193.75799999999998H329.354z"/><path clip-path="url(#d)" fill="#547684" d="M251.241 291.997H316.058V375.19H251.241z"/><path clip-path="url(#d)" fill="#B2C2C8" d="M85.791 173.038H112.66499999999999V211.00300000000001H85.791z"/><g clip-path="url(#d)" fill="#547684"><path d="M96.094,188.324c0,0.248-0.2,0.446-0.446,0.446h-6.092c-0.245,0-0.444-0.198-0.444-0.446v-9.581 c0-0.246,0.199-0.445,0.444-0.445h6.092c0.246,0,0.446,0.199,0.446,0.445V188.324z"/><path d="M106.344,188.324c0,0.248-0.199,0.446-0.446,0.446h-6.091c-0.245,0-0.444-0.198-0.444-0.446v-9.581 c0-0.246,0.199-0.445,0.444-0.445h6.091c0.248,0,0.446,0.199,0.446,0.445V188.324z"/><path d="M96.094,202.811c0,0.245-0.2,0.445-0.446,0.445h-6.092c-0.245,0-0.444-0.2-0.444-0.445v-9.582 c0-0.247,0.199-0.446,0.444-0.446h6.092c0.246,0,0.446,0.199,0.446,0.446V202.811z"/><path d="M106.344,202.811c0,0.245-0.199,0.445-0.446,0.445h-6.091c-0.245,0-0.444-0.2-0.444-0.445v-9.582 c0-0.247,0.199-0.446,0.444-0.446h6.091c0.248,0,0.446,0.199,0.446,0.446V202.811z"/></g><path clip-path="url(#d)" fill="#053649" d="M89.893,173.342h0.113h22.459c0.375,0,0.806-0.033,0.697-0.738 c-0.078-0.497-5.337-18.871-5.337-18.871c0-0.493-0.399-0.892-0.892-0.892H87.332h-0.114L89.893,173.342z"/><path clip-path="url(#d)" fill="#92A7B0" d="M20.901,211.197v-72.325c0-0.713,0.575-1.291,1.289-1.291h40.153 c0.711,0,1.29,0.578,1.29,1.291v72.325H20.901z"/><g clip-path="url(#d)" fill="#fff"><path d="M35.021,189.384c0,0.246-0.2,0.446-0.446,0.446h-6.091c-0.247,0-0.446-0.2-0.446-0.446v-11.588 c0-0.246,0.2-0.446,0.446-0.446h6.091c0.246,0,0.446,0.2,0.446,0.446V189.384z"/><path d="M45.048,189.384c0,0.246-0.2,0.446-0.446,0.446h-6.091c-0.245,0-0.445-0.2-0.445-0.446v-11.588 c0-0.246,0.2-0.446,0.445-0.446h6.091c0.247,0,0.446,0.2,0.446,0.446V189.384z"/><path d="M35.021,174.23c0,0.246-0.2,0.446-0.446,0.446h-6.091c-0.247,0-0.446-0.2-0.446-0.446v-11.588 c0-0.246,0.2-0.446,0.446-0.446h6.091c0.246,0,0.446,0.2,0.446,0.446V174.23z"/><path d="M45.048,174.23c0,0.246-0.2,0.446-0.446,0.446h-6.091c-0.245,0-0.445-0.2-0.445-0.446v-11.588 c0-0.246,0.2-0.446,0.445-0.446h6.091c0.247,0,0.446,0.2,0.446,0.446V174.23z"/><path d="M35.021,159.077c0,0.246-0.2,0.446-0.446,0.446h-6.091c-0.247,0-0.446-0.2-0.446-0.446v-11.588 c0-0.246,0.2-0.446,0.446-0.446h6.091c0.246,0,0.446,0.2,0.446,0.446V159.077z"/><path d="M45.048,159.077c0,0.246-0.2,0.446-0.446,0.446h-6.091c-0.245,0-0.445-0.2-0.445-0.446v-11.588 c0-0.246,0.2-0.446,0.445-0.446h6.091c0.247,0,0.446,0.2,0.446,0.446V159.077z"/></g><path clip-path="url(#d)" fill="#92A7B0" d="M309.669,269.616c0,0.493-0.397,0.892-0.891,0.892h-9.36 c-0.492,0-0.891-0.398-0.891-0.892v-15.27c0-0.493,0.399-0.893,0.891-0.893h9.36c0.494,0,0.891,0.399,0.891,0.893V269.616z"/><path clip-path="url(#d)" fill="#FEC2A8" d="M146.607,173.047c0,0-1.208,8.224,1.477,17.611 c3.008,10.512,11.087,24.312,29.824,25.194c31.607,1.489,44.488-26.745,46.699-46.001c2.479-21.57-3.122-36.43-3.122-36.43 l-6.483,1.938l-52.415-10.119l-14.641,22.199L146.607,173.047z"/><path clip-path="url(#d)" fill="#1C2124" d="M221.352,117.264c2.654-12.438-3.258-16.13-3.697-16.003 c-0.39,0.113-0.52,0.911-1.17,2.284c-1.447,3.063-3.406,4.743-4.511,5.516c-5.423,3.787-12.059,1.876-22.063-4.865 c-6.834-4.605-17.762-6.029-26.667,0.223c-9.074,6.373-8.115,16.398-8.115,16.398l9.601,3.435c0,0,8.068,13.201,31.494,18.569 c21.395,4.902,31.938-2.039,36.807-9.638c2.282-3.565,2.079-7.799,1.67-8.412c-0.445-0.669-2.005,2.396-7.576,1.95 C218.463,126.026,221.352,117.264,221.352,117.264z"/><path clip-path="url(#d)" fill="#FEC2A8" d="M161.083,209.03c0,0-0.421,4.931-1.434,8.633l22.617,4.284 c0,0,0.369-3.864,0.909-7.766L161.083,209.03z"/><path clip-path="url(#d)" fill="#1C2124" d="M344.193,113.049"/><path clip-path="url(#d)" fill="#FEC2A8" d="M218.904,160.832c0,0,5.502-1.102,8.687,1.129 c3.551,2.487,4.013,8.486,2.46,12.435c-3.038,7.724-11.617,5.698-10.561,6.339"/><path clip-path="url(#d)" fill="#1C2124" d="M156.396,117.29c-0.175,0.057-8.855,0.808-12.845,14.161 c-3.991,13.354-1.745,26.976-1.473,28.321c0.271,1.346,3.629,6.937,3.629,6.937l6.17,0.733c0,0,7.862-3.208,12.856-13.513 c4.996-10.307,6.402-22.474,6.64-26.67C171.609,123.065,156.396,117.29,156.396,117.29z"/><g clip-path="url(#d)"><path fill="#fff" d="M280.976,331.697c0,0.246-0.2,0.444-0.445,0.444h-17.233c-0.247,0-0.446-0.198-0.446-0.444v-25.404 c0-0.247,0.2-0.446,0.446-0.446h17.233c0.245,0,0.445,0.199,0.445,0.446V331.697z"/><path fill="#fff" d="M304.448,366.723c0,0.245-0.199,0.445-0.445,0.445H286.77c-0.245,0-0.445-0.2-0.445-0.445v-25.404 c0-0.246,0.2-0.445,0.445-0.445h17.233c0.246,0,0.445,0.199,0.445,0.445V366.723z"/><path fill="#053649" d="M263.521,375.19v-31.866c0-0.246,0.198-0.446,0.446-0.446h15.895c0.247,0,0.446,0.2,0.446,0.446v31.866"/><path fill="#fff" d="M304.448,331.697c0,0.246-0.199,0.444-0.445,0.444H286.77c-0.245,0-0.445-0.198-0.445-0.444v-25.404 c0-0.247,0.2-0.446,0.445-0.446h17.233c0.246,0,0.445,0.199,0.445,0.446V331.697z"/></g><path clip-path="url(#d)" fill="#053649" d="M317.192,293.299c-0.078-0.497-3.778-26.004-3.778-26.004 c0-0.491-0.399-0.891-0.892-0.891h-15.588h-0.116h-26.339h-0.113h-15.59c-0.492,0-0.89,0.399-0.89,0.891 c0,0-3.703,25.507-3.778,26.004c-0.111,0.704,0.322,0.737,0.697,0.737h15.773h0.114h33.915h0.114h15.773 C316.87,294.036,317.301,294.003,317.192,293.299z"/><path clip-path="url(#d)" fill="#053649" d="M394.786,99.484c-0.077-0.496-6.452-24.665-6.452-24.665 c0-0.493-0.398-0.892-0.891-0.892h-12.915h-0.114h-26.34h-0.113h-12.916c-0.494,0-0.892,0.398-0.892,0.892 c0,0-6.375,24.169-6.453,24.665c-0.109,0.705,0.323,0.737,0.698,0.737h15.774h0.113h33.917h0.114h15.771 C394.465,100.222,394.895,100.189,394.786,99.484z"/><path clip-path="url(#d)" fill="#053649" d="M353.745,188.971c0,0.247-0.2,0.446-0.446,0.446h-15.896 c-0.246,0-0.445-0.199-0.445-0.446v-31.42c0-0.246,0.2-0.446,0.445-0.446h15.896c0.246,0,0.446,0.2,0.446,0.446V188.971z"/><path clip-path="url(#d)" fill="#1C2124" d="M218.602,117.473c0,0,3.382-1.943,5.461-4.456 c2.396-2.898,1.497-5.122,1.662-5.224c0.376-0.229,5.584,3.513,5.786,11.539c0.2,8.029-3.717,11.186-3.717,11.186l-7.091,0.388 L218.602,117.473z"/><path clip-path="url(#d)" fill="#547684" d="M261.054 312.458H307.405V316.581H261.054z"/><path clip-path="url(#d)" fill="#547684" d="M284.229 347.446H307.405V351.56800000000004H284.229z"/><path clip-path="url(#d)" fill="#053649" d="M357.1,131.734c0,0.246-0.2,0.445-0.444,0.445h-17.233 c-0.249,0-0.447-0.199-0.447-0.445v-25.403c0-0.248,0.198-0.446,0.447-0.446h17.233c0.244,0,0.444,0.198,0.444,0.446V131.734z"/><path clip-path="url(#d)" fill="#053649" d="M382.133,131.734c0,0.246-0.201,0.445-0.445,0.445h-17.234 c-0.247,0-0.445-0.199-0.445-0.445v-25.403c0-0.248,0.199-0.446,0.445-0.446h17.234c0.244,0,0.445,0.198,0.445,0.446V131.734z"/><path clip-path="url(#d)" fill="#92A7B0" d="M377.73,71.32h0.002l-16.618-16.618c-0.194-0.195-0.494-0.211-0.667-0.037 l-16.66,16.659h0.003c-0.083,0.089-0.135,0.216-0.135,0.353v29.926c0,0.275,0.2,0.497,0.446,0.497h33.319 c0.248,0,0.446-0.222,0.446-0.497V71.677C377.867,71.537,377.814,71.41,377.73,71.32z"/><path clip-path="url(#d)" fill="#053649" d="M384.807,180.584c0,0.245-0.2,0.444-0.446,0.444h-25.478 c-0.246,0-0.446-0.199-0.446-0.444V155.18c0-0.246,0.2-0.446,0.446-0.446h25.478c0.246,0,0.446,0.2,0.446,0.446V180.584z"/><path clip-path="url(#d)" fill="#92A7B0" d="M338.068 112.94H384.419V116.618H338.068z"/><path clip-path="url(#d)" fill="#92A7B0" d="M346.199 91.381H349.875V137.733H346.199z"/><path clip-path="url(#d)" fill="#92A7B0" d="M371.231 90.895H374.907V137.24699999999999H371.231z"/><path clip-path="url(#d)" fill="#053649" d="M43.317,211.003V101.226c0-0.247,0.199-0.446,0.446-0.446h14.113 c0.246,0,0.446,0.199,0.446,0.446v109.777H43.317z"/><path clip-path="url(#d)" fill="#547684" d="M57.876,211.003l0.165-110.191l33.353,12.667c0.244,0,0.445,0.2,0.445,0.445 v97.079H57.876z"/><g clip-path="url(#d)" fill="#3D5F6E"><path d="M85.864,131.573c0,0.247-0.2,0.446-0.444,0.446h-21.69c-0.246,0-0.447-0.199-0.447-0.446v-6.016 c0-0.246,0.201-0.446,0.447-0.446h21.69c0.245,0,0.444,0.2,0.444,0.446V131.573z"/><path d="M85.864,142.271c0,0.246-0.2,0.446-0.444,0.446h-21.69c-0.246,0-0.447-0.2-0.447-0.446v-6.017 c0-0.247,0.201-0.445,0.447-0.445h21.69c0.245,0,0.444,0.198,0.444,0.445V142.271z"/><path d="M85.864,152.966c0,0.246-0.2,0.447-0.444,0.447h-21.69c-0.246,0-0.447-0.201-0.447-0.447v-6.016 c0-0.246,0.201-0.446,0.447-0.446h21.69c0.245,0,0.444,0.2,0.444,0.446V152.966z"/><path d="M85.864,163.663c0,0.246-0.2,0.446-0.444,0.446h-21.69c-0.246,0-0.447-0.2-0.447-0.446v-6.016 c0-0.246,0.201-0.446,0.447-0.446h21.69c0.245,0,0.444,0.2,0.444,0.446V163.663z"/><path d="M85.864,174.359c0,0.246-0.2,0.446-0.444,0.446h-21.69c-0.246,0-0.447-0.2-0.447-0.446v-6.016 c0-0.247,0.201-0.447,0.447-0.447h21.69c0.245,0,0.444,0.2,0.444,0.447V174.359z"/><path d="M85.864,185.278c0,0.246-0.2,0.446-0.444,0.446h-21.69c-0.246,0-0.447-0.2-0.447-0.446v-6.017 c0-0.246,0.201-0.445,0.447-0.445h21.69c0.245,0,0.444,0.199,0.444,0.445V185.278z"/></g><path fill="#053649" d="M360.762,72.941c-4.353,0-7.883,3.529-7.883,7.883V94.94c0,0.261,0.212,0.471,0.471,0.471h14.824 c0.259,0,0.47-0.21,0.47-0.471V80.824C368.644,76.471,365.115,72.941,360.762,72.941z" clip-path="url(#d)"/><path fill="#FC6124" d="M226.948,337.715c-0.011,0.023-0.023,0.044-0.033,0.067c-0.952,1.902,0.142,4.312,2.011,5.129 c2.02,0.884,4.182-0.103,5.132-2.001c0.012-0.022,0.023-0.046,0.033-0.068c0.953-1.9-0.143-4.31-2.011-5.127 C230.059,334.829,227.898,335.815,226.948,337.715c-0.011,0.023-0.023,0.044-0.033,0.067c-0.952,1.902,0.142,4.312,2.011,5.129 c2.02,0.884,4.182-0.103,5.132-2.001c0.012-0.022,0.023-0.046,0.033-0.068c0.953-1.9-0.143-4.31-2.011-5.127 C230.059,334.829,227.898,335.815,226.948,337.715L226.948,337.715z" clip-path="url(#d)"/><g clip-path="url(#d)" fill="#C8D3D8"><path d="M337.114,166.199c3.274,0,6.304-1.804,6.422-6.405l-12.004,0.149 C331.315,163.043,333.83,166.199,337.114,166.199L337.114,166.199z"/><path d="M349.25,166.199c3.288,0,5.821-3.064,5.731-6.229c-0.095-3.307-2.79-5.891-6.077-5.891 c-3.286,0-5.819,3.063-5.73,6.228C343.27,163.614,345.966,166.199,349.25,166.199L349.25,166.199z"/><path d="M371.706,166.199c3.273,0,6.181-2.16,6.423-5.598c0.217-3.099-2.285-6.413-5.57-6.413 c-3.274,0-6.181,2.161-6.422,5.599C365.919,162.885,368.421,166.199,371.706,166.199L371.706,166.199z"/><path d="M360.711,166.199c3.287,0,5.821-3.064,5.729-6.229c-0.093-3.307-2.79-5.891-6.074-5.891 c-3.287,0-5.821,3.063-5.731,6.228C354.729,163.614,357.426,166.199,360.711,166.199L360.711,166.199z"/><path d="M383.832,166.231c3.093,0,5.908-2.405,5.713-6.288c0-0.004-11.625-0.195-11.625-0.195 C377.953,163.12,380.725,166.231,383.832,166.231L383.832,166.231z"/></g><g clip-path="url(#d)" fill="#FEC2A8"><path d="M89.238,331.845c1.04,2.749-0.371,18.571-0.521,25.331c-0.148,6.759-5.626,13.37-12.386,21.986 c-1.088,1.387-6.406,8.468-9.693,7.188c-3.234-1.262-2.73-5.126-0.946-7.93c1.513-2.383,7.91-11.18,9.805-14.912 c1.894-3.732-13.669-8.338-13.669-8.338c-1.931-15.747,7.354-28.895,7.354-28.895"/><path d="M66.248,359.998c0,0-6.136,7.309-8.3,9.972c-2.896,3.565-2.576,7.367-0.278,8.579 c2.006,1.059,4.039,0.133,7.576-3.119c3.454-3.176,8.747-8.802,11.588-11.644c2.841-2.841-5.013-8.635-5.013-8.635 L66.248,359.998z"/><path d="M62.851,352.421c0,0-7.563,3.985-10.195,5.237c-3.399,1.615-4.625,4.791-2.341,7.075 c2.285,2.284,6.964,0.501,9.639-0.557c2.674-1.059,10.975-5.125,10.975-5.125l0.501-3.9L62.851,352.421z"/></g><path clip-path="url(#d)" fill="#D49074" d="M199.362,172.031c0.411,2.934,1.226,7.02,1.487,8.988 c0.259,1.969,0.298,2.6,0,2.785c-0.296,0.186-3.649,1.119-5.682,1.337c-2.079,0.224-2.748,1.077-2.785,2.081 c-0.043,1.123,0.667,2.748,4.901,1.781c4.235-0.966,7.168-1.56,7.651-3.676c0.483-2.117-0.037-4.159-0.483-6.687 c-0.444-2.524-1.337-7.502-1.484-9.1c-0.148-1.597-0.038-4.976-2.118-5.051c-2.911-0.104-1.931,2.749-1.82,5.089 C199.141,171.919,199.362,172.031,199.362,172.031z"/><path clip-path="url(#d)" fill="#1C2124" d="M218.751,151.568c3.073,0.438,3.121,2.45,2.562,3.193 c-0.557,0.742-1.843,0.466-2.972,0.408c-1.447-0.074-3.786,0.104-5.458,0.595c-2.064,0.603-2.973,1.61-4.347,1.463 c-1.374-0.149-1.225-1.946-0.631-2.837c0.595-0.893,2.288-1.897,4.309-2.378C214.405,151.492,216.151,151.195,218.751,151.568z"/><path clip-path="url(#d)" fill="#1C2124" d="M182.428,165.979c-0.847,0.353-2.339,1.262-2.116,3.787 c0.222,2.525,1.633,3.193,3.045,3.269c1.411,0.073,2.563-0.893,2.86-1.819c0.297-0.93,0.624-3.773-0.707-4.866 C184.471,165.494,182.873,165.792,182.428,165.979z"/><path clip-path="url(#d)" fill="#1C2124" d="M213.007,167.343c-0.854,0.25-2.285,0.982-2.362,3.479 c-0.077,2.494,1.092,3.295,2.437,3.527c1.346,0.233,2.563-0.581,2.956-1.457c0.393-0.873,0.929-3.653-0.22-4.872 C214.917,167.067,213.457,167.211,213.007,167.343z"/><path clip-path="url(#d)" fill="#1C2124" d="M185.236,147.549c1.829,0.906,3.494,1.874,5.242,3.71 c1.613,1.695,2.277,2.639,2.088,4.282c-0.114,0.989-1.026,1.492-1.785,1.186c-1.33-0.535-1.671-1.415-2.734-2.485 c-1.063-1.071-3.42-2.83-5.506-3.596c-2.089-0.764-3.267-0.996-3.232-2.756C179.347,145.901,182.92,146.402,185.236,147.549z"/><path clip-path="url(#d)" fill="#1C2124" d="M169.786,196.773c-1.828,0.264-2.7,1.711-2.146,2.805 c0.621,1.216,2.516,1.009,4.494,1.029c1.98,0.021,6.192,0.261,9.648,0.764c3.69,0.535,4.184,1.134,6.515,1.134 c0.969,0,2.967-2.557-1.093-3.979C183.145,197.104,174.507,196.094,169.786,196.773z"/><path clip-path="url(#d)" fill="#0A2D3B" d="M108.631,362.039c0,0-1.003,20.836,0,41.895l88.191-0.432 c0,0-0.181-35.717,0.306-41.762L108.631,362.039z"/><path clip-path="url(#d)" fill="#F8503B" d="M117.804,242.412l29.266-24.959l46.782,21.723l15.041,48.244l-13.837,15.53 c1.56,8.913,3.045,61.394,3.045,64.513c0,2.509,0.025,4.622,0.034,5.941c0.002,0.321,0.078,1.004-0.563,1.173 c-3.36,0.889-20.992,1.845-46.49,1.613c-24.513-0.223-39.236-2.308-42.318-2.68c-1.341-0.161-2.673,0.037-2.673-2.563 c0-5.184-0.273-17.326-0.094-30.659c0.509-38.029,7.861-71.202,7.861-71.202L117.804,242.412z"/><g clip-path="url(#d)"><defs><path id="g" d="M117.804,242.412l29.266-24.959l46.782,21.723l15.041,48.244l-13.837,15.53 c1.56,8.913,3.045,61.394,3.045,64.513c0,2.509,0.025,4.622,0.034,5.941c0.002,0.321,0.078,1.004-0.563,1.173 c-3.36,0.889-20.992,1.845-46.49,1.613c-24.513-0.223-39.236-2.308-42.318-2.68c-1.341-0.161-2.673,0.037-2.673-2.563 c0-5.184-0.273-17.326-0.094-30.659c0.509-38.029,7.861-71.202,7.861-71.202L117.804,242.412z"/></defs><clipPath id="h"><use xlink:href="#g" overflow="visible"/></clipPath><path clip-path="url(#h)" fill="#EA4935" d="M125.839,263.011c0,0-6.281,28.515-5.963,71.423 c0.316,42.908,2.172,58.97,2.172,58.97l-16.739-15.02l-0.287-100.922L125.839,263.011z"/></g><path clip-path="url(#d)" d="M151.305,375.596"/><path clip-path="url(#d)" fill="#F8503B" d="M147.294,216.413c0,0-27.501,2.66-54.598,37.884 c-20.055,26.072-27.558,68.933-27.738,73.611c-0.069,1.807,0.189,2.131,0.69,2.711c0.252,0.291,4.224,4.207,9.436,5.923 c7.392,2.435,13.403,1.983,14.409,1.905c1.757-0.139,1.49-0.463,2.533-4.969c4.196-18.076,12.258-51.03,39.963-73.016"/><g clip-path="url(#d)"><ellipse fill="#C1D6D5" cx="353.366" cy="313.878" rx="12.257" ry="3.064"/><path fill="#85929A" d="M343.573,288.433v23.921c0,0-0.176,1.652,1.287,2.104c1.458,0.451,3.888-0.058,4.007-1.871 c0.115-1.813,0-25.031,0-25.031L343.573,288.433z"/><circle fill="#FC6124" cx="346.401" cy="278.976" r="11.699"/><path fill="#FD844A" d="M342.668,270.508l2.174,2.173c0,0-2.954,1.337-3.901,7.075c0,0-3.509-1.17-4.011-1.28 C336.93,278.476,337.266,272.903,342.668,270.508z"/></g><g clip-path="url(#d)"><ellipse fill="#C1D6D5" cx="66.933" cy="223.051" rx="12.256" ry="3.063"/><path fill="#85929A" d="M57.14,197.604v23.92c0,0-0.175,1.652,1.288,2.104c1.457,0.451,3.889-0.059,4.006-1.871 c0.116-1.813,0-25.032,0-25.032L57.14,197.604z"/><circle fill="#FC6124" cx="59.969" cy="188.147" r="11.699"/><path fill="#FD844A" d="M56.739,179.679l1.668,2.173c0,0-2.951,1.338-3.898,7.075c0,0-3.51-1.17-4.011-1.28 C50.498,187.646,51.602,181.272,56.739,179.679z"/></g><path clip-path="url(#d)" fill="#FEC2A8" d="M187.655,309.481c0,0-5.165-5.643-6.412-6.89 c-1.246-1.246-1.9-1.958-4.691-2.314c-2.791-0.355-14.004-1.012-16.92-4.988c-2.798-3.812-2.434-5.938-1.84-9.677l29.033,2.077 l2.375-28.737c0,0,7.045,2.921,8.01,13.395c0.454,4.915-0.685,9.404,0.372,14.114c0.889,3.956,2.94,6.709,3.671,7.522"/><path clip-path="url(#d)" fill="#FEC2A8" d="M157.479,171.521c0,0-3.847-8.896-7.5-11.8 c-3.368-2.681-7.285-3.097-9.88-1.907c-4.277,1.955-6.215,7.647-4.179,14.138c2.333,7.446,13.472,6.903,13.748,6.318"/><path clip-path="url(#d)" fill="#F8503B" d="M203.114,292.626c0,0-5.236,2.45-16.379,18.717l2.118,8.022l5.571,13.594 c0,0,15.377,14.263,28.636,2.563c13.258-11.699,11.913-33.213,5.57-57.159c-6.462-24.401-20.055-44.233-35.097-53.26 l-15.264,28.413l15.174,6.593l6.589,8.811l3.194,23.037L203.114,292.626z"/><path clip-path="url(#d)" fill="#FEC2A8" d="M179.454,241.171c-19.648,5.912-32.25-5.824-32.607-24.294 c0,0,7.112-2.779,22.368-0.721c14.797,1.996,22.723,8.293,22.723,8.293S184.848,239.548,179.454,241.171z"/><path clip-path="url(#d)" fill="#E0412E" d="M197.089,228.039c0.401-1.045-0.225-1.366-0.425-1.523 c-0.201-0.158-3.213-2.134-4.463-2.856c-1.249-0.721-1.434,0.562-1.434,0.562s-5.214,19.139-23.731,14.784 c-16.669-3.92-15.483-22.78-15.483-22.78s0.102-1.208-1.1-1.078c-1.435,0.155-4.98,0.805-5.226,0.87 c-0.246,0.066-0.975,0.132-0.991,1.234c0,0-0.564,24.544,22.309,29.456C190.013,251.748,197.089,228.039,197.089,228.039z"/><g clip-path="url(#d)"><path fill="#707E84" d="M188.998,283.712l0.428-4.301l-0.011,0.008l1.634-16.358l1.167-11.693l0.434-4.358 c0,0,0.561-3.999-0.25-5.513c-0.543-1.014-1.758-2.693-4.493-3.307c-2.427-0.545-6.981-1.034-9.365-1.28 c-2.383-0.255-6.941-0.718-9.426-0.688c-2.798,0.035-4.321,1.428-5.052,2.309c-1.091,1.313-1.333,5.347-1.333,5.347l-0.435,4.357 l-1.166,11.693l-1.87,18.708l0.006,0.004l-0.193,1.939c0,0-0.502,3.267,0.19,4.913c0.647,1.536,2.068,3.328,5.076,4.06 c1.849,0.449,4.407,0.816,6.615,1.081l-0.012,0.007c0.354,0.037,1.164,0.132,2.221,0.241c1.059,0.112,1.869,0.188,2.225,0.225 l-0.011-0.01c2.214,0.198,4.792,0.37,6.691,0.313c3.09-0.094,4.835-1.554,5.772-2.923 C188.844,287.017,188.998,283.712,188.998,283.712z"/><path fill="#636F75" d="M187.512,250.002c-0.386,2.063-2.253,3.416-4.173,3.021c-1.919-0.394-3.163-2.385-2.776-4.448 c0.385-2.063,2.252-3.415,4.172-3.021C186.654,245.946,187.897,247.939,187.512,250.002z"/></g><path clip-path="url(#d)" fill="#FEC2A8" d="M160.758,289.887c-3.206-0.416-6.734-3.076-6.53-6.709 c0.236-4.216,3.206-5.106,3.206-5.106h32.537v16.149L160.758,289.887z"/><path clip-path="url(#d)" fill="#FEC2A8" d="M160.937,279.496c-0.179,0.06-9.321-0.713-8.608-6.947 c0.711-6.233,9.855-4.275,15.615-3.68c2.688,0.275,14.368,2.136,18.524,0.652c4.156-1.485,4.81-0.949,4.81-0.949 s-2.255,13.002-2.435,13.002C188.665,281.574,160.937,279.496,160.937,279.496z"/><path fill="#fff" d="M384.642,143.455c0-0.247-0.199-0.446-0.445-0.446h-30.084h-11.438h-5.794 c-0.247,0-0.445,0.199-0.445,0.446l-4.902,16.488h15.599h2.525h39.889L384.642,143.455z" clip-path="url(#d)"/><g clip-path="url(#d)"><path fill="#FC6124" d="M329.328,135.821c-14.312,0-25.916,11.603-25.916,25.915c0,2.568,0.269,5.421,0.964,7.764 c2.749,10.159,10.089,19.678,14.285,27.289c5.229,9.479,9.135,18.93,9.338,19.402c0.202,0.473,0.594,1.344,1.328,1.33h0.053 c0.736,0.014,1.125-0.857,1.33-1.33c0.202-0.473,4.109-9.923,9.335-19.402c4.197-7.611,11.536-17.13,14.286-27.289 c0.695-2.343,0.964-5.195,0.964-7.764c0-14.313-11.604-25.915-25.915-25.915"/><circle fill="#FD844A" cx="329.328" cy="161.867" r="15.372"/></g></g><defs><path id="i" d="M580 -0.187H1060V389.813H580z"/></defs><clipPath id="j"><use xlink:href="#i" overflow="visible"/></clipPath><g clip-path="url(#j)"><defs><path id="k" d="M580 -5.062H1060V389.813H580z"/></defs><clipPath id="l"><use xlink:href="#k" overflow="visible"/></clipPath><g clip-path="url(#l)"><defs><path id="m" d="M580 -5.062H1060V389.813H580z"/></defs><clipPath id="n"><use xlink:href="#m" overflow="visible"/></clipPath><path fill="#fff" d="M1138.216,321.036c0.108-0.117,0.216-0.238,0.316-0.361l25.442-30.767l124.872-16.517l-2.424-18.337 l-124.448,16.462l-86.336-24.903l-73.515-37.565l12.237-41.29c0.006-0.018,0.012-0.036,0.017-0.054l11.613-40.104 l102.183-84.498c1.228-1.024,1.637-1.647,2.184-2.672l63.516-119.009l-15.727-8.395l-62.689,117.458l-102.943,85.126 c-2.57,2.11-1.999,1.919-2.883,4.391l-12.368,42.712l-12.431,41.94l-107.073,1.687l0.292,18.493l101.273-1.595l-28.715,96.874 l-27.087,7.543L873.75,227.275l-13.975,6.93l48.448,97.71l-62.711,17.461l-61.415-34.914l-59.697-56.936l13.207,1.146 c0.264,0.023,0.532,0.035,0.798,0.035c0.875,0,1.746-0.123,2.587-0.369l102.507-29.86l-5.174-17.759l-100.845,29.378 l-104.763-9.092l-147.032-58.964l-7.636-52.36l122.953-55.403l118.006,25.709c0.551,0.12,1.811,0.268,2.364,0.268 c1.51,0,2.297-0.527,3.58-1.37l45.342-29.795l57.228-8.093l3.7,67.897c0.023,0.429,0.081,0.856,0.176,1.275l16.715,74.883 l15.225-3.399L846.764,117.4l-1.905-34.952l152.959-33.92c5.463-1.158,4.837-1.717,5.953-6.056l20.728-101.627l-15.284-3.117 L989.5,34.395L843.998,66.66l-5.994-109.993l-15.575,0.849l4.243,77.847l-60.292,8.525c-1.14,0.161-2.229,0.573-3.191,1.205 l-44.063,28.954L540.013,35.026L516.348-73.078l-15.239,3.337l22.534,102.933c-37.054-2.178-100.481-5.892-114.466-6.633 l-97.733-72.15l-9.263,12.549l99.618,73.545c2.028,1.568,2.247,1.486,3.869,1.514c3.793,0.133,92.275,5.29,126.731,7.315 l39.352,8.575l-105.612,47.589l-151.069-3.959l-0.468,17.821l145.264,3.807l8.286,56.814c0.238,1.63,0.577,4.12,1.315,4.895 c0.599,0.881,1.725,1.126,4.394,2.354l37.73,15.131l-13.872,42.678l-162.794-0.646l-0.063,15.599l102.814,0.406l0.402,113.505 c0.005,1.549,0.025,3.503,0.724,4.6c0.796,1.444,3.176,2.233,4.685,2.84l66.874,26.854l-26.527,61.08l16.353,7.102 l26.72-61.53l55.797,22.427c1.288,0.516,2.688,0.682,4.06,0.478l188.34-28.071l-13.601,36.344l14.61,5.468l15.567-41.603 l101.682,35.445l-9.22,53.582l15.373,2.646l9.089-52.82l152.716,6.471c0.112,0.006,0.222,0.007,0.333,0.007 c3.297,0,6.257-2.082,7.358-5.218l29.688-84.646l111.692,24.825l3.384-15.227l-104.335-23.191L1138.216,321.036z M406.325,42.027c0.037,0,0.071,0,0.107,0C406.406,42.027,406.371,42.028,406.325,42.027z M1068.014,263.488 c0.526,0.269,1.078,0.487,1.646,0.649l77.015,22.214l-20.009,24.196l-34.913,37.279l-122.681-27.269l27.705-93.472 L1068.014,263.488z M453.659,368.593l-0.382-108.136l50.071,0.199c0.01,0,0.021,0,0.03,0c1.82,0,3.849-0.077,5.202-1.162 c1.157-0.928,1.352-1.748,2.216-4.227l15.306-47.091l89.187,35.767l-0.407,39.97l-52.062,12.424 c-1.403,0.335-3.284,0.863-3.873,1.41c-1.003,0.866-1.693,2.46-2.234,3.71l-40.136,92.422L453.659,368.593z M586.56,422.008 l-53.436-21.477l38.166-87.889l54.504-13.006c2.121-0.506,4.704-0.959,5.593-2.332c1.066-1.463,0.969-2.788,1.251-6.247 l0.423-41.457l66.478,5.768l74.487,71.044c0.462,0.44,0.975,0.821,1.528,1.136l24.618,13.996l-18.851,51.436L586.56,422.008z M797.1,395.255l16.823-45.895l28.281,15.934c1.186,0.674,2.098,0.564,4.368-0.02l63.618-17.715l-14.145,82.187L797.1,395.255 z M1056.204,439.38l-144.932-6.142l15.54-90.307l31.527-8.778l125.025,27.789L1056.204,439.38z" clip-path="url(#n)"/></g></g></svg>