<svg xmlns="http://www.w3.org/2000/svg" xmlns:xlink="http://www.w3.org/1999/xlink" width="480" height="390" viewBox="0 0 480 390"><defs><path id="a" d="M580 -489.813H1060V-99.81299999999999H580z"/></defs><clipPath id="b"><use xlink:href="#a" overflow="visible"/></clipPath><g clip-path="url(#b)"><defs><path id="c" d="M580 -494.873H1060V-100H580z"/></defs><clipPath id="d"><use xlink:href="#c" overflow="visible"/></clipPath><g clip-path="url(#d)"><defs><path id="e" d="M580 -494.873H1060V-100H580z"/></defs><clipPath id="f"><use xlink:href="#e" overflow="visible"/></clipPath><path fill="#fff" d="M1137.213-168.778c0.11-0.115,0.214-0.236,0.316-0.359l25.443-30.768l124.872-16.517l-2.425-18.336 l-124.448,16.461l-86.335-24.902l-73.516-37.566l12.239-41.289c0.005-0.017,0.01-0.036,0.015-0.054l11.614-40.104 l102.182-84.498c1.227-1.023,1.636-1.647,2.183-2.672l63.517-119.009l-15.728-8.394l-62.688,117.457l-102.945,85.126 c-2.568,2.11-1.998,1.92-2.88,4.392l-12.368,42.71l-12.431,41.94l-107.073,1.687l0.292,18.494l101.271-1.595L949.606-169.7 l-27.086,7.543l-49.773-100.38l-13.974,6.929l48.449,97.71l-62.712,17.462l-61.414-34.915l-59.696-56.936l13.205,1.146 c0.266,0.022,0.534,0.034,0.8,0.034c0.874,0,1.744-0.123,2.587-0.368l102.504-29.86l-5.172-17.759l-100.845,29.377 l-104.762-9.091l-147.032-58.964l-7.637-52.36l122.954-55.403l118.006,25.71c0.55,0.119,1.811,0.268,2.365,0.268 c1.51,0,2.297-0.527,3.579-1.37l45.34-29.796l57.229-8.093l3.698,67.898c0.024,0.429,0.085,0.855,0.177,1.274l16.715,74.882 l15.224-3.398l-16.574-74.251l-1.904-34.953l152.959-33.92c5.463-1.158,4.836-1.716,5.954-6.056l20.726-101.627l-15.284-3.115 l-19.715,96.665l-145.5,32.266l-5.995-109.994l-15.575,0.85l4.242,77.846l-60.292,8.525c-1.14,0.162-2.229,0.573-3.19,1.205 l-44.06,28.954l-179.115-39.021l-23.667-108.104l-15.238,3.338l22.535,102.933c-37.054-2.178-100.482-5.893-114.466-6.634 l-97.732-72.15l-9.265,12.55l99.619,73.545c2.028,1.567,2.247,1.486,3.869,1.513c3.792,0.134,92.273,5.29,126.73,7.315 l39.353,8.575l-105.612,47.589l-151.07-3.959l-0.465,17.822l145.263,3.806l8.286,56.813c0.236,1.631,0.577,4.121,1.316,4.896 c0.597,0.879,1.723,1.125,4.392,2.352l37.73,15.133l-13.871,42.676l-162.795-0.646l-0.061,15.599l102.813,0.407l0.402,113.504 c0.006,1.549,0.026,3.502,0.725,4.6c0.796,1.444,3.175,2.233,4.683,2.841L509.36-81.62l-26.526,61.079l16.353,7.102 l26.719-61.53l55.799,22.427c1.286,0.517,2.687,0.682,4.057,0.478l188.341-28.07l-13.601,36.344l14.608,5.466l15.57-41.602 l101.68,35.445L883.141,9.1l15.374,2.646l9.089-52.82l152.715,6.472c0.111,0.005,0.221,0.007,0.332,0.007 c3.298,0,6.257-2.083,7.358-5.219l29.69-84.646l111.689,24.825l3.386-15.228l-104.335-23.19L1137.213-168.778z M405.324-447.785c0.036,0,0.073,0,0.107,0C405.406-447.785,405.371-447.784,405.324-447.785z M1067.013-226.324 c0.525,0.269,1.077,0.486,1.645,0.649l77.014,22.213l-20.01,24.197l-34.911,37.278l-122.682-27.268l27.707-93.473 L1067.013-226.324z M452.659-121.221l-0.384-108.136l50.072,0.199c0.011,0,0.02,0,0.032,0c1.819,0,3.848-0.076,5.201-1.162 c1.157-0.928,1.352-1.747,2.215-4.227l15.307-47.09l89.188,35.767L613.88-205.9l-52.062,12.424 c-1.403,0.335-3.285,0.864-3.872,1.411c-1.006,0.865-1.692,2.459-2.235,3.709l-40.136,92.422L452.659-121.221z M585.558-67.807 l-53.436-21.476l38.167-87.889l54.503-13.005c2.122-0.507,4.703-0.959,5.591-2.333c1.068-1.463,0.971-2.788,1.254-6.247 l0.421-41.456l66.479,5.767l74.488,71.044c0.461,0.44,0.973,0.822,1.528,1.137l24.617,13.996l-18.852,51.435L585.558-67.807z M796.097-94.559l16.824-45.895l28.282,15.934c1.184,0.674,2.095,0.563,4.368-0.021l63.617-17.713l-14.145,82.185 L796.097-94.559z M1055.202-50.434L910.27-56.576l15.542-90.306l31.526-8.778l125.025,27.789L1055.202-50.434z" clip-path="url(#f)"/></g></g><defs><path id="g" d="M0 0H480V390H0z"/></defs><clipPath id="h"><use xlink:href="#g" overflow="visible"/></clipPath><g clip-path="url(#h)"><path fill="#CEE2E3" d="M0 -2.437H480V392.436H0z"/><defs><path id="i" d="M0 -2.437H480V392.436H0z"/></defs><clipPath id="j"><use xlink:href="#i" overflow="visible"/></clipPath><circle clip-path="url(#j)" fill="#C7DBDC" cx="57.818" cy="177.931" r="78.994"/><path fill="#fff" d="M312.439,220.657c-0.071,0-0.143-0.005-0.215-0.012c-0.126-0.015-3.137-0.343-7.529-1.467 c-1.072-0.274-1.721-1.367-1.446-2.439c0.274-1.074,1.366-1.72,2.439-1.446c4.09,1.045,6.936,1.361,6.965,1.365 c1.1,0.119,1.896,1.108,1.777,2.208C314.318,219.896,313.451,220.657,312.439,220.657L312.439,220.657z M294.654,215.603 c-0.273,0-0.553-0.059-0.819-0.178c-2.478-1.108-4.813-2.359-6.939-3.713c-0.935-0.598-1.208-1.836-0.614-2.771 s1.836-1.208,2.769-0.614c1.962,1.25,4.124,2.408,6.423,3.438c1.011,0.451,1.464,1.641,1.011,2.65 C296.152,215.159,295.421,215.603,294.654,215.603L294.654,215.603z M279.651,205.014c-0.556,0-1.107-0.229-1.504-0.68 c-2.129-2.413-3.878-5.065-5.198-7.881c-0.47-1.003-0.039-2.199,0.964-2.67c1.002-0.47,2.196-0.035,2.667,0.968 c1.158,2.47,2.696,4.802,4.575,6.93c0.733,0.828,0.654,2.097-0.176,2.829C280.596,204.847,280.124,205.014,279.651,205.014 L279.651,205.014z M271.89,187.129c-0.994,0-1.858-0.739-1.987-1.753c-0.242-1.905-0.364-3.812-0.364-5.664 c0-0.673,0.016-1.354,0.047-2.021c0.055-1.106,0.993-1.96,2.1-1.905c1.106,0.051,1.961,0.99,1.908,2.097 c-0.03,0.604-0.043,1.22-0.043,1.829c0,1.686,0.111,3.421,0.331,5.16c0.139,1.1-0.64,2.103-1.738,2.243 C272.059,187.126,271.975,187.129,271.89,187.129L271.89,187.129z M273.723,168.905c-0.222,0-0.449-0.037-0.671-0.115 c-1.044-0.369-1.59-1.518-1.219-2.56c0.87-2.454,2.003-4.876,3.368-7.196c0.561-0.956,1.79-1.275,2.746-0.712 c0.955,0.559,1.273,1.79,0.712,2.744c-1.236,2.103-2.261,4.291-3.046,6.504C275.322,168.393,274.547,168.905,273.723,168.905 L273.723,168.905z M283.523,153.376c-0.494,0-0.989-0.181-1.376-0.546c-0.805-0.761-0.841-2.029-0.082-2.835 c2.563-2.714,5.067-4.85,6.728-6.222c0.854-0.704,2.119-0.583,2.825,0.271c0.704,0.855,0.583,2.118-0.271,2.824 c-1.579,1.302-3.955,3.33-6.366,5.883C284.588,153.167,284.056,153.376,283.523,153.376L283.523,153.376z M298.232,140.072 c-0.492,0-0.986-0.179-1.374-0.543c-0.807-0.759-0.846-2.028-0.087-2.835c1.625-1.729,3.162-3.569,4.564-5.466 c0.659-0.891,1.915-1.075,2.805-0.418c0.89,0.66,1.078,1.914,0.419,2.805c-1.497,2.022-3.134,3.982-4.867,5.826 C299.299,139.861,298.767,140.072,298.232,140.072L298.232,140.072z M55.524,128.616c-1.103,0-2-0.892-2.005-1.997 c-0.016-3.596-0.107-6.29-0.297-8.74c-0.085-1.104,0.74-2.069,1.845-2.155s2.068,0.743,2.154,1.846 c0.198,2.551,0.294,5.337,0.309,9.03c0.005,1.108-0.888,2.01-1.997,2.017C55.531,128.616,55.527,128.616,55.524,128.616 L55.524,128.616z M308.66,124.881c-0.281,0-0.567-0.062-0.839-0.187c-1.006-0.464-1.444-1.656-0.981-2.661 c1.042-2.259,1.866-4.541,2.454-6.784c0.28-1.071,1.377-1.714,2.448-1.433c1.072,0.279,1.714,1.377,1.432,2.446 c-0.646,2.474-1.551,4.979-2.692,7.451C310.144,124.446,309.417,124.881,308.66,124.881L308.66,124.881z M53.908,108.923 c-0.995,0-1.855-0.736-1.989-1.746c-0.328-2.527-0.61-4.929-0.891-7.557c-0.118-1.102,0.68-2.09,1.782-2.208 c1.102-0.118,2.089,0.682,2.207,1.783c0.276,2.598,0.557,4.969,0.88,7.463c0.144,1.098-0.631,2.104-1.729,2.249 C54.08,108.917,53.992,108.923,53.908,108.923L53.908,108.923z M312.366,106.95c-1.056,0-1.94-0.826-2-1.894 c-0.155-2.765-0.693-5.521-1.6-8.19c-0.355-1.049,0.208-2.188,1.258-2.544c1.048-0.354,2.186,0.207,2.542,1.256 c1.021,3.013,1.628,6.129,1.804,9.254c0.061,1.106-0.784,2.053-1.891,2.114C312.442,106.948,312.405,106.95,312.366,106.95 L312.366,106.95z M52.151,90.321c-0.005,0-0.01,0-0.016,0c-1.107-0.009-1.999-0.914-1.99-2.021 c0.019-2.643,0.31-5.238,0.861-7.712c0.242-1.082,1.313-1.762,2.395-1.521c1.08,0.242,1.761,1.313,1.52,2.394 c-0.49,2.198-0.748,4.51-0.766,6.868C54.148,89.433,53.251,90.321,52.151,90.321L52.151,90.321z M306.181,88.291 c-0.699,0-1.379-0.367-1.748-1.021c-1.182-2.091-2.49-4.079-3.885-5.911c-0.672-0.878-0.501-2.138,0.38-2.809 c0.88-0.673,2.138-0.502,2.811,0.378c1.504,1.976,2.914,4.119,4.186,6.367c0.545,0.966,0.206,2.19-0.759,2.734 C306.855,88.206,306.517,88.291,306.181,88.291L306.181,88.291z M184.648,86.483c-2.041,0-4.094-0.095-6.103-0.283l-0.117-0.011 c-1.103-0.106-1.911-1.085-1.804-2.188c0.106-1.103,1.086-1.911,2.188-1.804l0.106,0.011c2.37,0.221,4.796,0.304,7.222,0.246 c1.106-0.021,2.027,0.852,2.053,1.958c0.026,1.108-0.851,2.027-1.958,2.052C185.707,86.477,185.174,86.483,184.648,86.483 L184.648,86.483z M197.253,85.324c-0.954,0-1.799-0.682-1.972-1.653c-0.195-1.091,0.532-2.133,1.624-2.327 c2.252-0.4,4.613-0.922,7.019-1.55c1.072-0.28,2.167,0.362,2.447,1.434s-0.362,2.168-1.434,2.447 c-2.507,0.655-4.975,1.199-7.33,1.619C197.489,85.315,197.371,85.324,197.253,85.324L197.253,85.324z M167.93,84.1 c-0.185,0-0.374-0.026-0.561-0.081c-2.768-0.805-5.581-1.802-8.6-3.047c-1.024-0.424-1.513-1.596-1.09-2.619 c0.423-1.024,1.596-1.513,2.619-1.089c2.884,1.188,5.564,2.139,8.19,2.903c1.064,0.311,1.676,1.423,1.367,2.487 C169.602,83.53,168.8,84.1,167.93,84.1L167.93,84.1z M214.861,80.521c-0.83,0-1.605-0.519-1.893-1.346 c-0.365-1.045,0.187-2.188,1.232-2.554c2.418-0.843,5.055-1.819,8.299-3.068c1.035-0.398,2.195,0.115,2.594,1.148 c0.398,1.035-0.117,2.194-1.15,2.593c-3.285,1.269-5.962,2.257-8.421,3.116C215.303,80.486,215.08,80.521,214.861,80.521 L214.861,80.521z M149.636,76.517c-0.306,0-0.616-0.07-0.908-0.22c-1.916-0.975-3.997-2.07-6.551-3.449 c-0.974-0.527-1.337-1.743-0.811-2.72c0.525-0.973,1.744-1.336,2.717-0.81c2.525,1.361,4.578,2.445,6.464,3.404 c0.987,0.502,1.38,1.711,0.878,2.696C151.07,76.116,150.367,76.517,149.636,76.517L149.636,76.517z M294.421,74.156 c-0.442,0-0.889-0.145-1.259-0.444c-1.885-1.523-3.897-2.869-5.983-4.002c-0.973-0.528-1.333-1.746-0.804-2.719 s1.746-1.335,2.72-0.807c2.298,1.251,4.515,2.731,6.588,4.407c0.861,0.696,0.997,1.959,0.3,2.819 C295.586,73.903,295.006,74.156,294.421,74.156L294.421,74.156z M233.398,73.466c-0.805,0-1.565-0.488-1.873-1.286 c-0.397-1.032,0.117-2.193,1.15-2.593c2.76-1.064,5.032-1.911,7.148-2.662c1.043-0.371,2.19,0.174,2.563,1.217 c0.37,1.043-0.175,2.19-1.218,2.562c-2.084,0.741-4.324,1.575-7.051,2.627C233.882,73.422,233.637,73.466,233.398,73.466 L233.398,73.466z M57.116,73c-0.369,0-0.743-0.102-1.078-0.316c-0.934-0.595-1.207-1.837-0.61-2.77 c1.675-2.621,3.742-5.029,6.145-7.159c0.828-0.734,2.095-0.659,2.831,0.17c0.735,0.827,0.659,2.096-0.169,2.832 c-2.124,1.885-3.951,4.01-5.427,6.317C58.426,72.674,57.778,73,57.116,73L57.116,73z M133.333,67.77 c-0.319,0-0.644-0.076-0.946-0.237c-2.554-1.368-4.675-2.466-6.673-3.457c-0.992-0.491-1.397-1.696-0.907-2.688 c0.493-0.992,1.695-1.398,2.688-0.906c2.037,1.01,4.192,2.125,6.785,3.513c0.978,0.523,1.344,1.739,0.822,2.716 C134.743,67.385,134.049,67.77,133.333,67.77L133.333,67.77z M251.112,67.462c-0.885,0-1.694-0.592-1.936-1.486 c-0.286-1.069,0.346-2.171,1.417-2.457c2.167-0.583,4.3-1.084,6.338-1.486c0.331-0.066,0.661-0.128,0.99-0.188 c1.091-0.197,2.134,0.527,2.33,1.616c0.198,1.091-0.526,2.134-1.615,2.331c-0.309,0.056-0.617,0.113-0.927,0.175 c-1.95,0.385-3.993,0.864-6.074,1.425C251.461,67.439,251.285,67.462,251.112,67.462L251.112,67.462z M277.966,66.088 c-0.15,0-0.304-0.017-0.458-0.052c-2.697-0.633-5.531-0.995-8.421-1.075c-1.107-0.032-1.98-0.956-1.948-2.063 c0.031-1.106,0.955-1.983,2.061-1.948c3.161,0.09,6.264,0.485,9.224,1.179c1.078,0.253,1.747,1.332,1.495,2.41 C279.702,65.465,278.878,66.088,277.966,66.088L277.966,66.088z M72.02,60.327c-0.753,0-1.474-0.427-1.816-1.152 c-0.472-1.003-0.042-2.197,0.961-2.668c2.306-1.086,4.792-2.014,7.389-2.758c1.064-0.308,2.176,0.308,2.48,1.373 c0.306,1.064-0.309,2.175-1.374,2.482c-2.391,0.685-4.675,1.537-6.788,2.531C72.596,60.266,72.306,60.327,72.02,60.327 L72.02,60.327z M116.635,59.837c-0.242,0-0.485-0.044-0.723-0.135c-2.896-1.121-5.595-1.992-8.25-2.667 c-1.072-0.272-1.722-1.363-1.451-2.437c0.274-1.074,1.365-1.725,2.438-1.45c2.813,0.713,5.662,1.633,8.709,2.812 c1.033,0.4,1.546,1.562,1.147,2.595C118.198,59.351,117.44,59.837,116.635,59.837L116.635,59.837z M90.045,55.678 c-1.026,0-1.9-0.782-1.995-1.823c-0.101-1.104,0.711-2.08,1.815-2.18c1.099-0.101,2.228-0.176,3.355-0.227 c1.403-0.062,2.833-0.061,4.258,0.001c1.107,0.05,1.965,0.985,1.916,2.093c-0.049,1.106-0.985,1.962-2.092,1.914 c-1.307-0.056-2.62-0.056-3.905,0c-1.066,0.046-2.131,0.118-3.169,0.213C90.167,55.674,90.106,55.678,90.045,55.678 L90.045,55.678z" clip-path="url(#j)"/><g clip-path="url(#j)"><path fill="#707E84" d="M87.71,219.54v-8.505l-0.02,0.015v-32.357v-30.017v-8.621c0,0,0.316-6.796-1.583-9.591 c-1.272-1.872-4.006-4.912-9.533-5.554c-4.907-0.567-14.01-0.594-18.771-0.585c-4.763-0.009-13.865,0.018-18.773,0.585 c-5.527,0.642-8.259,3.682-9.533,5.554c-1.899,2.795-1.582,9.591-1.582,9.591v8.621v30.017v37.007l0.01,0.005v3.836 c0,0-0.351,5.813,1.345,8.892c1.582,2.874,4.747,5.632,10.838,6.446c3.745,0.501,8.872,0.692,13.29,0.759l-0.023,0.018 c0.711,0,2.33,0.018,4.442,0.018c2.112,0,3.731-0.018,4.441-0.018l-0.023-0.018c4.418-0.066,9.544-0.258,13.29-0.759 c6.092-0.814,9.257-3.572,10.839-6.446C88.061,225.353,87.71,219.54,87.71,219.54z"/><path fill="#85929A" d="M79.581,129.395c-1.918-0.948-4.273-1.172-6.718-1.307c-2.686-0.147-5.569-0.128-5.569-0.128H48.072 c0,0-2.613-0.02-5.299,0.128c-2.444,0.135-4.8,0.358-6.718,1.307c-2.338,1.157-5.189,3.682-5.189,9.679 c0,3.755,0,9.864,0,13.667c0,2.032,0,3.408,0,3.408c0,12.657,0,56.519,0,61.438c0,5.999,2.851,8.522,5.189,9.681 c1.918,0.95,4.274,1.173,6.718,1.307c2.686,0.147,5.299,0.128,5.299,0.128h19.222c0,0,2.883,0.02,5.569-0.128 c2.445-0.134,4.8-0.356,6.718-1.307c2.338-1.158,5.189-3.682,5.189-9.681c0-4.739,0-46.731,0-61.438c0,0,0-2.157,0-5.064 c0-3.756,0-8.763,0-12.011C84.77,133.076,81.919,130.552,79.581,129.395z"/><path fill="#fff" d="M34.83,143.996c0-0.244,0.197-0.44,0.44-0.44h45.096c0.244,0,0.441,0.196,0.441,0.44v67.577 c0,0.244-0.197,0.44-0.441,0.44H35.27c-0.243,0-0.44-0.196-0.44-0.44V143.996z"/><circle fill="#707E84" cx="57.915" cy="219.727" r="4.869"/><path fill="#505C62" d="M51.471,135.344c-0.393-0.44-0.959-0.708-1.548-0.739c-0.557-0.049-1.207,0.2-1.623,0.563 c-0.44,0.385-0.708,0.943-0.733,1.528c-0.026,0.567,0.179,1.131,0.559,1.555c0.406,0.453,0.951,0.684,1.548,0.736 c0.199,0.018,0.4-0.017,0.597-0.046c0.387-0.058,0.725-0.285,1.026-0.517c0.124-0.143,0.249-0.284,0.373-0.427 c0.221-0.334,0.34-0.701,0.36-1.102C52.056,136.329,51.85,135.766,51.471,135.344z"/><path fill="#505C62" d="M66.279,136.714c0,0.752-0.609,1.363-1.361,1.363h-9.681c-0.752,0-1.362-0.611-1.362-1.363l0,0 c0-0.752,0.609-1.361,1.362-1.361h9.681C65.67,135.353,66.279,135.962,66.279,136.714L66.279,136.714z"/></g><path clip-path="url(#j)" fill="#0A2D3C" d="M148.824,368.846l90.399,0.073c0,0,0.966,11.737,0.743,25.034 c-0.191,11.371-91.587,2.079-91.587,2.079S147.19,374.12,148.824,368.846z"/><path clip-path="url(#j)" fill="#fff" d="M421.155,136.208c0,6.153-4.989,11.142-11.143,11.142h-46.127 c-6.155,0-11.143-4.988-11.143-11.142V90.08c0-6.152,4.988-11.142,11.143-11.142h46.127c6.153,0,11.143,4.989,11.143,11.142 V136.208z"/><path clip-path="url(#j)" fill="#3D5F6E" d="M386.932,88.431c-9,0-16.294,7.295-16.294,16.296 c0,1.614,0.167,3.407,0.604,4.881c1.729,6.389,6.346,12.373,8.984,17.157c3.287,5.962,5.743,11.906,5.87,12.201 c0.128,0.299,0.374,0.847,0.836,0.836h0.034c0.462,0.011,0.708-0.537,0.835-0.836c0.128-0.295,2.584-6.239,5.871-12.201 c2.639-4.784,7.254-10.769,8.983-17.157c0.438-1.474,0.606-3.267,0.606-4.881c0-9.001-7.295-16.296-16.295-16.296"/><path clip-path="url(#j)" fill="#248EC9" d="M233.764,315.735c5.523-6.502,5.921-11.078,5.416-19.928 c-0.186-3.271-0.737-5.475-0.737-5.475v-45.684h-85.348l-1.924,31.377c0,0,1.477,18.652,2.48,29.348 c1.003,10.695,2.043,17.771,1.895,19.442c-0.148,1.671-5.46,21.505-6.796,33.761c-1.339,12.257-1.003,14.652-1.003,14.652 s-0.008,0.721,0.628,0.852c0.636,0.132,77.35,1.603,90.722,0.376c0,0,0.657-0.012,0.673-0.741 c0.014-0.73-1.195-13.442-2.664-24.164C235.269,336.125,233.764,315.735,233.764,315.735z"/><path fill="#2287BE" d="M164.236,301.035c-2.839-15.752-3.69-32.072-3.69-32.072l-9.024,1.368l-0.35,5.695 c0,0,1.477,18.652,2.48,29.348c1.003,10.695,2.043,17.771,1.895,19.442c-0.148,1.671-5.46,21.505-6.796,33.761 c-1.339,12.257-1.003,14.652-1.003,14.652s-0.008,0.721,0.628,0.852c0.167,0.034,5.63,0.162,13.828,0.31 c0.203-27.363,6.006-50.164,6.006-51.356C168.209,321.757,167.074,316.789,164.236,301.035z" clip-path="url(#j)"/><path clip-path="url(#j)" fill="#248EC9" d="M147.246,240.193c0,0-18.704,14.173-26.905,25.473l3.539,31.735 c0,0,29.162-23.803,38.865-29.323c9.703-5.521-7.559-30.769-7.559-30.769L147.246,240.193z"/><path clip-path="url(#j)" fill="#FEC2A8" d="M153.652,195.274c-1.808-0.836-6.316-1.144-8.762-1.348 c-4.162-0.346-9.029-0.805-13.076-0.964c-4.048-0.16-5.132-0.16-7.577,1.324c-2.773,1.685-5.551,4.238-9.174,8.988 c-4.03,5.285-2.682,17.031-2.414,19.047c-0.973,3.021-2.203,6.945-3.677,11.574c-3.508,11.032-8.356,24.848-8.356,24.848 s23.102,8.375,23.064,8.228c-0.037-0.149,2.117-12.518,3.194-17.568c0.991-4.652,4.598-20.292,5.163-22.738 c5.773-0.182,7.761-2.602,9.359-4.634c1.74-2.217,1.411-4.53,1.411-4.53s1.671-0.931,3.194-3.418 c1.674-2.736-1.226-6.202-3.007-8.098c-0.904-0.957-2.469-2.402-3.75-3.532c3.263-0.002,7.588,0.014,11.474,0.042 c1.633,0.013,4.938-0.706,4.977-4.196C155.709,196.968,155.05,195.919,153.652,195.274z"/><path clip-path="url(#j)" fill="#248EC9" d="M124.352,264.929c-15.46-2.955-23.005-8.28-23.005-8.28 c-1.428,3.596-7.416,20.832-5.698,31.899c0.927,5.978,3.833,10.013,8.628,12.355c5.547,2.712,10.648,1.284,12.727,0.479 c4.26-1.651,6.876-3.981,6.876-3.981l5.313-4.291L124.352,264.929z"/><path clip-path="url(#j)" fill="#1C2124" d="M163.011,193.806c0,0,0.447,6.835-3.564,15.972 c-4.012,9.136-9.062,19.461-8.172,30.231c0.892,10.77,37.66,0,37.66,0v-45.376L163.011,193.806z"/><path clip-path="url(#j)" fill="#FEC2A8" d="M169.362,135.124c0,0-14.596,29.47-9.303,54.54 c5.292,25.068,27.243,29.917,37.884,29.246c10.639-0.668,15.207,0.392,15.207,0.392l16.157-31.032c0,0,0.39-46.295,0.222-46.126 C229.363,142.311,169.362,135.124,169.362,135.124z"/><path clip-path="url(#j)" fill="#1C2124" d="M168.434,128.253c0,0-2.08,3.917-2.08,4.084s-0.668,1.337,0.167,2.061 c0.835,0.727,8.134,8.468,28.302,11.811c20.167,3.345,24.68,2.12,24.68,2.12s-1.171,10.862,0.89,19.163 c2.01,8.095,3.193,18.379,1.84,26.183c-2.842,16.38-11.087,23.065-11.254,23.567c-0.167,0.5-0.223,8.802-0.223,8.802 l-0.167,9.859c0,0,34.04,15.712,34.094,15.543c0.056-0.167,6.84-4.485,8.802-7.186c1.338-1.839,1.116-3.565,0.781-5.182 c0,0-3.454-11.755-6.852-19.554c-3.398-7.801-8.134-14.707-7.744-26.351c0.389-11.646,0.836-12.981,2.563-22.619 s5.849-23.064-3.009-38.439c-9.897-17.181-25.014-21.784-37.882-21.617C177.275,110.811,168.434,128.253,168.434,128.253z"/><path clip-path="url(#j)" fill="#FEC2A8" d="M186.8,217.406c0,0-0.055,4.625-0.502,7.688 c-0.444,3.064,24.346,3.567,24.346,3.567s-0.056-8.804,0.501-13.262C211.702,210.944,186.8,217.406,186.8,217.406z"/><path clip-path="url(#j)" fill="#248EC9" d="M270.4,303.118c0,0-5.686-19.764-12.634-32.85c0,0-7.399-14.77-15.59-24.061 c-5.107-5.793-12.604-0.938-12.604-0.938V289.4l9.176,8.001c0,0,7.918,19.975,11.979,29.9c4.06,9.928,7.408,22.833,21.934,23.014 C287.186,350.495,270.4,303.118,270.4,303.118z"/><path clip-path="url(#j)" fill="#FEC2A8" d="M147.246,240.193c0,0,18.334-14.704,42.23-15.322 c7.843-0.202,13.751,0.037,18.365,0.976c21.056,4.278,34.336,20.361,34.336,20.361s-19.85,12.761-50.196,8.802 C160.784,250.945,147.246,240.193,147.246,240.193z"/><path clip-path="url(#j)" fill="#248EC9" d="M291.086,317.906c0,0-0.844,8.878-2.479,14.218"/><g clip-path="url(#j)"><path fill="#FEC2A8" d="M296.375,278.376c-0.524,3.129-0.976,8.656-1.624,13.471c-1.526,11.367-3.946,27.996-3.946,27.996 s-14.92,3.321-25.042-6.106c-0.113-0.105,3.868-12.092,5.23-17.075c1.256-4.586,5.235-20.135,5.859-22.568"/><path fill="#707E84" d="M269.243,235.933c-2.391-0.36-4.258-0.347-5.167-0.013c-1.935,0.71-3.672,2.552-4.317,6.79 c-1.449,9.542-3.939,29.842-4.288,33.341c-0.336,3.341-0.889,7.451,3.684,9.424c1.215,0.523,2.717,0.774,4.772,0.966 c11.352,1.051,13.107,1.27,13.107,1.27s4.75,0.921,7.489-3.203c0.979-1.473,1.222-3.824,1.572-6.763 c1.327-11.177,3.806-29.961,3.806-29.961c0.421-3.685,0.003-5.187-0.756-6.599c-1.174-2.189-3.328-2.772-5.345-3.065 C283.799,238.119,272.925,236.487,269.243,235.933z"/><path fill="#FEC2A8" d="M299.624,256.784c0,0-3.02-2.236-10.389-5.559c-7.369-3.323-14.013-6.342-16.49-7.188 c-2.477-0.847-7.566,0.881-5.074,6.281c1.088,2.354,5.8,4.471,8.458,5.738c2.658,1.271,5.979,3.324,5.979,3.324L299.624,256.784 z"/><path fill="#FEC2A8" d="M282.349,258.171c0,0-7.067-0.543-12.926-0.964c-6.577-0.476-7.458,2.004-7.308,4.528 c0.188,3.207,2.837,3.625,8.274,4.408c8.644,1.249,11.839,1.149,14.979,1.935C288.51,268.863,282.349,258.171,282.349,258.171z"/><path fill="#FEC2A8" d="M285.308,267.654c0,0-11.054,0.424-14.919,0.424c-2.064,0-5.799,0.964-5.799,4.106 c0,5.437,6.533,4.707,9.544,4.651c6.464-0.121,11.416,0.726,13.349,0.966c1.935,0.241,0.785-11.658,0.785-11.658 L285.308,267.654z"/><path fill="#FEC2A8" d="M289.839,254.729c-0.302,0.242-10.27,4.953-10.27,4.953l5.497,7.854l-0.906,7.005l1.993,1.873 l1.511,5.617l6.101,6.102c0,0,5.747-2.91,8.335-8.276c2.476-5.135,4.167-18.18-2.477-23.071 C292.979,251.89,289.839,254.729,289.839,254.729z"/></g><path clip-path="url(#j)" fill="#248EC9" d="M260.394,326.507l5.585-14.816c0,0,5.247,3.527,14.257,4.691 c10.469,1.354,10.921,1.086,10.921,1.086s-0.696,8.367-3.173,16.768c-2.576,8.744-7.169,15.682-15.323,16.08L260.394,326.507z"/><path clip-path="url(#j)" fill="#D49074" d="M184.794,164.927c-0.279-0.082-1.365-0.612-2.284,0.949 c-1.419,2.409-2.591,4.038-4.458,6.352c-1.865,2.312-3.647,3.553-3.154,5.19c0.165,0.55,0.454,0.848,0.809,1.217 c0.434,0.45,1.081,0.871,2.123,1.532c1.894,1.195,3.553,1.969,4.43,2.31c0.374,0.147,1.028,0.377,1.886,0.051 c0.492-0.188,1.12-0.859,0.76-1.916c-0.325-0.95-0.906-1.018-2.496-1.675c-1.281-0.53-2.971-1.475-3.438-2.253 c-0.083-0.139,0.168-0.251,0.862-1.17c0.698-0.919,4.263-5.21,5.015-6.408C185.602,167.908,186.304,165.382,184.794,164.927z"/><path clip-path="url(#j)" fill="#E9A98D" d="M195.88,176.46c-0.639,0.041-1.057,0.266-1.156,0.809 c-0.113,0.632,0.015,1.67,1.909,2.283c1.894,0.613,3.128,0.85,4.081,1.017c1.267,0.224,3.189-0.122,3.189-1.322 c0-1.156-0.558-1.449-1.95-1.533c-1.393-0.083-2.842-0.418-3.788-0.64C197.217,176.849,196.471,176.422,195.88,176.46z"/><path clip-path="url(#j)" fill="#E9A98D" d="M169.322,168.876c-0.833-0.121-1.417-0.155-1.997,0.156 c-0.587,0.316-1.144,1.888,0.508,2.545c1.652,0.658,1.979,0.469,3.34,1.11c1.362,0.64,2.723,1.073,3.395,0.291 c0.671-0.776,0.599-1.798-0.508-2.422C172.996,169.958,170.507,169.05,169.322,168.876z"/><path clip-path="url(#j)" fill="#1C2124" d="M172.807,158.038c0.517-1.005,1.89-1.751,3.117-0.938 c1.117,0.738,1.237,2.967,0.315,5.198c-0.919,2.232-2.137,4.054-3.699,4.025c-1.634-0.031-2.446-1.753-1.757-3.413 C171.554,161.054,171.719,160.156,172.807,158.038z"/><path clip-path="url(#j)" fill="#1C2124" d="M197.972,164.436c0.468-1.026,1.804-1.84,3.068-1.088 c1.151,0.686,1.345,2.487,0.563,5.179c-0.673,2.318-1.596,4.216-3.417,4.291c-1.632,0.064-2.748-1.41-2.005-3.418 C196.878,167.515,196.985,166.603,197.972,164.436z"/><path clip-path="url(#j)" fill="#1C2124" d="M180.357,140.731c0,0-8.581,2.97-9.656,4.047 c-1.078,1.078-0.946,2.855,0.704,3.121c1.364,0.22,2.16-0.446,3.863-1.115c1.894-0.741,8.505-3.118,10.25-3.49L180.357,140.731z"/><path clip-path="url(#j)" fill="#1C2124" d="M211.092,155.931c-1.061-2.146-2.446-3.74-3.181-4.438 c-1.057-1.005-2.147-1.731-3.172-0.827c-1.203,1.061,0.279,2.969,1.25,4.243c1.072,1.407,2.504,3.661,2.959,5.586 c0.791,3.347,0.71,4.511,1.677,4.97c1.163,0.551,2.361-0.183,2.323-2.395C212.928,161.858,212.521,158.816,211.092,155.931z"/><path clip-path="url(#j)" fill="#1C2124" d="M201.384,205.632c-0.588,0.417-6.767,0.362-11.901-0.614 c-2.932-0.555-5.327-2.028-5.792-2.38c-1.301-0.982-1.301-1.152-1.351-1.595c-0.048-0.441-0.253-6.048,3.633-8.344 c3.621-2.143,7.683-1.302,9.449-0.394c3.436,1.768,5.769,5.658,6.012,9.547C201.558,203.816,201.602,205.478,201.384,205.632z"/><g clip-path="url(#j)"><defs><path id="k" d="M187.568,205.699c0,0,2.005-4.229,6.025-5.48c2.884-0.896,6.922-0.642,8.846,2.212 c1.921,2.853,1.281,5.318,1.281,5.318L187.568,205.699z"/></defs><clipPath id="l"><use xlink:href="#k" overflow="visible"/></clipPath><path clip-path="url(#l)" fill="#DF412E" d="M201.384,205.632c-0.588,0.417-6.767,0.362-11.901-0.614 c-2.932-0.555-5.327-2.028-5.792-2.38c-1.301-0.982-1.301-1.152-1.351-1.595c-0.048-0.441-0.253-6.048,3.633-8.344 c3.621-2.143,7.683-1.302,9.449-0.394c3.436,1.768,5.769,5.658,6.012,9.547C201.558,203.816,201.602,205.478,201.384,205.632z"/></g><path clip-path="url(#j)" fill="#7AC2E4" d="M148.496,151.161c0,0-2.653,2.157-3.785,6.545 c-0.485,1.88-0.817,3.478-1.911,4.46c-1.46,1.311-3.963,1.273-5.449-0.495c-2.669-3.18,0.617-6.679,1.558-7.501 C143.755,149.923,148.319,151.194,148.496,151.161z"/><path clip-path="url(#j)" fill="#7AC2E4" d="M137.458,136.477c4.492-1.449,8.021,0.002,11.57,2.41 c0,0-2.385-0.348-5.203,1.625c-2.835,1.984-5.869,4.322-8.667,2.228C132.872,141.031,134.354,137.479,137.458,136.477z"/><path clip-path="url(#j)" fill="#505C62" d="M271.537,226.129l-1.114,9.376l-6.075-1.412l1.026-8.612 c0.063-0.832,0.681-2.917,3.573-2.752C271.397,222.865,271.653,225.156,271.537,226.129z"/><path clip-path="url(#j)" fill="#707E84" d="M264.459,233.173l6.207,0.307c0,0-0.411,2.843,0.09,3.036 c0.65,0.253-7.299,0.335-7.299,0.335S264.071,236.962,264.459,233.173z"/><path clip-path="url(#j)" fill="#248EC9" d="M368.508,213.414"/><g clip-path="url(#j)" fill="#fff"><path d="M373.28,188.978"/><path d="M373.444,191.872c1.594,0,2.927-1.507,2.839-3.063c-0.097-1.691-1.576-2.725-3.168-2.725 s-2.927,1.509-2.838,3.065C370.373,190.841,371.853,191.872,373.444,191.872L373.444,191.872z"/><path d="M379.461,178.677c0-0.072,0-0.072,0-0.072"/><path d="M382.363,178.688c0-0.022,0-0.048,0-0.073c0-0.787-0.295-1.559-0.842-2.129 c-0.533-0.558-1.274-0.888-2.048-0.891c-0.774-0.002-1.518,0.319-2.056,0.873c-0.547,0.563-0.857,1.338-0.857,2.125 c0,0.024,0,0.049,0,0.072c0,0.79,0.294,1.56,0.842,2.13c0.533,0.559,1.274,0.886,2.048,0.89 c0.773,0.005,1.519-0.32,2.055-0.873C382.054,180.249,382.363,179.475,382.363,178.688L382.363,178.688z"/><path d="M383.582,167.126"/><path d="M383.748,169.98c1.579,0,2.911-1.599,2.82-3.114c-0.098-1.713-1.586-2.6-3.151-2.6 c-1.579,0-2.91,1.599-2.823,3.114C380.696,169.095,382.184,169.98,383.748,169.98L383.748,169.98z"/><path d="M385.863 154.981L385.863 154.981"/><path d="M385.651,157.843c1.579,0,3.086-0.935,3.212-2.637c0.114-1.531-1.207-3.084-2.788-3.084 c-1.578,0-3.086,0.933-3.212,2.639C382.749,156.29,384.07,157.843,385.651,157.843L385.651,157.843z"/></g><circle clip-path="url(#j)" fill="#547684" cx="386.932" cy="104.947" r="9.666"/><g clip-path="url(#j)"><path fill="#fff" d="M466.438,225.095c0,6.152-4.989,11.14-11.143,11.14h-46.128c-6.152,0-11.143-4.987-11.143-11.14 v-46.128c0-6.155,4.99-11.142,11.143-11.142h46.128c6.153,0,11.143,4.986,11.143,11.142V225.095z"/><path fill="#B2C2C8" d="M432.232,176.989c-5.893,0-10.669,4.821-10.669,10.766v10.069h6.893 c1.174,0.45,2.447,0.698,3.777,0.698s2.601-0.248,3.775-0.698h6.894v-10.069C442.901,181.811,438.123,176.989,432.232,176.989 z M436.755,194.538h-9.046v-6.783c0-2.521,2.025-4.563,4.523-4.563c2.498,0,4.523,2.043,4.523,4.563V194.538z"/><path fill="#3D5F6E" d="M415.453,201.05v19.799c0,3.522,6.284,6.621,16.75,6.666l0.001,0.004c0.041,0,0.08,0,0.121,0 c0.041,0,0.08,0,0.122,0l0-0.004c10.465-0.045,16.75-3.144,16.75-6.666V201.05H415.453z"/><path fill="#053649" d="M445.407,192.627h-26.167c-2.092,0-3.788,1.697-3.788,3.791v4.632h33.744v-4.632 C449.197,194.324,447.501,192.627,445.407,192.627z"/><path fill="#fff" d="M392.912,210.984c-0.142-0.416-0.369-0.774-0.672-1.082c-0.081-0.088-0.165-0.174-0.254-0.248 c-0.185-0.159-0.389-0.286-0.606-0.392c-0.008-0.005-0.018-0.012-0.025-0.018c-0.017-0.007-0.033-0.012-0.047-0.019 c-0.091-0.039-0.182-0.078-0.276-0.109c-0.02-0.005-0.042-0.016-0.063-0.021c-0.099-0.032-0.198-0.057-0.299-0.078 c-0.042-0.009-0.083-0.016-0.125-0.022c-0.077-0.013-0.153-0.021-0.228-0.028c-0.039-0.003-0.077-0.009-0.113-0.009 c-0.116-0.007-0.23-0.009-0.345,0c-0.801,0.05-1.571,0.415-2.107,1.01c-0.065,0.07-0.126,0.146-0.183,0.222 c-0.016,0.022-0.029,0.046-0.045,0.066c-0.364,0.521-0.564,1.152-0.535,1.794c0.005,0.79,0.403,1.579,1.003,2.087 c0.398,0.337,0.853,0.544,1.362,0.649c0.271,0.057,0.553,0.053,0.829,0.053c0.55-0.037,1.056-0.205,1.519-0.504 c0.437-0.29,0.777-0.666,1.022-1.128c0.239-0.457,0.347-0.943,0.329-1.46C393.005,211.495,392.959,211.241,392.912,210.984z"/><circle fill="#0A2D3C" cx="432.231" cy="208.576" r="4.762"/><path fill="#0A2D3C" d="M435.185,221.057c0,0.368-0.3,0.669-0.668,0.669h-4.735c-0.371,0-0.67-0.301-0.67-0.669l0.195-9.472 c0-0.369,0.104-0.194,0.475-0.194h4.735c0.369,0,0.445-0.063,0.445,0.307L435.185,221.057z"/></g><g clip-path="url(#j)"><path fill="#fff" d="M376.077,261.287c1.575,0,2.876-1.677,2.76-3.163c-0.137-1.735-1.642-2.527-3.203-2.527 c-1.575,0-2.875,1.677-2.758,3.165C373.011,260.495,374.517,261.287,376.077,261.287L376.077,261.287z"/><path fill="#fff" d="M382.588,271.659c1.634,0,3.087-1.043,3.234-2.761c0.13-1.528-1.083-3.218-2.718-3.218 c-1.632,0-3.086,1.043-3.234,2.761C379.739,269.97,380.952,271.659,382.588,271.659L382.588,271.659z"/><path fill="#fff" d="M387.055,282.985c1.592,0,2.868-1.491,2.739-3.042c-0.136-1.669-1.605-2.777-3.211-2.777 c-1.591,0-2.866,1.491-2.739,3.042C383.98,281.875,385.45,282.985,387.055,282.985L387.055,282.985z"/><path fill="#fff" d="M420.709,345.456c0,6.154-4.988,11.141-11.142,11.141h-46.128c-6.153,0-11.142-4.986-11.142-11.141 v-46.128c0-6.155,4.989-11.142,11.142-11.142h46.128c6.153,0,11.142,4.986,11.142,11.142V345.456z"/><path fill="#0A2D3C" d="M386.239,328.951c0,3.455-2.799,6.254-6.252,6.254c-3.454,0-6.252-2.799-6.252-6.254 c0-3.451,2.799-6.251,6.252-6.251C383.44,322.7,386.239,325.5,386.239,328.951z"/><path fill="#3D5F6E" d="M405.717,318.154c0.361-1.137,0.557-2.345,0.557-3.603c0-0.975-0.119-1.924-0.341-2.832 c-0.001-0.007-0.003-0.016-0.004-0.025c-0.003-0.011-0.006-0.02-0.009-0.032c-1.06-4.242-4.397-7.581-8.639-8.64 c-0.013-0.004-0.022-0.01-0.036-0.011c-0.009-0.002-0.019-0.004-0.03-0.006c-0.907-0.221-1.852-0.343-2.828-0.343 c-1.253,0-2.461,0.197-3.595,0.558c-4.819,1.44-7.47,5.598-11.209,7.17c-5.133,2.162-8.7,0-8.7,0l-4.648,4.647l27.666,27.665 l4.647-4.646c0,0-2.16-3.568,0-8.7C400.121,325.619,404.273,322.969,405.717,318.154z"/><circle fill="#3D5F6E" cx="403.897" cy="305.043" r="3.983"/><path transform="matrix(.707 .707 -.707 .707 335.147 -193.53)" fill="#3D5F6E" d="M397.187 303.914H405.153V311.625H397.187z"/><path fill="#B2C2C8" d="M373.464,335.205c-0.646-0.499-1.664-0.285-3.422,1.476c-1.758,1.758-3.326,3.038-3.966,3.836 c-0.639,0.799-0.416,2.399,1.248,2.399c1.19,0,1.95-0.831,3.741-2.526C372.856,338.694,375.446,336.734,373.464,335.205z"/><path fill="#B2C2C8" d="M379.698,346.722c0.026-0.098,0.982-3.973,1.151-5.021c0.192-1.184-0.178-2.342-1.439-2.238 c-1.567,0.127-1.822,2.623-2.559,5.693c-0.595,2.479,0.154,3.6,1.343,3.422C378.835,348.48,379.346,348.064,379.698,346.722z"/><path fill="#B2C2C8" d="M361.84,330.035c-0.833,0.018-1.726-0.272-1.777-1.496c-0.05-1.225,1.087-1.757,2.464-1.818 c0.871-0.038,3.515-0.171,5.292-0.079c1.666,0.088,2.239,2.854,0.232,3.06C365.722,329.937,363.963,329.989,361.84,330.035z"/></g><g clip-path="url(#j)" fill="#AFC5C3"><path d="M52.204,185.819c-0.001-1.701-0.051-3.234,0.335-4.901c0.834-3.623,4.217-5.679,7.186-7.913 c1.162-0.873,2.748-2.424,2.775-3.999c0.042-2.408-1.628-4.447-4.102-4.576c-1.362-0.071-2.949,0.399-4.021,1.333 c-1.448,1.264-1.455,1.899-2.125,3.004c-1.106,1.825-4.114,2.575-6.046,1.06c-1.774-1.394-1.849-4.002-1.003-6.067 c3.009-7.354,10.233-8.245,10.233-8.245c9.358-1.617,13.612,4.68,13.612,4.68c3.417,4.309,3.974,11.551-0.373,15.895 c-2.133,2.133-4.489,3.475-6.508,5.659c-1.17,1.267-1.482,2.015-1.662,4.183c-0.111,1.337,0.558,5.187-3.9,5.237 C51.813,191.224,52.204,185.819,52.204,185.819z"/><path d="M57.184,202.379c0.406-0.01,0.805-0.122,1.196-0.228c0.772-0.209,1.401-0.745,1.954-1.286 c0.219-0.316,0.437-0.631,0.656-0.947c0.368-0.727,0.525-1.498,0.474-2.31c-0.082-1.155-0.628-2.244-1.491-3.012 c-0.897-0.798-2.103-1.209-3.301-1.134c-0.38,0.076-0.76,0.149-1.14,0.226c-0.739,0.247-1.372,0.66-1.898,1.234 c-0.011,0.011-0.022,0.021-0.033,0.031c0.289-0.245,0.578-0.491,0.869-0.737c-0.009,0.005-0.016,0.011-0.022,0.018 c0.343-0.169,0.686-0.334,1.028-0.497c-0.006,0.002-0.015,0.002-0.022,0.005c0.38-0.073,0.761-0.149,1.141-0.223 c-0.011,0-0.021,0-0.032,0c-1.138,0.03-2.284,0.629-3.039,1.458c-0.799,0.882-1.212,2.072-1.129,3.26 c0.08,1.15,0.627,2.243,1.491,3.011C54.808,202.068,55.963,202.413,57.184,202.379L57.184,202.379z"/></g><g clip-path="url(#j)"><g fill="#fff"><path d="M312.41,232.997c-4.554,4.163-12.406,12.118-14.487,13.939c0,0,16.932,0.606,27.926,0.086"/><circle cx="346.73" cy="224.387" r="37.23"/></g><path fill="#CBD7DB" d="M324.601,210.83v23.286v2.672v2.557c0,0.492,0.397,0.893,0.89,0.893h0.913v0.055h39.601h0.629h1.197 c0.493,0,0.893-0.398,0.893-0.891v-2.613v-2.616V210.83H324.601z"/><path fill="#E6EEF0" d="M346.73,209.994c-10.622,0-17.868,0.056-17.868,0.056h-2.479c0,0-0.416,0-0.893,0 c-0.584,0-0.89,0.35-0.89,0.78l14.437,12.563h-0.009c0,0,4.781,4.196,5.626,4.888c0.714,0.584,1.171,1.016,2.005,1.016 c0.001,0,0.001,0,0.001,0l0,0c0.835,0,1.292-0.432,2.006-1.016c0.845-0.691,5.625-4.888,5.625-4.888h-0.007l14.437-12.563 c0-0.431-0.307-0.78-0.893-0.78c-0.477,0-0.891,0-0.891,0h-2.479C364.46,210.05,357.354,209.994,346.73,209.994z"/></g><g clip-path="url(#j)" fill="#fff"><path d="M101.531,104.87c0.602,1.049,2.069,1.201,3.479,0.407c1.754-0.99,4.225-1.144,5.769-0.063 c0.944,0.662,1.431,1.287,1.547,2.402c0.114,1.091-0.087,2.054-0.793,2.813c-0.82,0.882-2.387,1.81-3.344,2.534 c-0.863,0.659-4.568,3.037-5.18,8.469c-0.149,1.326,0.222,2.268,1.583,2.576c1.226,0.279,2.378-0.667,2.787-2.229 c0.333-1.28,1.336-3.677,3.647-5.126c2.957-1.851,5.638-3.356,6.296-7.019c0.406-2.263-0.028-3.844-0.698-5.349 c-0.789-1.775-2.256-2.98-3.844-3.815c-3.12-1.644-8.223-0.99-10.411,0.965C101.229,102.459,100.946,103.854,101.531,104.87z"/><path d="M101.497,130.366c0.237,0.446,0.576,0.664,0.97,0.941c0.632,0.451,1.583,0.451,2.298,0.247 c0.507-0.144,0.789-0.39,1.183-0.718c0.368-0.306,0.566-0.836,0.703-1.271c0.278-0.887-0.109-2.048-0.806-2.642 c-0.527-0.446-1.181-0.727-1.872-0.743c-0.031-0.001-0.061,0-0.091,0c-0.034,0-0.066-0.003-0.1,0 c-0.206,0.008-0.403,0.046-0.594,0.101c-0.229,0.053-0.387,0.119-0.753,0.299c-0.433,0.211-0.677,0.592-0.947,0.962 c-0.292,0.404-0.426,1.088-0.383,1.574C101.155,129.643,101.252,129.905,101.497,130.366z"/><path d="M109.323,180.35c-0.454-0.519-0.471-0.549-1.074-0.893c-0.249-0.145-0.546-0.227-0.833-0.266 c-0.63-0.086-0.927-0.031-1.531,0.134c-0.474,0.132-0.871,0.479-1.206,0.814c-0.305,0.31-0.508,0.767-0.614,1.195 c-0.1,0.346-0.117,0.718-0.105,1.065c0.017,0.523,0.248,0.925,0.503,1.358c0.237,0.407,0.769,0.772,1.176,0.975 c0.908,0.446,2.113,0.328,2.921-0.279c0.657-0.497,1.088-1.15,1.25-1.964c0.11-0.553,0.014-0.968-0.137-1.495 C109.605,180.764,109.482,180.528,109.323,180.35z"/><path d="M109.506,173.732c-0.062,0.669-0.064,0.803-0.171,1.26c-0.705,2.972-4.083,1.723-4.493-0.297 c-0.094-0.466-0.043-1.634-0.016-1.852c0.097-0.756,0.256-1.521,0.5-2.239c0.681-2.023,1.65-3.318,2.728-4.321 c1.229-1.146,4.457-2.919,4.977-4.309c0.892-2.375-0.372-4.233-1.337-4.866c-2.896-1.707-5.935-0.058-7.023,1.216 c-0.404,0.471-0.793,1.353-0.941,1.774c-0.362,1.029-1.768,1.467-2.906,0.996c-1.298-0.536-1.374-1.831-1.013-3.094 c1.168-4.084,4.359-5.996,8.263-6.334c3.872-0.332,7.346,1.021,9.203,4.597c0.976,1.878,1.137,4.02,0.636,6.052 c-0.548,2.22-1.826,3.961-3.877,5.23C113.104,168.124,109.828,170.165,109.506,173.732z"/><path d="M11.341,127.371c0.177,0.697,0.351,1.393,0.374,1.897c0.155,3.289-3.996,3.15-5.007,1.12 c-0.229-0.46-0.863-2.063-1.05-4.027c-0.374-3.926,0.463-5.781,1.245-7.229c0.672-1.241,2.981-3.665,3.121-5.266 c0.239-2.744-1.738-4.225-3.003-4.55c-3.735-0.776-6.575,1.943-7.378,3.619c-0.299,0.62-0.452,1.654-0.482,2.139 c-0.077,1.179-1.493,2.103-2.899,2.005c-1.602-0.114-2.092-1.42-2.088-2.837c0.009-4.592,2.837-7.675,7.045-9.338 c4.172-1.649,8.53-1.386,11.705,1.663c1.665,1.601,2.517,3.745,2.6,6.003c0.09,2.464-0.763,4.974-2.566,7.031 C10.58,122.311,10.668,124.714,11.341,127.371z"/><path d="M9.59,137.976c0.252,0.472,0.61,0.702,1.029,0.997c0.671,0.478,1.679,0.478,2.437,0.262 c0.539-0.15,0.837-0.412,1.256-0.761c0.389-0.324,0.601-0.887,0.745-1.349c0.295-0.941-0.115-2.171-0.857-2.802 c-0.557-0.473-1.25-0.771-1.984-0.787c-0.032-0.001-0.063-0.001-0.095-0.001c-0.036,0.001-0.072-0.002-0.108,0 c-0.216,0.01-0.426,0.049-0.63,0.106c-0.24,0.055-0.408,0.129-0.796,0.316c-0.46,0.227-0.719,0.627-1.005,1.022 c-0.309,0.427-0.451,1.152-0.405,1.667C9.228,137.208,9.331,137.488,9.59,137.976z"/></g></g></svg>