<svg xmlns="http://www.w3.org/2000/svg" xmlns:xlink="http://www.w3.org/1999/xlink" width="480" height="390" viewBox="0 0 480 390"><path fill="#CEE2E3" d="M0 0H480V390H0z"/><defs><path id="a" d="M0 0H480V390H0z"/></defs><clipPath id="b"><use xlink:href="#a" overflow="visible"/></clipPath><g clip-path="url(#b)"><path fill="#1C2124" d="M50.934,346.09c-3.541,33.861-12.305,87.035-12.305,87.035l34.017,0.125 c2.763-16.333,4.452-27.575,5.514-35.918c2.413,0.155,5.027,0.223,7.771,0.142c2.142-0.063,4.049-0.137,5.748-0.217 c0.312,9.54,0.798,23.399,1.37,36.091l34.042,1.972l-3.636-80.647"/><path fill="#fff" d="M119.317,281.927c-3.898-22.82-9.701-28.863-15.022-28.395l2.646-10.274 c-0.499,0-27.151,3.219-37.441,4.465c-4.156-3.64-7.824-7.032-7.723-7.294c0.226-0.577-1.661-7.944-1.661-7.944l-2.108,1.434 l5.928-5.734c0,0-19.963,4.487-41.037,34.3c-15.94,22.551-21.193,54.741-9.858,66.411c10.203,10.504,26.798,1.167,35.184-5.1 c-0.057,4.155-0.444,10.064-0.583,12.831c-0.292,5.829-0.612,13.505-1.225,21.105c-0.459,5.706-1.891,7.182,5.815,7.642 c4.495,0.267,14.208-0.457,21.718-5.243c3.707,2.111,11.34,5.069,25.392,5.478c11.289,0.328,17.741-0.102,21.817-0.572 c3.704-0.425,4.862-0.945,5.019-2.502C126.371,360.592,128.299,334.522,119.317,281.927z M47.322,305.041 c0.006,1.536,0.01,3.093,0.013,4.652c-1.714-2.947-3.174-5.387-3.528-5.774C44.146,304.071,45.55,304.51,47.322,305.041z"/><path fill="#DF412E" d="M73.196,248.817l-6.899,0.884l-1.815,4.135c0,0,2.185,10.509,7.53,11.358l2.18-0.623 c0,0,4.785-3.908,5.845-11.448C81.014,246.176,73.196,248.817,73.196,248.817z"/><path fill="#fff" d="M95.864,228.215c0,0,0.998-1.332,1.816,0.146c3.292,1.384,36.064,16.111,52.189,48.621l5.135,8.972 l-0.254,13.861l-32.111-7.045c0,0-28.652-0.018-29.108,0.008c-0.456,0.026-6.68-48.987-6.68-48.987L95.864,228.215z"/><path fill="#E6EEF0" d="M94.442,222.115c0.238,0.107,2.235,2.532,5.826,6.67c0.466,0.536,0.289,1.093,0.039,1.886 c-0.122,0.386-2.78,8.022-5.958,15.288c-3.177,7.266-6.602,14.766-7.723,14.537c-2.88-0.654-10.565-6.902-14.961-10.099 c0,0-9.437,8.212-12.713,10.021c-0.655,0.363-0.842-0.468-1.069-1.487c-0.397-1.784-2.764-11.348-2.296-26.742 c0.051-1.655,3.168-5.84,3.168-5.84L94.442,222.115z"/><path fill="#FEC2A8" d="M84.538,227.476c-1.482,3.387-5.053,10.844-12.944,21.554c-5.161-9.877-6.784-17.855-6.784-17.855"/><path fill="#FEC2A8" d="M397.965,219.493c0,0,0.001,3.638-0.514,6.411l17.041,1.717c0,0,0.028-2.852,0.182-5.742L397.965,219.493 z"/><path fill="#F8503B" d="M401.183,342.523c-18.187,1.377-29.236,0.775-31.545,0.696c-1.004-0.033-1.98,0.194-2.146-1.708 c-0.329-3.796-1.302-12.67-2.019-22.443c-2.042-27.879,1.299-52.632,1.299-52.632l1.229-19.781l20.111-20.113l39.602,9.228 l6.836,16.012l-2.036,8.859"/><path fill="#F8503B" d="M389.973,225.631c0,0-4.366,0.595-11.046,3.357c-10.799,4.462-18.926,12.995-28.877,25.276 c-2.236,2.761-3.646,7.324-6,13.002c-4.404,10.621,3.2,23.246,1.736,41.141c-0.107,1.324-19.688-0.948-19.327-0.512 c0.181,0.22,3.051,3.178,6.892,4.549c5.448,1.943,9.928,1.737,10.677,1.702c1.311-0.065,1.118-0.31,1.991-3.597 c3.504-13.192,10.2-37.232,31.274-52.805"/><path fill="#FEC2A8" d="M413.63,241.874c-14.191,5.563-24.28-2.239-25.722-15.741c0,0,5.097-2.479,16.538-1.932 c11.099,0.531,17.374,4.645,17.374,4.645S417.525,240.348,413.63,241.874z"/><path fill="#F7503C" d="M422.978,229.396c0,0,25.198,11.885,34.557,60.744l-20.389-9.244l-14.63-17.481l-0.548-35.162"/><path fill="#E0412E" d="M425.87,231.15c0.229-0.789-0.254-0.986-0.413-1.088c-0.158-0.104-2.517-1.361-3.49-1.811 c-0.973-0.45-1.028,0.5-1.028,0.5s-2.649,14.342-16.654,12.316c-12.607-1.823-12.929-15.708-12.929-15.708 s-0.001-0.892-0.883-0.722c-1.054,0.205-3.641,0.903-3.819,0.967c-0.178,0.063-0.713,0.158-0.655,0.965 c0,0,1.143,18.009,18.413,20.169C422.129,248.956,425.87,231.15,425.87,231.15z"/><path fill="#FEC2A8" d="M386.876,158.271l-3.344,26.586l-1.384,0.694c0,0-2.803,15.28,3.028,25.907 c4.418,8.053,13.305,11.581,20.993,12.291c11.394,1.054,18.596-1.52,23.149-9.794c3.048-5.539,3.154-10.979,3.154-10.979 l0.992-12.211l2.13-0.15l3.679-28.651L386.876,158.271z"/><path fill="#1C2124" d="M417.02,206.811c-1.596-0.677-1.941,0.895-3.769,1.92c-2.017,1.129-4.461,2.08-7.689,1.318 c-1.748-0.412-1.838-0.826-2.675-0.647c-1.221,0.258-1.417,1.52-0.569,2.429c0.666,0.716,1.876,1.568,4.257,1.761 c4.264,0.342,6.463-0.493,8.695-2.09C418.446,209.226,418.094,207.269,417.02,206.811z"/><path fill="#1C2124" d="M420.878,171.364c1.388,0.406,3.16,1.097,4.411,2.201c2.357,2.077,2.394,2.389,3.127,2.373 s2.149-1.137,0.563-2.918c-1.586-1.783-4.196-4.041-7.525-4.46"/><path fill="#1C2124" d="M392.207,178.545c-1.75,0.68-2.553,1.815-2.454,2.693c0.096,0.849,1.027,1.711,2.681,0.537 c1.116-0.791,3.633-1.127,4.686-0.346c0.826,0.612,1.503,1.438,2.703,1.194c0.997-0.202,1.216-1.687,0.085-2.833 C398.777,178.646,395.644,177.211,392.207,178.545z"/><path fill="#1C2124" d="M421.13,184.508c1.848,1.161,3.324,2.973,2.889,4.17c-0.495,1.362-1.721,0.912-2.219,0.511 c-0.679-0.549-1.005-1.526-2.994-2.517c-2.204-1.099-3.508,0.767-4.92-0.129c-0.852-0.541-0.709-1.524,0.061-2.201 C414.761,183.627,417.696,182.35,421.13,184.508z"/><g fill="#1C2124"><path d="M405.514,143.409c0,0-0.492,4.172-0.709,4.14c-0.217-0.031-20.578-0.152-20.578-0.152 s-1.197-1.306-1.91-4.764c-0.688-3.344-0.586-5.622,0.357-8.072c0.746-1.935,1.868-2.628,2.148-2.688 c0.68-0.141,0.219,0.877,1.762,3.57c0.509,0.891,1.235,1.763,2.39,2.342c3.711,1.861,4.638,1.435,4.638,1.435"/><path d="M430.247,165.162c0,0,3.467,3.606,2.875,11.107c-0.593,7.501-1.239,9.38-1.239,9.38l6.473-0.178 c0,0,4.235-6.057,5.605-13.861c1.386-7.9,1.752-14.157-5.843-16.98"/><path d="M439.964,156.384c0,0,1.419-9.505-6.217-15.006c-6.454-4.651-12.952-4.528-20.705-1.932 c-4.725,1.585-9.146,1.981-13.085-0.119c-4.225-2.251-6.51-6.041-7.244-7.591c-0.293-0.62-0.391-1.128-0.789-0.922 c-1.703,0.879-3.678,7.297-1.027,10.125"/><path d="M388.653,146.435c-0.11-0.006-5.163-0.614-8.376,2.541c-3.236,3.176-2.111,3.936-1.532,4.145 c0.58,0.211,1.981,0.17,3.957,1.174c1.628,0.829,4.791,3.652,7.19,6.533c2.399,2.88,6.603,7.958,16.691,10.265 c12.434,2.844,19.25,0.278,26.188-5.935c6.938-6.212,5.933-11.208,5.933-11.208l-31.238-9.552L388.653,146.435z"/><path d="M387.311,155.38c-8.254,4.364-5.527,24.566-5.527,24.566l2.964-0.11 c1.506-13.52,7.382-20.476,7.382-20.476"/></g><path fill="#707E84" d="M443.259,214.977l0.884-2.932l-0.008,0.004l3.364-11.156l2.404-7.974l0.896-2.972 c0,0,0.931-2.707,0.592-3.857c-0.228-0.771-0.818-2.088-2.585-2.853c-1.569-0.678-4.586-1.581-6.167-2.047 c-1.58-0.471-4.603-1.355-6.29-1.643c-1.9-0.323-3.123,0.457-3.74,0.979c-0.92,0.776-1.641,3.545-1.641,3.545l-0.896,2.973 l-2.404,7.974l-3.847,12.757l0.003,0.005l-0.399,1.321c0,0-0.792,2.208-0.55,3.436c0.226,1.146,0.941,2.565,2.877,3.445 c1.191,0.542,2.873,1.111,4.331,1.569l-0.009,0.003c0.236,0.07,0.771,0.235,1.472,0.442c0.701,0.209,1.24,0.362,1.476,0.432 l-0.005-0.01c1.472,0.413,3.193,0.85,4.488,1.045c2.106,0.316,3.49-0.479,4.313-1.314 C442.699,217.254,443.259,214.977,443.259,214.977z"/><path fill="#636F75" d="M446.906,191.391c-0.546,1.384-1.998,2.093-3.244,1.581c-1.246-0.511-1.813-2.046-1.267-3.433 c0.546-1.384,1.999-2.092,3.244-1.58C446.885,188.469,447.452,190.005,446.906,191.391z"/><path fill="#D49074" d="M406.435,179.998c-0.584-0.102-0.942,0.427-1.548,2.254c-0.754,2.271-2.55,7.589-3.512,9.906 s-1.27,3.321-0.173,4.248c1.095,0.926,2.273,1.673,4.327,1.847c1.69,0.142,2.108-1.044,1.904-1.982 c-0.241-1.103-0.953-1.213-2.589-2.017c-0.575-0.282-0.055-1.245,0.893-3.885c0.77-2.146,1.81-5.297,2.203-6.552 C408.333,182.564,408.723,180.393,406.435,179.998z"/><path fill="#FEC2A8" d="M386.483,178.521c0,0-5.138-2.726-8.935,1.221c-3.796,3.942-2.089,9.728,0.243,11.951 c2.947,2.811,6.809,2.743,6.809,2.743L386.483,178.521z"/><path fill="#FEC2A8" d="M398.009,220.999c0,0-0.099,3.298-0.59,5.433l18.557,1.852c0,0,0.066-5.205,0.373-6.207 C416.655,221.075,398.009,220.999,398.009,220.999z"/><path fill="#FEC2A8" d="M442.671,236.536c0,0-0.552-3.354-1.718-6.576c-1.167-3.222-3.076-5.934-2.363-12.5 c0.712-6.569,1.975-4.586,0.161-6.225c-3.458-3.123-10.235-6.577-10.076-9.765c0.068-1.363,1.201-2.24,2.124-2.529 c2.031-0.638,4.681,0.683,7.329,2.076c1.874,0.986,9.584,5.272,9.584,5.272l4.771,30.787L442.671,236.536z"/><path fill="#FEC2A8" d="M443.702,209.084c0,0,1.608-1.231,0.73-2.474c-0.877-1.242-9.388-5.638-10.307-9.393 c-0.918-3.755,2.574-5.114,5.61-2.84c3.327,2.493,11.621,8.193,13.289,9.429c3.783,2.803,6.045,7.332,5.155,13.018 c-0.89,5.687-1.867,7.55-1.717,8.976c0.151,1.426,1.78,9.8,1.78,9.8l-9.906,1.43L443.702,209.084z"/><path fill="#FEC2A8" d="M447.984,216.885c4.863,5.023,5.107,9.201,5.107,9.201c-0.17,0.193-4.616,5.179-4.616,5.179 l-7.739-10.833c0,0-12.176-8.056-13.514-9.162c-1.338-1.105-2.441-2.744-2.21-4.455c0.266-1.963,2.901-4.226,7.844-0.697 C435.312,207.869,443.854,212.618,447.984,216.885z"/><path fill="#0A2D3C" d="M363.074,344.704l-6.481,68.547l42.384,3.523c0.443-13.813,0.762-29.037,0.935-38.271 c1.097,0.026,2.29,0.05,3.584,0.064c3.915,0.049,7.505-0.258,10.463-0.661c3.13,16.559,5.47,41.906,5.47,41.906l24.568-0.802 c0,0-3.499-49.688-11.042-81.791"/><path fill="#F8503B" d="M438.787,254.8c-4.331,33.423-3.577,32.648-3.703,55.926c-0.067,12.512,0.771,26.979,1.337,37.194 c0.071,1.286-0.195,1.916-1.99,2.394c-2.492,0.662-36.67,4.525-63.819-3.405c-27.149-7.931-4.677-107.303-4.909-106.908 C365.47,240.395,438.787,254.8,438.787,254.8z"/><path fill="#F8503B" d="M437.701,233.083c0,0,6.425-2.615,21.81-4.461c0,0,3.502,14.021,7.373,30.285 c3.871,16.263,8.626,32.856-3.753,38.978s-32.335-15.339-36.012-27.554c0,0,3.835,2.005,3.668,2.321 c-0.166,0.316-1.88-5.76-1.636-5.915c0.245-0.156,15.531,2.994,15.531,2.994S442.277,255.315,437.701,233.083z"/><path fill="#FEC2A8" d="M95.379,153.911c-0.778-1.002,9.11,12.337,5.341,45.585c-3.829,33.784-17.573,28.216-17.573,28.216 s-35.638-16.83-35.938-17.344c-0.3-0.516-4.184-50.461-4.184-50.461l10.354-11.269L95.379,153.911z"/><path fill="#3C3839" d="M90.489,155.091c0,0,7.782,4.077,10.315,17.335c0,0,0.764-8.921-4.076-19.312 C91.889,142.722,90.489,155.091,90.489,155.091z"/><path fill="#1C2124" d="M66.332,179.481c-0.602,0.064-1.622,0.462-1.691,2.26c-0.05,1.287,0.173,4.196,1.133,5.111 c0.972,0.927,1.923,0.39,2.489-0.104c0.794-0.695,0.588-3.009,0.139-5.006C67.932,179.661,67.103,179.396,66.332,179.481z"/><path fill="#1C2124" d="M92.048,177.65c-0.493-0.881-1.469-1.354-2.225-0.901c-0.898,0.539-1.374,1.592-0.923,4.365 c0.528,3.247,1.801,3.162,2.451,3.214c0.648,0.052,1.642-0.526,1.541-2.432C92.836,180.836,92.666,178.751,92.048,177.65z"/><path fill="#1C2124" d="M60.065,169.193c1.807-1.674,4.059-2.459,5.362-2.61c1.303-0.152,2.16,0.242,2.355,1.169 c0.191,0.905-0.261,1.463-2.29,2.086c-1.851,0.567-3.496,1.788-4.304,3.076c-0.812,1.295-1.174,2.584-2.245,3.189 c-1.079,0.611-2.069,0.202-2.072-1.22C56.867,172.511,58.769,170.393,60.065,169.193z"/><path fill="#1C2124" d="M95.271,168.73c-1.266-2.053-5.401-4.98-8.462-4.772c-0.555,0.037-1.467,0.693-1.144,1.727 c0.368,1.176,1.419,0.616,4.507,2.402c3.354,1.939,3.726,4.222,5.201,3.132C95.951,170.793,96.088,170.056,95.271,168.73z"/><path fill="#3C3839" d="M59.4,221.988c0,0-3.216-1.142-3.069-1.227c0.147-0.087,1.178-3.972,1.113-3.815 c-0.066,0.155,3.961-0.231,3.961-0.231l0.64-5.105c0,0,1.718-4.994,6.447-8.488c5.198-3.839,10.992-4.275,13.18-4.296 c4.51-0.042,12.488-0.083,15.995,10.748c3.552,10.973-10.049,15.037-10.049,15.037l-11.787,5.406L59.4,221.988z"/><path fill="#D49074" d="M79.644,180.363c-0.376,0.978,0.069,2.554,0.505,4.147c1.124,4.105,3.009,9.264,3.093,10.461 c0.057,0.819-0.818,1.164-2.24,1.261c-2.749,0.186-3.794,0.321-3.95,1.661c-0.167,1.44,1.335,2.254,3.491,2.014 c2.156-0.242,3.852-0.448,5.186-1.329c1.334-0.883,1.773-2.451,1.394-3.584c-0.705-2.107-2.856-9.221-3.333-10.794 c-1.1-3.63-0.924-4.372-2.227-4.823C80.682,179.073,79.907,179.681,79.644,180.363z"/><path fill="#1C2124" d="M78.202,211.347c-1.079-1.098-3.446-1.822-5.458-0.375c-1.053,0.757-2.453,2.49-2.449,5.144 c0.004,3.236,1.672,5.385,4.688,5.375c2.323-0.009,4.134-1.741,4.521-4.003C79.839,215.516,79.666,212.838,78.202,211.347z"/><path fill="#3C3839" d="M54.978,152.492c0,0,1.797,4.483-0.072,11.616c-1.869,7.132-5.857,9.643-3.993,26.159 c2.107,18.673,12.371,21.513,15.434,21.841l-0.132,12.685l-14.447-7.627l-5.006-22.479l-3.743-24.701 c0,0,6.62-21.399,7.221-21.508C50.84,148.37,54.978,152.492,54.978,152.492z"/><path fill="#3C3839" d="M40.651,190.362c-0.146-5.996-2.966-11.747-3.225-19.198c-0.747-21.434,11.965-23.229,11.965-23.229 s2.625,0.823,2.638,1.022s-5.732,26.409-5.719,26.609c0.014,0.2,0.76,12.892,0.76,12.892L40.651,190.362z"/><path fill="#3C3839" d="M48.216,191.317l-6.633,3.718c0,0,0.501,29.592,23.914,36.945c11.144,3.501,24.033,1.663,31.904-8.499 c7.253-9.365,5.162-26.839,4.436-31.46c-1.237-7.87-1.859,0.459-1.859,0.459s0.544,8.026-3.468,17.184 c-2.683,6.119-10.1,9.678-10.078,9.557c0.049-0.271-9.347,7.439-9.347,7.439l-19.487-6.287L48.216,191.317z"/><path fill="#FEC2A8" d="M100.611,175.481c0,0,6.22,0.421,6.335,7.92c0.106,6.856-3.703,8.426-6.401,8.853 c-2.118,0.335-3.194,0.075-3.194,0.075l0.605-18.502L100.611,175.481z"/><path fill="#3C3839" d="M45.792,149.835c0,0,0.097-13.676,19.174-14.837c10.498-0.638,11.634,4.76,20.979,2.907 c3.26-0.648,5.824-2.192,7.785-3.658c2.395-1.793,2.187-2.465,2.459-2.29c0.996,0.64,2.866,8.898-2.697,13.702 c-5.755,4.969-5.389,7.696-5.67,7.716c-0.281,0.019-30.718-3.653-30.673-4.019c0.045-0.367-6.948,4.536-6.893,4.313 C50.309,153.448,45.792,149.835,45.792,149.835z"/><path fill="#3C3839" d="M92.436,142.617c0,0,3.392,0.476,5.113-0.181c2.446-0.933,2.14-1.38,2.624-1.347 c0.484,0.035,2.646,12.333-11.196,18.108c-14.411,6.013-28.347,0.985-34.213-5.223c-5.867-6.208,2.137-5.883,2.137-5.883 L92.436,142.617z"/><path fill="#FEC2A8" d="M45.371,181.125c0,0-7.122-1.049-9.385,4.277c-2.348,5.523,0.866,11.107,3.913,12.506 c2.565,1.178,5.495,0.328,6.333-0.028c0.759-0.324,1.311-3.742,0.728-9.207C46.721,186.437,46.21,181.206,45.371,181.125z"/><path fill="#707E84" d="M111.26,272.573l-0.189-3.059l-0.007,0.006l-0.718-11.637l-0.513-8.318l-0.191-3.1 c0,0-0.054-2.864-0.851-3.825c-0.535-0.646-1.66-1.674-3.814-1.775c-1.913-0.09-5.437,0.112-7.28,0.227 c-1.844,0.107-5.367,0.328-7.255,0.647c-2.125,0.359-3.116,1.517-3.567,2.22c-0.673,1.051-0.375,3.898-0.375,3.898l0.191,3.101 l0.514,8.317l0.82,13.31l0.004,0.001l0.085,1.38c0,0,0.008,2.346,0.733,3.413c0.675,0.998,1.972,2.081,4.349,2.231 c1.461,0.093,3.45,0.042,5.162-0.035l-0.008,0.006c0.275-0.017,0.902-0.049,1.72-0.098c0.818-0.049,1.444-0.093,1.72-0.108 l-0.01-0.007c1.709-0.127,3.689-0.315,5.129-0.582c2.341-0.436,3.494-1.666,4.043-2.735 C111.54,274.903,111.26,272.573,111.26,272.573z"/><ellipse transform="matrix(1 .03 -.03 1 7.529 -2.993)" fill="#636F75" cx="103.362" cy="249.092" rx="2.731" ry="2.697"/><g fill="#FEC2A8"><path d="M105.623,273.036c0,0-10.305,3.281-12.953,6.503c-2.647,3.222-0.017,7.006,4.577,4.905 c4.217-1.929,7.801-3.446,10.437-4.309C110.319,279.276,105.623,273.036,105.623,273.036z"/><path d="M109.165,267.272c0,0-7.897,0.145-14.032,1.341c-2.384,0.465-5.998,1.429-5.13,4.943 c0.889,3.602,8.318,2.36,10.517,1.906c2.199-0.455,6.463-0.026,6.463-0.026L109.165,267.272z"/><path d="M105.977,268.729c0,0-3.449-1.06-9.116-1.694c-2.113-0.235-4.819-2.176-3.791-5.17 c1.028-2.993,7.814-2.296,9.225-2.214c4.988,0.292,13.784,1.201,19.109,7.991c5.322,6.786,4.3,12.457,4.433,14.479 c0.133,2.021,7.042,7.03,7.042,7.03l-12.005,11.402c0,0-12.615-7.019-15.691-20.813"/></g><path fill="#fff" d="M131.094,282.536c-0.308,0.114-9.67,8.888-16.588,19.014c0,0,17.624,25.622,31.721,18.402 c10.698-5.478,11.125-20.256,11.125-20.256L131.094,282.536z"/><path fill="#1C2124" d="M156.77,330.973c0,0-7.98,0.657-19.568-7.927c-5.99-4.437-5.032-6.745-4.438-12.32 c0.142-1.332,2.391-16.177,10.858-31.804c8.469-15.625,14.374-27.182,14.485-39.836c0.112-12.656-5.47-37.034-6.685-44.239 c-1.615-9.576-8.907-60.318,7.354-91.447c8.575-16.416,27.573-42.475,72.587-42.914c36.693-0.357,54.47,16.967,65.463,33.34 c23.273,34.665,15.92,80.883,13.928,98.345c-1.46,12.802-2.523,17.955-2.305,27.298c0.37,15.822,8.314,34.696,10.629,40.738 c3.808,9.938,9.044,24.329,9.355,43.035c0,0,4.715,8.789,4.207,12.097c-0.556,3.619-3.75,8.619-13.704,14.195"/><path fill="#FEC2A8" d="M287.76,135.102c-0.457-2.282-0.503-2.609-1.237-2.504c-3.119,0.448-16.008,2.469-50.771,3.486 c-31.264,0.92-59.981-3.045-59.981-3.045s-9.921,37.306-7.316,70.11c3.008,37.881,16.781,75.545,66.915,75.002 c46.461-0.503,61.855-39.601,60.439-80.067C294.583,163.064,290.837,150.483,287.76,135.102z"/><path fill="#D49074" d="M227.396,183.146c-1.094,0.898-1.127,1.73-1.746,6.273c-0.594,4.365-1.671,11.555-3.64,16.984 c-0.963,2.655-2.865,7.074,1.783,8.106c3.306,0.732,6.945,0.586,10.214-0.111c2.747-0.585,4.011-1.063,3.454-3.448 c-0.557-2.384-1.968-2.972-4.048-2.53c-1.656,0.35-3.12,0.514-5.125,0.184c-0.837-0.139,0.334-1.65,1.486-7.704 c1.151-6.052,2.6-14.855,2.229-16.763S229.811,181.165,227.396,183.146z"/><path fill="#fff" d="M258.744,229.946c-0.295-0.679-0.715-0.363-2.161,0.194c-2.014,0.775-5.649,2.668-27.7,9.798 c-3.148,1.018-7.171,2.134-7.171,2.134c1.032,5.482,7.574,13.737,18.664,12.807c9.823-0.825,16.305-6.306,18.516-14.116 C260.177,236.219,259.486,231.655,258.744,229.946z"/><g fill="#1C2124"><path d="M249.276,184.961c1.472,1.376,3.871,2.88,8.121,3.736c3.266,0.659,7.791,0.152,10.55-1.245 c1.2-0.608,2.922-1.185,3.076-3.342c0.118-1.654-1.199-3.523-4.182-2.033c-1.465,0.732-3.61,1.907-8.183,1.274 c-6.243-0.862-6.428-3.828-8.243-4.284c-1.815-0.456-3.015,0.213-3.384,1.488C246.815,181.303,247.201,183.021,249.276,184.961z"/><path d="M211.734,184.322c-1.392,1.456-3.954,3.212-8.149,4.302c-3.224,0.838-7.341,0.887-10.798-0.598 c-1.235-0.531-3.002-1.203-3.277-3.349c-0.211-1.646,1.097-3.645,4.159-2.321c1.504,0.651,3.477,1.894,8.007,1.013 c5.814-1.13,6.151-4.457,8.082-4.988c1.804-0.496,3.197,0.055,3.637,1.308C213.654,180.422,213.697,182.271,211.734,184.322z"/><path d="M188.037,158.22c2.7-1.777,5.906-4.248,11.338-5.437c5.432-1.188,7.729-0.863,8.64,0.072 c0.9,0.924,1.285,2.78,0,3.672c-0.984,0.686-2.115,0.535-5.942,1.262c-4.739,0.899-7.947,3.26-10.682,5.221 c-3.063,2.196-3.318,3.528-4.739,3.601c-2.191,0.11-3.15-0.656-3.317-2.448C183.115,161.82,186.833,159.013,188.037,158.22z"/><path d="M253.302,152.92c-2.619,0.386-3.025,2.43-2.396,3.796c0.835,1.817,4.079,1.566,5.627,1.762 c3.064,0.384,5.682,1.046,8.134,2.532c5.973,3.619,6.127,5.988,9.582,5.721c2.841-0.221,2.395-3.796,0.223-5.832 c-2.039-1.911-5.014-4.566-10.975-6.658C260.621,153.232,255.802,152.553,253.302,152.92z"/></g><path fill="#FEC2A8" d="M213.393,271.989c0,0,0.186,14.899-0.28,22.531c-0.465,7.633,9.777,3.587,9.777,3.587l31.75-6.438 l1.49-0.274c0,0-0.186-18.025-0.093-22.439C256.13,264.541,213.393,271.989,213.393,271.989z"/><path fill="#AFC5C3" d="M142.815,62.452c0,0,2.603,3.073,3.984,4.576c1.38,1.502,2.881,2.502,4.209,1.066 c1.329-1.438-0.509-3.518-1.92-5.153c-1.411-1.636-4.287-5.191-5.394-5.977c-0.47-0.335-2.041-1.455-3.269-0.193 c-0.493,0.506-0.513,1.912,0.317,3.031C141.832,61.27,142.815,62.452,142.815,62.452z"/><path fill="#AFC5C3" d="M320.471,59.971c0,0-4.692,5.35-5.048,5.823c-0.356,0.475-1.329,1.967-0.076,3.264 c1.252,1.299,3.485-0.806,4.477-2.182c0.993-1.375,4.202-4.923,4.649-5.71c0.448-0.788,0.935-2.138-0.337-2.883 C322.758,57.476,321.392,58.896,320.471,59.971z"/><path fill="#AFC5C3" d="M336.506,89.001c0,0-6.111,1.801-7.286,2.253c-1.175,0.453-2.563,1.054-2.595,2.417 c-0.031,1.366,1.37,2.322,4.764,1.099c3.394-1.223,5.807-2.038,6.604-2.32c0.798-0.281,2.269-1.341,1.771-2.429 C339.266,88.932,338.091,88.489,336.506,89.001z"/><path fill="#AFC5C3" d="M339.812,135.906c0,0,7.021,0.513,8.687,0.604c1.666,0.092,3.521,0.285,3.397,1.722 c-0.159,1.85-1.346,2.216-5.369,2.041c-4.022-0.175-8.425-0.187-9.077-1.304C336.576,137.472,337.434,135.859,339.812,135.906z"/><path fill="#AFC5C3" d="M137.676,91.786c0.6-0.811,0.9-1.78-1.118-2.917c-1.603-0.903-5.079-2.953-5.079-2.953 s-2.466-1.474-4.091-0.618c-1.624,0.856-1.598,2.528,0.48,3.833c2.079,1.307,6.196,3.595,7.805,3.662 C136.142,92.813,136.983,92.723,137.676,91.786z"/><path fill="#FEC2A8" d="M358.65,416.148c0,0-2.364-37.119-15.266-63.386c-12.701-25.86-30.878-43.751-48.802-52.603 c-19.122-9.442-30.725-13.652-59.387-13.245c-28.663-0.407-40.266,3.803-59.387,13.245c-17.923,8.852-36.101,26.742-48.803,52.603 c-12.901,26.267-15.265,63.386-15.265,63.386H358.65z"/><path fill="#248EC9" d="M343.385,352.763c-7.602-15.479-17.167-28.101-27.464-37.64c-8.756,5.391-31.266,15.488-78.422,16.878 c-49.362,1.454-76.372-11.451-84.107-15.866c-9.885,9.414-19.048,21.691-26.385,36.628 c-12.901,26.267-15.265,63.386-15.265,63.386H358.65C358.65,416.148,356.287,379.029,343.385,352.763z"/><path fill="#248EC9" d="M129.303,416.148H358.65c0,0-2.364-37.119-15.266-63.386c-7.602-15.479-17.167-28.101-27.464-37.64 c-8.756,5.391-31.266,15.488-78.422,16.878c-38.942,1.147-63.969-6.643-76.599-12.148c-9.081,10.613-21.384,28.974-26.279,54.552 C131.64,389.98,130.085,404.328,129.303,416.148z"/><path fill="#2287BE" d="M127.006,352.763c-12.901,26.267-15.265,63.386-15.265,63.386h17.562 c0.782-11.82,2.336-26.168,5.317-41.744c4.896-25.578,17.198-43.938,26.279-54.552c-3.379-1.475-5.875-2.786-7.508-3.718 C143.506,325.549,134.343,337.826,127.006,352.763z"/><path fill="#FEC2A8" d="M237.499,332.001c47.156-1.39,69.666-11.487,78.422-16.878c-6.906-6.397-14.142-11.409-21.337-14.963 c-19.122-9.442-30.725-13.652-59.387-13.245c-28.663-0.407-40.266,3.803-59.387,13.245c-7.571,3.739-15.188,9.091-22.417,15.975 C161.126,320.55,188.136,333.455,237.499,332.001z"/><path fill="#FEC2A8" d="M358.427,348.141c-2.562-5.446-15.324-42.73-22.878-53.115c-8.245-11.336-17.233-9.537-20.13-5.575 c-3.673,5.022,0.891,12.141,5.014,17.644c4.78,6.378,5.237,8.803,5.237,23.879c0,21.062,14.708,29.382,15.933,30.153 c1.225,0.771,1.275,1.951,1.275,4.702s-5.115,50.526-5.115,50.526l45.09,0.941c0,0,0.309-9.071,0.755-19.636 c0.445-10.563,1.894-37.635,1.894-37.635s-1.226,0.991,3.677-3.74c4.902-4.734,6.016-7.704,6.016-7.704L358.427,348.141z"/><path fill="#505C62" d="M389.979,333.833v-7.866l-0.019,0.012v-29.927v-27.76v-7.974c0,0,0.296-7.347-1.482-9.933 c-1.191-1.732-3.751-4.544-8.927-5.137c-4.596-0.524-13.119-0.548-17.579-0.54c-4.461-0.008-12.984,0.016-17.58,0.54 c-5.176,0.593-7.736,3.404-8.927,5.137c-1.778,2.586-1.482,9.933-1.482,9.933v7.974v27.76v34.228l0.009,0.007v3.547 c0,0-0.328,5.377,1.259,8.224c1.482,2.658,4.445,5.208,10.15,5.961c3.507,0.464,8.309,0.641,12.445,0.704l-0.021,0.016 c0.665,0,2.181,0.016,4.159,0.016c1.979,0,3.495-0.016,4.16-0.016l-0.021-0.016c4.137-0.063,8.938-0.24,12.446-0.704 c5.704-0.753,8.667-3.303,10.149-5.961C390.308,339.21,389.979,333.833,389.979,333.833z"/><path fill="#85929A" d="M389.979,328.116v-7.866l-0.019,0.014v-29.928v-27.762v-7.972c0,0,0.296-7.348-1.482-9.935 c-1.191-1.731-3.751-4.543-8.927-5.135c-4.596-0.525-13.119-0.549-17.579-0.541c-4.461-0.008-12.984,0.016-17.58,0.541 c-5.176,0.592-7.736,3.403-8.927,5.135c-1.778,2.587-1.482,9.935-1.482,9.935v7.972v27.762v34.227l0.009,0.006v3.548 c0,0-0.328,5.374,1.259,8.224c1.482,2.658,4.445,5.208,10.15,5.961c3.507,0.465,8.309,0.642,12.445,0.703l-0.021,0.016 c0.665,0,2.181,0.017,4.159,0.015c1.979,0.002,3.495-0.015,4.16-0.015l-0.021-0.016c4.137-0.062,8.938-0.238,12.446-0.703 c5.704-0.753,8.667-3.303,10.149-5.961C390.308,333.49,389.979,328.116,389.979,328.116z"/><path fill="#fff" d="M339.374,255.415c0-0.235,0.194-0.427,0.433-0.427h44.36c0.239,0,0.433,0.191,0.433,0.427v65.656 c0,0.235-0.193,0.429-0.433,0.429h-44.36c-0.239,0-0.433-0.193-0.433-0.429V255.415z"/><path fill="#87A4A2" d="M345.023,272.839c0,0-1.236,15.108,0.684,23.29c2.927,12.475,16.28,14.719,16.28,14.719V267.91 C360.157,267.86,352.53,268.27,345.023,272.839z"/><path fill="#9BB4B2" d="M378.951,272.839c0,0,1.236,15.108-0.685,23.29c-2.927,12.475-16.279,14.719-16.279,14.719V267.91 C363.817,267.86,371.445,268.27,378.951,272.839z"/><path fill="#AFC5C3" d="M349.021,276.375c0,0-0.994,11.855,0.479,18.275c2.245,9.789,12.486,11.55,12.486,11.55v-33.691 C360.583,272.47,354.779,272.789,349.021,276.375z"/><path fill="#C1D6D5" d="M374.953,276.375c0,0,0.994,11.855-0.479,18.275c-2.245,9.789-12.486,11.55-12.486,11.55v-33.691 C363.391,272.47,369.196,272.789,374.953,276.375z"/><g fill="#505C62"><path d="M356.727,246.733c-0.38-0.418-0.925-0.674-1.494-0.704c-0.538-0.045-1.165,0.191-1.566,0.538 c-0.424,0.368-0.683,0.898-0.708,1.456c-0.024,0.542,0.174,1.078,0.54,1.481c0.391,0.431,0.917,0.652,1.494,0.702 c0.192,0.018,0.386-0.016,0.576-0.043c0.375-0.056,0.7-0.271,0.99-0.493c0.12-0.135,0.24-0.272,0.36-0.406 c0.212-0.319,0.328-0.668,0.347-1.05C357.291,247.674,357.092,247.137,356.727,246.733z"/><path d="M371.018,248.041c0,0.718-0.589,1.298-1.315,1.298h-9.341c-0.726,0-1.315-0.58-1.315-1.298l0,0 c0-0.718,0.589-1.298,1.315-1.298h9.341C370.428,246.743,371.018,247.323,371.018,248.041L371.018,248.041z"/></g><path fill="#FEC2A8" d="M404.407,312.947c0,0,5.424-5.609,2.583-12.093c-1.722-3.932-5.005-6.452-10.172-6.4 c-3.875,0.038-27.178,1.261-29.115,11.086c-2.229,11.303,9.848,12.598,11.84,12.094 C381.535,317.131,404.407,312.947,404.407,312.947z"/><path fill="#FEC2A8" d="M377.606,316.407c0,0-7.696,3.348-7.696,9.46c0,6.113,5.167,9.887,8.18,9.781 c0,0,26.498-5.545,26.693-5.635c0.7-0.319,4.414-1.808,4.844-6.698c0.421-4.776-1.184-10.257-5.974-11.64 C398.864,310.293,377.606,316.407,377.606,316.407z"/><path fill="#FEC2A8" d="M376.853,335.063c0,0-4.951,2.021-5.543,6.963c-0.592,4.943,1.775,8.823,5.974,9.992 c4.198,1.17,11.678,0.639,16.845-1.062c5.167-1.702,14.046-6.539,14.907-10.95c0.861-4.412-0.323-10.152-4.144-11.8 C401.07,326.559,376.853,335.063,376.853,335.063z"/><path fill="#DF412E" d="M77.136,256.856c0,0,0.425,15.187,4.225,35.19c3.279,17.264,6.132,28.152,3.427,42.843 c-0.459,2.492-0.764,2.804-1.582,3.395c-0.871,0.632-7.543,4.015-12.469,5.914c-1.15,0.442-1.638,0.43-2.294-1.037 c-2.38-5.313-4.287-9.502-5.44-11.506c-0.861-1.496-0.864-1.539-0.141-3.003c0.724-1.462,5.032-11.256,3.981-23.729 c-0.973-11.55-1.599-32.343,1.2-49.615"/><defs><path id="c" d="M77.136,256.856c0,0,0.425,15.187,4.225,35.19c3.279,17.264,6.132,28.152,3.427,42.843 c-0.459,2.492-0.764,2.804-1.582,3.395c-0.871,0.632-7.543,4.015-12.469,5.914c-1.15,0.442-1.638,0.43-2.294-1.037 c-2.38-5.313-4.287-9.502-5.44-11.506c-0.861-1.496-0.864-1.539-0.141-3.003c0.724-1.462,5.032-11.256,3.981-23.729 c-0.973-11.55-1.599-32.343,1.2-49.615"/></defs><clipPath id="d"><use xlink:href="#c" overflow="visible"/></clipPath><path clip-path="url(#d)" fill="#F7503C" d="M48.412,278.102c15.669,5.401,40.847,18.823,40.847,18.823l-4.089-19.284 c-19.577-11.413-34.633-16.564-34.633-16.564L48.412,278.102z"/><path clip-path="url(#d)" fill="#F7503C" d="M53.531,320.447c16.521,6.434,42.862,21.847,42.862,21.847l-1.93-20.902 c-20.441-13.027-37.926-19.059-37.926-19.059L53.531,320.447z"/><path fill="#3C3839" d="M56.226,274.21c0,0,2.534,23.353,2.823,26.663c0.312,3.579,0.173,4.335,2.361,4.153h16.417 c2.188,0.182,2.05-0.574,2.361-4.153c0.288-3.311,2.822-26.663,2.822-26.663H56.226z"/><path fill="#F0F3F4" d="M80.872,269.037h-0.385c-0.075-1.068-0.537-2.456-2.898-2.456c-1.693,0-14.857,0-16.55,0 c-2.36,0-2.823,1.388-2.898,2.456h-0.385c0,0-3.167-0.175-3.167,2.689c0,0.76,0.038,1.325,0.038,2.338 c0,1.17,0.729,0.994,2.726,0.994c1.638,0,22.285,0,23.923,0c1.997,0,2.727,0.176,2.727-0.994c0-1.013,0.039-1.578,0.039-2.338 C84.04,268.862,80.872,269.037,80.872,269.037z"/><path fill="#FEC2A8" d="M73.141,293.622c2.889-0.407,5.884-1.7,5.013-5.305c-0.765-3.167-5.841-2.675-8.871-2.347 c-6.704,0.729-13.371,1.221-18.969,3.917c-5.724,2.758-8.089,9.426-8.961,11.669c-0.046,0.117-1.955,4.365-2.038,4.529 c-1.489,2.924,2.556,15.309,2.556,15.309s8.969-1.844,13.359-5.86c3.693-3.38,4.199-5.738,4.199-5.738s5.618,0.146,9.296,0.327 c3.031,0.149,6.589,0.388,7.589-1.752c1.001-2.141,0.145-4.544-3.487-5.369c-2.197-0.499-8.02-1.046-10.512-1.182 c-1.434-0.078-8.53,2.708-14.294,5.087l18.481-11.463C66.502,295.444,69.599,294.123,73.141,293.622z"/><path fill="#FEC2A8" d="M43.373,305.798c0.09,0.28,2.486,7.509,2.486,7.509l15.747-9.545c0,0,10.53-1.841,12.233-2.432 c1.704-0.591,3.694-1.793,3.897-3.674c0.204-1.879-1.176-5.271-7.373-4.25C64.231,294.417,43.373,305.798,43.373,305.798z"/><path fill="#fff" d="M39.054,298.719c4.348,8.135,9.026,15.639,11.761,23.315l-8.653,1.044c0,0-9.841-17.22-9.863-17.692 C32.277,304.913,39.054,298.719,39.054,298.719z"/></g></svg>