<?xml version="1.0" encoding="utf-8"?>
<!-- Generator: Adobe Illustrator 16.0.3, SVG Export Plug-In . SVG Version: 6.00 Build 0)  -->
<!DOCTYPE svg PUBLIC "-//W3C//DTD SVG 1.1//EN" "http://www.w3.org/Graphics/SVG/1.1/DTD/svg11.dtd">
<svg version="1.1" id="ffos_thomas_manig" xmlns="http://www.w3.org/2000/svg" xmlns:xlink="http://www.w3.org/1999/xlink" x="0px"
	 y="0px" width="480px" height="390px" viewBox="0 0 480 390" enable-background="new 0 0 480 390" xml:space="preserve">
<g>
	<defs>
		<rect id="SVGID_85_" x="-580" y="-490" width="480" height="390"/>
	</defs>
	<clipPath id="SVGID_2_">
		<use xlink:href="#SVGID_85_"  overflow="visible"/>
	</clipPath>
	<g clip-path="url(#SVGID_2_)">
		<g>
			<defs>
				<rect id="SVGID_87_" x="-580" y="-494.875" width="480" height="394.875"/>
			</defs>
			<clipPath id="SVGID_4_">
				<use xlink:href="#SVGID_87_"  overflow="visible"/>
			</clipPath>
			<g clip-path="url(#SVGID_4_)">
				<defs>
					<rect id="SVGID_89_" x="-580" y="-494.875" width="480" height="394.875"/>
				</defs>
				<clipPath id="SVGID_6_">
					<use xlink:href="#SVGID_89_"  overflow="visible"/>
				</clipPath>
				<g clip-path="url(#SVGID_6_)">
					<g>
						<path fill="#FFFFFF" d="M-21.784-168.777c0.108-0.117,0.216-0.238,0.316-0.361l25.442-30.767l124.872-16.517l-2.424-18.337
							L1.975-218.297L-84.361-243.2l-73.515-37.565l12.237-41.29c0.006-0.018,0.012-0.036,0.017-0.054l11.613-40.104l102.183-84.498
							c1.228-1.024,1.637-1.647,2.184-2.672l63.516-119.009l-15.727-8.395l-62.689,117.458l-102.943,85.126
							c-2.57,2.11-1.999,1.919-2.883,4.391l-12.368,42.712l-12.431,41.94l-107.073,1.687l0.292,18.493l101.273-1.595l-28.715,96.874
							l-27.087,7.543l-49.772-100.381l-13.975,6.93l48.448,97.71l-62.711,17.461l-61.415-34.914l-59.697-56.936l13.207,1.146
							c0.264,0.023,0.532,0.035,0.798,0.035c0.875,0,1.746-0.123,2.587-0.369l102.507-29.86l-5.174-17.759l-100.845,29.378
							l-104.763-9.092l-147.032-58.964l-7.636-52.36l122.953-55.403l118.006,25.709c0.551,0.12,1.811,0.268,2.364,0.268
							c1.51,0,2.297-0.527,3.58-1.37l45.342-29.795l57.228-8.093l3.7,67.897c0.023,0.429,0.081,0.856,0.176,1.275l16.715,74.883
							l15.225-3.399l-16.574-74.252l-1.905-34.952l152.959-33.92c5.463-1.158,4.837-1.717,5.953-6.056l20.728-101.627l-15.284-3.117
							l-19.714,96.666l-145.502,32.266l-5.994-109.993l-15.575,0.849l4.243,77.847l-60.292,8.525
							c-1.14,0.161-2.229,0.573-3.191,1.205l-44.063,28.954l-179.113-39.021l-23.666-108.104l-15.239,3.337l22.534,102.933
							c-37.054-2.178-100.481-5.892-114.466-6.633l-97.733-72.15l-9.263,12.549l99.618,73.545c2.028,1.568,2.247,1.486,3.869,1.514
							c3.793,0.133,92.275,5.29,126.731,7.315l39.352,8.575l-105.612,47.589l-151.069-3.959l-0.468,17.821l145.264,3.807
							l8.286,56.814c0.238,1.63,0.577,4.12,1.315,4.895c0.599,0.881,1.725,1.126,4.394,2.354l37.73,15.131l-13.872,42.678
							l-162.794-0.646l-0.063,15.599l102.814,0.406l0.402,113.505c0.005,1.549,0.025,3.503,0.724,4.6
							c0.796,1.444,3.176,2.233,4.685,2.84l66.874,26.854l-26.527,61.08l16.353,7.102l26.72-61.53l55.797,22.427
							c1.288,0.516,2.688,0.682,4.06,0.478l188.34-28.071l-13.601,36.344l14.61,5.468l15.567-41.603l101.682,35.445l-9.22,53.582
							l15.373,2.646l9.089-52.82l152.716,6.471c0.112,0.006,0.222,0.007,0.333,0.007c3.297,0,6.257-2.082,7.358-5.218l29.688-84.646
							L50.394-99.637l3.384-15.227l-104.335-23.191L-21.784-168.777z M-753.675-447.786c0.037,0,0.071,0,0.107,0
							C-753.594-447.786-753.629-447.785-753.675-447.786z M-91.986-226.325c0.526,0.269,1.078,0.487,1.646,0.649l77.015,22.214
							l-20.009,24.196l-34.913,37.279l-122.681-27.269l27.705-93.472L-91.986-226.325z M-706.341-121.221l-0.382-108.136
							l50.071,0.199c0.01,0,0.021,0,0.03,0c1.82,0,3.849-0.077,5.202-1.162c1.157-0.928,1.352-1.748,2.216-4.227l15.306-47.091
							l89.187,35.767l-0.407,39.97l-52.062,12.424c-1.403,0.335-3.284,0.863-3.873,1.41c-1.003,0.866-1.693,2.46-2.234,3.71
							l-40.136,92.422L-706.341-121.221z M-573.44-67.806l-53.436-21.477l38.166-87.889l54.504-13.006
							c2.121-0.506,4.704-0.959,5.593-2.332c1.066-1.463,0.969-2.788,1.251-6.247l0.423-41.457l66.478,5.768l74.487,71.044
							c0.462,0.44,0.975,0.821,1.528,1.136l24.618,13.996l-18.851,51.436L-573.44-67.806z M-362.9-94.559l16.823-45.895
							l28.281,15.934c1.186,0.674,2.098,0.564,4.368-0.02l63.618-17.715l-14.145,82.187L-362.9-94.559z M-103.796-50.434
							l-144.932-6.142l15.54-90.307l31.527-8.778l125.025,27.789L-103.796-50.434z"/>
					</g>
				</g>
			</g>
		</g>
	</g>
</g>
<g>
	<defs>
		<rect id="SVGID_93_" y="-490" width="480" height="390"/>
	</defs>
	<clipPath id="SVGID_8_">
		<use xlink:href="#SVGID_93_"  overflow="visible"/>
	</clipPath>
	<g clip-path="url(#SVGID_8_)">
		<g>
			<defs>
				<rect id="SVGID_95_" y="-495.485" width="480" height="395.485"/>
			</defs>
			<clipPath id="SVGID_10_">
				<use xlink:href="#SVGID_95_"  overflow="visible"/>
			</clipPath>
			<g clip-path="url(#SVGID_10_)">
				<defs>
					<rect id="SVGID_97_" x="-17.832" y="-493.412" width="510.305" height="422.27"/>
				</defs>
				<clipPath id="SVGID_12_">
					<use xlink:href="#SVGID_97_"  overflow="visible"/>
				</clipPath>
				<ellipse clip-path="url(#SVGID_12_)" fill="#6B8792" cx="239.841" cy="-18.247" rx="257.673" ry="185.692"/>
			</g>
		</g>
	</g>
</g>
<g>
	<defs>
		<rect id="SVGID_125_" width="480" height="390"/>
	</defs>
	<clipPath id="SVGID_14_">
		<use xlink:href="#SVGID_125_"  overflow="visible"/>
	</clipPath>
	<g clip-path="url(#SVGID_14_)">
		<rect y="-2.437" fill="#CEE2E3" width="480" height="394.873"/>
		<g>
			<g>
				<path fill="#FFFFFF" d="M299.432,282.295c0,20.563-16.671,37.234-37.232,37.234c-20.56,0-37.229-16.671-37.229-37.234
					c0-20.563,16.669-37.229,37.229-37.229C282.761,245.066,299.432,261.732,299.432,282.295z"/>
			</g>
			<g>
				<path fill="#CBD7DB" d="M240.07,268.741v23.286v2.671v2.556c0,0.493,0.398,0.894,0.892,0.894h0.912v0.056h39.6h0.631h1.193
					c0.494,0,0.894-0.399,0.894-0.893v-2.612v-2.616v-23.341H240.07z"/>
				<path fill="#E6EEF0" d="M262.199,267.906c-10.62,0-17.868,0.055-17.868,0.055h-2.478c0,0-0.415,0-0.892,0
					c-0.584,0-0.892,0.348-0.892,0.78l14.438,12.562h-0.007c0,0,4.778,4.196,5.624,4.887c0.712,0.588,1.17,1.017,2.004,1.017
					c0.001,0,0.001,0,0.001,0l0,0c0.839,0,1.295-0.429,2.01-1.017c0.843-0.69,5.625-4.887,5.625-4.887h-0.008l14.435-12.562
					c0-0.433-0.303-0.78-0.892-0.78c-0.478,0-0.893,0-0.893,0h-2.479C279.928,267.961,272.823,267.906,262.199,267.906z"/>
			</g>
			<g>
				<defs>
					<rect id="SVGID_127_" y="-2.437" width="480" height="394.873"/>
				</defs>
				<clipPath id="SVGID_16_">
					<use xlink:href="#SVGID_127_"  overflow="visible"/>
				</clipPath>
				<path clip-path="url(#SVGID_16_)" fill="#C7DBDC" d="M381.89,104.219c0,43.63-35.363,78.998-78.99,78.998
					s-78.992-35.368-78.992-78.998c0-43.625,35.365-78.99,78.992-78.99S381.89,60.594,381.89,104.219z"/>
				<path clip-path="url(#SVGID_16_)" fill="#FFFFFF" d="M110.135,241.528c0,0,10.027,7.911,22.731,27.411
					c12.699,19.499,19.387,41.447,19.387,41.447l-1.227,39.221l-28.525-22.174L96.987,275.29L110.135,241.528z"/>
				<path clip-path="url(#SVGID_16_)" fill="#FFFFFF" d="M110.135,241.528c0,0,10.027,7.911,22.731,27.411
					c12.699,19.499,19.387,41.447,19.387,41.447l-1.227,39.221l-28.525-22.174L96.987,275.29L110.135,241.528z"/>
				<g clip-path="url(#SVGID_16_)">
					<path fill="#FFFFFF" d="M265.746,249.627c-0.647,0-1.284-0.312-1.673-0.891c-0.459-0.69-0.436-1.559-0.012-2.209
						c0.231-0.541,1.016-2.877,1.712-6.367c0.22-1.084,1.276-1.791,2.36-1.57c1.084,0.219,1.792,1.275,1.57,2.361
						c-0.473,2.353-0.962,4.142-1.288,5.228c-0.718,2.362-1.013,2.747-1.56,3.112C266.516,249.519,266.13,249.627,265.746,249.627
						L265.746,249.627z M268.909,231.494c-1.112,0-2.009-0.899-2.009-2.006v-0.086c0-2.528-0.218-4.904-0.651-7.057
						c-0.215-1.082,0.485-2.139,1.569-2.361c1.091-0.216,2.147,0.484,2.362,1.573c0.484,2.41,0.733,5.05,0.733,7.854l-0.001,0.077
						C270.913,230.595,270.016,231.494,268.909,231.494L268.909,231.494z M191.354,224.209c-2.061,0-4.135-0.257-6.157-0.765
						c-1.072-0.273-1.726-1.362-1.455-2.437c0.271-1.076,1.362-1.725,2.435-1.457c1.729,0.435,3.422,0.649,5.178,0.649
						c0.489,0,0.99-0.017,1.488-0.05c1.107-0.08,2.064,0.755,2.139,1.862c0.076,1.104-0.76,2.062-1.862,2.137
						C192.532,224.188,191.94,224.209,191.354,224.209L191.354,224.209z M203.483,221.394c-0.781,0-1.52-0.457-1.846-1.216
						c-0.437-1.018,0.039-2.198,1.057-2.634c2.708-1.151,5.462-2.618,7.8-3.893c0.971-0.53,2.192-0.178,2.723,0.8
						c0.531,0.971,0.172,2.187-0.799,2.718c-2.421,1.325-5.282,2.842-8.146,4.065C204.012,221.342,203.748,221.394,203.483,221.394
						L203.483,221.394z M175.317,219.447c-0.329,0-0.657-0.078-0.966-0.245c-2.361-1.301-4.569-2.839-6.56-4.576
						c-0.836-0.729-0.92-1.993-0.191-2.83c0.727-0.834,1.996-0.92,2.831-0.192c1.771,1.55,3.743,2.923,5.854,4.081
						c0.97,0.533,1.324,1.753,0.793,2.725C176.71,219.069,176.026,219.447,175.317,219.447L175.317,219.447z M263.814,214.089
						c-0.581,0-1.16-0.252-1.552-0.738c-1.655-2.016-3.784-3.577-6.325-4.644c-1.021-0.427-1.503-1.602-1.075-2.621
						c0.428-1.023,1.601-1.508,2.621-1.08c3.157,1.32,5.81,3.273,7.879,5.808c0.704,0.856,0.575,2.118-0.279,2.822
						C264.71,213.938,264.259,214.089,263.814,214.089L263.814,214.089z M221.067,212.228c-0.736,0-1.445-0.406-1.795-1.109
						c-0.495-0.989-0.098-2.192,0.893-2.688c2.566-1.293,4.895-2.325,7.115-3.163c1.034-0.391,2.195,0.133,2.582,1.168
						c0.39,1.04-0.134,2.194-1.169,2.585c-2.086,0.787-4.285,1.766-6.726,2.99C221.677,212.158,221.368,212.228,221.067,212.228
						L221.067,212.228z M162.214,206.726c-0.693,0-1.373-0.364-1.744-1.011c-1.528-2.68-2.721-5.61-3.534-8.718
						c-0.284-1.07,0.358-2.164,1.429-2.449c1.07-0.284,2.164,0.36,2.448,1.429c0.73,2.766,1.785,5.375,3.144,7.748
						c0.549,0.963,0.213,2.185-0.747,2.734C162.897,206.641,162.553,206.726,162.214,206.726L162.214,206.726z M238.766,206.494
						c-1.012,0-1.883-0.762-1.991-1.79c-0.117-1.104,0.679-2.094,1.783-2.21c2.559-0.276,5.155-0.3,7.724-0.069
						c1.106,0.096,1.923,1.068,1.82,2.171c-0.096,1.106-1.068,1.926-2.17,1.822c-2.312-0.203-4.645-0.182-6.948,0.064
						C238.911,206.49,238.839,206.494,238.766,206.494L238.766,206.494z M157.271,187.717c-1.09,0-1.984-0.869-2.007-1.966
						c-0.005-0.239-0.007-0.481-0.007-0.719c0-2.462,0.262-4.839,0.772-7.056c0.246-1.082,1.327-1.753,2.403-1.506
						c1.078,0.25,1.755,1.326,1.504,2.408c-0.45,1.951-0.667,3.962-0.667,6.153c0,0.212,0.003,0.427,0.008,0.641
						c0.021,1.106-0.86,2.022-1.967,2.044C157.298,187.717,157.284,187.717,157.271,187.717L157.271,187.717z M162.6,170.385
						c-0.396,0-0.797-0.116-1.147-0.358c-0.91-0.637-1.129-1.883-0.497-2.792c1.479-2.12,3.138-4.083,4.85-6.074
						c0.719-0.842,1.986-0.938,2.829-0.219c0.84,0.722,0.935,1.99,0.213,2.827c-1.701,1.989-3.228,3.794-4.603,5.763
						C163.856,170.088,163.232,170.385,162.6,170.385L162.6,170.385z M173.995,155.846c-0.359,0-0.717-0.095-1.048-0.295
						c-0.942-0.576-1.239-1.814-0.657-2.757c1.523-2.48,2.57-4.965,3.2-7.585c0.262-1.078,1.344-1.741,2.423-1.481
						c1.076,0.257,1.735,1.339,1.48,2.419c-0.735,3.036-1.938,5.897-3.687,8.744C175.328,155.509,174.672,155.846,173.995,155.846
						L173.995,155.846z M177.884,136.853c-0.939,0-1.782-0.667-1.97-1.628c-0.424-2.191-1.219-4.176-2.44-6.07
						c-0.599-0.932-0.334-2.175,0.598-2.771c0.933-0.605,2.174-0.332,2.772,0.599c1.483,2.3,2.498,4.815,3.012,7.485
						c0.208,1.085-0.5,2.137-1.593,2.349C178.136,136.841,178.009,136.853,177.884,136.853L177.884,136.853z M234.92,122.224
						c-0.919,0-1.84-0.045-2.736-0.138c-1.099-0.11-1.903-1.094-1.79-2.193c0.111-1.104,1.093-1.907,2.193-1.795
						c0.764,0.075,1.551,0.112,2.333,0.112h0.002c1.438,0,2.938-0.127,4.458-0.388c1.091-0.182,2.124,0.551,2.313,1.646
						c0.183,1.09-0.555,2.125-1.645,2.312c-1.741,0.294-3.462,0.443-5.126,0.443H234.92L234.92,122.224z M167.545,121.961
						c-0.484,0-0.968-0.171-1.351-0.522c-1.861-1.704-3.768-3.339-5.658-4.866c-0.855-0.7-0.992-1.963-0.293-2.822
						c0.693-0.858,1.959-0.993,2.82-0.297c1.95,1.576,3.913,3.268,5.834,5.024c0.819,0.743,0.877,2.015,0.132,2.833
						C168.634,121.744,168.092,121.961,167.545,121.961L167.545,121.961z M222.15,118.586c-0.363,0-0.73-0.097-1.058-0.306
						c-1.351-0.839-2.674-1.827-3.936-2.933c-1.201-1.059-2.285-2.225-3.216-3.457c-0.663-0.886-0.488-2.145,0.396-2.81
						c0.887-0.667,2.146-0.488,2.809,0.399c0.778,1.03,1.649,1.965,2.662,2.855c1.092,0.963,2.24,1.82,3.402,2.542
						c0.939,0.583,1.229,1.821,0.646,2.763C223.477,118.248,222.817,118.586,222.15,118.586L222.15,118.586z M250.288,118.388
						c-0.766,0-1.492-0.437-1.829-1.183c-0.457-1.008-0.008-2.196,1-2.653c0.546-0.245,1.05-0.483,1.505-0.693l0.031-0.012
						c0.977-0.458,1.998-0.98,3.074-1.534c0.688-0.353,1.387-0.715,2.115-1.08c0.995-0.493,2.197-0.088,2.69,0.902
						c0.495,0.99,0.091,2.197-0.902,2.69c-0.71,0.356-1.402,0.708-2.068,1.053c-1.112,0.571-2.169,1.116-3.213,1.604l-0.028,0.014
						c-0.469,0.216-0.986,0.46-1.549,0.712C250.845,118.324,250.562,118.388,250.288,118.388L250.288,118.388z M267.263,111.172
						c-0.905,0-1.727-0.615-1.947-1.533c-0.26-1.076,0.402-2.163,1.478-2.421c2.974-0.72,5.992-1.112,9.236-1.203
						c1.104-0.03,2.027,0.843,2.059,1.946c0.031,1.112-0.839,2.033-1.947,2.065c-2.959,0.082-5.708,0.44-8.407,1.09
						C267.578,111.152,267.417,111.172,267.263,111.172L267.263,111.172z M152.989,110.561c-0.414,0-0.835-0.129-1.197-0.398
						c-2.188-1.633-4.483-3.943-6.639-6.675c-0.688-0.871-0.543-2.133,0.328-2.816c0.869-0.689,2.132-0.538,2.816,0.329
						c1.945,2.465,3.984,4.52,5.897,5.948c0.887,0.665,1.066,1.919,0.406,2.806C154.205,110.282,153.604,110.561,152.989,110.561
						L152.989,110.561z M211.167,102.785c-0.89,0-1.708-0.6-1.94-1.509c-0.531-2.08-0.966-4.262-1.427-6.569l-0.185-0.935
						c-0.22-1.085,0.487-2.144,1.571-2.361c1.091-0.215,2.146,0.486,2.36,1.57l0.191,0.939c0.447,2.255,0.872,4.386,1.378,6.365
						c0.271,1.072-0.375,2.166-1.447,2.438C211.5,102.766,211.335,102.785,211.167,102.785L211.167,102.785z M140.92,95.022
						c-0.741,0-1.45-0.411-1.801-1.121c-1.161-2.35-2.125-4.737-2.866-7.1c-0.333-1.055,0.251-2.183,1.311-2.514
						c1.056-0.334,2.181,0.252,2.515,1.312c0.681,2.164,1.568,4.362,2.636,6.529c0.494,0.995,0.084,2.195-0.912,2.685
						C141.52,94.954,141.214,95.022,140.92,95.022L140.92,95.022z M206.983,84.56c-0.861,0-1.658-0.557-1.918-1.425
						c-0.713-2.338-1.504-4.531-2.42-6.713c-0.43-1.021,0.049-2.198,1.073-2.627c1.021-0.432,2.193,0.053,2.623,1.072
						c0.972,2.31,1.81,4.633,2.562,7.104c0.318,1.061-0.28,2.183-1.339,2.501C207.368,84.531,207.175,84.56,206.983,84.56
						L206.983,84.56z M136.424,77.248c-0.01,0-0.019,0-0.027,0c-1.105-0.016-1.992-0.928-1.977-2.037
						c0.039-2.848,0.485-5.555,1.327-8.058c0.351-1.048,1.491-1.612,2.538-1.257c1.051,0.351,1.614,1.49,1.264,2.539
						c-0.71,2.102-1.089,4.401-1.122,6.834C138.412,76.366,137.517,77.248,136.424,77.248L136.424,77.248z M199.509,67.96
						c-0.678,0-1.333-0.341-1.714-0.956c-0.694-1.129-1.433-2.271-2.204-3.393c-0.862-1.256-1.791-2.451-2.774-3.546
						c-0.734-0.826-0.665-2.092,0.164-2.831c0.825-0.74,2.091-0.665,2.831,0.158c1.091,1.224,2.129,2.553,3.087,3.949
						c0.81,1.176,1.589,2.379,2.315,3.563c0.578,0.945,0.284,2.182-0.66,2.759C200.226,67.867,199.862,67.96,199.509,67.96
						L199.509,67.96z M143.546,60.748c-0.522,0-1.043-0.205-1.437-0.609c-0.771-0.791-0.753-2.063,0.038-2.836
						c2.234-2.17,4.724-4.094,7.403-5.713c0.948-0.572,2.183-0.266,2.754,0.682c0.571,0.949,0.271,2.179-0.677,2.749
						c-2.42,1.46-4.664,3.196-6.684,5.157C144.554,60.557,144.05,60.748,143.546,60.748L143.546,60.748z M185.858,53.907
						c-0.33,0-0.668-0.082-0.979-0.261c-2.057-1.151-4.26-2.061-6.545-2.697c-1.066-0.3-1.688-1.405-1.387-2.474
						c0.295-1.067,1.4-1.688,2.47-1.392c2.589,0.726,5.091,1.756,7.426,3.068c0.967,0.541,1.307,1.765,0.766,2.73
						C187.243,53.536,186.563,53.907,185.858,53.907L185.858,53.907z M160.602,51.047c-0.887,0-1.701-0.591-1.94-1.49
						c-0.284-1.072,0.352-2.17,1.426-2.455c2.517-0.672,5.088-1.088,7.643-1.237c1.106-0.064,2.054,0.778,2.119,1.884
						c0.063,1.103-0.776,2.053-1.887,2.117c-2.279,0.138-4.588,0.51-6.843,1.113C160.942,51.025,160.77,51.047,160.602,51.047
						L160.602,51.047z"/>
				</g>
				<g clip-path="url(#SVGID_16_)">
					<path fill="#707E84" d="M332.792,145.545v-8.505l-0.02,0.015v-32.356V74.681v-8.618c0,0,0.318-6.797-1.584-9.594
						c-1.271-1.873-4.003-4.912-9.532-5.55c-4.905-0.57-14.011-0.597-18.773-0.588c-4.761-0.009-13.862,0.018-18.771,0.588
						c-5.527,0.638-8.263,3.677-9.531,5.55c-1.898,2.797-1.585,9.594-1.585,9.594v8.618v30.018v37.006l0.011,0.006v3.835
						c0,0-0.347,5.815,1.346,8.895c1.585,2.875,4.745,5.629,10.837,6.444c3.746,0.501,8.873,0.694,13.293,0.762l-0.022,0.017
						c0.706,0,2.329,0.017,4.44,0.017c2.114,0,3.729-0.017,4.444-0.017l-0.022-0.017c4.415-0.067,9.541-0.261,13.287-0.762
						c6.092-0.815,9.257-3.569,10.837-6.444C333.145,151.36,332.792,145.545,332.792,145.545z"/>
					<path fill="#85929A" d="M324.664,55.4c-1.923-0.949-4.272-1.169-6.721-1.309c-2.688-0.146-5.569-0.128-5.569-0.128
						c0,0.001-19.222,0.001-19.222,0.001s-2.61-0.019-5.298,0.127c-2.443,0.14-4.798,0.359-6.715,1.309
						c-2.34,1.159-5.19,3.682-5.19,9.681c0,3.755,0,9.864,0,13.666c0,2.031,0,3.405,0,3.405c0,12.658,0,56.521,0,61.44
						c0,5.999,2.851,8.521,5.19,9.682c1.917,0.949,4.271,1.173,6.715,1.308c2.688,0.145,5.298,0.127,5.298,0.127h19.222
						c0,0,2.881,0.018,5.569-0.127c2.448-0.135,4.798-0.358,6.721-1.308c2.339-1.161,5.188-3.683,5.188-9.682
						c0-4.741,0-46.728,0-61.44c0,0,0-2.152,0-5.064c0-3.756,0-8.759,0-12.007C329.852,59.082,327.003,56.56,324.664,55.4z"/>
					<path fill="#FFFFFF" d="M279.91,70c0-0.241,0.2-0.439,0.44-0.439h45.096c0.245,0,0.44,0.198,0.44,0.439v67.582
						c0,0.242-0.195,0.438-0.44,0.438h-45.096c-0.24,0-0.44-0.195-0.44-0.438V70z"/>
					<path fill="#707E84" d="M307.866,145.735c0,2.688-2.182,4.865-4.872,4.865c-2.686,0-4.866-2.177-4.866-4.865
						c0-2.692,2.181-4.872,4.866-4.872C305.685,140.863,307.866,143.043,307.866,145.735z"/>
					<path fill="#505C62" d="M296.555,61.35c-0.396-0.439-0.961-0.709-1.554-0.74c-0.557-0.047-1.204,0.204-1.619,0.564
						c-0.44,0.385-0.71,0.943-0.736,1.529c-0.024,0.567,0.184,1.13,0.564,1.554c0.398,0.452,0.949,0.685,1.546,0.739
						c0.196,0.017,0.4-0.016,0.596-0.046c0.389-0.06,0.727-0.286,1.024-0.519c0.123-0.143,0.251-0.284,0.374-0.428
						c0.224-0.333,0.341-0.7,0.362-1.102C297.138,62.335,296.933,61.773,296.555,61.35z"/>
					<path fill="#505C62" d="M311.359,62.721c0,0.751-0.608,1.364-1.361,1.364h-9.678c-0.754,0-1.363-0.613-1.363-1.364l0,0
						c0-0.753,0.609-1.362,1.363-1.362h9.678C310.751,61.358,311.359,61.968,311.359,62.721L311.359,62.721z"/>
				</g>
				<path clip-path="url(#SVGID_16_)" fill="#FFFFFF" d="M51.306,234.619c0,0-12.033,5.87-27.783,15.006
					C7.778,258.763-3.81,268.121-3.81,268.121v130.068h124.196c0,0,2.785-58.723,5.791-75.99l-28.468-86L51.306,234.619z"/>
				<path clip-path="url(#SVGID_16_)" fill="#DF412E" d="M98.817,264.927c0,0,1.784,7.912-2.339,11.254
					c-4.123,3.341-12.257,1.893-12.257,1.893s-4.012,0.558-4.68-8.021c-0.67-8.578,6.016-8.246,6.016-8.246l11.477-1.67
					L98.817,264.927z"/>
				<path clip-path="url(#SVGID_16_)" fill="#DF412E" d="M80.174,268.494c0,0,4.643,17.418,0.184,34.241
					c0,0-7.986,25.33-7.687,43.903c0.238,14.754,1.447,17.377,3.122,19.386c1.667,2.004,14.482,12.481,15.597,13.147
					c1.113,0.666,1.503,0.946,2.505-0.446c1.063-1.472,9.683-14.63,10.252-15.767c1.393-2.789,1.782-3.062,1.058-5.183
					c-2.627-7.682-7.632-24.011-8.354-37.658c-0.972-18.259,4.234-37.772-1.115-50.028
					C92.438,262.541,80.174,268.494,80.174,268.494z"/>
				<path clip-path="url(#SVGID_16_)" fill="#E6EEF0" d="M60.294,224.818c-0.298,0.146-2.863,3.525-9.396,8.949
					c-0.71,0.587-0.336,1.449,0,2.489c0.321,1.01,6.793,19.164,17.492,35.06l2.151,2.67c0,0,13.745-6.384,19.017-12.473
					c0,0,12.256,11.039,16.489,12.626c0.893,0.335,1.02-0.341,1.154-1.711c0.295-3.082,1.002-10.696,2.487-18.938
					c1.484-8.249,1.595-10.883,1.338-12.334c-0.151-0.814-2.303-4.975-2.303-4.975L60.294,224.818z"/>
				<path clip-path="url(#SVGID_16_)" fill="#FEC2A8" d="M66.349,279.356c0,0,9.079-0.892,12.199-1.503
					c3.117-0.611,8.188-1.784,8.8-6.129c0.616-4.348-2.34-6.463-6.182-6.131c-3.843,0.337-7.633,0.781-17.719,1.617
					c-10.081,0.838-15.604,0.493-22.838,11.088c-4.679,6.85-5.35,27.24-5.35,27.24l-7.968,7.412c0,0,7.355,12.367,13.818,19.331
					c0,0,9.691-12.479,11.53-13.372c1.838-0.893,5.766-1.563,10.922-5.959c3.788-3.23,4.624-5.682,4.624-5.682
					s9.137-1.396,8.353-7.857c-0.425-3.521-1.947-4.456-1.947-4.456"/>
				<path clip-path="url(#SVGID_16_)" fill="#FEC2A8" d="M65.732,277.573c0,0,8.358,5.125,10.863,8.356
					c1.756,2.264,2.339,5.573-2.782,9.693c-5.129,4.125-14.986,6.967-14.986,6.967l0.502-20.894L65.732,277.573z"/>
				<path clip-path="url(#SVGID_16_)" fill="#FEC2A8" d="M180.606,291.89l0.673-5.346c0,0,7.059-4.799,10.306-13.872
					c0.873-2.445,1.833-7.189,2.605-11.591c0.907-5.134-31.911-8.245-31.911-8.245l-4.289,35.88L180.606,291.89z"/>
				<path clip-path="url(#SVGID_16_)" fill="#FEC2A8" d="M72.864,235.569c1.952,3.898,6.631,12.477,16.822,24.732
					c6.244-11.585,8.082-20.887,8.082-20.887"/>
				<path clip-path="url(#SVGID_16_)" fill="#FEC2A8" d="M122.836,127.881c-0.944-1.349,11.036,16.588,4.307,59.719
					c-6.829,43.828-24.212,35.807-24.212,35.807s-46.089-7.953-46.447-8.643c-0.354-0.684-1.389-81.982-1.389-81.982l13.961-14.113
					L122.836,127.881z"/>
				<path clip-path="url(#SVGID_16_)" fill="#1C2124" d="M106.048,274.14"/>
				<path clip-path="url(#SVGID_16_)" fill="#707E84" d="M198.411,258.423c0.322,2.962-1.457,5.271-4.545,5.609l-20.186,2.403
					c-3.091,0.336-7.187-2.009-7.682-7.371l-4.492-41.41c-0.502-5.134,2.638-7.833,5.732-8.17l19.765-2.147
					c3.093-0.331,5.983,2.55,6.457,7.311L198.411,258.423z"/>
				<path clip-path="url(#SVGID_16_)" fill="#CEE3E3" d="M191.077,230.489c0.128,1.177-0.726,2.237-1.904,2.37l-19.313,2.102
					c-1.177,0.131-2.235-0.721-2.37-1.904l-1.618-14.875c-0.127-1.179,0.721-2.24,1.903-2.372l19.309-2.104
					c1.184-0.125,2.242,0.724,2.371,1.903L191.077,230.489z"/>
				<path clip-path="url(#SVGID_16_)" fill="#AFC5C3" d="M171.981,219.806c0,0,9.021-0.982,10.41-1.157
					c1.388-0.174,3.645-0.522,3.529,1.449c-0.12,1.965-1.102,2.022-4.744,2.427c-3.643,0.405-7.979,0.869-9.081,0.983
					c-1.098,0.116-2.72,0.174-2.6-1.68C169.609,219.978,171.056,219.92,171.981,219.806z"/>
				<path clip-path="url(#SVGID_16_)" fill="#AFC5C3" d="M180.831,225.358c0,0-6.25,0.691-7.695,0.81
					c-1.445,0.117-2.891,0.523-2.891,1.505c0,0.983-0.287,2.601,2.953,2.194c3.233-0.4,6.749-0.916,8.038-1.039
					c1.79-0.172,2.949-0.926,2.658-2.314C183.607,225.126,182.392,225.184,180.831,225.358z"/>
				<path clip-path="url(#SVGID_16_)" fill="#FEC2A8" d="M369.134,330.834c0,0-13.315-9.084-19.443-14.096l-9.691,17.604
					c0,0,15.275,14.965,15.819,15.487c0.54,0.521,14.649,10.084,18.548,7.576"/>
				<path clip-path="url(#SVGID_16_)" fill="#FEC2A8" d="M339.438,242.976c0,0,18.722,27.88,24.933,37.177
					c1,1.5,1.673,2.434,1.893,2.775c1.555,2.45,19.752-17.334,19.752-17.334l-2.785-2.004c0,0-15.378-14.372-29.863-32.197
					C352.607,230.46,339.438,242.976,339.438,242.976z"/>
				<path clip-path="url(#SVGID_16_)" fill="#0A2D3C" d="M485.599,366.006l-1.08,32.948l-79.193,0.647
					c0,0,0.126-16.677,2.471-28.102c0.256-1.254,0.682-2.34,0.989-3.443c3.134-11.125,76.921-2.375,76.921-2.375"/>
				<path clip-path="url(#SVGID_16_)" fill="#248EC9" d="M376.956,266.908c0,0-11.049,11.871-12.586,13.244
					c0,0,9.363,15.814,16.189,13.139l7.68,2.61l-0.133-23.71L376.956,266.908z"/>
				<path clip-path="url(#SVGID_16_)" fill="#1C2124" d="M384.733,231.881c0,0,0.732,5.492-2.514,11.591
					c-2.502,4.688-6.055,9.397-8.102,14.575c-1.482,3.752-1.503,7.105-1.334,7.661c0.182,0.6,3.199,5.305,11.111,7.048
					c5.387,1.184,21.229-0.602,21.229-0.602V235.39L384.733,231.881z"/>
				<path clip-path="url(#SVGID_16_)" fill="#FEC2A8" d="M372.308,170.164l47.912-1.227v68.914l-12.868,1.062
					c0,0-17.659,3.451-29.419-12.316C366.181,210.833,368.8,184.705,372.308,170.164z"/>
				<path clip-path="url(#SVGID_16_)" fill="#FEC2A8" d="M404.394,237.129c0,0,0.062,9.971-0.164,13.702
					c-0.111,1.878,10.696,2.067,10.696,2.067l1.895-19.447L404.394,237.129z"/>
				<path clip-path="url(#SVGID_16_)" fill="#FEC2A8" d="M413.867,249.105c-0.167,0-12.271,1.084-19.833,5.684
					c-5.403,3.287-10.584,8.968-13.15,19.052c-2.738,10.776,35.994,2.841,35.994,2.841L413.867,249.105z"/>
				<path clip-path="url(#SVGID_16_)" fill="#248EC9" d="M488.019,365.375c0,0-0.167-26.723-1.613-30.477
					c-1.895-4.901-10.741-29.729-19.666-47.129c-8.749-17.047-16.605-26.575-16.605-26.575l-7.795-0.446
					c0,0-3.97,3.117-26.502,6.421c-0.604,0.086-1.225,0.175-1.858,0.263c-14.286,2.011-24.325,0.265-30.155-1.499
					c-1.172,2.279-2.172,4.897-2.939,7.908c-0.155,0.626-0.291,1.209-0.408,1.761c0.542,2.381,1.152,5.025,1.82,7.863
					c4.115,17.533,10.314,42.282,15.414,55.781c8.469,22.396,10.086,32.254,10.086,32.254c5.627,1.563,64.179,0.947,78.104-1.059
					C488.2,370.113,488.019,365.375,488.019,365.375z"/>
				<g clip-path="url(#SVGID_16_)">
					<path fill="#2287BE" d="M395.565,333.121c0.732,2.221,1.448,4.277,2.145,6.125c8.469,22.396,10.086,32.254,10.086,32.254
						c1.705,0.475,8.254,0.746,16.943,0.84c-16.374-20.874-24.837-49.771-24.837-49.771L395.565,333.121z"/>
				</g>
				<path clip-path="url(#SVGID_16_)" fill="#248EC9" d="M379.326,285.148c0,0-6.347,19.946-6.403,48.247l-3.789-2.562
					c0,0-4.57,4.79-8.467,10.582c-3.903,5.796-4.849,8.414-4.849,8.414s15.321,15.039,23.733,14.374
					c8.412-0.667,16.826-3.845,18.664-24.067c1.84-20.225,3.953-20.557,3.953-20.557L379.326,285.148z"/>
				<path clip-path="url(#SVGID_16_)" fill="#FFFFFF" d="M409.635,221.752c0.056-0.23,0.019-0.373-0.073-0.464
					c-0.139-0.139-0.486-0.12-0.486-0.12l-15.291-0.328c0,0-0.217-0.019-0.346,0.074c-0.089,0.062-0.101,0.212-0.103,0.309
					c-0.006,1.262,0.292,5.265,4.209,7.424C402.407,231.326,408.099,228.147,409.635,221.752z"/>
				<path clip-path="url(#SVGID_16_)" fill="#FEC2A8" d="M349.911,317.926c0,0,0.226-4.233-3.49-9.396c0,0-1.668-2.639-1.967-3.787
					c-0.268-1.024-0.254-4.92,0.262-8.47c0.479-3.34,0.93-7.092-0.34-8.133c-1.26-1.042-3.96-1.712-6.796,1.97
					c-2.114,2.749-2.302,7.612-2.562,11.252c-0.197,2.747-3.192,13.186-3.192,13.186L349.911,317.926z"/>
				<path clip-path="url(#SVGID_16_)" fill="#FEC2A8" d="M335.798,301.697c0,0-6.128-6.24-8.614-5.98
					c-2.488,0.262-6.537,1.742-6.984,7.84c-0.445,6.086,14.339,8.241,14.413,8.241C334.686,311.798,335.798,301.697,335.798,301.697
					z"/>
				<path clip-path="url(#SVGID_16_)" fill="#FEC2A8" d="M320.684,302.848c-0.185,0.074-3.867,1.555-4.276,7.682
					c-0.409,6.133,2.278,6.527,2.278,6.527l9.573-0.428c0,0,2.896-9.398,2.748-9.437
					C330.86,307.157,320.684,302.848,320.684,302.848z"/>
				<path clip-path="url(#SVGID_16_)" fill="#FEC2A8" d="M317.524,312.653c0,0-2.361,2.266-1.968,6.835
					c0.3,3.453,4.164,6.895,9.843,10.1c4.742,2.681,11.171,4.279,15.604,5.311c9.727,2.267,8.053-3.454,8.053-3.454l0.855-13.519
					c0,0-17.602-10.508-17.713-10.508C332.085,307.418,317.524,312.653,317.524,312.653z"/>
				<path clip-path="url(#SVGID_16_)" fill="#FEC2A8" d="M353.312,233.451c0,0,1.654-4.031,0.387-11.457
					c-0.395-2.348-0.759-4.089-1.082-5.429c-0.695-2.901-1.199-3.922-1.472-5.141c-0.397-1.782-1.828-12.581-2.716-19.736
					c-0.165-1.318-0.604-3.173-1.934-4.162c-1.008-0.751-2.691-1.13-4.453,0.373c-4.117,3.514-1.859,10.252-1.712,14.113
					s0.745,8.913,0.745,8.913L353.312,233.451z"/>
				<path clip-path="url(#SVGID_16_)" fill="#FEC2A8" d="M343.751,208.846c0,0-3.494-0.633-7.282-0.334
					c-3.666,0.285-6.241,0.854-7.504,4.418c-1.262,3.568,1.71,6.982,2.079,6.836c0.372-0.152,11.814-2.449,11.814-2.449
					L343.751,208.846z"/>
				<path clip-path="url(#SVGID_16_)" fill="#FEC2A8" d="M330.377,212.263c0,0-3.938,0.483-5.682,4.124
					c-1.481,3.089-2.046,5.867-2.376,11.328c-0.208,3.364,2.709,4.752,6.348,2.597"/>
				<path clip-path="url(#SVGID_16_)" fill="#FEC2A8" d="M327.89,228.975c0,0-0.854,4.384,2.487,8.508
					c3.343,4.121,9.024,5.866,11.14,6.72c2.12,0.856,3.12-4.307,3.12-4.307s-4.196-15.153-4.638-15.229
					C339.548,224.593,327.89,228.975,327.89,228.975z"/>
				<path clip-path="url(#SVGID_16_)" fill="#FEC2A8" d="M343.751,212.037c-0.525,0.226-14.858,4.683-14.858,4.683l-0.892,12.778
					l16.715,12.33c0,0,7.574-7.429,7.724-7.65c0.146-0.226,0.817-3.422,0.817-3.422L343.751,212.037z"/>
				<path clip-path="url(#SVGID_16_)" fill="#505C62" d="M189.914,195.493l0.957,9.395l-6.233-0.053l-0.881-8.626
					c-0.118-0.826,0.028-3,2.885-3.47C189.063,192.34,189.814,194.518,189.914,195.493z"/>
				<path clip-path="url(#SVGID_16_)" fill="#707E84" d="M184.545,203.926l6.163-0.649c0,0,0.305,3.055,0.775,5.291
					c0.295,1.393,1.254,2.739,1.082,2.773c-0.787,0.149-8.198-3.623-8.198-3.623S184.992,207.708,184.545,203.926z"/>
				<g clip-path="url(#SVGID_16_)">
					<path fill="#505C62" d="M172.127,244.781c0.009,0.002,0.016,0.004,0.023,0.008c-0.44-0.223-0.88-0.448-1.319-0.67
						c0.453,0.383,0.8,0.55,1.372,0.699c0.76,0.203,1.643,0.02,2.305-0.375c0.655-0.388,1.157-1.019,1.361-1.751
						c0.208-0.736,0.091-1.536-0.323-2.178c-0.414-0.655-1.062-1.041-1.796-1.239c-0.008-0.002-0.014-0.004-0.023-0.004
						c0.44,0.225,0.878,0.446,1.318,0.674c-0.452-0.386-0.798-0.552-1.372-0.705c-0.759-0.199-1.64-0.021-2.301,0.377
						c-0.656,0.39-1.158,1.017-1.362,1.753c-0.208,0.731-0.095,1.533,0.317,2.179C170.747,244.202,171.393,244.59,172.127,244.781
						L172.127,244.781z"/>
				</g>
				<g clip-path="url(#SVGID_16_)">
					<path fill="#505C62" d="M180.438,244.159c3.875,0,3.962-6.004,0.083-6.004C176.644,238.155,176.559,244.159,180.438,244.159
						L180.438,244.159z"/>
				</g>
				<path clip-path="url(#SVGID_16_)" fill="#FEC2A8" d="M165.466,254.258c0,0,4.534-13.914,3.627-18.839
					c-0.907-4.919-2.879-7.424-6.457-7.184c-2.549,0.17-3.004,2.377-3.175,3.114c-0.168,0.731-2.038,8.71-4.019,14.143
					c-1.987,5.429-5.552,12.162-2.496,21.498c1.873,5.716,4.191,9.956,4.249,11.935c0.06,1.982-1.244,8.2-1.3,8.43
					c-0.061,0.228,7.589-0.509,7.589-0.509L165.466,254.258z"/>
				<path clip-path="url(#SVGID_16_)" fill="#FFFFFF" d="M124.026,328.438c0,0,11.213,33.426,23.846,37.215
					c10.352,3.104,18.578-1.756,22.948-9.213c3.788-6.462,6.243-25.179,9.433-43.898c0.825-4.828,3.939-21.466,3.939-21.466
					s0.631-2.267-0.705-2.416c-1.826-0.202-26.854-4.678-28.264-4.939c-1.412-0.26-1.56-0.037-1.858,1.116
					c-0.133,0.523-5.571,28.745-7.948,37.807C143.04,331.707,124.026,328.438,124.026,328.438z"/>
				<path clip-path="url(#SVGID_16_)" fill="#FEC2A8" d="M199.327,246.042c0,0,3.286-3.734,1.948-7.632
					c-1.339-3.901-4.177-3.62-5.849-3.677c-1.172-0.039-12.646,0.722-13.814,5.291c-1.025,3.994,1.615,5.851,4.23,6.464
					C188.465,247.1,199.327,246.042,199.327,246.042z"/>
				<g clip-path="url(#SVGID_16_)">
					<path fill="#505C62" d="M174.291,260.074c1.628,0,3.093-0.881,3.286-2.64c0.159-1.474-1.008-3.327-2.646-3.327
						c-1.631,0-3.094,0.881-3.288,2.638C171.484,258.222,172.652,260.074,174.291,260.074L174.291,260.074z"/>
				</g>
				<g clip-path="url(#SVGID_16_)">
					<path fill="#505C62" d="M181.72,251.971c1.632,0,2.86-1.751,2.721-3.265c-0.165-1.747-1.643-2.686-3.273-2.686
						c-1.629,0-2.857,1.748-2.715,3.263C178.611,251.033,180.09,251.971,181.72,251.971L181.72,251.971z"/>
				</g>
				<g clip-path="url(#SVGID_16_)">
					<path fill="#505C62" d="M173.891,252.521c0.274-0.007,0.539-0.087,0.803-0.158c0.515-0.138,0.938-0.498,1.31-0.857
						c0.144-0.213,0.29-0.422,0.435-0.635c0.249-0.487,0.354-1.004,0.318-1.548c-0.054-0.773-0.42-1.503-0.996-2.018
						c-0.602-0.535-1.41-0.808-2.215-0.758c-0.25,0.049-0.508,0.098-0.759,0.147c-0.496,0.172-0.919,0.444-1.273,0.83
						c-0.008,0.007-0.015,0.015-0.021,0.021c0.19-0.161,0.387-0.331,0.578-0.493c-0.005,0.003-0.009,0.007-0.014,0.009
						c0.231-0.107,0.459-0.219,0.687-0.333c-0.004,0.001-0.01,0.001-0.014,0.004c0.256-0.05,0.514-0.098,0.765-0.148
						c-0.007,0.001-0.015,0.001-0.021,0.001c-0.763,0.021-1.527,0.422-2.033,0.976c-0.535,0.59-0.813,1.389-0.759,2.187
						c0.055,0.768,0.421,1.5,0.998,2.014C172.302,252.308,173.072,252.541,173.891,252.521L173.891,252.521z"/>
				</g>
				<g clip-path="url(#SVGID_16_)">
					<path fill="#505C62" d="M182.646,259.443c1.638,0,2.815-1.848,2.639-3.334c-0.205-1.77-1.695-2.631-3.333-2.631
						c-1.64,0-2.816,1.848-2.645,3.332C179.517,258.584,181.008,259.443,182.646,259.443L182.646,259.443z"/>
				</g>
				<path clip-path="url(#SVGID_16_)" fill="#FEC2A8" d="M193.088,245.261c0,0-10.528,0.169-11.533,5.181
					c-0.942,4.705,2.396,6.127,4.013,6.408c0,0,14.088,0.597,16.545-2.566c2.339-3.005,2.62-8.131-2.561-10.246
					C194.014,241.775,193.088,245.261,193.088,245.261z"/>
				<path clip-path="url(#SVGID_16_)" fill="#FEC2A8" d="M185.066,256.125c-0.281,0.113-5.07,2.009-4.404,6.186
					c0.366,2.275,2.396,5.121,9.193,4.511c2.274-0.205,9.47-1.828,12.366-5.071c2.285-2.552,0.891-6.734-0.775-7.741
					C197.658,251.725,185.066,256.125,185.066,256.125z"/>
				<path clip-path="url(#SVGID_16_)" fill="#3C3839" d="M72.397,207.21c0,0-15.168-7.197-12.995-31.641
					c2.303-25.927,6.091-22.78,7.874-34.766c1.857-12.479,0.521-16.339,0.521-16.339l-11.143-6.463c0,0-15.044,7.447-15.896,27.188
					c-0.966,22.355,2.077,37.511,2.077,37.511l0.971,0.892c0,0-0.373,17.454,8.168,32.832c8.541,15.373,24.736,30.01,52.369,22.507
					c10.002-2.718,16.649-9.705,20.572-18.498c6.169-13.813,4.645-38.053,4.313-42.857c-0.521-7.429-2.23-3.195-2.23-3.195
					s1.689,19.774-7.281,27.407c-8.972,7.636-2.897,5.87-2.897,5.87L72.397,207.21z"/>
				<path clip-path="url(#SVGID_16_)" fill="#FEC2A8" d="M49.299,163.236c0,0-11.906-4.435-13.966,8.692
					c-1.932,12.331,9.805,15.671,13.226,13.814C48.559,185.743,51.974,177.202,49.299,163.236z"/>
				<path clip-path="url(#SVGID_16_)" fill="#3C3839" d="M106.793,212.337c-12.266,0.999-34.8-4.233-34.914-4.233
					c0,0,4.321-11.184,13.446-15.303c8.395-3.789,19.983-4.901,29.044,1.189c5.847,3.929,7.801,11.216,7.801,11.216
					S119.093,211.333,106.793,212.337z"/>
				<path clip-path="url(#SVGID_16_)" fill="#3C3839" d="M119.939,131.369c0,0,6.538,6.61,8.842,20.949
					c0,0,1.485-11.589-4.161-25.402C118.975,113.098,119.939,131.369,119.939,131.369z"/>
				<path clip-path="url(#SVGID_16_)" fill="#3C3839" d="M115.927,114.808c8.023,0.928,13.358-2.995,15.749-4.606
					c0.883-0.594,1.438-1.209,1.522-0.893c0.17,0.65,0.197,1.974,0.188,2.34c-0.158,6.172-3.625,10.81-5.387,13.63
					c-3.15,5.054-12.812,12.854-34.059,11.735c-21.243-1.111-26.441-11.954-26.441-11.954l-7.283,1.704l4.24-10.693
					c0,0,21.612-3.12,21.168-3.12C85.177,112.95,115.927,114.808,115.927,114.808z"/>
				<path clip-path="url(#SVGID_16_)" fill="#3C3839" d="M56.483,118.688c0,0,1.618-10.309,9.027-14.205
					c7.412-3.898,14.317-6.629,25.349-2.953c11.027,3.674,12.822,6.027,22.618,5.031c6.21-0.631,8.656-3.35,9.194-3.527
					c0.164-0.055,0.303,0.529,0.358,1.17c0.172,1.941,0.698,8.301-7.494,14.429c-8.188,6.127-53.758,4.791-53.758,4.791
					L56.483,118.688z"/>
				<path clip-path="url(#SVGID_16_)" fill="#FEC2A8" d="M127.296,159.968c0,0,8.688-1.113,9.387,8.686
					c0.526,7.422-2.621,12.515-11.476,12.813C116.352,181.765,127.296,159.968,127.296,159.968z"/>
				<path clip-path="url(#SVGID_16_)" fill="#1C2124" d="M116.263,163.982c0,0-2.061-0.227-2.285,2.111
					c-0.216,2.292-0.391,4.462-0.538,6.17c-0.121,1.408,1.675,3.154,3.307,1.522c1.865-1.867,1.591-4.943,1.577-6.464
					C118.304,165.392,118.103,164.201,116.263,163.982z"/>
				<path clip-path="url(#SVGID_16_)" fill="#1C2124" d="M84.843,163.608c0,0-2.45-0.184-2.675,2.824
					c-0.223,3.009-0.286,4.792-0.374,5.791c-0.109,1.338,1.784,3.047,3.605,1.563c1.818-1.483,1.895-3.714,1.967-5.759
					C87.442,165.986,87.145,163.608,84.843,163.608z"/>
				<path clip-path="url(#SVGID_16_)" fill="#D49074" d="M104.343,164.764c-0.977-0.033-2.046,0.477-1.783,3.077
					c0.219,2.226,0.74,6.984,1.484,10.4c0.69,3.179,1.227,6.464,0.929,6.871c-0.298,0.41-0.745,0.855-3.823,0.929
					c-3.085,0.075-4.718-0.519-5.389,1.858c-0.553,1.962,2.156,2.674,4.607,2.749c3.287,0.098,7.427-0.769,8.356-1.973
					c1.148-1.484,1.148-2.334,0.48-6.238c-0.665-3.897-1.593-8.54-1.966-11.847C106.867,167.286,106.793,164.837,104.343,164.764z"
					/>
				<path clip-path="url(#SVGID_16_)" fill="#1C2124" d="M83.638,149.839c-2.232,1.018-4.668,2.829-5.882,4.382
					c-0.555,0.709-1.12,1.288-1.713,1.611c-0.899,0.5-1.854,0.201-2.163-0.195c-1.562-1.983,0.738-4.276,2.092-5.632
					c1.303-1.301,5.66-4.632,9.901-5.147c2.096-0.258,2.944-0.111,3.595,0.113c1.093,0.38,1.33,1.217,1.303,1.81
					c-0.07,1.454-1.326,1.644-3.596,2.038C84.744,149.24,83.638,149.839,83.638,149.839z"/>
				<path clip-path="url(#SVGID_16_)" fill="#1C2124" d="M120.445,147.461c-1.272-0.849-6.139-3.396-7.837-2.123
					c-1.679,1.263-0.733,2.689-0.253,2.998c0.997,0.647,3.053,0.904,5.883,2.744c2.828,1.839,3.169,3.057,4.869,3.595
					c1.1,0.351,2.885-0.962,1.554-3.171C123.33,149.299,120.445,147.461,120.445,147.461z"/>
				<path clip-path="url(#SVGID_16_)" fill="#AFC5C3" d="M349.271,32.111c-0.796-0.328-1.696-0.403-3.067,1.366
					c0,0-3.393,5.179-3.84,5.989c-0.443,0.809-1.309,2.758,0.362,3.341c1.667,0.589,2.146-0.445,3.148-1.808
					c1.003-1.364,3.554-5.16,3.925-6.015C350.39,33.646,350.081,32.447,349.271,32.111z"/>
				<path clip-path="url(#SVGID_16_)" fill="#AFC5C3" d="M365.157,69.969c0,0-6.505,2.053-7.033,2.261
					c-0.527,0.212-2.066,0.951-1.713,2.642c0.362,1.688,3.231,1.077,4.73,0.443c1.504-0.636,5.896-1.945,6.652-2.364
					c0.762-0.423,1.838-1.29,1.185-2.537C368.272,69.063,366.448,69.546,365.157,69.969z"/>
				<path clip-path="url(#SVGID_16_)" fill="#AFC5C3" d="M362.507,104.964c0,0-6.059-2.003-7.281-2.303
					c-1.229-0.299-2.714-0.593-3.531,0.521c-0.818,1.111-0.222,2.713,3.271,3.641c3.484,0.928,5.939,1.631,6.758,1.856
					c0.818,0.221,2.639,0.185,2.86-1.003C364.806,106.487,364.099,105.446,362.507,104.964z"/>
				<path clip-path="url(#SVGID_16_)" fill="#AFC5C3" d="M349.358,132.634c0,0,2.561,5.535,3.192,6.835
					c0.634,1.298,1.262,2.787,0.108,3.307c-1.485,0.666-2.262-0.078-3.824-3.195c-1.56-3.123-3.404-6.458-2.822-7.43
					C346.794,130.851,348.389,130.813,349.358,132.634z"/>
				<path clip-path="url(#SVGID_16_)" fill="#AFC5C3" d="M252.233,72.875c0,0-6.537-0.779-8.505-0.891
					c-1.967-0.113-3.676,0.222-3.604,2.189c0.073,1.969,2.858,1.931,4.941,2.118c2.079,0.186,8.541,1.003,9.543,0.521
					c0.919-0.442,2.007-2.748,0.336-3.306C253.272,72.951,252.233,72.875,252.233,72.875z"/>
				<path clip-path="url(#SVGID_16_)" fill="#AFC5C3" d="M258.062,45.948c0,0-6.123-3.825-7.649-4.644
					c-1.521-0.818-3.102-1.788-4.046-0.146c-1.004,1.746,1.869,3.75,4.083,5.089c2.156,1.296,5.484,3.255,6.243,3.714
					c1.039,0.631,2.521,0.208,2.969-0.817C260.182,47.952,259.516,46.913,258.062,45.948z"/>
				<path clip-path="url(#SVGID_16_)" fill="#AFC5C3" d="M302.899,78.665c-8.995,0-16.287,7.289-16.287,16.287
					c0,1.614,0.168,3.409,0.605,4.879c1.726,6.388,6.339,12.366,8.979,17.155c3.284,5.955,5.739,11.896,5.865,12.195
					c0.131,0.295,0.374,0.839,0.837,0.831h0.032c0.462,0.008,0.71-0.536,0.836-0.831c0.126-0.3,2.585-6.24,5.868-12.195
					c2.637-4.789,7.25-10.768,8.98-17.155c0.438-1.47,0.604-3.265,0.604-4.879c0-8.998-7.292-16.287-16.289-16.287"/>
				<path clip-path="url(#SVGID_16_)" fill="#C1D6D5" d="M312.563,95.176c0,5.334-4.325,9.663-9.663,9.663
					c-5.336,0-9.658-4.329-9.658-9.663c0-5.335,4.322-9.664,9.658-9.664C308.237,85.512,312.563,89.841,312.563,95.176z"/>
				<path clip-path="url(#SVGID_16_)" fill="#1C2124" d="M416.765,172.596c0,0,5.873,12.89,2.677,32.239
					c-2.75,16.636-7.134,19.535-7.876,39.741c-0.924,25.103,3.494,32.386,3.641,32.684c0.147,0.296,1.26,0.815,6.314,0.222
					c5.051-0.594,13.59-0.375,24.362-7.947c10.771-7.576,10.624-8.543,10.845-9.138c0.224-0.596,0.744-5.794-3.417-15.155
					c-4.159-9.357-7.933-11.254-6.535-26.515c1.116-12.181,5.57-30.308-4.159-52.961c-9.73-22.66-34.691-22.434-37.957-22.362
					c-5.648,0.128-22.131,1.739-30.678,16.863c-2.898,5.125-3.537,10.271-3.27,10.917c0.157,0.391,0.62,0.621,1.266,0.819
					C373.681,172.523,394.925,177.721,416.765,172.596z"/>
				<path clip-path="url(#SVGID_16_)" fill="#1C2124" d="M85.984,208.974c0,0,13.992,3.329,15.778,3.812
					c1.787,0.48,2.608,0.48,1.93,1.928c-0.672,1.449-4.531,7.338-11.725,5.742c-4.889-1.082-7.864-4.728-8.301-9.313
					C83.387,208.141,85.454,208.83,85.984,208.974z"/>
				<path clip-path="url(#SVGID_16_)" fill="#FFFFFF" d="M209.038,261.158c0,0,10.479,0.617,25.069,0.281
					c14.591-0.338,0,11.773,0,11.773l-2.985,9.577C231.122,282.79,221.827,275.24,209.038,261.158z"/>
				<path clip-path="url(#SVGID_16_)" fill="#1C2124" d="M377.396,180.172c-1.302,1.081-3.898,3.494-3.789,5.277
					c0.114,1.781,1.027,2.403,2.046,1.334c1.443-1.523,2.566-2.523,4.828-4.383c2.076-1.705,3.971-1.931,3.568-3.488
					c-0.416-1.563-2.752-1.08-4.277-0.299C378.251,179.394,377.396,180.172,377.396,180.172z"/>
				<path clip-path="url(#SVGID_16_)" fill="#1C2124" d="M409.133,182.198c-1.958-1.684-4.068-2.955-5.962-2.582
					c-0.916,0.183-1.189,0.597-1.223,1.037c-0.057,0.736,0.295,1.302,1.297,1.857c0,0,2.239,0.997,3.861,2.676
					c3.273,3.379,3.068,5.093,4.752,4.607c1.674-0.482,0.893-2.897,0-4.271C411.333,184.701,410.536,183.401,409.133,182.198z"/>
				<path clip-path="url(#SVGID_16_)" fill="#1C2124" d="M379.757,199.102c1.002,0.261,1.965-0.119,2.5-1.67
					c0.529-1.552,0.732-5.297-0.159-6.131c-0.969-0.907-2.646-0.487-3.036,0.916C378.661,193.69,377.946,198.628,379.757,199.102z"
					/>
				<path clip-path="url(#SVGID_16_)" fill="#1C2124" d="M401.515,200.886c1.114,0.526,2.082,0.067,2.622-1.488
					c0.546-1.55,0.86-5.569-0.241-6.438c-1.142-0.899-2.617-0.467-3.097,0.92C400.298,195.328,399.487,199.926,401.515,200.886z"/>
				<path clip-path="url(#SVGID_16_)" fill="#D49074" d="M389.315,207.657c-0.09-0.368-0.072-0.52,0.188-1.375
					c0.263-0.855,1.19-4.79,1.412-7.203c0.22-2.415,0.331-2.86-0.222-3.603c-0.561-0.746-1.783-0.894-2.418-0.225
					c-0.628,0.67-0.441,1.634-0.702,3.192c-0.263,1.564-1.153,5.87-1.784,7.654c-0.631,1.782-0.814,4.082,0.777,4.491
					c1.6,0.409,6.391,1.229,7.766,0.744c1.373-0.481,2.262-2.713,0.969-2.934C393.33,208.065,389.432,208.104,389.315,207.657z"/>
				<g clip-path="url(#SVGID_16_)">
					<defs>
						<path id="SVGID_129_" d="M80.174,268.494c0,0,4.643,17.418,0.184,34.241c0,0-7.986,25.33-7.687,43.903
							c0.238,14.754,1.447,17.377,3.122,19.386c1.667,2.004,14.482,12.481,15.597,13.147c1.113,0.666,1.503,0.946,2.505-0.446
							c1.063-1.472,9.683-14.63,10.252-15.767c1.393-2.789,1.782-3.062,1.058-5.183c-2.627-7.682-7.632-24.011-8.354-37.658
							c-0.972-18.259,4.234-37.772-1.115-50.028C92.438,262.541,80.174,268.494,80.174,268.494z"/>
					</defs>
					<clipPath id="SVGID_18_">
						<use xlink:href="#SVGID_129_"  overflow="visible"/>
					</clipPath>
					<path clip-path="url(#SVGID_18_)" fill="#F7503C" d="M106.283,299.803c-14.375,7.576-36.771,24.402-36.771,24.402l1.118-19.501
						c17.269-14.039,31.083-21.281,31.083-21.281L106.283,299.803z"/>
					<path clip-path="url(#SVGID_18_)" fill="#F7503C" d="M107.666,342.943c-15.046,8.711-38.276,27.653-38.276,27.653
						l-1.211-20.767c17.867-15.747,33.905-24.207,33.905-24.207L107.666,342.943z"/>
				</g>
			</g>
		</g>
	</g>
</g>
</svg>
