<svg xmlns="http://www.w3.org/2000/svg" xmlns:xlink="http://www.w3.org/1999/xlink" width="480" height="390" viewBox="0 0 480 390"><defs><path id="a" d="M0 -489.813H480V-99.81299999999999H0z"/></defs><clipPath id="b"><use xlink:href="#a" overflow="visible"/></clipPath><g clip-path="url(#b)"><defs><path id="c" d="M0 -494.873H480V-100H0z"/></defs><clipPath id="d"><use xlink:href="#c" overflow="visible"/></clipPath><g clip-path="url(#d)"><defs><path id="e" d="M0 -494.873H480V-100H0z"/></defs><clipPath id="f"><use xlink:href="#e" overflow="visible"/></clipPath><path fill="#fff" d="M557.213-168.778c0.11-0.115,0.214-0.236,0.316-0.359l25.443-30.768l124.872-16.517l-2.425-18.336 l-124.448,16.461l-86.335-24.902l-73.516-37.566l12.239-41.289c0.005-0.017,0.01-0.036,0.015-0.054l11.614-40.104 L547.17-446.71c1.227-1.023,1.636-1.647,2.183-2.672l63.517-119.009l-15.728-8.394l-62.688,117.457l-102.945,85.126 c-2.568,2.11-1.998,1.92-2.88,4.392l-12.368,42.71l-12.431,41.94l-107.073,1.687l0.292,18.494l101.271-1.595L369.606-169.7 l-27.086,7.543l-49.773-100.38l-13.974,6.929l48.449,97.71l-62.712,17.462l-61.414-34.915l-59.696-56.936l13.205,1.146 c0.266,0.022,0.534,0.034,0.8,0.034c0.874,0,1.744-0.123,2.587-0.368l102.504-29.86l-5.172-17.759l-100.845,29.377 l-104.762-9.091l-147.032-58.964l-7.637-52.36l122.954-55.403l118.006,25.71c0.55,0.119,1.811,0.268,2.365,0.268 c1.51,0,2.297-0.527,3.579-1.37l45.34-29.796l57.229-8.093l3.698,67.898c0.024,0.429,0.085,0.855,0.177,1.274l16.715,74.882 l15.224-3.398l-16.574-74.251l-1.904-34.953l152.959-33.92c5.463-1.158,4.836-1.716,5.954-6.056l20.726-101.627l-15.284-3.115 l-19.715,96.665l-145.5,32.266l-5.995-109.994l-15.575,0.85l4.242,77.846l-60.292,8.525c-1.14,0.162-2.229,0.573-3.19,1.205 l-44.06,28.954l-179.115-39.021l-23.667-108.104l-15.238,3.338l22.535,102.933c-37.054-2.178-100.482-5.893-114.466-6.634 l-97.732-72.15l-9.265,12.55l99.619,73.545c2.028,1.567,2.247,1.486,3.869,1.513c3.792,0.134,92.273,5.29,126.73,7.315 l39.353,8.575l-105.612,47.589l-151.07-3.959l-0.465,17.822l145.263,3.806l8.286,56.813c0.236,1.631,0.577,4.121,1.316,4.896 c0.597,0.879,1.723,1.125,4.392,2.352l37.73,15.133l-13.871,42.676l-162.795-0.646l-0.061,15.599l102.813,0.407l0.402,113.504 c0.006,1.549,0.026,3.502,0.725,4.6c0.796,1.444,3.175,2.233,4.683,2.841L-70.64-81.62l-26.526,61.079l16.353,7.102 l26.719-61.53L1.706-52.543c1.286,0.517,2.687,0.682,4.057,0.478l188.341-28.07l-13.601,36.344l14.608,5.466l15.57-41.602 l101.68,35.445L303.141,9.1l15.374,2.646l9.089-52.82l152.715,6.472c0.111,0.005,0.221,0.007,0.332,0.007 c3.298,0,6.257-2.083,7.358-5.219l29.69-84.646l111.689,24.825l3.386-15.228l-104.335-23.19L557.213-168.778z M-174.676-447.785c0.036,0,0.073,0,0.107,0C-174.594-447.785-174.629-447.784-174.676-447.785z M487.013-226.324 c0.525,0.269,1.077,0.486,1.645,0.649l77.014,22.213l-20.01,24.197l-34.911,37.278l-122.682-27.268l27.707-93.473 L487.013-226.324z M-127.341-121.221l-0.384-108.136l50.072,0.199c0.011,0,0.02,0,0.032,0c1.819,0,3.848-0.076,5.201-1.162 c1.157-0.928,1.352-1.747,2.215-4.227l15.307-47.09l89.188,35.767L33.88-205.9l-52.062,12.424 c-1.403,0.335-3.285,0.864-3.872,1.411c-1.006,0.865-1.692,2.459-2.235,3.709l-40.136,92.422L-127.341-121.221z M5.558-67.807 l-53.436-21.476l38.167-87.889l54.503-13.005c2.122-0.507,4.703-0.959,5.591-2.333c1.068-1.463,0.971-2.788,1.254-6.247 l0.421-41.456l66.479,5.767l74.488,71.044c0.461,0.44,0.973,0.822,1.528,1.137l24.617,13.996l-18.852,51.435L5.558-67.807z M216.097-94.559l16.824-45.895l28.282,15.934c1.184,0.674,2.095,0.563,4.368-0.021l63.617-17.713l-14.145,82.185 L216.097-94.559z M475.202-50.434L330.27-56.576l15.542-90.306l31.526-8.778l125.025,27.789L475.202-50.434z" clip-path="url(#f)"/></g></g><defs><path id="g" d="M580 -490H1060V-100H580z"/></defs><clipPath id="h"><use xlink:href="#g" overflow="visible"/></clipPath><g clip-path="url(#h)"><defs><path id="i" d="M580 -494.875H1060V-100H580z"/></defs><clipPath id="j"><use xlink:href="#i" overflow="visible"/></clipPath><g clip-path="url(#j)"><defs><path id="k" d="M580 -494.875H1060V-100H580z"/></defs><clipPath id="l"><use xlink:href="#k" overflow="visible"/></clipPath><path fill="#fff" d="M1138.216-168.777c0.108-0.117,0.216-0.238,0.316-0.361l25.442-30.767l124.872-16.517l-2.424-18.337 l-124.448,16.462l-86.336-24.903l-73.515-37.565l12.237-41.29c0.006-0.018,0.012-0.036,0.017-0.054l11.613-40.104 l102.183-84.498c1.228-1.024,1.637-1.647,2.184-2.672l63.516-119.009l-15.727-8.395l-62.689,117.458l-102.943,85.126 c-2.57,2.11-1.999,1.919-2.883,4.391L997.263-327.1l-12.431,41.94l-107.073,1.687l0.292,18.493l101.273-1.595L950.609-169.7 l-27.087,7.543L873.75-262.538l-13.975,6.93l48.448,97.71l-62.711,17.461l-61.415-34.914l-59.697-56.936l13.207,1.146 c0.264,0.023,0.532,0.035,0.798,0.035c0.875,0,1.746-0.123,2.587-0.369l102.507-29.86l-5.174-17.759l-100.845,29.378 l-104.763-9.092l-147.032-58.964l-7.636-52.36l122.953-55.403l118.006,25.709c0.551,0.12,1.811,0.268,2.364,0.268 c1.51,0,2.297-0.527,3.58-1.37l45.342-29.795l57.228-8.093l3.7,67.897c0.023,0.429,0.081,0.856,0.176,1.275l16.715,74.883 l15.225-3.399l-16.574-74.252l-1.905-34.952l152.959-33.92c5.463-1.158,4.837-1.717,5.953-6.056l20.728-101.627l-15.284-3.117 L989.5-455.419l-145.502,32.266l-5.994-109.993l-15.575,0.849l4.243,77.847l-60.292,8.525 c-1.14,0.161-2.229,0.573-3.191,1.205l-44.063,28.954l-179.113-39.021l-23.666-108.104l-15.239,3.337l22.534,102.933 c-37.054-2.178-100.481-5.892-114.466-6.633l-97.733-72.15l-9.263,12.549l99.618,73.545c2.028,1.568,2.247,1.486,3.869,1.514 c3.793,0.133,92.275,5.29,126.731,7.315l39.352,8.575l-105.612,47.589l-151.069-3.959l-0.468,17.821l145.264,3.807 l8.286,56.814c0.238,1.63,0.577,4.12,1.315,4.895c0.599,0.881,1.725,1.126,4.394,2.354l37.73,15.131l-13.872,42.678 l-162.794-0.646l-0.063,15.599l102.814,0.406l0.402,113.505c0.005,1.549,0.025,3.503,0.724,4.6 c0.796,1.444,3.176,2.233,4.685,2.84l66.874,26.854l-26.527,61.08l16.353,7.102l26.72-61.53l55.797,22.427 c1.288,0.516,2.688,0.682,4.06,0.478l188.34-28.071l-13.601,36.344l14.61,5.468l15.567-41.603l101.682,35.445L884.144,9.1 l15.373,2.646l9.089-52.82l152.716,6.471c0.112,0.006,0.222,0.007,0.333,0.007c3.297,0,6.257-2.082,7.358-5.218l29.688-84.646 l111.692,24.825l3.384-15.227l-104.335-23.191L1138.216-168.777z M406.325-447.786c0.037,0,0.071,0,0.107,0 C406.406-447.786,406.371-447.785,406.325-447.786z M1068.014-226.325c0.526,0.269,1.078,0.487,1.646,0.649l77.015,22.214 l-20.009,24.196l-34.913,37.279l-122.681-27.269l27.705-93.472L1068.014-226.325z M453.659-121.221l-0.382-108.136 l50.071,0.199c0.01,0,0.021,0,0.03,0c1.82,0,3.849-0.077,5.202-1.162c1.157-0.928,1.352-1.748,2.216-4.227l15.306-47.091 l89.187,35.767l-0.407,39.97l-52.062,12.424c-1.403,0.335-3.284,0.863-3.873,1.41c-1.003,0.866-1.693,2.46-2.234,3.71 l-40.136,92.422L453.659-121.221z M586.56-67.806l-53.436-21.477l38.166-87.889l54.504-13.006 c2.121-0.506,4.704-0.959,5.593-2.332c1.066-1.463,0.969-2.788,1.251-6.247l0.423-41.457l66.478,5.768l74.487,71.044 c0.462,0.44,0.975,0.821,1.528,1.136l24.618,13.996l-18.851,51.436L586.56-67.806z M797.1-94.559l16.823-45.895l28.281,15.934 c1.186,0.674,2.098,0.564,4.368-0.02l63.618-17.715l-14.145,82.187L797.1-94.559z M1056.204-50.434l-144.932-6.142 l15.54-90.307l31.527-8.778l125.025,27.789L1056.204-50.434z" clip-path="url(#l)"/></g></g><defs><path id="m" d="M0 0H480V390H0z"/></defs><clipPath id="n"><use xlink:href="#m" overflow="visible"/></clipPath><g clip-path="url(#n)"><path fill="#CEE2E3" d="M0.119 -4.896H480.119V389.97999999999996H0.119z"/><defs><path id="o" d="M0 -4.876H479.999V390H0z"/></defs><clipPath id="p"><use xlink:href="#o" overflow="visible"/></clipPath><circle clip-path="url(#p)" fill="#C7DBDC" cx="62.408" cy="195.969" r="78.994"/><circle clip-path="url(#p)" fill="#fff" cx="62.409" cy="195.969" r="39.16"/><circle clip-path="url(#p)" fill="#C7DBDC" cx="416.809" cy="195.969" r="78.993"/><path fill="#fff" d="M379.718,152.737c-0.654,0-1.295-0.319-1.679-0.906c-0.054-0.082-1.825-2.732-5.633-6.759 c-0.759-0.804-0.724-2.072,0.079-2.835c0.805-0.761,2.075-0.725,2.835,0.079c4.124,4.359,5.997,7.199,6.074,7.318 c0.606,0.927,0.347,2.17-0.58,2.775C380.476,152.633,380.095,152.737,379.718,152.737L379.718,152.737z M90.851,152.668 c-0.495,0-0.994-0.185-1.382-0.553c-0.803-0.763-0.834-2.033-0.071-2.836c1.889-1.988,3.953-4.018,6.133-6.029 c0.813-0.752,2.083-0.701,2.834,0.112c0.75,0.813,0.702,2.083-0.113,2.834c-2.116,1.953-4.117,3.922-5.947,5.848 C91.911,152.459,91.381,152.668,90.851,152.668L90.851,152.668z M104.308,140.313c-0.583,0-1.161-0.253-1.558-0.741 c-0.697-0.859-0.566-2.124,0.294-2.821c2.364-1.918,4.835-3.811,7.342-5.625c0.896-0.648,2.15-0.447,2.8,0.45 c0.649,0.898,0.448,2.151-0.451,2.801c-2.446,1.77-4.856,3.617-7.163,5.489C105.2,140.166,104.752,140.313,104.308,140.313 L104.308,140.313z M366.776,138.92c-0.468,0-0.938-0.162-1.318-0.495c-2.042-1.78-4.216-3.547-6.467-5.249 c-0.882-0.669-1.058-1.927-0.389-2.811c0.668-0.882,1.926-1.057,2.81-0.388c2.323,1.758,4.571,3.583,6.683,5.426 c0.834,0.727,0.921,1.995,0.193,2.829C367.891,138.688,367.336,138.92,366.776,138.92L366.776,138.92z M119.858,129.122 c-0.663,0-1.311-0.328-1.693-0.928c-0.596-0.935-0.322-2.175,0.613-2.771c1.214-0.773,2.457-1.544,3.694-2.29 c1.827-1.102,3.712-2.192,5.602-3.242c0.969-0.537,2.188-0.188,2.728,0.78c0.538,0.969,0.187,2.189-0.78,2.727 c-1.85,1.027-3.692,2.094-5.478,3.17c-1.209,0.729-2.423,1.481-3.609,2.239C120.601,129.021,120.227,129.122,119.858,129.122 L119.858,129.122z M351.984,127.836c-0.373,0-0.751-0.105-1.088-0.322c-2.896-1.873-5.943-3.691-9.061-5.403 c-0.969-0.534-1.324-1.754-0.791-2.725c0.534-0.97,1.754-1.325,2.724-0.792c3.2,1.758,6.331,3.626,9.307,5.552 c0.93,0.602,1.196,1.843,0.596,2.773C353.286,127.512,352.642,127.836,351.984,127.836L351.984,127.836z M137.944,119.023 c-0.744,0-1.458-0.415-1.805-1.128c-0.485-0.997-0.07-2.196,0.925-2.682c2.542-1.237,5.156-2.439,7.773-3.574 c1.016-0.441,2.197,0.026,2.638,1.041c0.441,1.018-0.026,2.198-1.042,2.639c-2.565,1.114-5.126,2.29-7.615,3.501 C138.538,118.959,138.239,119.023,137.944,119.023L137.944,119.023z M333.871,117.807c-0.288,0-0.579-0.063-0.855-0.191 c-2.68-1.266-5.459-2.487-8.262-3.635c-1.026-0.42-1.517-1.591-1.098-2.615c0.419-1.026,1.592-1.517,2.616-1.097 c2.868,1.173,5.713,2.425,8.455,3.718c1.002,0.472,1.43,1.669,0.958,2.67C335.343,117.382,334.621,117.807,333.871,117.807 L333.871,117.807z M154.724,111.808c-0.811,0-1.575-0.495-1.877-1.3c-0.391-1.036,0.133-2.193,1.17-2.584 c2.853-1.073,5.781-2.102,8.703-3.057c1.052-0.344,2.187,0.23,2.53,1.285c0.343,1.052-0.231,2.185-1.284,2.527 c-2.867,0.937-5.738,1.945-8.536,2.999C155.197,111.767,154.959,111.808,154.724,111.808L154.724,111.808z M316.346,110.662 c-0.22,0-0.441-0.035-0.661-0.111c-2.598-0.908-5.279-1.778-7.967-2.589c-1.061-0.32-1.66-1.439-1.34-2.5 c0.32-1.06,1.438-1.659,2.499-1.341c2.743,0.827,5.479,1.717,8.131,2.643c1.047,0.364,1.599,1.509,1.233,2.554 C317.951,110.145,317.175,110.662,316.346,110.662L316.346,110.662z M172.945,105.898c-0.88,0-1.688-0.586-1.932-1.477 c-0.294-1.068,0.335-2.171,1.403-2.465c3.44-0.943,6.964-1.818,10.477-2.597c1.082-0.24,2.153,0.442,2.392,1.524 c0.241,1.082-0.441,2.151-1.522,2.392c-3.448,0.765-6.908,1.623-10.284,2.55C173.3,105.874,173.121,105.898,172.945,105.898 L172.945,105.898z M298.637,105.385c-0.162,0-0.325-0.019-0.49-0.061c-3.368-0.844-6.845-1.627-10.335-2.327 c-1.086-0.218-1.79-1.275-1.571-2.36c0.219-1.086,1.275-1.79,2.362-1.572c3.552,0.713,7.09,1.511,10.521,2.37 c1.074,0.268,1.728,1.357,1.458,2.432C300.352,104.776,299.535,105.385,298.637,105.385L298.637,105.385z M193.161,101.378 c-0.956,0-1.804-0.688-1.973-1.662c-0.19-1.091,0.54-2.13,1.631-2.321c2.784-0.485,5.624-0.927,8.44-1.311 c1.099-0.148,2.109,0.619,2.259,1.715c0.149,1.098-0.62,2.108-1.717,2.259c-2.766,0.377-5.557,0.812-8.291,1.289 C193.391,101.367,193.275,101.378,193.161,101.378L193.161,101.378z M278.345,101.271c-0.104,0-0.209-0.008-0.315-0.026 c-2.942-0.464-5.959-0.886-8.972-1.252c-1.1-0.133-1.883-1.135-1.749-2.234c0.135-1.099,1.134-1.883,2.233-1.747 c3.059,0.373,6.125,0.801,9.113,1.272c1.094,0.173,1.842,1.2,1.669,2.295C280.168,100.566,279.314,101.271,278.345,101.271 L278.345,101.271z M259.555,98.999c-0.058,0-0.116-0.003-0.174-0.007c-2.752-0.236-5.574-0.438-8.384-0.596 c-1.104-0.063-1.951-1.01-1.888-2.116c0.062-1.105,1.008-1.952,2.114-1.889c2.849,0.161,5.709,0.364,8.5,0.604 c1.104,0.094,1.921,1.065,1.827,2.168C261.461,98.21,260.584,98.999,259.555,98.999L259.555,98.999z M211.267,98.957 c-1.022,0-1.898-0.778-1.994-1.818c-0.104-1.103,0.707-2.08,1.81-2.184c3.03-0.282,6.12-0.512,9.186-0.682 c1.107-0.062,2.052,0.786,2.113,1.892c0.061,1.106-0.787,2.053-1.892,2.113c-3.015,0.166-6.054,0.392-9.035,0.671 C211.393,98.955,211.33,98.957,211.267,98.957L211.267,98.957z M241.096,97.998c-0.016,0-0.031,0-0.049,0 c-1.612-0.039-3.257-0.065-4.888-0.079c-1.92-0.018-3.839-0.012-5.73,0.016c-0.01,0-0.021,0-0.029,0 c-1.095,0-1.989-0.879-2.005-1.977c-0.017-1.107,0.869-2.018,1.977-2.033c1.191-0.019,2.404-0.026,3.604-0.026 c0.738,0,1.476,0.004,2.218,0.009c1.651,0.014,3.317,0.042,4.95,0.081c1.106,0.026,1.983,0.945,1.956,2.053 C243.074,97.132,242.182,97.998,241.096,97.998L241.096,97.998z" clip-path="url(#p)"/><path clip-path="url(#p)" fill="#FEC2A8" d="M161.778,159.646c0,0-21.542,9.212-26.444,11.886 c-4.903,2.674-16.194,10.102-12.331,25.255c3.864,15.154,21.541,16.194,36.398,9.953c0,0,4.605-1.782,4.159-1.782 C163.115,204.957,161.778,159.646,161.778,159.646z"/><path clip-path="url(#p)" fill="#FEC2A8" d="M157.32,205.106c0,0-18.719,22.729-22.135,28.671 c-3.418,5.943-7.023,21.963,6.388,30.455c8.913,5.646,17.597-0.397,22.262-5.382c2.098-2.242,3.142-10.811,3.142-10.811 l-3.121-45.905L157.32,205.106z"/><path clip-path="url(#p)" fill="#FEC2A8" d="M202.482,344.604c0,0,0.596,31.793,13.965,53.334 c13.37,21.541,140.836-4.161,140.836-4.161s24.215-21.688,20.649-71.309c-3.154-43.896-3.862-54.819-4.309-58.384"/><g clip-path="url(#p)"><defs><path id="q" d="M202.482,344.604c0,0,0.596,31.793,13.965,53.334c13.37,21.541,140.836-4.161,140.836-4.161 s24.215-21.688,20.649-71.309c-3.154-43.896-3.862-54.819-4.309-58.384"/></defs><clipPath id="r"><use xlink:href="#q" overflow="visible"/></clipPath><path clip-path="url(#r)" fill="#F1AE92" d="M308.666,344.704l-108.644,2.882l2.328,17.516 c0,0,55.874,6.763,101.77-8.979l12.639-3.88L308.666,344.704z"/></g><path clip-path="url(#p)" fill="#FEC2A8" d="M321.777,188.914c0,0,12.033,14.111,28.821,41.298 c16.786,27.188,17.38,37.586,17.38,37.586s-51.551,32.387-51.253,31.942C317.022,299.293,321.777,188.914,321.777,188.914z"/><path clip-path="url(#p)" fill="#FEC2A8" d="M156.875,258.736c0,0-18.666,31.233-20.947,34.614 c-4.012,5.942-12.925,26.743,6.833,33.574l2.973-0.147l17.53-35.952c0,0,0.147-37.438-0.445-37.141 C162.224,253.981,156.875,258.736,156.875,258.736z"/><path clip-path="url(#p)" fill="#626E75" d="M325.25,310.013v-24.231l-0.054,0.041v-92.199v-85.53V83.529 c0,0,0.885-19.363-4.426-27.329c-3.558-5.34-11.206-14-26.666-15.824c-13.73-1.618-39.19-1.692-52.511-1.667 c-13.323-0.025-38.784,0.049-52.512,1.667C173.62,42.2,165.974,50.86,162.415,56.2c-5.311,7.966-4.424,27.329-4.424,27.329 v24.563v85.53v105.445l0.028,0.017v10.928c0,0-0.982,16.563,3.761,25.338c4.426,8.188,13.278,16.044,30.317,18.367 c10.479,1.429,24.819,1.973,37.178,2.166l-0.067,0.047c1.988,0,6.515,0.051,12.425,0.047c5.913,0.004,10.439-0.047,12.425-0.047 l-0.064-0.047c12.358-0.193,26.699-0.737,37.177-2.166c17.04-2.323,25.89-10.179,30.317-18.367 C326.231,326.576,325.25,310.013,325.25,310.013z"/><path clip-path="url(#p)" fill="#859299" d="M303.644,53.152c-5.464-2.707-12.176-3.34-19.141-3.724 c-7.653-0.42-15.87-0.367-15.87-0.367h-54.77c0,0-7.444-0.053-15.099,0.367c-6.965,0.384-13.675,1.017-19.14,3.724 c-6.664,3.299-14.787,10.49-14.787,27.581c0,10.695,0,28.105,0,38.94c0,5.792,0,9.709,0,9.709c0,36.067,0,161.043,0,175.068 c0,17.09,8.123,24.281,14.787,27.582c5.464,2.706,12.174,3.339,19.14,3.723c7.654,0.421,15.099,0.366,15.099,0.366h54.77 c0,0,8.216,0.055,15.87-0.366c6.964-0.384,13.676-1.017,19.141-3.723c6.664-3.301,14.786-10.492,14.786-27.582 c0-13.51,0-133.158,0-175.068c0,0,0-6.144,0-14.431c0-10.697,0-24.969,0-34.219C318.43,63.643,310.308,56.451,303.644,53.152z"/><g clip-path="url(#p)"><path fill="#626E75" d="M241.633,296.394c-7.611,0-13.783,6.171-13.783,13.783c0,7.613,6.172,13.784,13.783,13.784 c7.613,0,13.784-6.171,13.784-13.784C255.417,302.564,249.246,296.394,241.633,296.394z M241.633,319.019 c-4.881,0-8.84-3.958-8.84-8.842c0-4.883,3.959-8.842,8.84-8.842c4.883,0,8.841,3.959,8.841,8.842 C250.474,315.061,246.516,319.019,241.633,319.019z"/><circle fill="#859299" cx="241.633" cy="310.177" r="8.842"/></g><path clip-path="url(#p)" fill="#fff" d="M176.131,89.762c0-0.692,0.561-1.254,1.254-1.254h128.496 c0.693,0,1.256,0.562,1.256,1.254v192.561c0,0.694-0.563,1.255-1.256,1.255H177.385c-0.693,0-1.254-0.561-1.254-1.255V89.762z"/><g clip-path="url(#p)" fill="#505C62"><path d="M226.837,67.938c-0.98-1.095-2.388-1.762-3.854-1.836c-1.386-0.123-3.003,0.497-4.036,1.401 c-1.093,0.957-1.76,2.348-1.825,3.8c-0.061,1.413,0.45,2.814,1.39,3.866c1.01,1.128,2.368,1.703,3.854,1.835 c0.496,0.045,0.994-0.04,1.485-0.111c0.965-0.146,1.805-0.711,2.552-1.289c0.31-0.354,0.62-0.707,0.929-1.06 c0.548-0.833,0.847-1.748,0.897-2.742C228.291,70.391,227.778,68.987,226.837,67.938z"/><path d="M264.573,71.561c0,1.974-1.602,3.573-3.574,3.573h-25.393c-1.973,0-3.574-1.6-3.574-3.573l0,0 c0-1.974,1.601-3.574,3.574-3.574h25.393C262.971,67.986,264.573,69.587,264.573,71.561L264.573,71.561z"/></g><path clip-path="url(#p)" fill="#F7503C" d="M204.72,165.725c-4.085-0.067-8.104-0.199-8.171,2.173 c-0.055,1.995,0.197,2.769,0.527,3.559c0.33,0.792,0.131,1.45,5.996,1.383c5.865-0.064,27.677,0.067,30.576-0.064 c2.9-0.131,4.877-0.594,4.943-3.296c0.064-2.701,0.131-3.295-1.055-3.558C236.352,165.657,208.806,165.788,204.72,165.725z"/><path clip-path="url(#p)" fill="#FEC2A8" d="M298.75,362.432c0,0,7.725-24.215,28.374-33.129 c20.651-8.913,19.016,12.183,19.016,12.183l-9.209,29.117L298.75,362.432z"/><path clip-path="url(#p)" fill="#FEC2A8" d="M342.427,228.578c0,0,3.871-16.506,20.501-15.449 c18.719,1.188,16.936,18.42,16.044,24.363c-1.919,12.795-4.902,30.752-4.902,45.459"/><circle clip-path="url(#p)" fill="#fff" cx="416.869" cy="195.969" r="39.161"/><g clip-path="url(#p)"><path fill="#319862" d="M212.952,258.601c0,2.384,1.934,4.316,4.316,4.316h48.492c2.384,0,4.316-1.933,4.316-4.316v-22.296 c0-2.383-1.932-4.315-4.316-4.315h-48.492c-2.383,0-4.316,2.378-4.316,4.763V258.601z"/><path fill="#22B573" d="M245.471,246.065c0,0,2.535-2.174,3.558-3.075c1.019-0.9,3.295-2.935,3.706-3.319 c1.032-0.964,1.65-1.124,2.192-0.923c0.683,0.254,1.313,1.059,1.375,1.801c0.041,0.467-0.377,1.102-1.424,2.058 c-1.048,0.955-3.009,2.595-3.96,3.47c-0.872,0.802-3.419,3.053-3.542,3.217"/><path fill="#22B573" d="M246.969,246.324c0,0,0.012-5.519-0.022-6.107c-0.049-0.842-0.003-1.688-1.516-1.84 c-1.55-0.157-1.908,0.39-2.064,1.111c-0.104,0.488-0.047,6.972-0.039,8.762c0.009,1.79,0.038,5.109,0.068,5.916 c0.027,0.806-0.146,1.912,1.558,2.014c1.707,0.103,2.158-0.766,2.193-1.408C247.18,254.13,246.967,246.953,246.969,246.324z"/><path fill="#22B573" d="M246.336,249.702c0,0,7.208,5.83,7.748,6.226c0.54,0.396,1.655,0.548,2.347-0.152 c0.692-0.701,1.188-1.81,0.129-2.654c-0.757-0.603-6.033-4.515-6.983-5.465c-0.574-0.575-2.381-1.739-2.381-1.739l-0.851,1.97 L246.336,249.702z"/><path fill="#22B573" d="M239.722,243.715c-2.414-5.245-6.604-5.202-7.96-5.258c-1.8-0.077-6.169,0.392-8.219,4.747 c-0.77,1.642-1.988,7.685,2.377,11.05c5.079,3.915,10.245,0.988,11.9-0.527C239.323,252.351,241.915,248.482,239.722,243.715 z M231.814,252.706c-3.513,0.183-6.018-2.721-5.42-6.497c0.6-3.775,3.85-4.175,4.667-4.248 c3.184-0.242,4.972,1.355,5.733,3.981C237.643,248.873,235.326,252.524,231.814,252.706z"/><g fill="#F0F3F4"><path d="M291.33,151.181c0,1.659-1.346,3.007-3.007,3.007h-93.6c-1.66,0-3.007-1.348-3.007-3.007V129.05 c0-1.66,1.347-3.007,3.007-3.007h93.6c1.661,0,3.007,1.347,3.007,3.007V151.181z"/><path d="M291.33,204.518c0,1.661-1.346,3.009-3.007,3.009h-93.6c-1.66,0-3.007-1.348-3.007-3.009v-22.129 c0-1.66,1.347-3.008,3.007-3.008h93.6c1.661,0,3.007,1.348,3.007,3.008V204.518z"/></g><path fill="#F7503C" d="M203.874,112.676c-4.282,0.142-6.261-0.396-6.656,1.119c-0.493,1.889-0.265,2.899-0.265,3.427 s-0.066,1.978,3.889,2.043c3.954,0.065,27.81-0.065,32.225,0c4.414,0.065,5.731,0.264,6.062-2.898 c0.33-3.164-0.33-3.69-2.438-3.822C235.281,112.456,215.031,112.305,203.874,112.676z"/><circle fill="#1C2124" cx="202.826" cy="140.58" r="5.08"/><circle fill="#1C2124" cx="217.756" cy="140.58" r="5.08"/><circle fill="#1C2124" cx="232.687" cy="140.58" r="5.079"/><circle fill="#1C2124" cx="247.617" cy="140.58" r="5.079"/><circle fill="#1C2124" cx="202.826" cy="193.204" r="5.08"/><circle fill="#1C2124" cx="217.756" cy="193.204" r="5.08"/><circle fill="#1C2124" cx="232.687" cy="193.204" r="5.079"/><circle fill="#1C2124" cx="247.617" cy="193.204" r="5.079"/></g><g clip-path="url(#p)" fill="#FEC2A8"><path d="M53.397,392.803c0,0,15.102-29.831,31.675-44.639c11.89-10.623,25.634-13.549,43.372-1.853l0.78,44.931 L53.397,392.803z"/><path d="M16.101,395.65c0,0,6.447-26.861,27.091-44.59c12.846-11.031,32.914-15.917,50.652-4.221l-1.388,44.402 L16.101,395.65z"/><path d="M162.668,404.214c0,0,26.743-55.486,32.202-67.187c5.459-11.699,12.106-22.973,14.818-28.077 c11.365-21.393,20.513-42.413,20.279-59.611c-0.223-16.378-8.245-24.289-19.832-24.066c-9.756,0.188-15.154,5.683-19.053,12.368 c-3.24,5.552-30.195,51.364-36.88,62.396c-6.686,11.029-60.947,102.841-60.947,102.841L162.668,404.214z"/></g><path clip-path="url(#p)" fill="#fff" d="M384.304,143.927c-0.329-0.089-0.673,0.133-1.309,0.654 c0,0-6.772,5.308-8.683,6.855c-2.638,2.136-2.917,2.173-2.897,2.543c0.016,0.321,0.226,0.372,0.71,0.477 c1.313,0.279,4.668,0.984,8.542,1.838c1.378,0.304,2.72,0.597,3.561,0.753c0.699,0.131,1.017,0.221,1.226,0.08 c0.216-0.147,0.165-0.308,0.11-1.072c-0.356-5.024-0.516-6.442-0.946-11.545C384.59,144.183,384.5,143.981,384.304,143.927z"/><g clip-path="url(#p)"><path fill="none" d="M53.146,186.641v-6.415c0-2.385-1.916-4.318-4.278-4.318c-2.363,0-4.279,1.934-4.279,4.318v6.68"/><path fill="#B2C2C8" d="M58.958,189.749v-9.523c0-5.624-4.517-10.184-10.089-10.184c-5.574,0-10.091,4.56-10.091,10.184v5.103 l5.812,1.577v-6.68c0-2.385,1.916-4.318,4.279-4.318c2.362,0,4.278,1.934,4.278,4.318v6.415"/><path fill="#6F7C82" d="M47.367,193.408v18.725c0,3.332,5.944,6.263,15.843,6.308l0.001,0.002c0.039,0,0.076-0.002,0.113-0.002 c0.04,0,0.077,0.002,0.115,0.002l0.001-0.002c9.899-0.045,15.844-2.976,15.844-6.308v-18.725H47.367z"/><path fill="#505C62" d="M75.7,185.441H50.949c-1.979,0-3.583,1.604-3.583,3.583v4.384h31.917v-4.384 C79.284,187.045,77.679,185.441,75.7,185.441z"/><g fill="#2C393B"><circle cx="63.237" cy="200.526" r="4.506"/><path d="M66.03,212.331c0,0.349-0.283,0.631-0.632,0.631h-4.479c-0.35,0-0.632-0.282-0.632-0.631l0.185-8.959 c0-0.349,0.098-0.186,0.448-0.186h4.479c0.35,0,0.422-0.06,0.422,0.292L66.03,212.331z"/></g></g><g clip-path="url(#p)"><path fill="none" d="M421.209,187.23l-0.116-6.414c-0.043-2.385-1.993-4.283-4.355-4.239c-2.363,0.042-4.243,2.01-4.2,4.394 l0.122,6.68"/><path fill="#B2C2C8" d="M427.077,190.233l-0.172-9.523c-0.101-5.622-4.701-10.1-10.273-9.998 c-5.573,0.101-10.007,4.74-9.905,10.364l0.092,5.103l5.841,1.472l-0.122-6.68c-0.043-2.384,1.836-4.352,4.2-4.394 c2.363-0.044,4.313,1.854,4.355,4.239l0.116,6.414"/><path fill="#6F7C82" d="M400.938,193.408v18.725c0,3.332,5.944,6.263,15.844,6.308l0.001,0.002c0.039,0,0.076-0.002,0.114-0.002 c0.039,0,0.077,0.002,0.114,0.002v-0.002c9.901-0.045,15.844-2.976,15.844-6.308v-18.725H400.938z"/><path fill="#505C62" d="M429.273,185.441h-24.75c-1.98,0-3.585,1.604-3.585,3.583v4.384h31.917v-4.384 C432.855,187.045,431.252,185.441,429.273,185.441z"/><g fill="#2C393B"><circle cx="416.81" cy="200.526" r="4.506"/><path d="M419.603,212.331c0,0.349-0.283,0.631-0.632,0.631h-4.479c-0.35,0-0.632-0.282-0.632-0.631l0.185-8.959 c0-0.349,0.098-0.186,0.448-0.186h4.479c0.349,0,0.42-0.06,0.42,0.292L419.603,212.331z"/></g></g><g clip-path="url(#p)"><circle fill="#fff" cx="416.869" cy="195.969" r="39.161"/><path fill="none" d="M421.328,187.23l-0.116-6.414c-0.044-2.385-1.994-4.283-4.356-4.239c-2.361,0.042-4.243,2.01-4.198,4.394 l0.12,6.68"/><path fill="#B2C2C8" d="M427.196,190.233l-0.174-9.523c-0.102-5.622-4.701-10.1-10.272-9.998 c-5.574,0.101-10.007,4.74-9.906,10.364l0.092,5.103l5.841,1.472l-0.12-6.68c-0.044-2.384,1.837-4.352,4.198-4.394 c2.362-0.044,4.313,1.854,4.356,4.239l0.116,6.414"/><path fill="#6F7C82" d="M401.058,193.408v18.725c0,3.332,5.944,6.263,15.842,6.308l0.003,0.002 c0.038,0,0.074-0.002,0.113-0.002c0.04,0,0.077,0.002,0.115,0.002l0.001-0.002c9.899-0.045,15.843-2.976,15.843-6.308v-18.725 H401.058z"/><path fill="#505C62" d="M429.392,185.441h-24.751c-1.979,0-3.583,1.604-3.583,3.583v4.384h31.917v-4.384 C432.975,187.045,431.371,185.441,429.392,185.441z"/><g fill="#2C393B"><circle cx="416.928" cy="200.526" r="4.504"/><path d="M419.72,212.331c0,0.349-0.282,0.631-0.632,0.631h-4.479c-0.351,0-0.633-0.282-0.633-0.631 l0.185-8.959c0-0.349,0.098-0.186,0.449-0.186h4.479c0.35,0,0.421-0.06,0.421,0.292L419.72,212.331z"/></g></g></g></svg>