<svg xmlns="http://www.w3.org/2000/svg" xmlns:xlink="http://www.w3.org/1999/xlink" width="480" height="390" viewBox="0 0 480 390"><defs><path id="a" d="M-580 0.187H-100V390.187H-580z"/></defs><clipPath id="b"><use xlink:href="#a" overflow="visible"/></clipPath><g clip-path="url(#b)"><defs><path id="c" d="M-580 -4.873H-100V390H-580z"/></defs><clipPath id="d"><use xlink:href="#c" overflow="visible"/></clipPath><g clip-path="url(#d)"><defs><path id="e" d="M-580 -4.873H-100V390H-580z"/></defs><clipPath id="f"><use xlink:href="#e" overflow="visible"/></clipPath><path fill="#fff" d="M-22.787,321.222c0.11-0.115,0.214-0.236,0.316-0.359l25.443-30.768l124.872-16.517l-2.425-18.336 L0.972,271.703l-86.335-24.902l-73.516-37.566l12.239-41.289c0.005-0.017,0.01-0.036,0.015-0.054l11.614-40.104L-32.83,43.29 c1.227-1.023,1.636-1.647,2.183-2.672L32.87-78.391l-15.728-8.394L-45.546,30.673l-102.945,85.126 c-2.568,2.11-1.998,1.92-2.88,4.392l-12.368,42.71l-12.431,41.94l-107.073,1.687l0.292,18.494l101.271-1.595l-28.713,96.873 l-27.086,7.543l-49.773-100.38l-13.974,6.929l48.449,97.71l-62.712,17.462l-61.414-34.915l-59.696-56.936l13.205,1.146 c0.266,0.022,0.534,0.034,0.8,0.034c0.874,0,1.744-0.123,2.587-0.368l102.504-29.86l-5.172-17.759l-100.845,29.377 l-104.762-9.091l-147.032-58.964l-7.637-52.36l122.954-55.403l118.006,25.71c0.55,0.119,1.811,0.268,2.365,0.268 c1.51,0,2.297-0.527,3.579-1.37l45.34-29.796l57.229-8.093l3.698,67.898c0.024,0.429,0.085,0.855,0.177,1.274l16.715,74.882 l15.224-3.398l-16.574-74.251l-1.904-34.953l152.959-33.92c5.463-1.158,4.836-1.716,5.954-6.056l20.726-101.627l-15.284-3.115 l-19.715,96.665l-145.5,32.266l-5.995-109.994l-15.575,0.85l4.242,77.846l-60.292,8.525c-1.14,0.162-2.229,0.573-3.19,1.205 l-44.06,28.954l-179.115-39.021l-23.667-108.104l-15.238,3.338l22.535,102.933c-37.054-2.178-100.482-5.893-114.466-6.634 l-97.732-72.15l-9.265,12.55l99.619,73.545c2.028,1.567,2.247,1.486,3.869,1.513c3.792,0.134,92.273,5.29,126.73,7.315 l39.353,8.575l-105.612,47.589l-151.07-3.959l-0.465,17.822l145.263,3.806l8.286,56.813c0.236,1.631,0.577,4.121,1.316,4.896 c0.597,0.879,1.723,1.125,4.392,2.352l37.73,15.133l-13.871,42.676l-162.795-0.646l-0.061,15.599l102.813,0.407l0.402,113.504 c0.006,1.549,0.026,3.502,0.725,4.6c0.796,1.444,3.175,2.233,4.683,2.841l66.875,26.854l-26.526,61.079l16.353,7.102 l26.719-61.53l55.799,22.427c1.286,0.517,2.687,0.682,4.057,0.478l188.341-28.07l-13.601,36.344l14.608,5.466l15.57-41.602 l101.68,35.445l-9.22,53.582l15.374,2.646l9.089-52.82l152.715,6.472c0.111,0.005,0.221,0.007,0.332,0.007 c3.298,0,6.257-2.083,7.358-5.219l29.69-84.646l111.689,24.825l3.386-15.228l-104.335-23.19L-22.787,321.222z M-754.676,42.215 c0.036,0,0.073,0,0.107,0C-754.594,42.215-754.629,42.216-754.676,42.215z M-92.987,263.676 c0.525,0.269,1.077,0.486,1.645,0.649l77.014,22.213l-20.01,24.197l-34.911,37.278l-122.682-27.268l27.707-93.473 L-92.987,263.676z M-707.341,368.779l-0.384-108.136l50.072,0.199c0.011,0,0.02,0,0.032,0c1.819,0,3.848-0.076,5.201-1.162 c1.157-0.928,1.352-1.747,2.215-4.227l15.307-47.09l89.188,35.767l-0.409,39.969l-52.062,12.424 c-1.403,0.335-3.285,0.864-3.872,1.411c-1.006,0.865-1.692,2.459-2.235,3.709l-40.136,92.422L-707.341,368.779z M-574.442,422.193l-53.436-21.476l38.167-87.889l54.503-13.005c2.122-0.507,4.703-0.959,5.591-2.333 c1.068-1.463,0.971-2.788,1.254-6.247l0.421-41.456l66.479,5.767l74.488,71.044c0.461,0.44,0.973,0.822,1.528,1.137 l24.617,13.996l-18.852,51.435L-574.442,422.193z M-363.903,395.441l16.824-45.895l28.282,15.934 c1.184,0.674,2.095,0.563,4.368-0.021l63.617-17.713l-14.145,82.185L-363.903,395.441z M-104.798,439.566l-144.933-6.143 l15.542-90.306l31.526-8.778l125.025,27.789L-104.798,439.566z" clip-path="url(#f)"/></g></g><defs><path id="g" d="M0 0H480V390H0z"/></defs><clipPath id="h"><use xlink:href="#g" overflow="visible"/></clipPath><g clip-path="url(#h)"><path fill="#CEE2E3" d="M0 -4.875H480V390H0z"/><defs><path id="i" d="M0 -4.875H480V390H0z"/></defs><clipPath id="j"><use xlink:href="#i" overflow="visible"/></clipPath><path clip-path="url(#j)" fill="#92A7B0" d="M494.449,353.484c9.991-30.543-6.026-64.497-22.581-77.913 c-21.344-17.293-40.592-9.659-66.102-23.126c-21.426-11.311-36.191-14.885-55.032-13.459c-7.685,0.584-31.501,6.397-48.897,16.45 c-33.063,19.104-47.759,15.854-64.315,15.854c-16.555,0-71.073-3.996-86.202,45.67c-15.128,49.666,54.803,67.363,95.05,59.371 s66.986-13.068,92.482,0.285c25.497,13.354,64.509,21.693,93.909,19.41C446.877,394.93,483.021,388.413,494.449,353.484z"/><g clip-path="url(#j)"><defs><path id="k" d="M0 -4.875H480V390H0z"/></defs><clipPath id="l"><use xlink:href="#k" overflow="visible"/></clipPath><g clip-path="url(#l)" fill="#fff"><path d="M558.216,321.223c0.108-0.117,0.216-0.238,0.316-0.361l25.442-30.767l124.872-16.517l-2.424-18.337 l-124.448,16.462L495.639,246.8l-73.515-37.565l12.237-41.29c0.006-0.018,0.012-0.036,0.017-0.054l11.613-40.104 l102.183-84.498c1.228-1.024,1.637-1.647,2.184-2.672l63.516-119.009l-15.727-8.395L535.457,30.672l-102.943,85.126 c-2.57,2.11-1.999,1.919-2.883,4.391L417.263,162.9l-12.431,41.94l-107.073,1.687l0.292,18.493l101.273-1.595L370.609,320.3 l-27.087,7.543L293.75,227.462l-13.975,6.93l48.448,97.71l-62.711,17.461l-61.415-34.914l-59.697-56.936l13.207,1.146 c0.264,0.023,0.532,0.035,0.798,0.035c0.875,0,1.746-0.123,2.587-0.369l102.507-29.86l-5.174-17.759l-100.845,29.378 l-104.763-9.092l-147.032-58.964l-7.636-52.36L21.003,64.464l118.006,25.709c0.551,0.12,1.811,0.268,2.364,0.268 c1.51,0,2.297-0.527,3.58-1.37l45.342-29.795l57.228-8.093l3.7,67.897c0.023,0.429,0.081,0.856,0.176,1.275l16.715,74.883 l15.225-3.399l-16.574-74.252l-1.905-34.952l152.959-33.92c5.463-1.158,4.837-1.717,5.953-6.056l20.728-101.627l-15.284-3.117 L409.5,34.581L263.998,66.847l-5.994-109.993l-15.575,0.849l4.243,77.847l-60.292,8.525c-1.14,0.161-2.229,0.573-3.191,1.205 l-44.063,28.954L-39.987,35.213L-63.652-72.892l-15.239,3.337l22.534,102.933c-37.054-2.178-100.481-5.892-114.466-6.633 l-97.733-72.15l-9.263,12.549l99.618,73.545c2.028,1.568,2.247,1.486,3.869,1.514c3.793,0.133,92.275,5.29,126.731,7.315 l39.352,8.575l-105.612,47.589l-151.069-3.959l-0.468,17.821l145.264,3.807l8.286,56.814c0.238,1.63,0.577,4.12,1.315,4.895 c0.599,0.881,1.725,1.126,4.394,2.354l37.73,15.131l-13.872,42.678l-162.794-0.646l-0.063,15.599l102.814,0.406l0.402,113.505 c0.005,1.549,0.025,3.503,0.724,4.6c0.796,1.444,3.176,2.233,4.685,2.84l66.874,26.854l-26.527,61.08l16.353,7.102 l26.72-61.53l55.797,22.427c1.288,0.516,2.688,0.682,4.06,0.478l188.34-28.071l-13.601,36.344l14.61,5.468l15.567-41.603 l101.682,35.445l-9.22,53.582l15.373,2.646l9.089-52.82l152.716,6.471c0.112,0.006,0.222,0.007,0.333,0.007 c3.297,0,6.257-2.082,7.358-5.218l29.688-84.646l111.692,24.825l3.384-15.227l-104.335-23.191L558.216,321.223z M-173.675,42.214c0.037,0,0.071,0,0.107,0C-173.594,42.214-173.629,42.215-173.675,42.214z M488.014,263.675 c0.526,0.269,1.078,0.487,1.646,0.649l77.015,22.214l-20.009,24.196l-34.913,37.279l-122.681-27.269l27.705-93.472 L488.014,263.675z M-126.341,368.779l-0.382-108.136l50.071,0.199c0.01,0,0.021,0,0.03,0c1.82,0,3.849-0.077,5.202-1.162 c1.157-0.928,1.352-1.748,2.216-4.227l15.306-47.091l89.187,35.767l-0.407,39.97l-52.062,12.424 c-1.403,0.335-3.284,0.863-3.873,1.41c-1.003,0.866-1.693,2.46-2.234,3.71l-40.136,92.422L-126.341,368.779z M6.56,422.194 l-53.436-21.477l38.166-87.889l54.504-13.006c2.121-0.506,4.704-0.959,5.593-2.332c1.066-1.463,0.969-2.788,1.251-6.247 l0.423-41.457l66.478,5.768l74.487,71.044c0.462,0.44,0.975,0.821,1.528,1.136l24.618,13.996l-18.851,51.436L6.56,422.194z M217.1,395.441l16.823-45.895l28.281,15.934c1.186,0.674,2.098,0.564,4.368-0.02l63.618-17.715l-14.145,82.187L217.1,395.441 z M476.204,439.566l-144.932-6.142l15.54-90.307l31.527-8.778l125.025,27.789L476.204,439.566z"/><path d="M278.435,185.996c-14.645,0-26.519,11.873-26.519,26.519s11.874,26.518,26.519,26.518 c14.646,0,26.519-11.872,26.519-26.518S293.08,185.996,278.435,185.996z M278.435,222.987 c-5.785,0-10.475-4.688-10.475-10.473s4.689-10.475,10.475-10.475s10.473,4.69,10.473,10.475S284.22,222.987,278.435,222.987z"/></g></g><path clip-path="url(#j)" fill="#C8D3D8" d="M408.736,254.398c-1.309-0.598-2.631-1.244-3.973-1.953 c-4.339-2.29-8.4-4.258-12.282-5.937L370.609,320.3l-27.087,7.543l-37.325-75.28c-1.838,0.916-3.632,1.873-5.363,2.874 c-2.928,1.691-5.707,3.204-8.362,4.563l35.752,72.102l-62.711,17.461l-61.415-34.914l-31.195-29.753 c-4.14,2.895-8.015,6.398-11.453,10.634l32.576,31.069c0.462,0.44,0.975,0.821,1.528,1.136l24.618,13.996l-12.886,35.16 c5.408,0.77,10.846,1.189,16.149,1.268l10.487-28.611l28.281,15.934c1.186,0.674,2.098,0.564,4.368-0.02l63.618-17.715 l-4.13,23.996c3.988,1.233,7.904,2.84,11.79,4.875c0.961,0.502,1.945,0.999,2.943,1.488l6.02-34.987l31.527-8.778l112.813,25.074 c0.845-1.881,1.613-3.854,2.294-5.93c0.979-2.991,1.703-6.016,2.206-9.049l-106.581-23.69L408.736,254.398z"/><g clip-path="url(#j)"><path fill="#FC6124" d="M351.286,190.163c-14.312,0-25.915,11.604-25.915,25.915c0,2.569,0.269,5.423,0.964,7.765 c2.75,10.159,10.089,19.678,14.285,27.288c5.228,9.48,9.135,18.931,9.339,19.403c0.201,0.473,0.594,1.344,1.327,1.329h0.053 c0.735,0.015,1.126-0.856,1.33-1.329c0.202-0.473,4.107-9.923,9.334-19.403c4.199-7.61,11.538-17.129,14.287-27.288 c0.696-2.342,0.965-5.195,0.965-7.765c0-14.312-11.604-25.915-25.916-25.915"/><circle fill="#FD844A" cx="351.286" cy="216.434" r="15.373"/></g><path clip-path="url(#j)" fill="#FEC2A8" d="M295.148,213.533c0,0,0,6.886-5.192,14.562 c-5.192,7.674-9.706,10.609-9.706,10.609l-21.445-5.87c0,0,3.792-16.715,5.034-22.697c0,0-3.343-4.567-5.487-8.453 c-3.934-7.137-7.785-13.657-6.433-18.059c1.356-4.402,6.998-4.515,8.579-2.596c1.58,1.918,9.367,17.719,9.367,17.719 L295.148,213.533z"/><path clip-path="url(#j)" fill="#707E84" d="M293.68,206.74l-0.011,0.008l0.664-17.304l0.617-16.055l0.177-4.609 c0,0,0.232-4.244-0.939-6.108c-0.641-1.021-2.236-3.921-7.634-4.587c-2.58-0.317-14.083,0.796-16.674,1 c-2.92,0.231-4.418,1.801-5.127,2.777c-1.056,1.456-1.052,5.712-1.052,5.712l-0.177,4.61l-0.616,16.052L293.68,206.74z"/><g clip-path="url(#j)"><path fill="#85929A" d="M290.441,209.531l0.175-4.548l-0.011,0.007l0.664-17.305l0.617-16.053l0.177-4.61 c0,0,0.331-4.242-0.612-5.775c-0.629-1.027-2.005-2.709-4.897-3.162c-2.568-0.402-7.353-0.601-9.855-0.691 c-2.505-0.101-7.292-0.271-9.883-0.067c-2.919,0.232-4.417,1.803-5.127,2.779c-1.054,1.456-1.052,5.71-1.052,5.71l-0.177,4.611 l-0.616,16.053l-0.76,19.79l0.005,0.004l-0.077,2.052c0,0-0.306,3.102,0.523,4.782c0.772,1.568,2.38,3.107,5.564,3.666 c1.96,0.343,4.651,0.549,6.974,0.675l-0.015,0.007c0.375,0.016,1.227,0.059,2.337,0.1c1.111,0.043,1.962,0.066,2.334,0.082 l-0.011-0.01c2.326,0.053,5.022,0.053,7.003-0.139c3.22-0.314,4.939-1.724,5.829-3.229 C290.507,212.646,290.441,209.531,290.441,209.531z"/><path fill="#fff" d="M263.646,166.403c0.004-0.136,0.117-0.243,0.252-0.238l24.904,0.956 c0.136,0.005,0.238,0.121,0.233,0.257l-1.457,37.964c-0.006,0.137-0.118,0.243-0.253,0.238l-24.906-0.956 c-0.133-0.005-0.237-0.119-0.231-0.257L263.646,166.403z"/><ellipse transform="matrix(.999 .038 -.038 .999 8.231 -10.292)" fill="#707E84" cx="274.206" cy="210.854" rx="2.641" ry="2.685"/></g><g clip-path="url(#j)" fill="#053649"><path d="M283.919,280.065c0,2.674,0,7.243-0.059,9.08c-0.062,1.839-0.12,3.678,1.917,3.845 c2.396,0.196,2.756-2.451,2.756-3.845c0-1.465,0.104-8.739,0.06-10.807c-0.06-2.787,0.123-4.848-2.277-4.848 C283.439,273.491,283.919,277.391,283.919,280.065z"/><path d="M414.424,273.352c-0.36,0.087-1.113,0.179-1.615,1.445c-0.505,1.267-0.188,4.058-0.23,5.601 c-0.02,0.684,0,5.419,0,8.213c0,1.921-0.295,3.286,0.983,3.959c1.281,0.673,2.425,0.209,2.938-0.278 c0.798-0.75,0.819-2.611,0.776-4.313c-0.042-1.702-0.062-8.767,0-10.192C417.341,276.36,417.507,272.6,414.424,273.352z"/><path d="M287.518 280.652H413.46099999999996V285.92699999999996H287.518z"/></g><path clip-path="url(#j)" fill="#FEC2A8" d="M143.727,155.764c0,0-2.345,38.325,14.56,51.849 c5.198,4.159,9.397,7.453,23.77,8.021c13.146,0.521,24.686-7.562,31.049-17.901c11.292-18.348,8.952-43.417,8.952-43.417 l-0.113-18.719l-60.614-16.379L143.727,155.764z"/><path clip-path="url(#j)" fill="#FEC2A8" d="M167.098,209.216c0,0-0.42,4.931-1.434,8.633l22.618,4.284 c0,0,0.369-3.864,0.911-7.766L167.098,209.216z"/><g clip-path="url(#j)" fill="#FEC2A8"><path d="M84.658,327.339c0.508,2.896-3.823,18.178-5.227,24.791c-1.404,6.614-8.019,12.089-16.262,19.297 c-1.328,1.16-7.874,7.127-10.864,5.257c-2.944-1.842-1.729-5.544,0.546-7.967c1.932-2.061,9.854-9.512,12.41-12.827 c2.554-3.314-11.877-10.736-11.877-10.736c1.034-15.831,12.602-27.021,12.602-27.021"/><path d="M56.829,350.72c0,0-7.39,6.039-10.012,8.253c-3.511,2.965-3.902,6.759-1.871,8.378 c1.772,1.413,3.943,0.882,8.023-1.655c3.986-2.478,10.233-7.02,13.554-9.282c3.32-2.263-3.319-9.418-3.319-9.418L56.829,350.72z"/><path d="M54.9,342.644c0,0-8.171,2.508-10.992,3.247c-3.64,0.955-5.436,3.847-3.615,6.516 c1.818,2.67,6.749,1.79,9.572,1.247s11.738-2.993,11.738-2.993l1.217-3.737L54.9,342.644z"/></g><path clip-path="url(#j)" fill="#1C2124" d="M170.653,160.258c-0.846,0.354-2.042,1.412-1.819,3.937 c0.223,2.526,1.604,3.006,3.014,3.08c1.411,0.075,2.562-0.892,2.859-1.819c0.298-0.929,0.624-3.774-0.705-4.866 C172.962,159.734,171.098,160.072,170.653,160.258z"/><path clip-path="url(#j)" fill="#0A2D3B" d="M114.87,362.003c0,0-1.004,20.837,0,41.896l88.192-0.432 c0,0-0.182-35.719,0.306-41.764L114.87,362.003z"/><path clip-path="url(#j)" fill="#F8503B" d="M123.818,242.598l29.269-24.958l51.951,17.058l7.292,22.494l-3.756,11.775 c-7.576,32.09-4.456,95.563-4.456,98.683c0,2.508,0.023,4.622,0.032,5.942c0.001,0.32,0.079,1.003-0.562,1.172 c-3.359,0.889-20.99,1.845-46.49,1.613c-24.512-0.223-39.235-2.308-42.318-2.679c-1.34-0.163-2.675,0.036-2.675-2.563 c0-5.184-0.271-17.326-0.093-30.658c0.51-38.03,7.862-71.203,7.862-71.203L123.818,242.598z"/><g clip-path="url(#j)"><defs><path id="m" d="M123.818,242.598l29.269-24.958l46.779,21.722l-2.436,28.046l-11.586,35.878 c1.56,8.913,18.273,61.244,18.273,64.364c0,2.508,0.023,4.622,0.032,5.942c0.001,0.32,0.079,1.003-0.562,1.172 c-3.359,0.889-20.99,1.845-46.49,1.613c-24.512-0.223-39.235-2.308-42.318-2.679c-1.34-0.163-2.675,0.036-2.675-2.563 c0-5.184-0.271-17.326-0.093-30.658c0.51-38.03,7.862-71.203,7.862-71.203L123.818,242.598z"/></defs><clipPath id="n"><use xlink:href="#m" overflow="visible"/></clipPath><path clip-path="url(#n)" fill="#EA4935" d="M125.167,254.284l8.205,1.261c0,0-7.798,36.167-7.481,79.075 c0.315,42.908,2.172,58.97,2.172,58.97l-16.741-15.021l-0.287-100.921L125.167,254.284z"/></g><path clip-path="url(#j)" d="M157.321,375.782"/><path clip-path="url(#j)" fill="#F8503B" d="M155.188,216.681c0,0-27.626-0.49-58.556,31.421 c-22.895,23.619-35.227,65.346-35.938,69.976c-0.274,1.784-0.056,2.138,0.377,2.771c0.217,0.319,3.716,4.661,8.699,6.959 c7.067,3.26,13.09,3.497,14.098,3.532c1.764,0.063,1.533-0.289,3.086-4.646c6.226-17.481,17.985-49.303,48.016-67.992"/><path clip-path="url(#j)" fill="#FEC2A8" d="M185.472,241.356c-19.65,5.912-32.251-5.823-32.609-24.295 c0,0,7.112-2.778,22.367-0.72c14.799,1.997,22.722,8.293,22.722,8.293S190.864,239.733,185.472,241.356z"/><path clip-path="url(#j)" fill="#1C2124" d="M165.156,191.307c-0.713-1.065-1.82-3.082-3.416-2.005 c-1.871,1.262,0.52,4.642,1.336,5.757c0.818,1.114,5.313,7.983,16.268,9.136c10.862,1.142,16.082-2.942,16.713-3.417 c0.742-0.557,1.448-2.043,0.333-2.859c-0.91-0.668-1.879-0.255-2.86,0.446c-1.3,0.928-6.945,2.859-12.441,2.452 C174.533,200.328,169.317,197.509,165.156,191.307z"/><path clip-path="url(#j)" fill="#1C2124" d="M202.668,164.454c-0.629-0.092-2.229-0.073-3.083,1.783 c-1.002,2.18-0.772,4.144,1.115,4.939c1.671,0.706,3.121-0.407,3.641-1.227C204.86,169.134,206.234,164.975,202.668,164.454z"/><path clip-path="url(#j)" fill="#1C2124" d="M164.817,146.948c2.041-1.063,3.828-1.92,6.737-2.211 c2.908-0.288,4.376,0.316,4.743,0.606s0.838,1.314,0.366,2.025c-0.463,0.698-0.707,0.814-1.572,0.921 c-0.865,0.104-4.534-0.02-7.154,1.427c-2.622,1.448-3.328,2.123-4.665,2.019C161.937,151.63,160.888,148.999,164.817,146.948z"/><path clip-path="url(#j)" fill="#1C2124" d="M203.053,147.385c1.866,0.594,3.799,1.703,5.241,2.987 c1.44,1.284,2.069,2.201,1.992,3.197c-0.079,0.996-0.629,1.441-1.284,1.521c-0.655,0.078-1.337-0.263-1.835-0.918 c-0.496-0.654-2.961-2.699-5.478-3.407c-2.514-0.708-3.746-0.473-4.269-1.52c-0.525-1.048-0.188-1.926,0.891-2.306 C199.646,146.468,201.9,147.019,203.053,147.385z"/><path clip-path="url(#j)" fill="#D49074" d="M185.591,166.655c-0.017,1.755,0.279,7.66,0.394,10.334 c0.109,2.674,0.084,2.901-0.363,3.12c-1.255,0.613-3.122,0.222-3.957,0.835c-0.527,0.387-1.171,1.673-0.53,2.786 c0.739,1.284,3.511,0.752,4.514,0.641c1.001-0.112,3.871-0.307,4.317-2.367c0.445-2.063,0.166-6.072,0.11-8.357 c-0.055-2.284-0.293-9.055-0.361-9.943c-0.139-1.812-1.509-2.741-2.813-2.258C184.953,162.171,185.612,164.864,185.591,166.655z"/><path clip-path="url(#j)" fill="#F7503C" d="M199.436,225.514c0,0,6.421,2.674,12.629,13.221 c6.907,11.736,17.827,16.715,28.078,11.068c10.25-5.645,13.467-16.258,14.261-18.198c1.467-3.585,1.856-5.398,3.417-5.349 c2.378,0.074,10.027,2.452,15.747,4.828c5.721,2.377,9.51,4.456,9.51,4.456s1.953,0.589,0.964,2.824 c-3.417,7.725-8.407,29.688-28.821,42.934c-19.462,12.627-44.715,8.542-54.521-5.496"/><path clip-path="url(#j)" fill="#E0412E" d="M203.105,228.226c0.399-1.045-0.225-1.366-0.425-1.524 c-0.202-0.157-3.211-2.134-4.461-2.855c-1.252-0.722-1.435,0.561-1.435,0.561s-5.215,19.139-23.734,14.784 c-16.667-3.919-15.484-22.779-15.484-22.779s0.102-1.209-1.098-1.079c-1.435,0.156-4.98,0.805-5.227,0.871 c-0.245,0.065-0.974,0.132-0.99,1.232c0,0-0.564,24.546,22.307,29.458C196.026,251.934,203.105,228.226,203.105,228.226z"/><path clip-path="url(#j)" fill="#1C2124" d="M215.325,118.076c0.116-0.076,5.507,0.27,8.042-4.271 c2.386-4.272,1.927-5.813,2.349-6.196c0.423-0.386,0.962,0.076,1.808,1.847c0.848,1.77,4.041,7.62,2.118,14.894 c-1.76,6.653-4.081,7.388-4.081,7.388L215.325,118.076z"/><path clip-path="url(#j)" fill="#1C2124" d="M220.421,143.259c0,0,6.445-1.454,10.26-7.272 c2.424-3.7,1.884-7.779,1.61-7.898c-0.171-0.076-0.938,0.557-2.892,1.156c-1.552,0.477-3.748,0.748-6.03,0.216"/><path clip-path="url(#j)" fill="#1C2124" d="M211.322,134.594c0,0,9.88,9.359,7.056,31.866l2.6,0.445 c0,0,7.058-16.639,2.377-28.598C220.463,130.919,210.578,134.988,211.322,134.594z"/><path clip-path="url(#j)" fill="#1C2124" d="M229.744,136.988c-6.591,7.407-16.936,11.254-38.663,5.07 c-18.743-5.334-30.809-17.826-30.809-17.826l-9.317-1.318c0,0-0.595-11.72,8.817-18.638c7.626-5.604,16.851-4.567,20.982-3.46 c8.538,2.288,15.68,12.891,28.782,8.6c1.354-0.443,3.392-1.681,4.96-4.872c0.7-1.43,0.536-2.144,0.949-2.258 c0.503-0.138,1.388,0.781,1.715,1.216c0.597,0.793,5.402,7.863,2.32,16.455"/><path clip-path="url(#j)" fill="#1C2124" d="M154.72,115.652c-0.143,0.047-9.235,1.48-12.554,12.479 c-4.011,13.295-0.224,30.312,0,31.42c0.226,1.109,1.858,1.04,1.858,1.04l6.017,0.371c0,0,2.673-1.263,7.28-11.364 c3.914-8.59,5.82-22.317,6.015-25.774C163.533,120.365,154.72,115.652,154.72,115.652z"/><path clip-path="url(#j)" fill="#FEC2A8" d="M217.447,165.076c0,0,5.749-1.089,9.085,1.148 c3.717,2.494,4.214,8.495,2.596,12.44c-3.158,7.718-12.132,5.675-11.029,6.317"/><path clip-path="url(#j)" fill="#FEC2A8" d="M158.582,168.317c0,0-4.814-6.008-8.466-8.915 c-3.369-2.679-8.238-2.815-10.837-1.626c-4.276,1.956-6.214,7.647-4.178,14.139c2.334,7.447,13.472,6.902,13.746,6.318"/><path clip-path="url(#j)" fill="#FEC2A8" d="M297.986,185.671c0,0-10.001-1.073-13.772-0.147 c-2.677,0.659-5.144,2.364-4.343,6.935c0.8,4.571,6.848,5.092,7.068,4.979c0.219-0.112,14.713,0.856,14.713,0.856 s2.998-1.692,3.069-5.928C304.787,188.514,302.943,186.174,297.986,185.671z"/><path clip-path="url(#j)" fill="#FEC2A8" d="M282.067,197.059c0,0-3.244,1.013-3.262,4.576 c-0.021,3.732,3.174,6.214,6.825,6.332c3.65,0.117,14.973-0.466,14.973-0.466s2.473-2.181,2.355-5.776 c-0.116-3.521-1.99-5.834-6.579-5.712C293.552,196.088,282.067,197.059,282.067,197.059z"/><path clip-path="url(#j)" fill="#FEC2A8" d="M283.801,207.306c0,0-3.605,1.716-2.664,5.833 c0.751,3.286,3.762,5.389,7.183,5.361c0,0,9.986,0.369,12.526-3.024c2.188-2.924,1.378-7.896-2.44-9.247 C294.587,204.876,283.801,207.306,283.801,207.306z"/><path clip-path="url(#j)" fill="#F8503B" d="M284.321,275.151"/></g></svg>