<svg xmlns="http://www.w3.org/2000/svg" xmlns:xlink="http://www.w3.org/1999/xlink" width="480" height="390" viewBox="0 0 480 390"><defs><path id="a" d="M-580 -0.187H-100V389.813H-580z"/></defs><clipPath id="b"><use xlink:href="#a" overflow="visible"/></clipPath><g clip-path="url(#b)"><defs><path id="c" d="M-580 -5.062H-100V389.813H-580z"/></defs><clipPath id="d"><use xlink:href="#c" overflow="visible"/></clipPath><g clip-path="url(#d)"><defs><path id="e" d="M-580 -5.062H-100V389.813H-580z"/></defs><clipPath id="f"><use xlink:href="#e" overflow="visible"/></clipPath><path fill="#fff" d="M-21.784,321.036c0.108-0.117,0.216-0.238,0.316-0.361l25.442-30.767l124.872-16.517l-2.424-18.337 L1.975,271.517l-86.336-24.903l-73.515-37.565l12.237-41.29c0.006-0.018,0.012-0.036,0.017-0.054l11.613-40.104 l102.183-84.498c1.228-1.024,1.637-1.647,2.184-2.672L33.873-78.578l-15.727-8.395L-44.543,30.485l-102.943,85.126 c-2.57,2.11-1.999,1.919-2.883,4.391l-12.368,42.712l-12.431,41.94l-107.073,1.687l0.292,18.493l101.273-1.595l-28.715,96.874 l-27.087,7.543l-49.772-100.381l-13.975,6.93l48.448,97.71l-62.711,17.461l-61.415-34.914l-59.697-56.936l13.207,1.146 c0.264,0.023,0.532,0.035,0.798,0.035c0.875,0,1.746-0.123,2.587-0.369l102.507-29.86l-5.174-17.759l-100.845,29.378 l-104.763-9.092l-147.032-58.964l-7.636-52.36l122.953-55.403l118.006,25.709c0.551,0.12,1.811,0.268,2.364,0.268 c1.51,0,2.297-0.527,3.58-1.37l45.342-29.795l57.228-8.093l3.7,67.897c0.023,0.429,0.081,0.856,0.176,1.275l16.715,74.883 l15.225-3.399l-16.574-74.252l-1.905-34.952l152.959-33.92c5.463-1.158,4.837-1.717,5.953-6.056l20.728-101.627l-15.284-3.117 L-170.5,34.395L-316.002,66.66l-5.994-109.993l-15.575,0.849l4.243,77.847l-60.292,8.525c-1.14,0.161-2.229,0.573-3.191,1.205 l-44.063,28.954l-179.113-39.021l-23.666-108.104l-15.239,3.337l22.534,102.933c-37.054-2.178-100.481-5.892-114.466-6.633 l-97.733-72.15l-9.263,12.549l99.618,73.545c2.028,1.568,2.247,1.486,3.869,1.514c3.793,0.133,92.275,5.29,126.731,7.315 l39.352,8.575l-105.612,47.589l-151.069-3.959l-0.468,17.821l145.264,3.807l8.286,56.814c0.238,1.63,0.577,4.12,1.315,4.895 c0.599,0.881,1.725,1.126,4.394,2.354l37.73,15.131l-13.872,42.678l-162.794-0.646l-0.063,15.599l102.814,0.406l0.402,113.505 c0.005,1.549,0.025,3.503,0.724,4.6c0.796,1.444,3.176,2.233,4.685,2.84l66.874,26.854l-26.527,61.08l16.353,7.102 l26.72-61.53l55.797,22.427c1.288,0.516,2.688,0.682,4.06,0.478l188.34-28.071l-13.601,36.344l14.61,5.468l15.567-41.603 l101.682,35.445l-9.22,53.582l15.373,2.646l9.089-52.82l152.716,6.471c0.112,0.006,0.222,0.007,0.333,0.007 c3.297,0,6.257-2.082,7.358-5.218l29.688-84.646l111.692,24.825l3.384-15.227l-104.335-23.191L-21.784,321.036z M-753.675,42.027c0.037,0,0.071,0,0.107,0C-753.594,42.027-753.629,42.028-753.675,42.027z M-91.986,263.488 c0.526,0.269,1.078,0.487,1.646,0.649l77.015,22.214l-20.009,24.196l-34.913,37.279l-122.681-27.269l27.705-93.472 L-91.986,263.488z M-706.341,368.593l-0.382-108.136l50.071,0.199c0.01,0,0.021,0,0.03,0c1.82,0,3.849-0.077,5.202-1.162 c1.157-0.928,1.352-1.748,2.216-4.227l15.306-47.091l89.187,35.767l-0.407,39.97l-52.062,12.424 c-1.403,0.335-3.284,0.863-3.873,1.41c-1.003,0.866-1.693,2.46-2.234,3.71l-40.136,92.422L-706.341,368.593z M-573.44,422.008 l-53.436-21.477l38.166-87.889l54.504-13.006c2.121-0.506,4.704-0.959,5.593-2.332c1.066-1.463,0.969-2.788,1.251-6.247 l0.423-41.457l66.478,5.768l74.487,71.044c0.462,0.44,0.975,0.821,1.528,1.136l24.618,13.996l-18.851,51.436L-573.44,422.008z M-362.9,395.255l16.823-45.895l28.281,15.934c1.186,0.674,2.098,0.564,4.368-0.02l63.618-17.715l-14.145,82.187 L-362.9,395.255z M-103.796,439.38l-144.932-6.142l15.54-90.307l31.527-8.778l125.025,27.789L-103.796,439.38z" clip-path="url(#f)"/></g></g><defs><path id="g" d="M0 -0.187H480V389.813H0z"/></defs><clipPath id="h"><use xlink:href="#g" overflow="visible"/></clipPath><g clip-path="url(#h)"><path fill="#CEE2E3" d="M0 -5.672H480V389.813H0z"/><defs><path id="i" d="M0 -5.672H480V389.813H0z"/></defs><clipPath id="j"><use xlink:href="#i" overflow="visible"/></clipPath><g clip-path="url(#j)"><defs><path id="k" d="M-17.832 -3.599H492.473V418.671H-17.832z"/></defs><clipPath id="l"><use xlink:href="#k" overflow="visible"/></clipPath><ellipse fill="#C7DBDC" cx="99.876" cy="278.358" rx="78.994" ry="79.118" clip-path="url(#l)"/><ellipse fill="#C7DBDC" cx="380.498" cy="278.358" rx="78.994" ry="79.118" clip-path="url(#l)"/><ellipse clip-path="url(#l)" fill="#6B8792" cx="239.841" cy="471.566" rx="257.673" ry="185.692"/></g><g clip-path="url(#j)"><defs><path id="m" d="M239.84,285.874c-116.807,0-215.46,56.011-247.064,132.797h494.134 C455.303,341.885,356.649,285.874,239.84,285.874z"/></defs><clipPath id="n"><use xlink:href="#m" overflow="visible"/></clipPath><g clip-path="url(#n)" fill="#486B79"><path d="M134.033,339.5c-0.149-2.68-1.337-3.05-3.938-3.347c-2.598-0.299-5.123,0.221-7.873-0.448 c-2.748-0.669-1.038-1.19,1.709-2.753c2.749-1.562,11.736-2.976,17.755-3.942c6.015-0.967,9.729-1.935,11.513-2.604 s2.599-1.487,6.98-3.05c4.386-1.563,7.727-4.314,8.172-5.282s1.783-3.125,2.227-3.794c0.447-0.671-0.146-1.786-1.112-2.456 c-0.966-0.669-2.303-1.786-3.639-2.826c-1.338-1.042-4.235-2.232-7.205-3.422c-2.973-1.19-1.709-3.051-1.19-4.837 c0.52-1.786,3.269-3.124,4.829-4.538s1.561-2.752,2.524-4.018c0.968-1.265,2.006-1.859,2.006-1.859l-63.063-22.021 l-79.332,31.916c0,0-9.805,43.595-9.508,43.223c0.299-0.37-32.608,59.666-32.608,59.666s7.354,2.232,8.467,1.489 c1.116-0.745,7.579-7.515,12.702-9.97c5.126-2.456,7.354-1.042,9.211-0.447c1.856,0.597,1.108,6.022-0.074,8.26 c-5.75,10.87-7.777,16.716-7.777,16.716s24.476,1.353,24.047-0.346c-1.683-6.641,0.071-10.048,1.632-11.685 c1.561-1.636,4.16-3.57,4.978-4.612c0.817-1.043,2.08-4.167,2.6-5.879c0.521-1.71-0.52-2.603,4.829-3.792 c5.348-1.191,6.387,0.298,9.656,2.009c3.269,1.711,1.411,7.068,1.188,8.332c-0.223,1.265,0.519,1.711,2.302,1.486 c1.783-0.222,2.6-1.486,4.086-2.825c1.487-1.34,1.635-4.017,2.748-5.061c1.113-1.041,5.349-1.114,6.907-2.082 c1.561-0.967,2.603-3.125,3.342-4.836c0.745-1.712,2.675-4.166,4.012-5.506c1.339-1.339,5.199-3.199,6.536-4.909 c1.341-1.712,10.401-7.959,13.521-10.044c3.119-2.083,2.525-5.059,3.194-6.621c0.668-1.563,2.674-2.604,4.902-3.57 c2.229-0.968,11.438-4.314,12.405-4.911c0.965-0.595,2.822-2.009,4.085-3.942c1.264-1.935,3.269-3.273,4.678-4.017 C126.455,346.345,134.184,342.179,134.033,339.5z"/><path d="M178.38,328.192c0,0-3.195-0.448-5.35,0.146c-2.155,0.596-3.118-0.741-4.458-0.667 c-1.335,0.072-5.569,0.072-8.317,0.967c-2.749,0.893-3.789,1.933-5.497,2.454c-1.709,0.521-4.234,1.636-5.569,3.124 c-1.339,1.488-2.118,2.381-0.373,4.688c2.079,2.752,9.73,5.803,18.124,5.132c6.984-0.556,6.611-4.165,9.136-6.175 c2.527-2.008,6.391-3.646,6.465-5.208C182.613,331.093,181.128,328.489,178.38,328.192z"/><path d="M150.746,344.931c-4.159-0.744-3.199-0.57-4.827-0.967c-3.047-0.744-3.938,0.148-6.687,3.348 c0,0-1.931,2.157-4.754,3.422c-2.821,1.264-5.041,3.979-5.942,5.951c-1.188,2.604,2.674,3.942,6.092,2.753 c3.417-1.19,4.159-2.827,7.503-3.57c3.341-0.744,8.764-1.487,10.249-3.721C153.867,349.914,154.908,345.674,150.746,344.931z"/><path d="M345.385,391.517c0.711-0.517,2.356-4.848-3.225-3.651c-0.68,0.146-3.065,0.873-4.324,1.261 c-1.259,0.389-2.388,0.904-3.548,2.1c-1.163,1.196-1.971,2.391-1.132,3.974c0.84,1.585,5.421,3.232,8.455,0.229 C344.645,392.422,344.677,392.034,345.385,391.517z"/><path d="M476.008,255.654H325.381c0,0,0,29.906,0,29.811c0-0.098-0.483,5.232-0.031,6.979 c0.453,1.745,0.741,1.905,3.033,2.972c2.291,1.066,4.84,5.074,4.71,6.27c-0.129,1.195,0.549,5.105,0.259,6.432 c-0.291,1.324-2.872,2.196-3.904,2.65c-1.031,0.45-2.194,1.518-2.969,2.098c-0.773,0.583-0.548,1.035,0.646,2.391 c1.194,1.357,1.098,2.361,0.516,4.332c-0.58,1.971-2.387,3.394-2.774,6.011c-0.386,2.615,1.775,2.713,3.163,2.488 c1.386-0.227,2.773-0.646,3.547-0.582c0.775,0.064,0.713-0.032,2.002-0.55c1.291-0.518,1.161,0,2.774,0.452 c1.613,0.453,3.483,1.681,4.615,4.911c1.129,3.231,3.933,4.687,4.256,4.814c0.324,0.13,0.551,0.13-0.03,1.101 c-0.581,0.97-0.936,1.454-2.26,1.97c-1.559,0.609-4.483,0.939-7.452,0.745s-4.744,0.096-5.354,0.354 c-0.614,0.258-2.098,0.39-4.323,1.26c-2.227,0.872-2.552,1.423-3.003,2.423c-0.451,1.002-0.257,2.263,0.518,3.361 c1.136,1.614,3.613,4.266,4.29,5.3c0.678,1.034,0.968,2.003,1.711,5.331c0.741,3.328,2.484,4.492,3.838,4.912 c1.354,0.421,3.552,1.615,5.293,2.716c1.74,1.098,5.42,5.233,7.711,6.591c2.293,1.356,2.742,0.614,4.195-0.097 c1.451-0.711,2.838-2.198,3.902-3.49c1.063-1.293,1.839-1.938,4.486-3.004c2.644-1.067,3.645-1.908,4.322-3.395 c0.677-1.485,0.321-1.874-0.033-4.686c-0.353-2.811-3.032-9.823-3.226-10.985c-0.194-1.164,1.032-2.392,1.58-3.879 c0.549-1.486,0.419-3.037,0.29-4.62c-0.129-1.584,1.163-2.78,1.551-3.748c0.386-0.971,0.129-1.358,0-2.747 c-0.131-1.39,0.225-1.648,1.064-2.004c0.837-0.355,0.937,0.098,2.031,0.614c1.098,0.516,4.421,3.845,6.13,4.686 c1.711,0.84,3.97,2.294,8.294,2.552c4.322,0.259,4.742,2.295,5.935,3.911c1.193,1.615,2.001,4.299,2.743,4.395 c0.744,0.097,1.87,0,2.097-1.777c0.226-1.777-0.612-4.652-0.806-6.528c-0.192-1.872,1.161-2.81,1.259-3.133 c0.096-0.323,0.192-0.583-0.355-1.681c-0.549-1.1-3.033-0.872-3.84-0.841c-0.808,0.032-2.355,0.775-3.872-0.903 c-1.517-1.683-2.611-1.035-2.936-2.134c-0.322-1.1-1.162-2.878-0.807-3.555c0.354-0.68,0.938-0.356,2.291-0.419 c1.354-0.066,1.354-0.032,2.774,1.484c1.421,1.52,4.55,1.262,5.904,1.262c1.356,0,1.516,0.258,3.227,0.809 c1.711,0.549,4.194,1.518,3.936,3.488c-0.257,1.973,0.484,3.781,1.354,4.686c0.874,0.905,1.809,2.842,2.841,2.973 c1.033,0.13,2.484-0.774,2.871-1.389c0.386-0.614,1.773-1.131,2.42-1.972c0.646-0.839-0.066-2.65,0.195-3.75 c0.256-1.097,2.224-0.483,2.87-1.001c0.644-0.516,0-2.067-0.646-2.616c-0.645-0.549-1.258,0.259-2.517-2.812 c-1.258-3.069-2.097-4.04-3.42-5.332c-1.322-1.293-4.936-3.425-6.905-5.654c-1.967-2.232-2.096-1.972-1.967-3.134 c0.128-1.163,1.709-1.553,1.709-1.553c0.679-0.064,1.421-0.064,3.356,0.227c1.937,0.29,7.066,4.783,8.743,6.333 c1.679,1.553,4.484,2.07,9.97,5.269s5.647,8.466,6.195,11.147c0.548,2.684-0.71,7.173-0.517,7.981 c0.193,0.808,0.774,1.163,1.871,2.811c1.097,1.648,2.131,6.528,1.646,6.591c-0.485,0.066-1.388-0.192-4.871-0.773 c-3.486-0.581-4.647-0.29-6.486,0.937c-1.841,1.229-2.323,3.78-2.293,4.59c0.033,0.809,1.293,1.712,2.713,3.845 c1.419,2.132-0.451,4.07-1.195,4.137c-0.742,0.064-1.71,0.257-3.322,0.581c-1.613,0.322-4.064,0.519-5.163,0.13 c-1.097-0.389-2.58-0.938-4.839-1.52s-4.161-0.355-4.161-0.355c-0.678-0.388-2.614-3.457-3.938-6.495 c-1.321-3.038-1.935-2.877-2.547-2.585c-0.615,0.29-2.227,1.163-5.938,1.745c-3.709,0.581-6.42,0.323-9.227,1.422 s-3.744,4.686-5.452,6.722c-1.71,2.035-3.551,1.745-5.293,2.357c-1.741,0.614-1.419,1.454-1.612,3.621 c-0.193,2.164-1.97,4.426-4.389,6.623c-2.42,2.198-5.291,5.525-6.709,7.174c-1.421,1.648-2.034,6.884-2.745,9.113 c-0.709,2.229-2.774,3.908-5.902,7.431c-3.13,3.523-2.774,5.333-2.937,7.854c-0.16,2.52-2.067,9.66-4.141,10.825 c0,0,133.653,0.349,138.031,0.72C472.703,417.891,476.008,255.654,476.008,255.654z"/><path d="M370.875,346.71c0.955,0.693,2.092,1.041,3.183,0.787c1.095-0.255,1.503-1.576,0.659-3.011 c-0.842-1.436-3.279-5.086-4.364-5.904c-1.387-1.041-3.39-2.385-4.55,0.255c-0.363,0.828-0.41,1.828,0.979,3.683 C368.171,344.37,369.92,346.014,370.875,346.71z"/><path d="M323.193,296.961c-0.033-1.408-1.095-3.532-2.367-4.33c-1.337-0.839-3.385-0.101-4.152,0.514 c-1.545,1.24-2.16,1.136-4.358,1.445c-2.198,0.309-5.867-0.378-7.275-0.858c-1.406-0.483-3.603-0.346-4.767-0.311 c-1.168,0.034-3.502,0.172-4.635-0.205c-1.13-0.379-4.152-0.379-5.524,0.103c-1.046,0.367-2.606,0.79-3.294,2.405 c-0.687,1.615-1.818,4.881,0.856,6.05c2.678,1.168,4.842-0.173,6.521-0.587c1.682-0.411,5.012-1.718,7.172-1.271 c2.162,0.449,5.182,0.826,6.145,3.714c0.958,2.886,1.578,5.429,4.287,6.565c2.713,1.132,3.192,1.166,4.565,0.376 c1.372-0.79,2.882-3.951,4.493-5.602C322.472,303.319,323.245,299.092,323.193,296.961z"/><path d="M291.795,304.178c-1.481,0.153-2.127,0.104-3.26,1.547c-1.13,1.444-1.646,3.403-0.514,5.188 c1.281,2.021,2.266,1.065,4.084,1.375c1.818,0.311,2.435,1.685,4.7,1.754c1.304,0.038,2.986-1.1,2.814-3.403 C299.446,308.338,296.771,303.661,291.795,304.178z"/></g></g><g clip-path="url(#j)"><path fill="#FEC2A8" d="M226.459,211.571c0,0,0.331,4.946-0.113,8.766l23.286,0.813c0,0-0.225-3.88-0.278-7.824L226.459,211.571 z"/><path fill="#FEC2A8" d="M205.088,176.709c0,0-0.217,8.721,3.594,17.7c4.267,10.056,13.94,20.838,32.697,20.92 c16.11,0.072,24.979-7.249,30.033-15.135c8.024-12.522,5.649-28.964,5.649-28.964l-8.692-40.246l-53.259-3.63l-11.823,23.8 L205.088,176.709z"/><path fill="#FEC2A8" d="M252.418,239.525c-17.901,8.481-31.614-0.922-34.615-18.522c0,0,5.499-3.195,20.354-3.424 c14.41-0.223,23.769,4.166,23.769,4.166S257.33,237.199,252.418,239.525z"/><path fill="#1C2124" d="M199.214,123.47c0,0-12.032,3.122-5.273,26.855c4.08,14.324,7.534,18.295,7.534,18.295 s6.398-1.131,6.55-1.159c0,0-4.188-23.274,4.528-32.868"/><path fill="#1C2124" d="M263.468,130.165c0,0,6.091,7.29,8.988,26.634l2.896-0.224c0,0,1.486-21.203-5.05-31.173 C265.088,117.452,263.468,130.165,263.468,130.165z"/><path fill="#1C2124" d="M263.207,105.242c2.45-8.891-0.52-12.722-1.225-13.688c-0.219-0.298-0.391-0.326-0.547-0.276 c-0.531,0.165,0.026,5.595-8.738,11.063c-10.311,6.432-20.225-2.271-30.011-2.083c-6.263,0.119-13.41,1.42-20.568,10.08 c-7.299,8.829-3.076,19.359-3.076,19.359l10.488,8.873c0,0,8.301,7.859,21.271,7.758c13.531-0.109,25.989-3.517,38.636-19.195 c0,0,2.323-2.589,5.766-4.128c4.178-1.869,4.412-0.868,4.806-1.491c0.131-0.209,0.111-0.489-0.07-0.91 c-0.781-1.784-4.011-6.137-10.14-5.522"/><path fill="#FEC2A8" d="M271.292,156.185c0,0,4.887-2.321,8.51-0.771c4.034,1.729,6.096,7.688,5.501,12.063 c-1.165,8.561-9.991,8.442-8.815,8.856"/><path fill="#FEC2A8" d="M210.013,166.748c0,0-5.335-3.919-10.372-1.611c-4.274,1.959-6.213,7.659-4.177,14.161 c2.335,7.458,13.472,6.912,13.746,6.327"/><path fill="#1C2124" d="M262.251,102.438c0,0,4.461-1.084,7.223-4.766c1.534-2.041,1.702-4.94,2.085-5.357 c0.382-0.417,1.042,0.558,1.668,2.227c0.625,1.67,3.125,9.428,0.451,16.733c-2.393,6.532-5.697,7.688-5.697,7.688 L262.251,102.438z"/></g><g clip-path="url(#j)"><path fill="#FC6124" d="M99.876,252.051c-14.312,0-25.913,11.62-25.913,25.955c0,2.57,0.268,5.429,0.962,7.775 c2.751,10.175,10.089,19.708,14.286,27.331c5.228,9.494,9.135,18.96,9.336,19.433c0.202,0.474,0.594,1.347,1.329,1.332h0.054 c0.733,0.015,1.125-0.858,1.329-1.332c0.202-0.473,4.108-9.938,9.335-19.433c4.197-7.623,11.536-17.156,14.286-27.331 c0.695-2.347,0.966-5.205,0.966-7.775c0-14.335-11.604-25.955-25.916-25.955"/><path fill="#FD844A" d="M115.25,278.358c0,8.503-6.885,15.397-15.374,15.397s-15.37-6.895-15.37-15.397 c0-8.5,6.881-15.394,15.37-15.394S115.25,269.858,115.25,278.358z"/></g><g clip-path="url(#j)"><path fill="#FC6124" d="M380.498,252.051c-14.313,0-25.914,11.62-25.914,25.955c0,2.57,0.266,5.429,0.963,7.775 c2.75,10.175,10.089,19.708,14.285,27.331c5.228,9.494,9.135,18.96,9.338,19.433c0.202,0.474,0.594,1.347,1.328,1.332h0.053 c0.736,0.015,1.126-0.858,1.33-1.332c0.201-0.473,4.107-9.938,9.335-19.433c4.196-7.623,11.537-17.156,14.285-27.331 c0.697-2.347,0.965-5.205,0.965-7.775c0-14.335-11.604-25.955-25.915-25.955"/><path fill="#FD844A" d="M395.871,278.358c0,8.503-6.883,15.397-15.373,15.397s-15.372-6.895-15.372-15.397 c0-8.5,6.882-15.394,15.372-15.394S395.871,269.858,395.871,278.358z"/></g><path clip-path="url(#j)" fill="#fff" d="M383.52,144.777c-0.277-0.197-0.894-0.055-1.672,0.217 c0,0-8.167,2.714-10.507,3.472c-2.878,0.931-3.482,1.042-3.591,1.398c-0.097,0.306,0.081,0.715,0.323,1.15 c0.652,1.184,8.825,13.901,9.526,14.952c0.333,0.502,1.002,1.062,1.615,0.693c0.224-0.133,0.309-0.218,0.47-0.972 c1.425-6.639,3.313-14.948,4.098-19.863C383.833,145.499,383.686,144.896,383.52,144.777z"/><path fill="#fff" d="M94.891,167.967c-0.096,0-0.194-0.008-0.295-0.021c-1.156-0.16-1.964-1.231-1.803-2.39 c0.018-0.145,0.499-3.555,1.88-9.241c0.276-1.139,1.424-1.835,2.557-1.559c1.137,0.277,1.834,1.423,1.558,2.561 c-1.326,5.457-1.797,8.789-1.802,8.823C96.839,167.201,95.933,167.967,94.891,167.967L94.891,167.967z M375.652,149.948 c-0.916,0-1.758-0.597-2.031-1.521c-0.005-0.02-0.624-2.102-1.938-5.605c-0.412-1.096,0.143-2.318,1.234-2.731 c1.097-0.411,2.317,0.142,2.729,1.237c1.375,3.666,2.009,5.81,2.036,5.9c0.332,1.122-0.31,2.302-1.431,2.631 C376.052,149.921,375.851,149.948,375.652,149.948L375.652,149.948z M99.352,149.449c-0.207,0-0.418-0.032-0.627-0.096 c-1.116-0.346-1.742-1.532-1.397-2.651c0.842-2.72,1.761-5.463,2.739-8.156c0.398-1.1,1.613-1.669,2.712-1.269 c1.1,0.399,1.666,1.618,1.267,2.718c-0.954,2.628-1.852,5.306-2.67,7.958C101.092,148.862,100.256,149.449,99.352,149.449 L99.352,149.449z M369.826,134.886c-0.81,0-1.582-0.467-1.935-1.255c-1.129-2.529-2.344-5.082-3.605-7.586 c-0.525-1.046-0.107-2.321,0.936-2.849c1.045-0.528,2.316-0.107,2.844,0.938c1.292,2.564,2.534,5.176,3.69,7.763 c0.479,1.069,0.002,2.324-1.068,2.802C370.409,134.824,370.114,134.886,369.826,134.886L369.826,134.886z M105.755,132.039 c-0.277,0-0.561-0.055-0.833-0.172c-1.074-0.464-1.57-1.712-1.108-2.787c1.433-3.33,2.978-6.64,4.596-9.836 c0.53-1.044,1.804-1.461,2.847-0.932s1.46,1.806,0.932,2.851c-1.581,3.117-3.089,6.345-4.484,9.595 C107.357,131.559,106.579,132.039,105.755,132.039L105.755,132.039z M361.523,118.547c-0.734,0-1.448-0.383-1.838-1.067 c-1.497-2.619-3.074-5.228-4.686-7.749c-0.633-0.986-0.347-2.298,0.64-2.929c0.982-0.633,2.294-0.344,2.924,0.642 c1.65,2.581,3.265,5.249,4.796,7.929c0.581,1.018,0.229,2.313-0.785,2.896C362.243,118.457,361.881,118.547,361.523,118.547 L361.523,118.547z M115.107,113.502c-0.363,0-0.731-0.094-1.068-0.292c-1.011-0.594-1.347-1.893-0.755-2.903 c1.568-2.674,3.225-5.319,4.923-7.862c0.649-0.972,1.966-1.233,2.937-0.582c0.972,0.649,1.232,1.967,0.582,2.94 c-1.652,2.476-3.264,5.049-4.79,7.651C116.539,113.127,115.833,113.502,115.107,113.502L115.107,113.502z M351.133,102.396 c-0.656,0-1.303-0.303-1.716-0.875c-2.078-2.877-4.254-5.695-6.466-8.378c-0.745-0.902-0.618-2.238,0.285-2.985 c0.899-0.745,2.233-0.618,2.978,0.285c2.271,2.751,4.503,5.642,6.63,8.591c0.688,0.947,0.476,2.274-0.472,2.961 C351.994,102.265,351.562,102.396,351.133,102.396L351.133,102.396z M125.681,97.763c-0.449,0-0.904-0.145-1.288-0.439 c-0.926-0.714-1.099-2.046-0.388-2.973c1.751-2.28,3.579-4.521,5.437-6.668c0.766-0.883,2.104-0.978,2.986-0.211 c0.883,0.769,0.978,2.106,0.212,2.991c-1.802,2.081-3.579,4.259-5.278,6.472C126.943,97.479,126.318,97.763,125.681,97.763 L125.681,97.763z M337.953,86.37c-0.563,0-1.128-0.226-1.543-0.669c-1.914-2.041-3.893-4.037-5.885-5.936 c-0.848-0.806-0.881-2.147-0.076-2.996c0.806-0.849,2.145-0.883,2.994-0.076c2.049,1.952,4.086,4.007,6.054,6.104 c0.799,0.855,0.758,2.195-0.096,2.998C338.994,86.18,338.473,86.37,337.953,86.37L337.953,86.37z M137.879,83.854 c-0.543,0-1.086-0.208-1.5-0.623c-0.825-0.831-0.82-2.173,0.007-2.999c2.565-2.56,5.256-5.035,7.992-7.36 c0.894-0.757,2.229-0.646,2.984,0.248c0.755,0.893,0.646,2.23-0.247,2.987c-2.649,2.252-5.257,4.65-7.741,7.13 C138.961,83.649,138.42,83.854,137.879,83.854L137.879,83.854z M324.649,73.831c-0.474,0-0.953-0.16-1.349-0.488 c-2.313-1.918-4.707-3.771-7.115-5.506c-0.947-0.684-1.163-2.01-0.48-2.96c0.685-0.951,2.006-1.165,2.955-0.48 c2.482,1.789,4.953,3.701,7.342,5.68c0.899,0.747,1.025,2.083,0.28,2.985C325.865,73.568,325.259,73.831,324.649,73.831 L324.649,73.831z M153.634,70.421c-0.655,0-1.303-0.305-1.717-0.878c-0.687-0.948-0.473-2.273,0.474-2.962 c2.496-1.808,5.086-3.549,7.701-5.175c0.991-0.618,2.299-0.313,2.915,0.683c0.615,0.993,0.312,2.302-0.68,2.919 c-2.533,1.573-5.039,3.26-7.453,5.01C154.498,70.291,154.063,70.421,153.634,70.421L153.634,70.421z M309.072,62.687 c-0.376,0-0.757-0.1-1.099-0.31c-2.993-1.826-6.087-3.54-9.196-5.094c-1.046-0.524-1.471-1.798-0.948-2.846 c0.521-1.046,1.793-1.472,2.839-0.948c3.215,1.606,6.413,3.379,9.507,5.266c0.998,0.609,1.315,1.914,0.706,2.914 C310.482,62.325,309.785,62.687,309.072,62.687L309.072,62.687z M169.713,60.471c-0.764,0-1.5-0.416-1.877-1.142 c-0.542-1.037-0.14-2.318,0.896-2.86c2.519-1.315,5.121-2.571,7.736-3.734c1.069-0.474,2.323,0.009,2.796,1.079 c0.474,1.07-0.007,2.323-1.077,2.799c-2.535,1.125-5.058,2.343-7.496,3.616C170.379,60.392,170.045,60.471,169.713,60.471 L169.713,60.471z M290.588,53.39c-0.263,0-0.53-0.051-0.788-0.154c-2.558-1.031-5.186-1.99-7.814-2.848 c-1.111-0.363-1.718-1.56-1.356-2.675c0.362-1.111,1.559-1.721,2.67-1.356c2.718,0.887,5.436,1.878,8.082,2.944 c1.084,0.438,1.609,1.673,1.173,2.759C292.222,52.887,291.426,53.39,290.588,53.39L290.588,53.39z M186.624,53.07 c-0.869,0-1.685-0.539-1.994-1.405c-0.395-1.103,0.178-2.316,1.278-2.711c3.355-1.205,6.831-2.307,10.329-3.276 c1.125-0.312,2.292,0.351,2.604,1.479c0.313,1.129-0.35,2.298-1.477,2.609c-3.396,0.941-6.771,2.01-10.026,3.18 C187.102,53.03,186.859,53.07,186.624,53.07L186.624,53.07z M273.228,47.815c-0.169,0-0.334-0.019-0.502-0.061 c-2.88-0.699-5.835-1.309-8.79-1.813c-1.154-0.197-1.93-1.29-1.731-2.446c0.194-1.154,1.291-1.931,2.44-1.733 c3.051,0.52,6.105,1.149,9.078,1.871c1.138,0.276,1.834,1.423,1.56,2.561C275.048,47.164,274.181,47.815,273.228,47.815 L273.228,47.815z M206.53,47.493c-0.983,0-1.863-0.689-2.07-1.691c-0.238-1.146,0.499-2.269,1.642-2.506 c2.972-0.615,6.034-1.16,9.099-1.617c1.155-0.172,2.234,0.628,2.409,1.786c0.169,1.158-0.628,2.236-1.785,2.409 c-2.989,0.445-5.97,0.975-8.863,1.574C206.816,47.479,206.671,47.493,206.53,47.493L206.53,47.493z M225.234,44.732 c-1.081,0-2.003-0.827-2.104-1.929c-0.107-1.165,0.751-2.196,1.916-2.304c1.988-0.182,4.023-0.335,6.051-0.454 c0.832-0.049,1.672-0.092,2.499-0.127c1.157-0.049,2.154,0.857,2.204,2.027c0.052,1.17-0.854,2.159-2.024,2.21 c-0.802,0.033-1.62,0.076-2.432,0.123c-1.981,0.117-3.97,0.266-5.914,0.444C225.365,44.729,225.299,44.732,225.234,44.732 L225.234,44.732z M254.369,44.659c-0.066,0-0.134-0.002-0.203-0.009c-3.438-0.329-6.973-0.533-10.503-0.608 c-1.17-0.025-2.095-0.994-2.071-2.164c0.025-1.171,0.988-2.099,2.161-2.075c3.633,0.078,7.272,0.287,10.815,0.626 c1.163,0.109,2.018,1.146,1.906,2.312C256.369,43.837,255.447,44.659,254.369,44.659L254.369,44.659z" clip-path="url(#j)"/><g clip-path="url(#j)"><path fill="#0A2D3B" d="M193.277,370.713c0,0-0.184,26.237,0.363,41.038h87.748c0,0-0.183-35.774-0.365-41.495L193.277,370.713z"/><path fill="#F8503B" d="M191.306,303.395l-13.484-20.979l33.873-58.476h3.676l10.251,16.069l22.395,3.014l14.486-17.967 l16.712,15.4l15.042,48.321l-12.849,17.259c1.558,8.927,1.335,58.623,1.335,61.748c0,3.124-0.073,5.078-0.073,6.211 c0,1.191-3.937,1.079-3.937,1.079s-26.519,1.265-42.489,1.34c-15.97,0.074-39.033-1.041-42.117-1.414 c-1.339-0.162-2.673,0.038-2.673-2.565c0-5.193-0.165-17.354-0.092-30.707c0.109-20.812,0.609-40.342,0.609-40.342"/><defs><path id="o" d="M191.306,303.395l-13.484-20.979l33.873-58.476h3.676l10.251,16.069l22.395,3.014l14.486-17.967 l16.712,15.4l15.042,48.321l-12.849,17.259c1.558,8.927,1.335,58.623,1.335,61.748c0,3.124-0.073,5.078-0.073,6.211 c0,1.191-3.937,1.079-3.937,1.079s-26.519,1.265-42.489,1.34c-15.97,0.074-39.033-1.041-42.117-1.414 c-1.339-0.162-2.673,0.038-2.673-2.565c0-5.193-0.165-17.354-0.092-30.707c0.109-20.812,0.609-40.342,0.609-40.342"/></defs><clipPath id="p"><use xlink:href="#o" overflow="visible"/></clipPath><path clip-path="url(#p)" fill="#EA4935" d="M190.078,304.622l11.588-13.391c0,0-1.893,47.427,1.67,87.936l-15.82-0.11 L190.078,304.622z"/><g fill="#FEC2A8"><path d="M261.944,267.35c-0.223,0.056-16.268,0.448-20.613,0.614c-4.346,0.167-6.964,1.339-6.795,4.91 c0.187,4.014,7.131,4.633,10.25,4.463l12.701-0.168L261.944,267.35z"/><path d="M244.005,276.5c0,0-5.181-0.056-5.347,4.074c-0.169,4.128,3.844,5.748,7.91,5.748l7.132-0.559 l-1.838-9.599L244.005,276.5z"/><path d="M254.702,283.92c-0.167-0.054-7.084,0.288-10.642,1.62c-5.515,2.064-3.357,8.484,1.948,9.208 c5.741,0.779,13.374-0.114,20.561-0.058"/><path d="M272.362,302.391c0,0-6.407-7.757-9.749-9.542c-3.343-1.784-12.2-3.627-12.033-3.627 s-2.006-26.504-2.006-26.504l9.636,0.168c0,0,8.332-0.291,12.426,3.182c4.01,3.404,6.795,6.807,9.97,11.493 c3.178,4.687,5.294,7.755,8.859,10.489"/></g><path fill="#FEC2A8" d="M231.103,262.072c-3.463,3.024-18.797,8.458-18.797,8.458l-6.239,2.176l8.802,18.023 c0.615,11.604-14.261,19.025-14.261,19.025l-11.477-18.244c1.395-1.173,6.073-6.027,6.073-6.027s-0.446-3.851-0.725-5.803 c-0.279-1.953-1.06-6.584-0.057-9.765c2.247-7.128,10.748-8.787,17.629-10.965c6.684-2.119,14.573-4.546,14.573-4.546 L231.103,262.072z"/><path fill="#FEC2A8" d="M215.594,267.852c0,0,4.959,1.06,6.129,7.923c1.168,6.862,1.614,11.83-0.557,15.29 c-2.256,3.59-7.188,2.063-7.8-0.447c-0.613-2.511-8.692-18.3-8.692-18.3L215.594,267.852z"/><g fill="#F8503B"><path d="M214.962,221.819c0,0-23.841,8.878-40.78,31.396c-16.342,21.722-27.08,54.646-16.926,71.248 c6.204,10.139,20.189,8.366,28.439,1.212c7.637-6.623,12.479-10.937,15.934-14.692c0.648-0.707,1.113-1.451-0.112-2.716 c-2.563-2.647-11.141-18.19-15.523-25.816L214.962,221.819z"/><path d="M260.607,220.704c0,0,17.661,6.751,33.316,26.56c16.853,21.325,32.44,57.496,22.281,74.097 c-6.202,10.14-19.529,8.048-27.78,0.893c-7.635-6.621-14.712-15.543-17.608-19.636c-0.548-0.771-0.54-2.044,0.111-2.716 c2.564-2.646,12.549-12.028,16.931-19.655L260.607,220.704z"/></g><path fill="#E0412E" d="M265.109,223.419c0.179-1.079-0.484-1.265-0.706-1.376c-0.224-0.11-3.491-1.413-4.826-1.861 c-1.338-0.445-1.263,0.819-1.263,0.819s-1.239,19.359-19.805,18.822c-16.713-0.483-19.276-18.785-19.276-18.785 s-0.137-1.177-1.263-0.817c-1.343,0.43-4.604,1.747-4.828,1.859c-0.224,0.111-0.905,0.317-0.705,1.377 c0,0,4.271,23.626,27.111,23.842C262.983,247.524,265.109,223.419,265.109,223.419z"/></g><path clip-path="url(#j)" fill="#D49074" d="M249.034,167.268c0.61,2.767,2.27,9.699,2.68,11.895 c0.41,2.196,1.617,4.945-0.922,5.785c-2.54,0.84-5.884,1.578-6.327-0.35c-0.444-1.927,0.741-2.146,1.448-2.328 c0.723-0.187,1.515-0.42,2.317-0.806c0.305-0.146-1.534-7.854-2.316-11.011c-0.781-3.152-1.674-5.604-0.461-6.477 C247.451,162.541,248.427,164.5,249.034,167.268z"/><path clip-path="url(#j)" fill="#1C2124" d="M257.971,162.242c-1.093,0.714-1.575,2.712-0.809,5.027 c1.018,3.068,3.292,2.663,4.468,1.769c1.173-0.896,1.219-2.624,0.799-4.333C262.011,162.999,260.364,160.678,257.971,162.242z"/><path clip-path="url(#j)" fill="#1C2124" d="M218.358,155.777c-2.22,3.146-2.746,6.044-2.298,7.69 c0.332,1.221,1.852,1.54,2.593,0.695c0.744-0.843,0.791-1.912,1.62-3.729c0.786-1.719,1.861-3.408,3.958-5.1 c0.894-0.721,2.206-1.45,2.907-1.824c0.967-0.517,1.539-1.022,1.329-2.069c-0.294-1.439-2.367-1.446-4.433-0.53 C222.46,151.611,220.314,153.004,218.358,155.777z"/><path clip-path="url(#j)" fill="#1C2124" d="M255.854,145.825c-0.991,0.057-2.06,0.614-2.023,1.692 c0.053,1.562,1.337,1.581,2.321,1.619c0.983,0.036,3.862-0.113,6.276,2.045c2.396,2.141,2.345,2.95,3.547,3.459 c1.578,0.67,3.397-1.014,0.762-4.221C264.49,147.687,261.63,145.489,255.854,145.825z"/><path clip-path="url(#j)" fill="#1C2124" d="M227.822,170.952c1.631-1.102,2.536-1.34,4.002-1.413 c1.49-0.076,3.671,0.405,4.416-0.318c0.727-0.705,0.413-2.996-3.153-3.122c-3.568-0.129-6.777,0.894-9.063,3.533 c-1.649,1.905-1.152,3.582-0.434,3.907C225.412,174.365,226.216,172.035,227.822,170.952z"/><path clip-path="url(#j)" fill="#1C2124" d="M225.65,198.619c0.076-1.155,0.823-1.419,1.441-1.419 c1.026,0,2.038,1.21,3.193,2.004c1.671,1.147,5.189,3.397,9.494,3.546c4.882,0.165,4.114-0.377,5.623-0.271 c1.194,0.083,1.38,2.502-0.597,3.421c-1.979,0.915-8.157,0.938-12.152-1.023c-4.57-2.242-5.055-3.156-6.057-4.171 C226.412,200.518,225.588,199.557,225.65,198.619z"/><g clip-path="url(#j)"><path fill="#707E84" d="M261.661,288.572l-0.4-4.391l-0.012,0.009l-1.532-16.708l-1.092-11.942l-0.408-4.45 c0,0-0.201-4.116-1.375-5.466c-0.786-0.902-2.429-2.334-5.489-2.386c-2.715-0.048-7.708,0.399-10.315,0.643 c-2.613,0.236-7.602,0.707-10.263,1.248c-3,0.608-4.355,2.316-4.964,3.346c-0.909,1.541-0.357,5.625-0.357,5.625l0.405,4.453 l1.096,11.939l1.751,19.108l0.005,0.004l0.181,1.978c0,0,0.115,3.376,1.191,4.881c1.002,1.403,2.889,2.904,6.267,3.019 c2.075,0.07,4.896-0.089,7.32-0.275l-0.012,0.009c0.39-0.036,1.276-0.108,2.435-0.217c1.159-0.104,2.046-0.195,2.435-0.23 l-0.012-0.008c2.418-0.257,5.219-0.614,7.248-1.062c3.299-0.729,4.882-2.549,5.614-4.111 C262.161,291.912,261.661,288.572,261.661,288.572z"/><ellipse fill="#636F75" cx="249.425" cy="255.141" rx="3.876" ry="3.883"/></g><path clip-path="url(#j)" fill="#FEC2A8" d="M261.944,267.35c-0.223,0.056-16.268,0.448-20.613,0.614 c-4.346,0.167-6.964,1.339-6.795,4.91c0.187,4.014,7.131,4.633,10.25,4.463l12.701-0.168L261.944,267.35z"/><path clip-path="url(#j)" fill="#FEC2A8" d="M244.005,276.5c0,0-5.181-0.056-5.347,4.074 c-0.169,4.128,3.844,5.748,7.91,5.748l7.132-0.559l-1.838-9.599L244.005,276.5z"/><path clip-path="url(#j)" fill="#FEC2A8" d="M254.702,283.92c-0.167-0.054-7.084,0.288-10.642,1.62 c-5.515,2.064-3.357,8.484,1.948,9.208c5.741,0.779,13.374-0.114,20.561-0.058"/><path clip-path="url(#j)" fill="#FEC2A8" d="M250.276 270.605H267.656V292.75H250.276z"/><g clip-path="url(#j)"><path fill="#fff" d="M335.944,228.546c0,2.388,1.933,4.322,4.317,4.322h92.11c2.382,0,4.316-1.935,4.316-4.322v-45.541 c0-2.389-1.935-4.322-4.316-4.322h-92.11c-2.385,0-4.317,2.381-4.317,4.77V228.546z"/><path fill="#fff" d="M42.436,228.546c0,2.388,1.933,4.322,4.316,4.322h92.11c2.383,0,4.315-1.935,4.315-4.322v-45.541 c0-2.389-1.933-4.322-4.315-4.322h-92.11c-2.384,0-4.316,2.381-4.316,4.77V228.546z"/><path fill="#AFC5C3" d="M62.503,196.525c0,0,1.521-2.232,2.003-3.05c0.483-0.818,1.153-1.675,2.009-1.489 c0.852,0.188,1.251,1.232,0.852,1.861c-0.52,0.817-2.265,3.534-3.305,5.394c-0.636,1.139-1.67-0.075-1.559-0.223 C62.614,198.869,62.503,196.525,62.503,196.525z"/><path fill="#AFC5C3" d="M79.243,195.595c0.015-0.994-0.104-2.055,0.641-2.529c0.891-0.567,1.849-0.13,2.035,0.912 c0.185,1.042,0,5.252,0.053,6.055c0.055,0.864,0.473,1.812,2.007,1.84c1.811,0.032,2.035-1.738,2.035-2.631 s-0.075-3.87-0.039-4.019c0.039-0.148-0.186-1.712,0.966-2.12c1.152-0.409,1.791,0.593,1.784,2.269 c-0.006,0.967,0.067,2.61,0.017,4.214c-0.055,1.784-0.588,3.182-1.446,3.988c-1.513,1.417-5.206,1.875-7.271-0.808 C78.992,201.427,79.197,198.646,79.243,195.595z"/><path fill="#AFC5C3" d="M57.752,192.051c-0.424,0.226-0.979,0.872-0.408,1.936c0.569,1.063,3.758,4.772,3.976,5.099 c0.218,0.328,1.822-0.081,1.822-0.081l-0.517-2.427c0,0-2.368-3.163-3.021-3.954S58.514,191.64,57.752,192.051z"/><path fill="#AFC5C3" d="M61.358,198.804c0,0,0.029,4.157,0.029,4.603c0,0.447,0.27,1.8,1.867,1.479 c0.833-0.167,0.862-1.282,0.862-1.897c0-0.612-0.029-4.937-0.029-4.937L61.358,198.804z"/><path fill="#AFC5C3" d="M95.509,202.32c0.53-1.089,1.839-4.242,2.564-5.917c0.724-1.674,1.56-3.849,2.34-3.905 c0.78-0.055,1.977-0.557,2.871,1.536c0.89,2.092,2.7,7.197,3.117,8.089c0.419,0.892,0.618,2.459-0.39,2.762 c-0.557,0.169-1.002,0.019-1.365-0.361c-0.612-0.643-2.951-7.449-3.51-8.371c0,0-1.84,4.408-2.675,6.613 c0,0-0.52,1.797-1.364,2.176C95.788,205.527,94.461,204.479,95.509,202.32z"/><path fill="#AFC5C3" d="M99.187,199.528c0,0,3.399,0.085,4.207-0.11c0.806-0.195,0.892,2.733,0.892,2.733 s-4.039,0.169-6.436,0.028C95.454,202.041,99.187,199.528,99.187,199.528z"/><g fill="#AFC5C3"><path d="M109.016,192.612c-0.536,0.087-0.747,0.055-0.775,1.166c-0.029,1.11,0.11,6.747,0.083,8.162 c-0.028,1.418-0.055,2.251,1.248,2.723c1.302,0.472,1.329-1.166,1.329-1.999c0-0.459-0.158-7.138-0.109-7.526 c0,0,2.384-0.554,2.827,1.223c0.444,1.777-1.247,2.36-1.387,2.389c-0.137,0.027,1.524,1.805,1.524,1.805 s1.166-0.444,1.97-1.889c0.803-1.444,0.5-4.081-1.082-5.248C112.956,192.172,109.709,192.501,109.016,192.612z"/><path d="M110.542,198.471c0,0,1.48,0.347,2.625-0.284c1.144-0.633,1.144,0.377,1.144,0.377l-0.583,1.24 c0,0,1.028,1.055,2.192,1.721c1.163,0.667,2.189,1.223,1.967,2.056c-0.222,0.833-1.142,1.265-2.412,0.639 c-1.176-0.581-2.703-1.802-3.852-2.831c-0.556-0.499-1.033,0.236-1.221,0C110.147,201.063,110.542,198.471,110.542,198.471z"/></g><path fill="#AFC5C3" d="M120.544,192.989c-0.579,0.165-0.929,0.339-1.158,1.414c-0.224,1.072,0.086,5.68,0.086,7.348 s-0.225,2.657,1.241,2.854c1.469,0.199,5.31-0.066,5.871-0.141c0.875-0.113,1.777-2.431-0.367-2.487 c0,0-2.99,0.057-4.146-0.084c0,0-0.086-5.146-0.057-5.936c0.026-0.793,0.168-0.679,1.126-0.793 c0.96-0.113,2.908-0.113,3.389-0.28c0.479-0.171,0.789-1.132,0.338-1.639c-0.451-0.511-0.732-0.68-1.749-0.622 C124.1,192.679,121.842,192.623,120.544,192.989z"/><path fill="#AFC5C3" d="M105.26,210.195c-0.574,0.14-0.991,0.479-1.213,1.548c-0.219,1.07-0.11,5.35-0.11,7.009 c0,1.661,0.192,2.701,1.624,2.9c1.435,0.197,5.651,0.072,6.197,0c0.854-0.114,1.212-2.394-0.882-2.45 c0,0-3.938,0.197-4.131-0.026c-0.191-0.228-0.164-5.097-0.137-5.884c0.026-0.789,0.159-0.736,1.101-0.789 c1.021-0.055,2.552-0.1,3.043-0.168c0.497-0.07,1.143-0.76,0.759-1.703c-0.204-0.499-0.593-0.76-1.723-0.716 C108.796,209.95,106.608,209.872,105.26,210.195z"/><path fill="#AFC5C3" d="M121.2,200.03c0,0,1.558-0.001,2.688-0.022c1.131-0.022,2.858,0.097,2.869-0.842 c0.012-0.94-0.229-1.489-1.342-1.537c-0.964-0.041-3.254,0.037-3.862-0.006C120.945,197.582,121.2,200.03,121.2,200.03z"/><path fill="#AFC5C3" d="M105.455,214.623c0,0,2.952-0.142,3.955-0.085c1.002,0.056,1.671,0.195,1.839,0.615 c0.167,0.417,0.278,1.395-0.696,1.7c-0.978,0.306-2.258-0.026-4.596,0.195C105.093,217.132,105.455,214.623,105.455,214.623z"/><path fill="#AFC5C3" d="M75.882,194.048c-1.877-1.36-4.252-1.542-6.107,0.045c-0.632,0.541-2.19,2.083-2.034,5.275 c0.159,3.194,1.561,4.575,3.009,5.166c1.448,0.587,3.482,0.475,4.728-0.637c1.242-1.108,1.966-3.033,2.125-4.394 C77.759,198.146,77.759,195.406,75.882,194.048z M74.725,200.821c-0.422,1.137-2.058,1.655-3.019,1.195 c-1.546-0.738-1.762-2.635-1.32-4.091c0.647-2.138,2.525-2.403,3.713-1.701C75.275,196.921,75.374,199.074,74.725,200.821z"/><path fill="#AFC5C3" d="M95.479,212.654c-0.14,0.469,0.019,5.31,0.027,6.184c0.009,0.882,0.229,2.299-0.605,2.752 c-0.835,0.455-1.694-0.057-1.904-0.509c-0.274-0.581,0-4.613-0.074-5.975c-0.073-1.362-0.058-4.317,0.074-4.614 c0.123-0.29,0.433-0.474,0.923-0.491c0.525-0.019,1.65-0.035,2.648-0.019c0.998,0.019,3.592,0.172,4.373,2.181 c0.851,2.198,0.053,3.814-1.035,4.832c-1.089,1.016-0.746,0.6-0.746,0.6l-1.994-1.672c0,0,1.172-0.56,1.433-1.162 c0.474-1.091-0.132-1.914-0.742-2.071C97.222,212.526,95.535,212.472,95.479,212.654z"/><path fill="#AFC5C3" d="M94.954,215.324c0.018-0.11-0.758,0.402,0.072,0.365c1.423-0.066,2.886,0.182,3.365-0.626 c0.628-1.059,1.463,0.952,1.463,0.952l0.254,0.739l-0.792,0.341c0,0,0.821,0.77,1.389,1.309 c0.567,0.541,1.931,1.605,1.857,2.442c-0.072,0.821-0.583,0.918-0.998,0.935c-0.438,0.017-1.16-0.017-2.04-0.954 c-0.88-0.938-1.585-1.441-2.313-2.107c-0.281-0.258-0.599-0.371-0.924-0.392c-0.37-0.021-0.79-0.024-0.788,0.111l-1.38-0.354 l0.072-3.452L94.954,215.324z"/><path fill="#AFC5C3" d="M71.49,210.033c-0.397,0.091-0.833,0.391-0.91,1.303c-0.085,1.003-0.002,5.345-0.027,6.675 c-0.024,1.329-0.285,3.284,0.573,3.702c0.859,0.417,1.796-0.183,1.875-0.836c0.077-0.65,0.077-7.039,0.128-8.161 C73.182,211.616,73.313,209.615,71.49,210.033z"/><path fill="#AFC5C3" d="M78.468,209.745c-0.886,0.073-1.172,0.626-1.197,1.564c-0.026,0.938-0.133,6.362-0.053,7.821 c0.073,1.363-0.104,2.608,1.041,2.999c1.145,0.391,1.536-1.044,1.51-1.409c-0.026-0.364,0.157-6.149,0.157-7.3 C79.926,212.092,80.028,209.615,78.468,209.745z"/><path fill="#AFC5C3" d="M73.078,215.329c0,0,1.589-0.054,2.317-0.026c0.73,0.026,2.212-0.081,2.212-0.081l0.025,2.787 c0,0-1.945,0-2.655,0c-0.935,0-2.316,0.027-2.316,0.027L73.078,215.329z"/><path fill="#AFC5C3" d="M82.554,212.067c-0.003,0.784-0.075,5.895-0.111,6.964s-0.279,2.456,1.051,2.595 c1.33,0.137,5.104,0.058,5.806,0.102c0.703,0.043,1.352-0.385,1.496-1.168c0.13-0.698-0.203-1.482-1.321-1.442 c-0.86,0.033-3.787,0.016-4.194-0.046c0,0,0.109-1.827,0.112-3.262c0.005-1.591,0.013-3.176,0.167-3.36 c0.153-0.183,0.723-0.146,2.128-0.164c1.228-0.018,2.735-0.065,2.748-0.925c0.013-0.914-0.413-1.559-1.636-1.542 c-1.328,0.019-3.929,0.076-4.555,0.114C83.179,209.999,82.563,210.659,82.554,212.067z"/><path fill="#AFC5C3" d="M84.584,214.417c0,0,1.742,0.067,2.86,0.044c1.121-0.022,2.469-0.132,2.565,0.726 c0.107,0.957-0.272,1.602-1.207,1.726c-0.936,0.121-3.333-0.011-3.774,0.023C84.586,216.971,84.584,214.417,84.584,214.417z"/></g><g clip-path="url(#j)" fill="#AFC5C3"><path d="M348.657,209.351c-0.458,0.126-1.002,0.222-0.947,1.979c0.057,1.76-0.112,6.528-0.055,7.563 c0.056,1.06-0.006,2.146,2.004,2.175c1.979,0.028,3.868,0.009,4.457-0.028c0.892-0.055,1.644-0.837,1.225-1.925 c-0.416-1.087-1.356-0.934-2.256-0.948c-1.67-0.027-2.562-0.084-2.562-0.084c0.027-0.389,0.056-4.46,0.056-5.997 C350.579,210.382,350.273,208.903,348.657,209.351z"/><path d="M391.581,211.889c0,0-0.056,3.82-0.026,5.522c0.026,1.702-0.197,3.377,1.224,3.601 c1.422,0.224,1.479-1.256,1.479-2.12c0-1.005-0.057-6.612,0.027-7.255C394.367,210.995,391.581,211.889,391.581,211.889z"/><path d="M400.3,209.488c-0.52,0.337-0.64,0.56-0.667,1.702c-0.027,1.145-0.085,5.469-0.112,6.585 s-0.11,2.789,1.142,3.013c1.156,0.205,1.393-0.308,1.588-1.062c0.194-0.752,0.089-3.319,0.113-5.161 c0.025-2.147,0.164-4.518-0.391-4.965C401.524,209.241,400.774,209.18,400.3,209.488z"/><path d="M393.254,209.517c-1.448,0-2.87-0.009-3.623-0.028c-1.112-0.028-1.782,0.503-1.755,1.172 c0.028,0.669,0.309,1.508,1.839,1.45c1.532-0.056,3.873,0,5.098,0c1.088,0,2.453,0.225,2.758-0.725 c0.308-0.947,0-1.785-0.754-1.841C396.263,209.503,394.005,209.517,393.254,209.517z"/><path d="M388.129,194.144c0,0-0.057,3.822-0.028,5.525c0.028,1.7-0.372,3.468,1.183,3.668 c1.52,0.196,1.52-1.324,1.52-2.189c0-1.005-0.058-6.613,0.027-7.253C390.914,193.254,388.129,194.144,388.129,194.144z"/><path d="M389.896,191.606c-1.449,0-2.87-0.01-3.62-0.026c-1.116-0.03-1.464,0.43-1.548,1.113 c-0.082,0.679,0.14,1.634,1.882,1.62c1.031-0.011,3.12-0.057,4.846-0.057c1.087,0,2.242,0.227,2.549-0.742 c0.307-0.968,0-1.822-0.751-1.879C392.698,191.592,390.649,191.606,389.896,191.606z"/><path d="M376.392,193.586c-0.417,1.266-0.018,3.44,1.467,4.11s1.688,0.429,2.618,1.208 c0.621,0.523,0.52,1.247,0.186,1.637c-0.335,0.392-1.548,0.495-2.211,0.039c-0.889-0.614-1.243-0.706-1.783-0.614 c-0.541,0.095-0.836,0.446-0.852,0.985c-0.02,0.54,0.39,1.619,1.895,2.158c1.504,0.539,2.614,0.387,3.305,0.261 c1.114-0.205,2.06-1.229,2.396-2.269c0.481-1.488-0.085-2.831-0.67-3.533c-0.836-1.005-1.857-1.351-2.489-1.547 c-1.373-0.427-1.564-1.719-0.816-2.138c0.631-0.353,1.243-0.186,1.709,0.131c0.465,0.316,1.28,0.372,1.651-0.15 c0.465-0.65,0.354-1.748-0.91-2.284c-1.262-0.541-2.34-0.504-3.063-0.281C378.434,191.419,376.984,191.782,376.392,193.586z"/><path d="M407.015,192.006c0.313-0.24,0.464-0.391,1.058-0.298s0.556,0.298,0.836,0.576 c0.278,0.28,2.877,3.868,3.286,4.279c0,0,1.022-1.396,1.728-2.42c0.705-1.021,1.243-1.821,1.613-2.213 c0.372-0.39,0.935-0.525,1.766-0.02c0.429,0.264,0.354,1.099,0.391,2.123c0.02,0.56,0.004,5.801,0.02,6.639 c0.019,1.079,0,1.821-0.187,2.157c-0.186,0.335-0.783,0.597-1.448,0.41c-0.464-0.131-0.835-0.648-0.874-1.303 c-0.037-0.631-0.092-3.905-0.092-5.226c0,0-1.524,2.213-1.932,2.809c-0.408,0.595-0.98,0.5-1.207,0.484 c-0.501-0.039-2.341-2.383-3.026-3.069c-0.687-0.69-1.318-1.564-1.318-1.564L407.015,192.006z"/><path d="M407.303,191.797c-1.106,0.635-0.791,1.307-0.754,4.6c0.015,1.154-0.035,4.927,0.02,5.896 c0.057,0.967,1.43,0.854,1.71,0.688c0.274-0.167,0.667-0.614,0.741-0.93c0.074-0.317,0.167-1.171,0.149-2.232 c-0.02-1.061-0.057-4.074-0.057-4.074"/><path d="M356.939,191.795c-0.599,0.177-2.462,1.151-3.167,2.842c-0.703,1.692-0.985,3.08-0.28,5.404 c0.701,2.325,2.486,3.221,4.058,3.479c1.57,0.257,3.468-0.355,4.079-0.729c0.657-0.399,0.965-1.057,0.941-1.48 c-0.024-0.423-0.048-1.149-1.011-1.386c-0.581-0.143-1.382,0.369-1.736,0.564c-0.468,0.257-1.888,0.354-2.673-0.047 c-1.242-0.636-1.455-2.657-1.104-3.901c0.355-1.244,0.697-1.616,1.666-1.996c0.964-0.376,1.644-0.328,2.509-0.14 c0.536,0.115,1.049-0.091,1.316-0.329c0.443-0.4,0.443-1.738-0.729-2.257C359.725,191.34,358.534,191.325,356.939,191.795z"/><path d="M418.962,214.623c0,0,0.028,2.621,0.028,3.542c0,0.92,0.073,2.238-0.641,2.594 c-0.835,0.419-1.476,0.169-1.726-0.642c-0.252-0.809-0.22-4.406-0.194-5.552c0.028-1.282,0.005-3.836,0.194-4.296 c0.195-0.474,0.403-0.779,0.834-0.894c0.531-0.139,1.001-0.406,1.895,0.949c0.92,1.395,2.201,3.684,2.619,4.326 c0.419,0.64,1.032,1.728,1.171,2.09c0,0-0.058-2.817-0.084-4.323c-0.025-1.506,0.064-2.137,0.167-2.511 c0.086-0.307,0.807-0.864,1.226-0.781c0.418,0.085,0.974,0.25,1.143,1.507c0.166,1.256,0,5.245,0.055,6.499 c0.047,1.06,0,2.791-0.11,3.069c-0.113,0.279-0.669,0.977-1.477,0.865c-0.809-0.112-1.449-0.697-2.09-1.701 C421.332,218.36,419.464,215.291,418.962,214.623z"/><path d="M368.97,210.533c-0.704,0.564-1.678,1.664-1.825,4.184c-0.112,1.886,0.399,4.094,1.743,5.128 c1.151,0.886,2.268,1.303,4.344,1.024c2.082-0.277,3.139-1.296,3.46-1.69c0.359-0.443,0.248-1.689-0.472-1.94 c-0.719-0.248-1.15-0.005-1.577,0.223c-0.415,0.222-1.297,1.005-2.929,0.785c-1.702-0.233-2.226-2.364-1.911-4.002 c0.217-1.131,1.353-2.076,2.349-2.16c0.997-0.083,1.661,0.222,2.214,0c0.554-0.222,0.732-0.962,0.608-1.497 C374.727,209.507,371.488,208.509,368.97,210.533z"/><path d="M364.578,194.415c0.006-0.997-0.123-1.943,0.616-2.426c0.884-0.576,1.848-0.148,2.042,0.891 c0.197,1.04,0.058,5.14,0.116,5.942c0.065,0.862,0.37,1.819,1.903,1.832c1.811,0.014,2.015-1.76,2.006-2.651 c-0.009-0.894-0.113-3.87-0.077-4.019c0.033-0.148-0.204-1.71,0.943-2.13c1.147-0.421,1.799,0.575,1.807,2.252 c0.004,0.966,0.115,2.69,0.083,4.294c-0.038,1.787-0.555,3.188-1.408,4.004c-1.497,1.434-5.063,1.918-7.157-0.745 C364.409,200.328,364.563,197.464,364.578,194.415z"/><path d="M378.512,218.423c0.471-0.979,1.636-3.816,2.28-5.324c0.642-1.505,1.464-3.403,2.2-3.527 c0.693-0.117,1.66-0.499,2.468,1.376c0.811,1.878,2.679,6.613,3.059,7.413c0.378,0.801,0.611,2.314-0.614,2.623 c-0.506,0.126-1.112-0.056-1.447-0.586c-0.426-0.674-2.409-6.711-2.914-7.536c0,0-1.635,3.968-2.376,5.951 c0,0-0.46,1.617-1.219,1.962C378.775,221.307,377.578,220.369,378.512,218.423z"/><path d="M381.527,216.132c0,0,3.149,0.077,3.899-0.104c0.749-0.182,0.932,2.427,0.932,2.427 s-3.742,0.154-5.964,0.025C378.174,218.352,381.527,216.132,381.527,216.132z"/><path d="M402.601,192.23c-1.919-1.249-4.28-1.327-6.049,0.307c-0.605,0.56-2.085,2.139-1.793,5.262 c0.291,3.124,1.74,4.418,3.199,4.933c1.461,0.516,3.472,0.317,4.657-0.825c1.185-1.142,1.82-3.06,1.919-4.398 C404.636,196.169,404.519,193.482,402.601,192.23z M401.741,198.922c-0.37,1.131-1.969,1.71-2.942,1.303 c-1.562-0.658-1.859-2.512-1.482-3.955c0.554-2.123,2.402-2.464,3.608-1.827C402.122,195.074,402.31,197.182,401.741,198.922z"/><path d="M411.917,209.751c-2.022-1.038-4.333-0.835-5.894,0.98c-0.535,0.62-1.819,2.293-1.31,5.392 c0.505,3.06,1.823,4.176,3.529,4.562c1.495,0.338,3.479-0.027,4.68-1.138c1.623-1.497,1.694-3.385,1.646-4.728 C414.519,213.479,413.939,210.786,411.917,209.751z M411.937,216.536c-0.34,1.14-1.891,1.797-2.822,1.561 c-1.95-0.49-2.172-2.27-1.962-3.746c0.311-2.17,2.077-2.808,3.351-2.354C412.052,212.547,412.419,214.905,411.937,216.536z"/><path d="M362.998,210.142c-1.986-1.118-4.151-1.058-5.795,0.693c-0.564,0.597-1.772,2.294-1.588,5.228 c0.191,3.03,1.67,4.413,3.368,4.869c1.488,0.4,3.539,0.159,4.791-0.898c1.692-1.431,1.827-3.421,1.835-4.762 C365.617,213.929,364.985,211.26,362.998,210.142z M362.895,216.875c-0.39,1.128-1.759,1.938-3.063,1.508 c-1.917-0.634-1.921-2.421-1.646-3.887c0.404-2.155,2.063-2.763,3.328-2.258C363.041,212.853,363.449,215.269,362.895,216.875z"/></g></g></svg>