<?xml version="1.0" encoding="utf-8"?>
<!-- Generator: Adobe Illustrator 16.0.3, SVG Export Plug-In . SVG Version: 6.00 Build 0)  -->
<!DOCTYPE svg PUBLIC "-//W3C//DTD SVG 1.1//EN" "http://www.w3.org/Graphics/SVG/1.1/DTD/svg11.dtd">
<svg version="1.1" id="ffos_thomas_manig" xmlns="http://www.w3.org/2000/svg" xmlns:xlink="http://www.w3.org/1999/xlink" x="0px"
	 y="0px" width="480px" height="390px" viewBox="0 0 480 390" enable-background="new 0 0 480 390" xml:space="preserve">
<g>
	<defs>
		<rect id="SVGID_103_" y="0.187" width="480" height="390"/>
	</defs>
	<clipPath id="SVGID_2_">
		<use xlink:href="#SVGID_103_"  overflow="visible"/>
	</clipPath>
	<g clip-path="url(#SVGID_2_)">
		<rect y="-4.874" fill="#CEE2E3" width="480" height="394.874"/>
		<g>
			<defs>
				<rect id="SVGID_105_" y="-4.874" width="480" height="394.874"/>
			</defs>
			<clipPath id="SVGID_4_">
				<use xlink:href="#SVGID_105_"  overflow="visible"/>
			</clipPath>
			<g clip-path="url(#SVGID_4_)">
				<path fill="#FEC2A8" d="M205.08,174.438c0,0-1.21,8.225,1.477,17.612c3.008,10.513,11.218,22.817,29.822,25.194
					c15.982,2.043,25.824-5.469,32.053-12.472c9.731-10.949,8.992-31.427,8.992-31.427l-3.949-36.593l-52.417-10.12l-14.64,22.198
					L205.08,174.438z"/>
				<path fill="#FEC2A8" d="M226.581,212.036c0,0,0.336,4.938-0.109,8.751l23.286,0.813c0,0-0.225-3.875-0.279-7.813
					L226.581,212.036z"/>
				<path fill="#FEC2A8" d="M252.543,239.946c-17.902,8.469-31.615-0.92-34.614-18.495c0,0,5.498-3.188,20.351-3.418
					c14.41-0.221,23.771,4.16,23.771,4.16S257.455,237.623,252.543,239.946z"/>
				<path fill="#1C2124" d="M213.476,117.641c0,0-14.686-1.571-14.262,23.065c0.257,14.869,4.012,26.071,4.012,26.071
					s4.972-3.799,5.125-3.788c0,0-1.003-21.392,12.173-31.466"/>
				<path fill="#1C2124" d="M266.178,132.684c0,0,7.799,11.03,8.256,32.241l2.892,0.279c0,0,5.099-20.601,0.368-31.529
					C273.919,124.959,266.178,132.684,266.178,132.684z"/>
				<path fill="#1C2124" d="M277.787,132.048"/>
				<path fill="#1C2124" d="M282.445,137.586c-14.262,14.262-35.787,10.663-48.356,6.353c-15.265-5.238-20.279-14.486-20.279-14.486
					l-7.614-7.118c0,0-0.492-11.317,9.316-17.213c9.623-5.784,17.896-4.22,23.926-2.521c11.599,3.268,15.049,13.062,27.214,10.083
					c1.366-0.334,3.419-1.472,5.097-4.456c0.753-1.337,0.618-2.024,1.031-2.118c0.502-0.111,1.338,0.798,1.645,1.226
					c0.557,0.779,4.345,6.797,0.946,14.875"/>
				<path fill="#FEC2A8" d="M273.045,162.421c0,0,5.193-1.506,8.522,0.601c3.708,2.348,4.793,8.549,3.507,12.769
					c-2.512,8.25-11.207,6.726-10.111,7.322"/>
				<path fill="#FEC2A8" d="M209.766,163.049c0,0-5.336-3.914-10.371-1.609c-4.275,1.955-6.213,7.646-4.18,14.138
					c2.335,7.446,13.475,6.902,13.748,6.318"/>
				<path fill="#1C2124" d="M270.977,127.036c0,0,3.129,1.499,7.279,1.748c4.855,0.29,7.502-2.491,7.734-2.556
					c0.546-0.15,2.024,9.739-8.803,16.147c-5.978,3.538-9.511-2.088-9.511-2.088L270.977,127.036z"/>
			</g>
			<path clip-path="url(#SVGID_4_)" fill="#92A7B0" d="M167.851,117.062c0,7.719-6.257,13.977-13.975,13.977H96.017
				c-7.72,0-13.977-6.258-13.977-13.977v-57.86c0-7.72,6.257-13.976,13.977-13.976h57.859c7.718,0,13.975,6.256,13.975,13.976
				V117.062z"/>
			<path clip-path="url(#SVGID_4_)" fill="#FFFFFF" d="M405.936,126.312c0,7.72-6.258,13.977-13.977,13.977H334.1
				c-7.721,0-13.977-6.257-13.977-13.977V68.452c0-7.718,6.256-13.976,13.977-13.976h57.859c7.719,0,13.977,6.258,13.977,13.976
				V126.312z"/>
			<path clip-path="url(#SVGID_4_)" fill="#FFFFFF" d="M89.893,221.766c0,6.374-5.164,11.536-11.534,11.536H30.602
				c-6.371,0-11.536-5.162-11.536-11.536v-47.755c0-6.37,5.165-11.536,11.536-11.536h47.757c6.37,0,11.534,5.166,11.534,11.536
				V221.766z"/>
			<path clip-path="url(#SVGID_4_)" fill="#FFFFFF" d="M453.683,227.115c0,6.371-5.165,11.535-11.534,11.535h-47.756
				c-6.373,0-11.535-5.164-11.535-11.535v-47.757c0-6.369,5.162-11.535,11.535-11.535h47.756c6.369,0,11.534,5.166,11.534,11.535
				V227.115z"/>
			<g clip-path="url(#SVGID_4_)">
				<path fill="#CBD7DB" d="M396.209,188.897v23.287v2.671v2.559c0,0.493,0.398,0.891,0.891,0.891h0.914v0.056h39.6h0.629h1.196
					c0.493,0,0.892-0.398,0.892-0.89v-2.615v-2.616v-23.342H396.209z"/>
				<path fill="#E6EEF0" d="M418.338,188.062c-10.622,0-17.867,0.055-17.867,0.055h-2.479c0,0-0.413,0-0.892,0
					c-0.585,0-0.891,0.352-0.891,0.781l14.438,12.563h-0.01c0,0,4.781,4.196,5.627,4.889c0.713,0.584,1.17,1.016,2.006,1.016l0,0
					l0,0c0.837,0,1.292-0.432,2.006-1.016c0.846-0.692,5.626-4.889,5.626-4.889h-0.009l14.438-12.563
					c0-0.43-0.308-0.781-0.892-0.781c-0.478,0-0.891,0-0.891,0h-2.479C436.068,188.116,428.96,188.062,418.338,188.062z"/>
			</g>
			<g clip-path="url(#SVGID_4_)">
				<g>
					<path fill="#FFFFFF" d="M361.727,161.348"/>
					<g>
						<path fill="#FFFFFF" d="M361.89,164.243c1.594,0,2.928-1.509,2.841-3.066c-0.096-1.69-1.577-2.723-3.168-2.723
							c-1.594,0-2.928,1.507-2.84,3.064C358.819,163.21,360.299,164.243,361.89,164.243L361.89,164.243z"/>
					</g>
				</g>
				<g>
					<path fill="#FFFFFF" d="M411.647,248.176"/>
					<g>
						<path fill="#FFFFFF" d="M411.813,251.07c1.593,0,2.928-1.508,2.838-3.063c-0.095-1.692-1.576-2.724-3.166-2.724
							c-1.595,0-2.929,1.507-2.839,3.063C408.74,250.039,410.221,251.07,411.813,251.07L411.813,251.07z"/>
					</g>
				</g>
				<g>
					<path fill="#FFFFFF" d="M359.044,173.684c0-0.074,0-0.074,0-0.074"/>
					<g>
						<path fill="#FFFFFF" d="M361.945,173.694c0-0.024,0-0.048,0-0.073c0-0.789-0.294-1.559-0.841-2.13
							c-0.533-0.557-1.275-0.887-2.049-0.89c-0.772-0.003-1.518,0.319-2.056,0.872c-0.549,0.565-0.858,1.339-0.858,2.124
							c0,0.025,0,0.05,0,0.074c0,0.789,0.295,1.559,0.842,2.131c0.532,0.556,1.274,0.886,2.05,0.89
							c0.772,0.002,1.518-0.32,2.054-0.873C361.636,175.255,361.945,174.48,361.945,173.694L361.945,173.694z"/>
					</g>
				</g>
				<g>
					<path fill="#FFFFFF" d="M340.082,303.024c0-0.073,0-0.073,0-0.073"/>
					<g>
						<path fill="#FFFFFF" d="M343.057,303.035c0-0.024,0-0.049,0-0.072c0-0.791-0.302-1.561-0.861-2.131
							c-0.549-0.558-1.309-0.887-2.103-0.89c-0.793-0.003-1.556,0.32-2.107,0.874c-0.562,0.563-0.879,1.336-0.879,2.122
							c0,0.024,0,0.05,0,0.075c0,0.789,0.301,1.558,0.862,2.13c0.546,0.557,1.309,0.886,2.101,0.889
							c0.794,0.003,1.557-0.32,2.108-0.873C342.739,304.595,343.057,303.821,343.057,303.035L343.057,303.035z"/>
					</g>
				</g>
				<g>
					<path fill="#FFFFFF" d="M307.762,250.799c0-0.072,0-0.072,0-0.072"/>
					<g>
						<path fill="#FFFFFF" d="M310.664,250.811c0-0.024,0-0.048,0-0.072c0-0.789-0.294-1.561-0.842-2.131
							c-0.534-0.559-1.275-0.886-2.049-0.889c-0.773-0.004-1.517,0.319-2.055,0.873c-0.548,0.564-0.857,1.337-0.857,2.123
							c0,0.024,0,0.049,0,0.074c0,0.788,0.294,1.559,0.842,2.131c0.532,0.557,1.273,0.886,2.047,0.888
							c0.774,0.003,1.52-0.319,2.056-0.871C310.354,252.371,310.664,251.598,310.664,250.811L310.664,250.811z"/>
					</g>
				</g>
				<g>
					<path fill="#FFFFFF" d="M328.189,303.896c0-0.072,0-0.072,0-0.072"/>
					<g>
						<path fill="#FFFFFF" d="M331.104,303.907c0-0.022,0-0.047,0-0.071c0-0.777-0.296-1.533-0.847-2.097
							c-0.534-0.548-1.279-0.871-2.056-0.876c-0.776-0.004-1.524,0.317-2.063,0.861c-0.55,0.554-0.861,1.315-0.861,2.089
							c0,0.023,0,0.048,0,0.072c0,0.777,0.296,1.534,0.844,2.095c0.535,0.551,1.28,0.873,2.059,0.876
							c0.776,0.004,1.522-0.314,2.063-0.858C330.793,305.443,331.104,304.682,331.104,303.907L331.104,303.907z"/>
					</g>
				</g>
				<g>
					<path fill="#FFFFFF" d="M327.633,235.937"/>
					<g>
						<path fill="#FFFFFF" d="M327.799,238.794c1.577,0,2.91-1.6,2.819-3.114c-0.099-1.713-1.589-2.6-3.152-2.6
							c-1.579,0-2.91,1.598-2.82,3.115C324.746,237.906,326.233,238.794,327.799,238.794L327.799,238.794z"/>
					</g>
				</g>
				<g>
					<path fill="#FFFFFF" d="M406.102,258.249"/>
					<g>
						<path fill="#FFFFFF" d="M404.305,260.477c1.17,1.062,3.23,0.771,4.183-0.413c1.075-1.334,0.568-2.991-0.591-4.043
							c-1.169-1.059-3.231-0.769-4.182,0.414C402.639,257.77,403.145,259.428,404.305,260.477L404.305,260.477z"/>
					</g>
				</g>
				<g>
					<path fill="#FFFFFF" d="M351.266,298.264"/>
					<g>
						<path fill="#FFFFFF" d="M351.431,301.121c1.579,0,2.91-1.599,2.822-3.114c-0.102-1.713-1.588-2.6-3.152-2.6
							c-1.577,0-2.911,1.599-2.822,3.114C348.379,300.233,349.865,301.121,351.431,301.121L351.431,301.121z"/>
					</g>
				</g>
				<g>
					<path fill="#FFFFFF" d="M154.38,246.281c0-0.073,0-0.073,0-0.073"/>
					<g>
						<path fill="#FFFFFF" d="M158.431,240.344c0-0.025,0-0.049,0-0.074c0-0.79-0.303-1.559-0.863-2.131
							c-0.548-0.558-1.308-0.887-2.103-0.889c-0.792-0.004-1.556,0.319-2.107,0.873c-0.563,0.564-0.88,1.337-0.88,2.124
							c0,0.025,0,0.049,0,0.074c0,0.788,0.303,1.559,0.864,2.13c0.546,0.557,1.307,0.886,2.099,0.889
							c0.796,0.004,1.559-0.32,2.11-0.873C158.112,241.903,158.431,241.128,158.431,240.344L158.431,240.344z"/>
					</g>
				</g>
				<g>
					<g>
						<path fill="#FFFFFF" d="M169.345,247.31c0-0.025,0-0.049,0-0.074c0-0.775-0.296-1.533-0.846-2.097
							c-0.534-0.548-1.28-0.871-2.058-0.873c-0.777-0.003-1.524,0.314-2.063,0.858c-0.551,0.556-0.862,1.315-0.862,2.089
							c0,0.025,0,0.05,0,0.073c0,0.777,0.297,1.533,0.847,2.097c0.534,0.549,1.278,0.871,2.056,0.875
							c0.776,0.002,1.523-0.314,2.064-0.859C169.033,248.844,169.345,248.083,169.345,247.31L169.345,247.31z"/>
					</g>
					<g>
						<path fill="#FFFFFF" d="M60.264,242.295c0-0.023,0-0.048,0-0.072c0-0.776-0.295-1.535-0.846-2.098
							c-0.534-0.548-1.279-0.87-2.058-0.874c-0.776-0.003-1.523,0.315-2.063,0.86c-0.552,0.555-0.863,1.314-0.863,2.089
							c0,0.023,0,0.049,0,0.071c0,0.778,0.298,1.535,0.847,2.098c0.533,0.549,1.278,0.871,2.057,0.874
							c0.776,0.002,1.524-0.314,2.064-0.859C59.951,243.829,60.264,243.069,60.264,242.295L60.264,242.295z"/>
					</g>
					<g>
						<path fill="#FFFFFF" d="M72.63,262.238c0-0.023,0-0.048,0-0.071c0-0.777-0.293-1.535-0.845-2.097
							c-0.535-0.549-1.28-0.872-2.057-0.875c-0.777-0.003-1.523,0.314-2.063,0.86c-0.551,0.554-0.861,1.314-0.861,2.088
							c0,0.023,0,0.049,0,0.072c0,0.777,0.295,1.533,0.845,2.098c0.536,0.549,1.279,0.871,2.057,0.874
							c0.778,0.002,1.523-0.315,2.064-0.859C72.319,263.772,72.63,263.014,72.63,262.238L72.63,262.238z"/>
					</g>
					<g>
						<path fill="#FFFFFF" d="M125.369,164.783c0-0.024,0-0.049,0-0.072c0-0.777-0.293-1.534-0.847-2.097
							c-0.534-0.549-1.278-0.872-2.055-0.875c-0.776-0.002-1.523,0.315-2.063,0.859c-0.552,0.556-0.862,1.315-0.862,2.09
							c0,0.023,0,0.048,0,0.071c0,0.777,0.295,1.535,0.844,2.099c0.537,0.548,1.281,0.87,2.059,0.874
							c0.777,0.001,1.523-0.315,2.063-0.86C125.06,166.317,125.369,165.556,125.369,164.783L125.369,164.783z"/>
					</g>
					<g>
						<path fill="#FFFFFF" d="M121.805,141.162c0-0.024,0-0.048,0-0.073c0-0.775-0.296-1.533-0.846-2.097
							c-0.534-0.548-1.281-0.871-2.057-0.874c-0.777-0.003-1.523,0.315-2.063,0.86c-0.552,0.555-0.861,1.314-0.861,2.088
							c0,0.024,0,0.05,0,0.073c0,0.777,0.294,1.533,0.844,2.097c0.536,0.549,1.28,0.871,2.056,0.875
							c0.778,0.002,1.525-0.315,2.065-0.859C121.494,142.696,121.805,141.936,121.805,141.162L121.805,141.162z"/>
					</g>
					<g>
						<path fill="#FFFFFF" d="M122.547,153.121c0-0.024,0-0.048,0-0.071c0-0.777-0.295-1.534-0.846-2.098
							c-0.534-0.548-1.278-0.871-2.057-0.875c-0.776-0.003-1.522,0.314-2.063,0.858c-0.55,0.555-0.862,1.317-0.862,2.091
							c0,0.024,0,0.049,0,0.072c0,0.777,0.296,1.533,0.846,2.096c0.535,0.55,1.279,0.872,2.058,0.875
							c0.776,0.003,1.524-0.313,2.063-0.858C122.234,154.656,122.547,153.894,122.547,153.121L122.547,153.121z"/>
					</g>
					<g>
						<path fill="#FFFFFF" d="M131.238,298.228c0-0.024,0-0.049,0-0.072c0-0.777-0.296-1.534-0.846-2.096
							c-0.534-0.549-1.28-0.871-2.057-0.875c-0.778-0.004-1.523,0.313-2.063,0.859c-0.55,0.554-0.862,1.315-0.862,2.089
							c0,0.023,0,0.048,0,0.072c0,0.776,0.295,1.533,0.846,2.096c0.534,0.55,1.279,0.873,2.058,0.876
							c0.774,0.004,1.522-0.317,2.063-0.86C130.927,299.762,131.238,299.002,131.238,298.228L131.238,298.228z"/>
					</g>
					<g>
						<path fill="#FFFFFF" d="M65.054,253.214c0-0.024,0-0.05,0-0.072c0-0.776-0.296-1.534-0.845-2.097
							c-0.535-0.549-1.279-0.872-2.059-0.875c-0.774-0.002-1.522,0.314-2.062,0.858c-0.55,0.556-0.861,1.317-0.861,2.091
							c0,0.025,0,0.047,0,0.072c0,0.775,0.294,1.534,0.844,2.097c0.536,0.548,1.28,0.873,2.057,0.874
							c0.778,0.003,1.522-0.314,2.063-0.858C64.741,254.747,65.054,253.987,65.054,253.214L65.054,253.214z"/>
					</g>
				</g>
				<g>
					<g>
						<path fill="#FFFFFF" d="M147.666,232.837c1.576,0,2.91-1.6,2.819-3.114c-0.102-1.711-1.588-2.602-3.152-2.602
							c-1.577,0-2.911,1.602-2.821,3.115C144.611,231.95,146.1,232.837,147.666,232.837L147.666,232.837z"/>
					</g>
					<g>
						<path fill="#FFFFFF" d="M138.591,302.669c1.064,1.166,3.142,1.072,4.203-0.014c1.196-1.228,0.851-2.924-0.204-4.081
							c-1.063-1.168-3.143-1.074-4.201,0.013C137.189,299.815,137.537,301.511,138.591,302.669L138.591,302.669z"/>
					</g>
				</g>
				<g>
					<line fill="#FFFFFF" x1="362.806" y1="149.02" x2="362.806" y2="149.02"/>
					<g>
						<path fill="#FFFFFF" d="M362.595,151.879c1.577,0,3.085-0.933,3.211-2.64c0.114-1.529-1.208-3.082-2.787-3.082
							c-1.577,0-3.085,0.933-3.211,2.639C359.693,150.326,361.014,151.879,362.595,151.879L362.595,151.879z"/>
					</g>
				</g>
				<g>
					<line fill="#FFFFFF" x1="318.131" y1="244.588" x2="318.131" y2="244.588"/>
					<g>
						<path fill="#FFFFFF" d="M317.918,247.449c1.576,0,3.086-0.934,3.211-2.638c0.114-1.531-1.207-3.084-2.787-3.084
							s-3.087,0.934-3.212,2.64C315.017,245.896,316.337,247.449,317.918,247.449L317.918,247.449z"/>
					</g>
				</g>
			</g>
			<path clip-path="url(#SVGID_4_)" fill="#D49074" d="M248.759,170.419c0.187,2.821,0.78,9.917,0.855,12.144
				c0.074,2.229,0.854,5.125-1.784,5.571c-2.636,0.446-6.055,0.67-6.203-1.3c-0.146-1.968,1.058-2.007,1.784-2.079
				c0.742-0.075,1.561-0.186,2.414-0.446c0.321-0.098-0.334-7.985-0.631-11.216c-0.299-3.231-0.81-5.786,0.521-6.462
				C247.905,165.517,248.572,167.595,248.759,170.419z"/>
			<path clip-path="url(#SVGID_4_)" fill="#1C2124" d="M227.098,171.102c-1.196,0.545-1.977,2.458-1.567,4.875
				c0.547,3.204,2.874,3.148,4.179,2.438c1.306-0.712,1.613-2.424,1.455-4.186C231.007,172.468,229.719,169.91,227.098,171.102z"/>
			<path clip-path="url(#SVGID_4_)" fill="#1C2124" d="M258.379,170.864c-1.547,0.698-2.182,2.646-1.817,5.069
				c0.481,3.214,2.751,3.196,4.034,2.509c1.284-0.688,1.61-2.396,1.482-4.157C261.951,172.521,260.681,169.824,258.379,170.864z"/>
			<path clip-path="url(#SVGID_4_)" fill="#1C2124" d="M226.484,198.199c-1.32-0.66-2.435-0.134-2.563,0.918
				c-0.211,1.73,1.335,3.716,4.317,5.377c2.451,1.365,3.677,2.267,9.192,1.812c2.501-0.208,2.924-1.922,2.451-2.76
				c-0.474-0.835-1.588-0.946-3.873-0.862c-2.242,0.082-3.975-0.295-6.379-1.782C227.877,199.813,227.472,198.692,226.484,198.199z"
				/>
			<path clip-path="url(#SVGID_4_)" fill="#1C2124" d="M222.98,154.415c-2.931,2.491-4.162,5.161-4.137,6.867
				c0.019,1.262,1.41,1.95,2.338,1.318c0.93-0.632,1.242-1.653,2.497-3.205c1.187-1.465,2.647-2.829,5.1-3.945
				c1.043-0.475,2.496-0.854,3.269-1.039c1.064-0.259,1.748-0.605,1.801-1.672c0.074-1.466-1.932-1.988-4.159-1.615
				C227.988,151.408,225.564,152.222,222.98,154.415z"/>
			<path clip-path="url(#SVGID_4_)" fill="#1C2124" d="M260.969,154.133c2.158,1.034,6.092,3.908,7.494,5.849
				c1.448,2.005,1.473,3.485,0.611,3.872c-2.227,1.002-3.134-1.659-6.294-4.067c-1.171-0.891-2.202-1.643-4.18-2.618
				c-1.537-0.758-2.712-1.187-3.37-1.754c-0.784-0.678-0.807-1.396-0.473-2.006C255.732,151.626,258.935,153.156,260.969,154.133z"
				/>
			<path clip-path="url(#SVGID_4_)" fill="#0A2D3B" d="M193.052,370.928c0,0-0.181,26.198,0.364,40.976h87.75
				c0,0-0.182-35.719-0.365-41.431L193.052,370.928z"/>
			<path clip-path="url(#SVGID_4_)" fill="#1C2124" d="M272.613,117.363c0,0,3.976-1.128,5.793-2.979
				c1.941-1.979,2.072-3.725,2.479-3.872c0.409-0.149,4.912,4.029,3.761,11.309c-1.15,7.279-5.543,9.525-5.543,9.525l-7.056-0.742
				L272.613,117.363z"/>
			<g clip-path="url(#SVGID_4_)">
				<ellipse fill="#FFFFFF" cx="125.844" cy="86.388" rx="32.924" ry="26.129"/>
				<path fill="#FFFFFF" d="M108.519,107.001c0,0-0.056,7.021-5.015,12.924c0,0,10.475,1.506,21.727-9.859
					C136.483,98.7,108.519,107.001,108.519,107.001z"/>
				<g>
					<path fill="#B2C2C8" d="M112.251,76.517c-4.085-0.041-5.684,0.345-5.906,1.46c-0.12,0.602-0.171,1.58,0.39,2.173
						c0.582,0.612,1.813,0.828,3.869,0.821c5.863-0.019,27.676,0.043,30.577-0.041c2.899-0.082,4.208-0.371,4.274-2.063
						c0.064-1.692-1.088-2.146-2.48-2.284C141.782,76.464,116.336,76.557,112.251,76.517z"/>
					<path fill="#B2C2C8" d="M110.259,85.458c-3.131,0-3.939,0.317-3.997,1.878c-0.022,0.612-0.062,1.385,0.504,1.977
						c0.584,0.614,1.43,0.607,3.489,0.6c5.888-0.02,28.024-0.042,30.937-0.042c1.756,0,2.712-0.374,2.841-2.062
						c0.112-1.448-0.75-2.284-1.588-2.284C141.244,85.524,114.359,85.458,110.259,85.458z"/>
					<path fill="#B2C2C8" d="M110.259,94.483c-3.131,0-3.439,0.484-3.773,1.266c-0.243,0.563-0.175,1.691,0.39,2.282
						c0.582,0.614,1.32,0.913,3.38,0.907c5.888-0.021,16.604-0.042,19.517-0.042c1.754,0,4.103-0.319,4.233-2.007
						c0.14-1.782-0.863-2.284-1.95-2.34C130.855,94.487,114.359,94.483,110.259,94.483z"/>
				</g>
			</g>
			<path clip-path="url(#SVGID_4_)" fill="#547684" d="M391.866,94.051v24.753c0,1.661-1.347,3.009-3.01,3.009h-51.657
				c-1.662,0-3.007-1.348-3.007-3.009V94.051"/>
			<path clip-path="url(#SVGID_4_)" fill="#F8503B" d="M191.081,303.714l-13.482-20.947l33.873-58.385h3.676l10.252,16.045
				l22.394,3.009l14.486-17.938l16.713,15.376l15.041,48.246l-12.851,17.233c1.561,8.912,1.337,58.532,1.337,61.651
				s-0.074,5.07-0.074,6.202c0,1.189-3.937,1.077-3.937,1.077s-26.52,1.263-42.489,1.338c-15.97,0.074-39.033-1.039-42.117-1.412
				c-1.34-0.162-2.673,0.038-2.673-2.562c0-5.185-0.165-17.327-0.093-30.66c0.11-20.779,0.613-40.279,0.613-40.279"/>
			<path clip-path="url(#SVGID_4_)" fill="#B2C2C8" d="M353.225,74.522c0-0.812,0.658-1.469,1.469-1.469h17.244
				c0.811,0,1.469,0.657,1.469,1.469l3.687,20.793c0,0.811-0.228,0.429-1.04,0.429h-25.476c-0.81,0-0.976,0.138-0.976-0.674
				L353.225,74.522z"/>
			<path clip-path="url(#SVGID_4_)" fill="#FFFFFF" d="M358.33,78.858c0-0.401,0.326-0.727,0.728-0.727h8.547
				c0.4,0,0.728,0.325,0.728,0.727l1.826,10.304c0,0.402-0.114,0.213-0.515,0.213h-12.626c-0.399,0-0.482,0.067-0.482-0.334
				L358.33,78.858z"/>
			<path clip-path="url(#SVGID_4_)" fill="#3D5F6E" d="M378.386,80.864c0-0.401,0.327-0.728,0.728-0.728h7.879
				c0.401,0,0.727,0.326,0.727,0.728l0.489,10.305c0,0.401,0.778,0.211,0.376,0.211h-10.395c-0.4,0-0.262,0.068-0.262-0.333
				L378.386,80.864z"/>
			<path clip-path="url(#SVGID_4_)" fill="#B2C2C8" d="M386.317,83.456h-46.576c-3.064,0-5.549,2.485-5.549,5.549v6.79h57.674v-6.79
				C391.866,85.941,389.382,83.456,386.317,83.456z"/>
			<circle clip-path="url(#SVGID_4_)" fill="#B2C2C8" cx="363.346" cy="103.05" r="16.745"/>
			<path clip-path="url(#SVGID_4_)" fill="#486B79" d="M53.605,193.354c0,0-4.413-0.521-8.858-3.561
				c-6.587-4.506-6.212-7.554-7.491-7.192c-0.92,0.26-2.481,5.037-0.686,8.593c-0.832,0.783-2.085,2.856-1.399,5.792
				c0.376,1.623,1.584,2.623,2.704,3.103c-0.408,1.003-0.557,2.371,0.076,4.135c2.322,6.482,10.506,4.194,11.794,2.946
				c0.012-0.012-0.27,0.769-0.265,0.757"/>
			<path clip-path="url(#SVGID_4_)" fill="#486B79" d="M48.686,206.555c0,0-2.675,5.276-12.221,6.947c0,0,1.374,2.524,8.135,4.566
				c5.63,1.7,15.487-0.148,20.13-5.16c0,0,7.985-8.581,5.386-21.171c-1.973-9.549-17.419-0.743-17.419-0.743L48.686,206.555z"/>
			<path clip-path="url(#SVGID_4_)" fill="#486B79" d="M68.295,186.389l9.025-0.52c0,0-2.119,4.345-7.615,8.579
				C64.209,198.682,68.518,186.351,68.295,186.389z"/>
			<path clip-path="url(#SVGID_4_)" fill="#486B79" d="M52.436,193.297c0,0-2.559-4.867-0.742-8.951
				c1.633-3.678,5.199-4.755,7.838-4.605c2.635,0.147,6.498,1.895,8.244,5.199c1.746,3.306,2.043,7.279,2.153,7.318
				C70.039,192.293,52.436,193.297,52.436,193.297z"/>
			<g clip-path="url(#SVGID_4_)">
				<circle fill="#FFFFFF" cx="98.893" cy="280.296" r="24.937"/>
				<g>
					<path fill="#CEE3E3" d="M102.294,283.507c6.532-6.891,12.074-12.439,12.074-12.439c-0.169-0.339-7.158-7.182-7.158-7.182
						s-3.202,2.747-11.008,10.888c-3.682,3.839-8.837,9.602-12.893,14.4l7.086,7.76C90.396,296.934,95.646,290.52,102.294,283.507z"
						/>
					<path fill="#CEE3E3" d="M91.862,264.051c0,0-5.588,5.452-7.265,7.776c0,0,17.043,20.273,19.709,23.345l1.695,1.919
						c3.167-3.295,5.502-5.862,7.392-8.095C113.394,288.996,96.805,269.246,91.862,264.051z"/>
				</g>
			</g>
			<g clip-path="url(#SVGID_4_)">
				<circle fill="#FFFFFF" cx="134.776" cy="196.276" r="24.937"/>
			</g>
			<path clip-path="url(#SVGID_4_)" fill="#319862" d="M135.223,195.153c-4.979-8.765-8.468-11.958-8.468-11.958l-7.392,6.388
				c7.947,10.139,11.353,20.649,11.353,20.649l7.662-0.186c0,0,2.229-6.443,6.537-12.999c6.313-9.604,17.94-18.236,17.94-18.236
				c-1.358-2.277-5.128-7.167-5.128-7.167s-5.335,2.814-12.912,9.426c-7.352,6.414-11.265,12.486-11.265,12.486"/>
			<g clip-path="url(#SVGID_4_)">
				<circle fill="#FFFFFF" cx="342.771" cy="203.905" r="24.938"/>
				<g>
					<path fill="#CEE3E3" d="M346.172,207.116c6.532-6.888,12.072-12.437,12.072-12.437c-0.169-0.341-7.158-7.185-7.158-7.185
						s-3.202,2.748-11.008,10.889c-3.682,3.841-8.835,9.601-12.893,14.402l7.086,7.757
						C334.271,220.543,339.522,214.131,346.172,207.116z"/>
					<path fill="#CEE3E3" d="M335.738,187.66c0,0-5.588,5.453-7.265,7.779c0,0,17.044,20.271,19.709,23.344l1.695,1.918
						c3.169-3.294,5.502-5.862,7.394-8.094C357.271,212.607,340.682,192.857,335.738,187.66z"/>
				</g>
			</g>
			<g clip-path="url(#SVGID_4_)">
				<circle fill="#FFFFFF" cx="380.211" cy="279.68" r="24.938"/>
				<g>
					<path fill="#CEE3E3" d="M383.611,282.89c6.533-6.889,12.072-12.437,12.072-12.437c-0.168-0.341-7.156-7.184-7.156-7.184
						s-3.203,2.748-11.007,10.888c-3.683,3.841-8.836,9.603-12.892,14.401l7.084,7.759
						C371.713,296.317,376.963,289.902,383.611,282.89z"/>
					<path fill="#CEE3E3" d="M373.18,263.434c0,0-5.588,5.453-7.265,7.779c0,0,17.043,20.272,19.71,23.344l1.694,1.92
						c3.169-3.294,5.503-5.862,7.392-8.094C394.711,288.383,378.123,268.631,373.18,263.434z"/>
				</g>
			</g>
			<circle clip-path="url(#SVGID_4_)" fill="#053649" cx="363.346" cy="103.05" r="11.306"/>
			<path clip-path="url(#SVGID_4_)" fill="#3D5F6E" d="M347.817,89.009c-0.154-0.455-0.402-0.846-0.732-1.182
				c-0.09-0.096-0.181-0.188-0.279-0.273c-0.202-0.17-0.425-0.311-0.659-0.425c-0.012-0.008-0.021-0.012-0.032-0.02
				c-0.016-0.008-0.032-0.014-0.052-0.021c-0.097-0.044-0.195-0.085-0.299-0.118c-0.021-0.008-0.044-0.018-0.068-0.024
				c-0.107-0.035-0.216-0.062-0.326-0.085c-0.046-0.011-0.093-0.017-0.138-0.023c-0.082-0.015-0.165-0.024-0.249-0.031
				c-0.041-0.005-0.081-0.009-0.123-0.01c-0.125-0.008-0.251-0.009-0.376-0.001c-0.875,0.054-1.714,0.455-2.302,1.104
				c-0.071,0.078-0.137,0.158-0.199,0.243c-0.018,0.024-0.031,0.049-0.049,0.072c-0.398,0.569-0.617,1.259-0.586,1.958
				c0.005,0.865,0.441,1.726,1.097,2.28c0.436,0.368,0.931,0.594,1.487,0.71c0.295,0.062,0.603,0.057,0.906,0.058
				c0.6-0.04,1.15-0.225,1.656-0.552c0.479-0.316,0.851-0.726,1.119-1.23c0.259-0.5,0.38-1.03,0.359-1.594
				C347.921,89.566,347.868,89.288,347.817,89.009z"/>
			<path clip-path="url(#SVGID_4_)" fill="#FFFFFF" d="M361.92,104.533c0.589-0.199,1.093-0.519,1.525-0.945
				c0.126-0.115,0.244-0.232,0.353-0.359c0.22-0.261,0.4-0.548,0.548-0.852c0.01-0.013,0.018-0.026,0.025-0.04
				c0.011-0.021,0.018-0.045,0.025-0.066c0.06-0.126,0.111-0.254,0.156-0.386c0.01-0.029,0.021-0.059,0.03-0.09
				c0.042-0.136,0.079-0.279,0.109-0.419c0.011-0.061,0.021-0.12,0.031-0.18c0.018-0.105,0.03-0.212,0.042-0.318
				c0.002-0.055,0.008-0.107,0.01-0.161c0.01-0.161,0.012-0.324,0-0.485c-0.069-1.128-0.584-2.212-1.424-2.969
				c-0.098-0.091-0.204-0.177-0.312-0.258c-0.031-0.021-0.063-0.041-0.094-0.063c-0.734-0.516-1.625-0.795-2.525-0.757
				c-1.118,0.008-2.228,0.57-2.942,1.415c-0.476,0.562-0.766,1.202-0.916,1.919c-0.079,0.383-0.075,0.778-0.076,1.169
				c0.054,0.774,0.29,1.487,0.713,2.14c0.406,0.615,0.938,1.096,1.588,1.44c0.644,0.337,1.331,0.492,2.057,0.465
				C361.201,104.666,361.563,104.6,361.92,104.533z"/>
			<g clip-path="url(#SVGID_4_)">
				<defs>
					<path id="SVGID_107_" d="M191.081,303.714l-13.482-20.947l33.873-58.385h3.676l10.252,16.045l22.394,3.009l14.486-17.938
						l16.713,15.376l15.041,48.246l-12.851,17.233c1.561,8.912,1.337,58.532,1.337,61.651s-0.074,5.07-0.074,6.202
						c0,1.189-3.937,1.077-3.937,1.077s-26.52,1.263-42.489,1.338c-15.97,0.074-39.033-1.039-42.117-1.412
						c-1.34-0.162-2.673,0.038-2.673-2.562c0-5.185-0.165-17.327-0.093-30.66c0.11-20.779,0.613-40.279,0.613-40.279"/>
				</defs>
				<clipPath id="SVGID_6_">
					<use xlink:href="#SVGID_107_"  overflow="visible"/>
				</clipPath>
				<path clip-path="url(#SVGID_6_)" fill="#EA4935" d="M189.856,304.939l11.587-13.37c0,0-1.895,47.354,1.671,87.8l-15.823-0.11
					L189.856,304.939z"/>
			</g>
			<path clip-path="url(#SVGID_4_)" fill="#FEC2A8" d="M206.457,292.238c-4.458,3.622-13.871,14.65-13.871,14.65l-11.979-8.803
				c0,0,0-1.299,2.786-9.711c2.784-8.412,6.127-14.911,11.476-20.26s9.692-5.85,15.766-7.187s16.063-2.934,16.063-2.934
				l-0.187,9.729c-7.91,1.059-11.81,2.954-11.81,2.954L206.457,292.238z"/>
			<path clip-path="url(#SVGID_4_)" fill="#FEC2A8" d="M255.259,266.166c0,0,10.362-0.892,18.218,5.069s14.707,13.314,14.707,13.314
				l-11.979,13.649c0,0-4.791-0.668-9.526-1.672c-4.735-1.002-10.36-1.782-10.36-1.782L255.259,266.166z"/>
			<path clip-path="url(#SVGID_4_)" fill="#FEC2A8" d="M204.394,289.229c0,0-0.271,3.957,1.282,5.794
				c1.84,2.172,4.907,1.206,9.082-1.893c3.899-2.898,5.292-4.904,4.121-10.643c-1.008-4.951-7.966-3.063-7.966-3.063
				L204.394,289.229z"/>
			<path clip-path="url(#SVGID_4_)" fill="#FEC2A8" d="M213.979,270.178c0,0,4.79,0.946,6.628,4.457
				c2.127,4.06-0.167,7.743-2.952,10.025c-2.786,2.285-9.304-0.778-9.304-0.778L213.979,270.178z"/>
			<g clip-path="url(#SVGID_4_)">
				<path fill="#F8503B" d="M214.738,222.265c0,0-23.839,8.865-40.78,31.349c-16.341,21.688-29.842,52.057-19.684,68.633
					c6.204,10.126,17.144,8.947,25.394,1.804c7.634-6.613,14.532-16.269,17.429-20.354c0.555-0.782,1.114-1.448-0.11-2.711
					c-2.564-2.643-12.331-11.792-16.714-19.405L214.738,222.265z"/>
				<path fill="#F8503B" d="M260.385,221.152c0,0,17.66,6.74,33.315,26.518c16.853,21.293,31.939,57.797,21.781,74.373
					c-6.204,10.125-16.987,9.818-25.237,2.676c-7.634-6.614-15.996-16.938-18.894-21.023c-0.555-0.782-1.114-1.448,0.111-2.711
					c2.564-2.643,12.331-11.792,16.713-19.405L260.385,221.152z"/>
			</g>
			<path clip-path="url(#SVGID_4_)" fill="#E0412E" d="M264.887,223.863c0.178-1.078-0.482-1.263-0.705-1.375
				c-0.224-0.11-3.49-1.411-4.829-1.857c-1.337-0.445-1.263,0.817-1.263,0.817s-1.236,19.329-19.803,18.794
				c-16.714-0.483-19.276-18.758-19.276-18.758s-0.141-1.175-1.263-0.815c-1.344,0.429-4.605,1.745-4.829,1.856
				c-0.223,0.111-0.906,0.317-0.706,1.375c0,0,4.271,23.59,27.113,23.806C262.76,247.931,264.887,223.863,264.887,223.863z"/>
			<g clip-path="url(#SVGID_4_)">
				<path fill="#707E84" d="M258.135,289.877l-0.07-4.4l-0.01,0.006l-0.26-16.748l-0.187-11.972l-0.068-4.463
					c0,0,0.108-4.114-0.958-5.546c-0.715-0.958-2.244-2.509-5.29-2.792c-2.708-0.252-7.717-0.188-10.337-0.142
					c-2.621,0.035-7.631,0.125-10.327,0.463c-3.038,0.378-4.518,1.974-5.204,2.955c-1.021,1.464-0.783,5.573-0.783,5.573l0.07,4.462
					l0.186,11.971l0.297,19.156l0.008,0.004l0.029,1.985c0,0-0.14,3.368,0.816,4.947c0.895,1.474,2.663,3.111,6.021,3.481
					c2.066,0.228,4.891,0.281,7.321,0.279l-0.013,0.01c0.393-0.008,1.281-0.012,2.444-0.029c1.162-0.018,2.055-0.041,2.444-0.048
					l-0.013-0.009c2.431-0.071,5.252-0.215,7.31-0.506c3.346-0.474,5.063-2.166,5.908-3.667
					C258.38,293.241,258.135,289.877,258.135,289.877z"/>
				<circle fill="#636F75" cx="248.465" cy="255.666" r="3.876"/>
			</g>
			<path clip-path="url(#SVGID_4_)" fill="#FEC2A8" d="M260.273,269.619c0,0-9.751,2.619-14.986,3.955
				c-5.237,1.339-11.81,3.009-10.976,7.967c0.88,5.22,7.188,3.344,8.914,3.009c1.728-0.334,8.802-2.062,11.588-2.45
				c2.784-0.39,5.905-1.114,5.905-1.114L260.273,269.619z"/>
			<path clip-path="url(#SVGID_4_)" fill="#FEC2A8" d="M259.104,279.48c0,0-15.099,5.906-17.773,7.799
				c-2.673,1.895-1.782,5.404-0.277,6.462c1.503,1.061,3.815,1.581,9.359-0.445c5.793-2.116,8.578-3.118,12.033-4.401"/>
			<path clip-path="url(#SVGID_4_)" fill="#FEC2A8" d="M257.098,289.509c-0.168,0-12.592,2.618-12.592,7.241
				c0,4.625,4.29,4.958,9.471,3.399c5.183-1.56,13.092-3.455,16.714-3.51C274.312,296.585,257.098,289.509,257.098,289.509z"/>
		</g>
	</g>
</g>
</svg>
