<svg xmlns="http://www.w3.org/2000/svg" xmlns:xlink="http://www.w3.org/1999/xlink" width="480" height="390" viewBox="0 0 480 390"><defs><path id="a" d="M0 0H480V390H0z"/></defs><clipPath id="b"><use xlink:href="#a" overflow="visible"/></clipPath><g clip-path="url(#b)"><path fill="#CEE2E3" d="M-2.142 -9.023H482.875V389.979H-2.142z"/><defs><path id="c" d="M-4.919 -9.001H480.098V390H-4.919z"/></defs><clipPath id="d"><use xlink:href="#c" overflow="visible"/></clipPath><g clip-path="url(#d)"><path fill="#AFC5C3" d="M432.42,236.231c-0.816-0.301-1.73-0.342-3.037,1.503c0,0-3.22,5.369-3.637,6.202 s-1.211,2.837,0.5,3.359s2.148-0.536,3.104-1.956c0.957-1.418,3.378-5.352,3.722-6.234 C433.608,237.732,433.25,236.536,432.42,236.231z"/><path fill="#AFC5C3" d="M452.254,280.459c0.276,0.826,1.012,1.855,3.819,1.391c0,0,6.097-1.311,7.007-1.519 c1.475-0.337,3.55-1.292,2.89-2.954c-0.662-1.662-2.19-1.443-3.862-1.076c-1.73,0.38-6.286,1.318-7.197,1.57 C452.656,278.496,451.973,279.619,452.254,280.459z"/><path fill="#AFC5C3" d="M406.471,237.548c0,0,2.068-6.575,2.197-7.136c0.132-0.559,0.412-2.264-1.196-2.944 c-1.608-0.68-2.763,2.054-3.105,3.664c-0.343,1.607-1.8,6.004-1.889,6.879c-0.091,0.875,0.002,2.267,1.414,2.446 C405.42,240.651,406.077,238.859,406.471,237.548z"/><path fill="#AFC5C3" d="M364.625,233.311c0,0,1.638,6.232,2.064,7.434c0.422,1.201,0.99,2.623,2.383,2.701 c1.394,0.078,2.418-1.307,1.28-4.773c-1.138-3.469-1.891-5.934-2.153-6.747c-0.261-0.815-1.295-2.337-2.424-1.87 C364.645,230.521,364.152,231.692,364.625,233.311z"/><path fill="#AFC5C3" d="M347.797,40.094c-0.919-1.152-4.696-6.096-4.696-6.096c-1.379-1.583-3.163-0.992-3.826,0.648 c-0.493,1.225,2.121,4.103,4.378,6.85c2.26,2.747,3.254,3.26,4.811,2.041C349.67,42.593,348.719,41.244,347.797,40.094z"/><path fill="#AFC5C3" d="M417.672,35.289c0,0-1.809,2.752-2.905,4.249c-1.097,1.496-2.362,2.538-3.749,1.305 c-1.386-1.233,0.31-3.234,1.42-4.856c1.111-1.622,2.848-4.343,3.797-4.783c0.873-0.402,3.198,0.189,2.604,1.736 C418.24,34.488,417.672,35.289,417.672,35.289z"/><path fill="#AFC5C3" d="M362.452,20.397c-1.146,0.651-1.29,1.813-0.79,3.324c0,0,2.281,6.194,2.931,7.631 c0.651,1.434,1.249,3.022,3.005,2.239c1.865-0.831,0.93-3.897,0.076-6.104c-0.828-2.143-2.144-5.41-2.436-6.166 C364.842,20.284,363.441,19.835,362.452,20.397z"/><path fill="#AFC5C3" d="M462.172,312.048c-2.95-0.267-4.858-0.522-6.2-0.633s-2.408-0.333-3.251,0.633 c-0.844,0.965-0.531,2.484,1.121,2.962c1.652,0.476,5.236,0.92,6.846,1.108c1.608,0.189,4.425,0.366,4.425-1.463 C465.112,313.578,465.123,312.313,462.172,312.048z"/><path fill="#AFC5C3" d="M10.654,244.749c0,0-3.38,1.466-5.05,2.286c-1.672,0.821-2.9,1.923-1.817,3.677 c1.081,1.752,3.381,0.688,5.184-0.117c1.802-0.805,5.682-2.371,6.631-3.168c0.404-0.341,1.758-1.468,0.82-3.067 c-0.376-0.643-1.686-1.131-2.891-0.71C11.947,244.202,10.654,244.749,10.654,244.749z"/><path fill="#AFC5C3" d="M78.972,275.49c1.001-0.135,1.955-0.542,1.698-2.404c-0.203-1.48-0.569-4.746-0.569-4.746 s-0.247-2.327-1.877-2.764c-1.632-0.438-2.961,0.582-2.806,2.581c0.155,2,0.702,5.783,1.582,6.766 C77.256,275.209,77.816,275.646,78.972,275.49z"/><path fill="#AFC5C3" d="M44.146,265.809c-1.008,0.283-1.652,0.638-2.591,2.477c-0.938,1.84-2.063,3.49-3.189,5.404 c-1.124,1.914-1.389,4.053,0.225,4.541c1.615,0.488,2.853-0.676,4.242-2.777c1.388-2.102,2.525-4.627,3.227-5.93 C47.109,267.572,46.547,265.133,44.146,265.809z"/><path fill="#AFC5C3" d="M440.903,342.049c0-0.549,0.511-1.71,1.86-1.502c0.93,0.142,3.576,1.787,5.223,3.468 c1.645,1.681,2.43,2.36,2.109,3.864c-0.321,1.502-2.469,1.502-3.471,0.5c-1-1.002-3.396-2.684-4.506-3.826 C441.012,343.408,440.903,342.514,440.903,342.049z"/><circle fill="#C7DBDC" cx="229.83" cy="205.442" r="184.074"/><path fill="#312D2E" d="M245.636,411.541l141.212,2.402c-0.471-13.649-5.441-67.816-45.385-107.671 c-38.265-38.18-80.627-41.222-94.885-41.042l0.617-0.247l-25.36-0.27l-0.706,2.08c-20.293,1.746-56.988,7.235-87.796,36.267 c-34.046,32.084-48.786,86.508-54.714,113.424l141.654-5.115L245.636,411.541z"/><path fill="#FEC2A8" d="M149.186,404.701c0,0,23.705-20.84,33.236-35.872c9.311-14.683,11.366-20.349,19.89-24.106 c6.464-2.85,33.087-2.566,33.087-2.566l-7.973,63.296L149.186,404.701z"/><path fill="#242021" d="M136.727,403.8h59.369c0,0-18.055-22.187-22.741-27.847c-1.988-2.4-2.438-3.639-3.564-2.588 C168.66,374.42,150.313,390.666,136.727,403.8z"/><path fill="#fff" d="M374.958,173.863c0,0-3.153-4.616-3.452-5.028c-0.901-1.238-0.827-1.688-2.852-0.563 c-2.027,1.126-13.341,7.638-15.238,8.781c-5.104,3.078-5.66,3.31-5.622,4.548c0.02,0.68,0.804,1.012,2.057,0.895 c2.169-0.205,13.735-4.616,16.587-5.969c0,0,4.053,5.969,4.504,6.568c0.451,0.601,1.164,1.052,2.59,0 c1.427-1.052,18.723-13.393,20.565-14.862c2.403-1.913,3.342-2.851,3.151-3.752c-0.182-0.888-1.013-0.9-2.287-0.3 C393.685,164.781,374.958,173.863,374.958,173.863z"/><path fill="#fff" d="M91.655,111.792c0,0-2.473,3.9-2.815,4.278c-1.027,1.134-1.295,1.187-3.189-0.151 c-1.893-1.337-13.885-9.616-15.648-10.958c-4.742-3.607-5.453-4.352-5.479-5.592c-0.037-1.726,1.802-1.163,3.115-0.6 c2.002,0.858,10.695,5.104,16.813,7.919c0,0,3.863-4.607,4.375-5.157c0.513-0.548,1.411-1.146,2.717,0.053 c1.305,1.198,17.032,15.555,18.707,17.213c2.18,2.161,2.723,2.965,2.272,3.766c-0.49,0.863-2.815,1.014-4.729-0.111 C106.576,121.734,91.655,111.792,91.655,111.792z"/><path fill="#fff" d="M125.865,79.971c0,0-4.395,1.949-6.701,3.018c-1.39,0.645-1.465,0.536-2.421-1.576 c-0.957-2.111-5.801-14.5-6.642-16.55c-2.265-5.512-2.601-6.729-2.141-7.881c0.451-1.125,1.407-1.068,2.478,0.338 c1.317,1.734,6.111,10.069,9.964,15.593c0,0,6.381-1.846,7.093-2.082c1.183-0.396,1.796-0.274,2.316,1.42 c0.52,1.693,7.131,20.174,7.93,22.392c1.014,2.814,1.439,4.036,0.618,4.446c-1.576,0.788-2.972-1.269-4.055-3.209 C133.62,94.648,125.865,79.971,125.865,79.971z"/><path fill="#fff" d="M116.986,264.822c0,0-22.321-12.236-25.253-13.189l17.511-16.564c0,0,2.16,9.138,4.188,16.43 C113.808,252.854,116.986,264.822,116.986,264.822z"/><path fill="#fff" d="M345.988,315.498c-5.789,6.07-18.473,18.931-21.206,21.426c0,0,8.854,0.176,11.913,0.176 c3.057,0,10.593,0.359,24.028-0.289c7.6-0.366-14.547-21.033-14.547-21.033L345.988,315.498z"/><path fill="#fff" d="M355.106,110.629l12.459,10.658c0,0-8.164,3.735-13.286,5.892c-4.989,2.101-9.082,4.09-9.082,4.09 S353.191,115.244,355.106,110.629z"/><circle fill="#fff" cx="71.12" cy="209.293" r="48.379"/><path fill="none" d="M76.463,198.82l-0.139-7.688c-0.053-2.856-2.39-5.132-5.221-5.081c-2.83,0.052-5.084,2.41-5.033,5.266 l0.146,8.007"/><path fill="#B2C2C8" d="M83.494,202.42l-0.206-11.413c-0.12-6.739-5.633-12.104-12.312-11.983 c-6.68,0.119-11.993,5.681-11.871,12.42l0.109,6.116l7.001,1.765l-0.146-8.007c-0.051-2.855,2.203-5.214,5.033-5.266 c2.831-0.051,5.168,2.225,5.221,5.081l0.139,7.688"/><path fill="#6F7C82" d="M52.17,206.225v22.44c0,3.995,7.122,7.505,18.987,7.56l0.002,0.002c0.046,0,0.091-0.001,0.137-0.001 s0.091,0.001,0.137,0.001l0.001-0.002c11.863-0.055,18.986-3.564,18.986-7.56v-22.44H52.17z"/><path fill="#505C62" d="M86.128,196.676H56.465c-2.373,0-4.295,1.922-4.295,4.294v5.255h38.25v-5.255 C90.42,198.598,88.5,196.676,86.128,196.676z"/><g fill="#2C393B"><circle cx="71.19" cy="214.755" r="5.4"/><path d="M74.537,228.902c0,0.417-0.339,0.757-0.758,0.757h-5.368c-0.419,0-0.758-0.34-0.758-0.757 l0.221-10.736c0-0.419,0.118-0.222,0.537-0.222h5.368c0.419,0,0.505-0.07,0.505,0.348L74.537,228.902z"/></g><path fill="#3C3839" d="M164.948,174.651c0,0-12.836-4.533-19.814,8.106c-7.955,14.411,2.853,33.625,16.212,34.676l3.754-0.75 L164.948,174.651z"/><path fill="#3C3839" d="M307.397,171.349c0,0,13.392-5.004,20.049,7.806c7.957,15.313-3.603,33.627-16.964,34.678l-3.235-0.451 L307.397,171.349z"/><path fill="#3C3839" d="M163.072,163.768c0,0-5.576,24.805-6.963,50.438c-0.293,5.419-1.365,36.303,10.004,58.545 c12.322,24.116,38.839,41.538,62.596,41.881c31.186,0.452,42.895-1.124,62.711-19.251 c18.867-18.51,24.729-49.104,25.105-61.134c0.939-29.939-4.165-70.704-8.442-77.908H167.801L163.072,163.768z"/><path fill="#FEC2A8" d="M299.752,191.99c-0.677-7.131-1.877-19.44-4.956-27.172l-118.064,5.405c0,0-4.393,22.181-2.101,37.679 c2.645,17.88,12.084,29.873,24.019,36.778c12.864,7.443,27.767,9.5,40.306,9.26c-0.305-4.822-0.93-13.095-1.125-16.485 c-0.228-3.883-0.903-11.483-0.845-13.79c0.057-2.31,0.448-2.59,1.462-3.209c0,0,1.183-0.731,3.098-0.339 c1.913,0.395,2.193,2.365,2.532,6.023c0.243,2.64,0.731,9.176,1.463,19.141c0.23,3.121,0.46,5.906,0.665,8.26 c5.355-0.49,9.996-1.348,13.465-2.256c12.61-3.303,28.68-11.132,35.502-27.172C300.951,210.529,300.426,199.12,299.752,191.99 z"/><path fill="#D49074" d="M244.077,226.141c-0.339-3.658-0.619-5.629-2.532-6.023c-1.915-0.393-3.098,0.339-3.098,0.339 c-1.014,0.619-1.405,0.899-1.462,3.209c-0.059,2.307,0.617,9.907,0.845,13.79c0.195,3.391,0.82,11.663,1.125,16.485 c2.525-0.05,4.953-0.19,7.25-0.399c-0.205-2.354-0.435-5.139-0.665-8.26C244.809,235.316,244.32,228.78,244.077,226.141z"/><path fill="#E9A98D" d="M265.188,235.598c-3.207,0.885-5.067,0.826-6.381,1.614c-1.137,0.683-1.576,1.688-0.862,2.777 c0.56,0.853,1.65,1.402,4.879,0.938c3.639-0.525,6.255-1.62,8.706-2.701c2.553-1.127,3.926-3.532,2.553-4.993 c-1.202-1.273-3.039-0.036-4.166,0.527C268.828,234.303,267.393,234.99,265.188,235.598z"/><path fill="#E9A98D" d="M212.328,235.762c-2.589-0.999-3.624-1.412-4.884-2.061c-1.309-0.674-3.435-1.793-4.54-0.305 c-1.276,1.716,0.765,3.873,2.861,4.922c2.137,1.067,7.99,3.521,11.217,3.624c2.403,0.076,3.491-1.21,3.433-2.327 c-0.059-1.183-0.888-1.924-3.548-2.519C214.311,236.523,212.328,235.762,212.328,235.762z"/><path fill="#1C2124" d="M209.818,218.553c-0.814,1.695-1.238,6.551,1.128,8.587c2.367,2.037,5.972,1.515,7.156-0.908 c1.182-2.421,1.485-7.1-0.825-9.384C215.1,214.694,211.524,215.003,209.818,218.553z"/><path fill="#1C2124" d="M259.277,219.097c-1.033,1.796-1.283,6.675,1.06,8.787c2.341,2.112,5.888,1.351,7.151-1.055 c1.262-2.404,1.755-6.911-0.525-9.271C264.816,215.335,261.26,215.658,259.277,219.097z"/><path fill="#1C2124" d="M213.135,189.438c-2.824,1.199-7.155,3.885-10.02,6.681c-1.961,1.914-3.266,3.939-3.415,5.253 c-0.137,1.196,0.495,2.673,1.163,2.927c1.577,0.602,2.854,0.568,5.404-2.326c2.513-2.853,6.772-5.806,10.021-7.018 c5.628-2.103,7.769-1.201,9.006-3.303c1.107-1.881,0.113-3.228-1.65-3.903C222.672,187.378,218.615,187.111,213.135,189.438z"/><path fill="#1C2124" d="M264.066,189.94c5.424,1.604,8.109,4.027,9.74,5.337c3.85,3.091,3.404,6.092,2.478,7.172 c-1.223,1.429-3.523,0.108-4.664-0.903c-1.283-1.138-1.109-1.487-4.315-3.585c-3.209-2.1-6.153-2.742-9.215-3.121 c-1.977-0.245-4.985-0.175-5.715-1.399c-1.252-2.102,0.367-3.784,1.429-4.082C255.99,188.746,259.524,188.599,264.066,189.94z"/><path fill="#1C2124" d="M203.016,264.987c-2.838-0.705-7.373-0.786-11.386,0.028c-3.647,0.742-4.584,2.669-4.478,3.855 c0.237,2.639,2.252,2.995,4.774,2.52c2.521-0.474,6.494-1.008,9.458-0.178c2.966,0.831,6.021,2.877,8.333,5.872 c2.313,2.994,3.557,3.231,4.655,3.024c1.376-0.262,3.587-2.669-0.415-8.126C212.156,269.529,207.842,266.186,203.016,264.987z"/><path fill="#D5F0FD" d="M186.983,169.057c0,0-0.997,8.193-2.796,12.101c-1.822,3.968-4.678,13.266,1.12,17.01 c1.046,0.675,4.448,1.631,7.036-0.664c5.113-4.531-0.382-16.233-0.844-18.78c-1.295-7.126-0.281-8.998-0.281-8.998 L186.983,169.057z"/><path fill="#2C2728" d="M249.611,56.662c0,0,6.381,1.276,11.41,1.427s15.128,0.836,22.966,10.958 c8.259,10.659,8.633,20.04,9.46,27.396c0.823,7.355,3.301,13.359,7.504,18.162c4.203,4.805,10.209,11.109,10.808,22.894 c0.602,11.784-0.675,17.638-0.675,17.638H161.346l0.15-17.337c0,0,0.738-6.911,6.23-12.836 c5.704-6.155,10.283-8.105,11.332-13.81c1.053-5.705-0.123-23.887,6.755-36.403c4.579-8.331,12.187-17.528,26.121-21.992 c11.483-3.678,28.297-2.101,43.307,5.93"/><path fill="#242021" d="M312.178,133.504c4.059,2.774,7.239,21.707,1.835,28.313c-7.126,8.709-34.903,18.539-74.683,19.74 c-39.78,1.2-77.085-10.411-80.761-18.539c-3.903-8.633-1.498-21.802,2.102-26.12c0.563-0.676,1.237-0.751,2.739,0.074 c3.898,2.146,32.834,14.771,80.048,13.061c43.495-1.576,61.585-13.172,65.516-15.512 C311.002,133.315,311.175,132.819,312.178,133.504z"/><path fill="#85929A" d="M272.283,405.746v-9.242l-0.022,0.016v-35.166v-32.621v-9.369c0,0,0.345-8.633-1.718-11.671 c-1.383-2.036-4.354-5.34-10.36-6.034c-5.335-0.618-15.227-0.646-20.402-0.636c-5.175-0.011-15.068,0.018-20.4,0.636 c-6.008,0.694-8.979,3.998-10.361,6.034c-2.063,3.038-1.72,11.671-1.72,11.671v9.369v32.621v40.219l0.014,0.007v4.167 c0,0-0.383,6.317,1.459,9.665c1.72,3.122,5.16,6.119,11.778,7.005c4.071,0.545,9.643,0.753,14.445,0.825l-0.026,0.019 c0.772,0,2.531,0.02,4.828,0.018c2.298,0.002,4.055-0.018,4.829-0.018l-0.026-0.019c4.801-0.072,10.372-0.28,14.443-0.825 c6.62-0.886,10.059-3.883,11.78-7.005C272.664,412.063,272.283,405.746,272.283,405.746z"/><path fill="#FEC2A8" d="M265.901,361.318c2.026,0.15,12.177,0.88,15.911,2.102c4.127,1.352,6.746,7.098,4.053,12.385 c-2.027,3.978-5.254,5.703-14.938,6.08c-9.682,0.374-43.607,0-43.607,0l-3.002-21.994L265.901,361.318z"/><path fill="#FEC2A8" d="M225.22,378.807v16.361l21.69,4.429c0,0,24.926-0.494,26.871-0.6c8.256-0.451,10.332-7.81,9.457-11.558 c-1.051-4.505-5.479-6.906-15.235-6.981C262.653,380.416,225.22,378.807,225.22,378.807z"/><path fill="#FEC2A8" d="M199.887,359.104c0,0,14.71-4.783,28.599-8.33c12.646-3.23,25.218-5.18,31.111-6.142 c8.001-1.307,20.472-4.003,24.93-3.299c5.226,0.823,7.792,4.856,7.332,9.164c-0.534,5.035-3.3,8.524-15.306,11.732 s-13.656,3.85-13.656,3.85l-0.675,33.068l-65.599,4.353L199.887,359.104z"/><circle fill="#636F75" cx="255.28" cy="320.906" r="6.599"/><circle fill="#fff" cx="383.124" cy="85.021" r="40.79"/><path fill="none" d="M387.629,76.189l-0.117-6.481c-0.045-2.407-2.015-4.326-4.401-4.283 c-2.386,0.044-4.286,2.031-4.242,4.439l0.12,6.751"/><path fill="#B2C2C8" d="M393.557,79.224l-0.172-9.621c-0.104-5.683-4.752-10.206-10.381-10.104 c-5.631,0.101-10.11,4.789-10.009,10.472l0.093,5.156l5.9,1.488l-0.12-6.751c-0.044-2.408,1.856-4.396,4.242-4.439 c2.387-0.043,4.356,1.876,4.401,4.283l0.117,6.481"/><path fill="#6F7C82" d="M367.146,82.432v18.922c0,3.366,6.007,6.327,16.01,6.372v0.003c0.039,0,0.076-0.001,0.115-0.001 c0.041,0,0.076,0.001,0.115,0.001l0.002-0.003c10.003-0.045,16.01-3.006,16.01-6.372V82.432H367.146z"/><path fill="#505C62" d="M395.777,74.382h-25.01c-1.998,0-3.621,1.621-3.621,3.621v4.429h32.252v-4.429 C399.398,76.003,397.775,74.382,395.777,74.382z"/><g fill="#2C393B"><circle cx="383.185" cy="89.625" r="4.553"/><path d="M386.005,101.552c0,0.354-0.286,0.639-0.639,0.639h-4.526c-0.352,0-0.639-0.285-0.639-0.639 l0.187-9.052c0-0.354,0.101-0.187,0.452-0.187h4.526c0.353,0,0.426-0.061,0.426,0.294L386.005,101.552z"/></g><circle fill="#fff" cx="390.631" cy="300.935" r="48.895"/><path fill="none" d="M396.031,290.35l-0.143-7.77c-0.051-2.887-2.413-5.186-5.274-5.133c-2.861,0.05-5.14,2.433-5.087,5.32 l0.146,8.092"/><path fill="#B2C2C8" d="M403.14,293.988l-0.21-11.535c-0.122-6.812-5.693-12.232-12.445-12.111 c-6.748,0.123-12.12,5.742-11.996,12.554l0.111,6.181l7.073,1.783l-0.146-8.092c-0.053-2.888,2.226-5.271,5.087-5.32 c2.861-0.053,5.224,2.246,5.274,5.133l0.143,7.77"/><path fill="#6F7C82" d="M371.479,297.833v22.681c0,4.036,7.198,7.584,19.188,7.639l0.001,0.004 c0.048,0,0.093-0.002,0.139-0.002c0.048,0,0.093,0.002,0.139,0.002l0.001-0.004c11.992-0.055,19.19-3.603,19.19-7.639v-22.681 H371.479z"/><path fill="#505C62" d="M405.798,288.183h-29.979c-2.396,0-4.339,1.943-4.339,4.34v5.311h38.658v-5.311 C410.138,290.126,408.194,288.183,405.798,288.183z"/><g fill="#2C393B"><circle cx="390.702" cy="306.455" r="5.457"/><path d="M394.084,320.752c0,0.424-0.344,0.767-0.765,0.767h-5.426c-0.425,0-0.767-0.343-0.767-0.767 l0.223-10.85c0-0.424,0.119-0.225,0.544-0.225h5.426c0.421,0,0.509-0.071,0.509,0.352L394.084,320.752z"/></g></g></g></svg>